<?xml version="1.0" encoding="UTF-8" standalone="no"?>
<svg xmlns:xlink="http://www.w3.org/1999/xlink" height="449.0px" width="629.0px" xmlns="http://www.w3.org/2000/svg">
  <g transform="matrix(1.0, 0.0, 0.0, 1.0, -1.0, -1.0)">
    <path d="M611.95 52.95 L611.95 1.0 629.95 1.0 629.95 52.95 630.0 52.95 630.0 81.0 628.75 81.0 615.75 81.0 612.0 81.0 612.0 52.95 611.95 52.95 M629.95 201.95 L629.95 203.0 1.0 203.0 1.0 201.95 7.0 201.95 21.0 201.95 34.0 201.95 47.5 201.95 60.5 201.95 75.5 201.95 88.5 201.95 102.5 201.95 115.5 201.95 128.45 201.95 141.45 201.95 156.45 201.95 169.45 201.95 183.45 201.95 196.45 201.95 210.3 201.95 223.3 201.95 238.3 201.95 251.3 201.95 265.3 201.95 278.3 201.95 291.8 201.95 304.8 201.95 319.8 201.95 332.8 201.95 346.8 201.95 359.8 201.95 372.75 201.95 385.75 201.95 400.75 201.95 413.75 201.95 427.75 201.95 440.75 201.95 453.3 201.95 466.3 201.95 481.3 201.95 494.3 201.95 508.3 201.95 521.3 201.95 534.8 201.95 547.8 201.95 562.8 201.95 575.8 201.95 589.8 201.95 602.8 201.95 615.75 201.95 628.75 201.95 629.95 201.95 M1.0 80.0 L1.0 1.0 448.95 1.0 448.95 52.95 449.0 52.95 449.0 80.0 440.75 80.0 427.75 80.0 413.75 80.0 400.75 80.0 385.75 80.0 372.75 80.0 359.8 80.0 346.8 80.0 332.8 80.0 319.8 80.0 304.8 80.0 291.8 80.0 278.3 80.0 265.3 80.0 251.3 80.0 238.3 80.0 223.3 80.0 210.3 80.0 196.45 80.0 183.45 80.0 169.45 80.0 156.45 80.0 141.45 80.0 128.45 80.0 115.5 80.0 102.5 80.0 88.5 80.0 75.5 80.0 60.5 80.0 47.5 80.0 34.0 80.0 21.0 80.0 7.0 80.0 1.0 80.0" fill="#ffc4c4" fill-rule="evenodd" stroke="none"/>
    <path d="M629.95 210.0 L629.95 449.95 381.9 449.95 385.65 443.5 Q387.35 441.0 387.7 438.9 L389.45 433.3 Q395.95 428.6 390.85 420.1 L390.8 419.05 Q390.85 417.3 391.15 415.55 392.4 408.85 388.2 406.2 385.15 397.5 378.65 389.35 378.9 386.95 375.15 385.3 L372.65 382.75 Q373.4 379.75 369.0 377.25 L369.0 377.35 367.75 377.55 367.25 377.75 367.25 377.8 Q360.0 371.65 350.6 365.9 L350.75 365.5 350.7 364.75 Q350.2 361.65 347.0 361.25 L347.0 361.35 345.75 361.55 345.25 361.75 344.6 362.4 Q339.6 359.6 334.1 356.9 334.8 355.9 334.75 354.5 L334.45 353.75 Q332.8 350.25 329.0 350.25 L327.3 350.85 Q325.85 351.45 325.35 352.8 L319.2 350.15 Q318.25 348.55 316.0 348.25 L316.0 348.35 315.15 348.5 311.0 346.9 Q310.05 345.5 308.0 345.25 L308.0 345.35 307.3 345.5 304.3 344.4 304.0 343.9 304.75 342.5 304.7 341.75 Q304.2 338.65 301.0 338.25 L301.0 338.35 299.75 338.55 299.25 338.75 298.0 340.15 Q297.4 341.0 297.3 341.95 287.65 338.7 277.5 335.9 276.75 333.6 274.0 333.25 L274.0 333.35 272.75 333.55 272.25 333.75 271.65 334.35 259.75 331.45 Q258.55 329.2 256.0 328.25 L256.0 328.35 254.75 328.55 254.25 328.75 Q253.6 329.3 253.25 330.0 L247.6 328.85 Q244.25 324.3 237.0 325.25 L237.0 325.35 235.75 325.55 235.25 325.75 234.25 326.4 233.8 326.35 Q231.5 324.4 228.0 324.25 L228.0 324.35 227.1 324.55 Q224.9 320.55 219.0 322.25 L219.0 322.35 217.75 322.55 217.25 322.75 216.55 323.3 216.15 323.75 205.65 322.5 Q205.05 319.65 202.0 319.25 L202.0 319.35 200.75 319.55 200.25 319.75 199.0 321.15 198.65 321.75 197.3 321.65 Q195.95 318.65 192.0 319.25 L192.0 319.35 Q189.05 319.65 187.3 320.75 L182.75 320.45 182.7 319.75 Q182.2 316.65 179.0 316.25 L179.0 316.35 177.75 316.55 177.25 316.75 176.0 318.15 Q175.4 319.0 175.3 319.95 L162.8 319.35 Q161.65 317.65 159.0 316.25 L159.0 316.35 Q156.2 316.45 155.25 319.0 L155.25 319.1 142.9 318.9 Q141.45 316.75 138.0 317.25 L138.0 317.35 136.8 317.55 136.25 317.75 134.75 318.85 Q128.35 318.85 122.1 319.0 122.35 314.5 118.0 312.25 L116.8 312.55 Q115.25 313.05 114.5 314.5 114.1 315.55 114.1 316.75 L114.2 319.2 107.85 319.45 Q107.95 316.35 104.0 314.25 L104.0 314.35 Q100.3 315.4 98.5 319.5 L98.4 319.9 86.7 320.7 Q86.15 317.65 83.0 317.25 L83.0 317.35 81.8 317.55 81.25 317.75 80.0 319.15 Q79.3 320.15 79.3 321.3 L65.95 322.6 Q65.0 321.4 63.0 320.25 L63.0 320.35 61.8 320.55 61.25 320.75 Q60.5 321.35 60.15 322.15 L59.7 323.35 48.0 324.95 Q46.65 322.35 42.0 322.25 41.1 322.4 39.9 323.2 L38.5 324.5 38.3 326.0 38.3 326.45 30.2 327.9 Q28.3 325.35 25.0 324.25 L25.0 324.35 23.8 324.55 23.25 324.75 Q21.9 325.35 21.5 326.7 21.05 328.2 21.3 329.65 L18.4 330.3 Q18.2 327.85 13.0 325.25 L13.0 325.35 11.8 325.55 11.25 325.75 Q9.9 326.35 9.5 327.7 9.1 329.1 9.3 330.55 8.35 329.05 6.0 328.25 L4.8 328.55 Q3.25 329.05 2.5 330.5 2.1 331.55 2.1 332.75 L2.2 334.1 1.0 334.4 1.0 210.0 629.95 210.0 M9.85 332.2 L9.8 331.9 10.05 332.15 9.85 332.2" fill="#f0dfc4" fill-rule="evenodd" stroke="none"/>
    <path d="M629.95 203.0 L629.95 210.0 1.0 210.0 1.0 203.0 629.95 203.0" fill="#d9bea6" fill-rule="evenodd" stroke="none"/>
    <path d="M630.0 81.0 L630.0 201.95 629.95 201.95 628.75 201.95 628.75 81.0 630.0 81.0 M449.0 52.95 L453.3 52.95 453.3 201.95 440.75 201.95 440.75 80.0 449.0 80.0 449.0 52.95 M466.3 52.95 L481.3 52.95 481.3 201.95 466.3 201.95 466.3 52.95 M494.3 52.95 L508.3 52.95 508.3 201.95 494.3 201.95 494.3 52.95 M521.3 52.95 L534.8 52.95 534.8 201.95 521.3 201.95 521.3 52.95 M547.8 52.95 L562.8 52.95 562.8 201.95 547.8 201.95 547.8 52.95 M575.8 52.95 L589.8 52.95 589.8 201.95 575.8 201.95 575.8 52.95 M602.8 52.95 L611.95 52.95 612.0 52.95 612.0 81.0 615.75 81.0 615.75 201.95 602.8 201.95 602.8 52.95 M413.75 80.0 L427.75 80.0 427.75 201.95 413.75 201.95 413.75 80.0 M332.8 80.0 L346.8 80.0 346.8 201.95 332.8 201.95 332.8 80.0 M359.8 80.0 L372.75 80.0 372.75 201.95 359.8 201.95 359.8 80.0 M385.75 80.0 L400.75 80.0 400.75 201.95 385.75 201.95 385.75 80.0 M251.3 80.0 L265.3 80.0 265.3 201.95 251.3 201.95 251.3 80.0 M278.3 80.0 L291.8 80.0 291.8 201.95 278.3 201.95 278.3 80.0 M304.8 80.0 L319.8 80.0 319.8 201.95 304.8 201.95 304.8 80.0 M169.45 80.0 L183.45 80.0 183.45 201.95 169.45 201.95 169.45 80.0 M196.45 80.0 L210.3 80.0 210.3 201.95 196.45 201.95 196.45 80.0 M223.3 80.0 L238.3 80.0 238.3 201.95 223.3 201.95 223.3 80.0 M88.5 80.0 L102.5 80.0 102.5 201.95 88.5 201.95 88.5 80.0 M115.5 80.0 L128.45 80.0 128.45 201.95 115.5 201.95 115.5 80.0 M141.45 80.0 L156.45 80.0 156.45 201.95 141.45 201.95 141.45 80.0 M7.0 80.0 L21.0 80.0 21.0 201.95 7.0 201.95 7.0 80.0 M34.0 80.0 L47.5 80.0 47.5 201.95 34.0 201.95 34.0 80.0 M60.5 80.0 L75.5 80.0 75.5 201.95 60.5 201.95 60.5 80.0" fill="#ffdfdf" fill-rule="evenodd" stroke="none"/>
    <path d="M1.0 201.95 L1.0 80.0 7.0 80.0 7.0 201.95 1.0 201.95 M453.3 52.95 L466.3 52.95 466.3 201.95 453.3 201.95 453.3 52.95 M481.3 52.95 L494.3 52.95 494.3 201.95 481.3 201.95 481.3 52.95 M508.3 52.95 L521.3 52.95 521.3 201.95 508.3 201.95 508.3 52.95 M534.8 52.95 L547.8 52.95 547.8 201.95 534.8 201.95 534.8 52.95 M562.8 52.95 L575.8 52.95 575.8 201.95 562.8 201.95 562.8 52.95 M589.8 52.95 L602.8 52.95 602.8 201.95 589.8 201.95 589.8 52.95 M615.75 81.0 L628.75 81.0 628.75 201.95 615.75 201.95 615.75 81.0 M413.75 80.0 L413.75 201.95 400.75 201.95 400.75 80.0 413.75 80.0 M427.75 201.95 L427.75 80.0 440.75 80.0 440.75 201.95 427.75 201.95 M332.8 80.0 L332.8 201.95 319.8 201.95 319.8 80.0 332.8 80.0 M346.8 201.95 L346.8 80.0 359.8 80.0 359.8 201.95 346.8 201.95 M372.75 80.0 L385.75 80.0 385.75 201.95 372.75 201.95 372.75 80.0 M251.3 80.0 L251.3 201.95 238.3 201.95 238.3 80.0 251.3 80.0 M265.3 201.95 L265.3 80.0 278.3 80.0 278.3 201.95 265.3 201.95 M291.8 80.0 L304.8 80.0 304.8 201.95 291.8 201.95 291.8 80.0 M169.45 80.0 L169.45 201.95 156.45 201.95 156.45 80.0 169.45 80.0 M183.45 201.95 L183.45 80.0 196.45 80.0 196.45 201.95 183.45 201.95 M210.3 80.0 L223.3 80.0 223.3 201.95 210.3 201.95 210.3 80.0 M88.5 80.0 L88.5 201.95 75.5 201.95 75.5 80.0 88.5 80.0 M102.5 201.95 L102.5 80.0 115.5 80.0 115.5 201.95 102.5 201.95 M128.45 80.0 L141.45 80.0 141.45 201.95 128.45 201.95 128.45 80.0 M21.0 201.95 L21.0 80.0 34.0 80.0 34.0 201.95 21.0 201.95 M47.5 80.0 L60.5 80.0 60.5 201.95 47.5 201.95 47.5 80.0" fill="#ffffff" fill-rule="evenodd" stroke="none"/>
    <path d="M381.9 449.95 L381.85 450.0 330.6 450.0 330.7 449.95 Q348.1 437.2 349.8 422.15 L350.75 420.5 350.7 419.75 Q350.5 418.6 349.95 417.85 L349.65 414.4 350.0 414.25 350.5 412.75 350.7 412.2 Q351.85 411.45 352.75 409.5 L352.7 408.75 Q352.15 405.65 349.0 405.25 L349.0 405.35 347.9 405.55 347.75 405.25 347.75 404.5 Q347.7 402.1 346.1 401.05 L346.0 400.75 345.3 399.85 Q342.35 393.2 336.0 391.25 L335.25 391.45 Q335.8 390.6 335.75 389.5 L335.45 388.75 Q333.45 384.75 329.0 385.25 L329.0 385.35 327.75 385.55 327.55 385.65 323.5 383.05 323.75 382.5 323.7 381.75 Q323.2 378.65 320.0 378.25 L320.0 378.35 318.75 378.55 318.25 378.75 317.4 379.6 314.9 378.3 Q313.2 374.8 309.0 374.25 L309.0 374.35 307.75 374.55 307.35 374.7 300.75 371.9 300.7 371.75 Q299.95 368.05 296.0 368.25 294.35 368.45 293.25 369.0 L288.45 367.3 280.4 364.65 Q279.55 362.55 277.0 362.25 L277.0 362.35 275.75 362.55 275.25 362.75 275.0 363.0 264.55 360.05 Q263.8 357.6 261.0 357.25 L261.0 357.35 259.75 357.55 259.25 357.75 258.5 358.55 254.65 357.6 Q253.55 353.55 249.0 354.25 L247.75 354.4 Q245.4 354.6 243.75 355.25 L228.7 352.55 Q227.75 351.45 226.0 351.25 L226.0 351.35 224.75 351.55 224.25 351.75 224.2 351.8 220.75 351.3 220.7 350.75 Q220.2 347.65 217.0 347.25 L217.0 347.35 215.75 347.55 215.25 347.75 214.0 349.15 Q213.6 349.7 213.45 350.3 L211.05 350.0 Q209.85 348.1 207.0 348.25 L207.0 348.35 206.05 348.55 Q201.75 345.55 196.0 347.25 L196.0 347.35 195.8 347.4 195.0 347.25 195.0 347.35 193.75 347.55 193.25 347.75 192.85 348.1 177.55 347.0 Q176.8 344.6 174.0 344.25 L174.0 344.35 172.8 344.55 172.25 344.75 171.0 346.15 170.7 346.65 163.75 346.35 163.7 345.75 Q163.2 342.65 160.0 342.25 L160.0 342.35 158.8 342.55 158.25 342.75 158.05 342.95 Q157.2 342.4 156.0 342.25 L156.0 342.35 154.8 342.55 154.25 342.75 153.0 344.15 Q152.35 345.05 152.3 346.05 L140.05 345.95 Q139.1 344.5 137.0 344.25 L137.0 344.35 135.8 344.55 135.25 344.75 134.15 346.0 132.15 346.0 Q131.25 345.4 130.0 345.25 L130.0 345.35 128.8 345.55 128.25 345.75 127.9 346.05 104.75 346.9 104.7 346.75 Q103.65 342.55 99.0 343.25 L99.0 343.35 97.8 343.55 97.25 343.75 Q95.55 344.6 95.3 346.5 L95.25 347.5 94.75 347.55 Q93.8 346.45 92.0 346.25 L92.0 346.35 90.8 346.55 90.25 346.75 89.15 348.0 85.6 348.3 Q84.95 345.6 82.0 345.25 L82.0 345.35 80.8 345.55 80.25 345.75 Q79.5 346.35 79.0 347.15 78.4 348.0 78.3 349.0 L74.65 349.4 74.0 349.25 74.0 349.35 72.8 349.55 72.6 349.6 65.35 350.5 Q64.5 348.55 62.0 348.25 L62.0 348.35 60.8 348.55 60.25 348.75 59.0 350.15 Q58.55 350.75 58.4 351.45 L51.7 352.5 Q50.7 351.45 49.0 351.25 L49.0 351.35 47.8 351.55 47.25 351.75 46.0 353.15 45.85 353.45 33.05 355.9 Q32.1 354.5 30.0 354.25 L30.0 354.35 Q26.55 354.55 24.5 357.5 L24.4 357.85 15.05 360.15 Q14.05 358.9 12.0 358.25 L10.8 358.55 Q9.25 359.05 8.5 360.5 8.2 361.25 8.15 362.05 L6.85 362.45 6.0 362.25 6.0 362.35 4.8 362.55 4.25 362.75 3.6 363.4 1.0 364.2 1.0 334.4 2.2 334.1 2.1 332.75 Q2.1 331.55 2.5 330.5 3.25 329.05 4.8 328.55 L6.0 328.25 Q8.35 329.05 9.3 330.55 9.1 329.1 9.5 327.7 9.9 326.35 11.25 325.75 L11.8 325.55 13.0 325.35 13.0 325.25 Q18.2 327.85 18.4 330.3 L21.3 329.65 Q21.05 328.2 21.5 326.7 21.9 325.35 23.25 324.75 L23.8 324.55 25.0 324.35 25.0 324.25 Q28.3 325.35 30.2 327.9 L38.3 326.45 38.3 326.0 38.5 324.5 39.9 323.2 Q41.1 322.4 42.0 322.25 46.65 322.35 48.0 324.95 L59.7 323.35 60.15 322.15 Q60.5 321.35 61.25 320.75 L61.8 320.55 63.0 320.35 63.0 320.25 Q65.0 321.4 65.95 322.6 L79.3 321.3 Q79.3 320.15 80.0 319.15 L81.25 317.75 81.8 317.55 83.0 317.35 83.0 317.25 Q86.15 317.65 86.7 320.7 L98.4 319.9 98.5 319.5 Q100.3 315.4 104.0 314.35 L104.0 314.25 Q107.95 316.35 107.85 319.45 L114.2 319.2 114.1 316.75 Q114.1 315.55 114.5 314.5 115.25 313.05 116.8 312.55 L118.0 312.25 Q122.35 314.5 122.1 319.0 128.35 318.85 134.75 318.85 L136.25 317.75 136.8 317.55 138.0 317.35 138.0 317.25 Q141.45 316.75 142.9 318.9 L155.25 319.1 155.25 319.0 Q156.2 316.45 159.0 316.35 L159.0 316.25 Q161.65 317.65 162.8 319.35 L175.3 319.95 Q175.4 319.0 176.0 318.15 L177.25 316.75 177.75 316.55 179.0 316.35 179.0 316.25 Q182.2 316.65 182.7 319.75 L182.75 320.45 187.3 320.75 Q189.05 319.65 192.0 319.35 L192.0 319.25 Q195.95 318.65 197.3 321.65 L198.65 321.75 199.0 321.15 200.25 319.75 200.75 319.55 202.0 319.35 202.0 319.25 Q205.05 319.65 205.65 322.5 L216.15 323.75 216.55 323.3 217.25 322.75 217.75 322.55 219.0 322.35 219.0 322.25 Q224.9 320.55 227.1 324.55 L228.0 324.35 228.0 324.25 Q231.5 324.4 233.8 326.35 L234.25 326.4 235.25 325.75 235.75 325.55 237.0 325.35 237.0 325.25 Q244.25 324.3 247.6 328.85 L253.25 330.0 Q253.6 329.3 254.25 328.75 L254.75 328.55 256.0 328.35 256.0 328.25 Q258.55 329.2 259.75 331.45 L271.65 334.35 272.25 333.75 272.75 333.55 274.0 333.35 274.0 333.25 Q276.75 333.6 277.5 335.9 287.65 338.7 297.3 341.95 297.4 341.0 298.0 340.15 L299.25 338.75 299.75 338.55 301.0 338.35 301.0 338.25 Q304.2 338.65 304.7 341.75 L304.75 342.5 304.0 343.9 304.3 344.4 307.3 345.5 308.0 345.35 308.0 345.25 Q310.05 345.5 311.0 346.9 L315.15 348.5 316.0 348.35 316.0 348.25 Q318.25 348.55 319.2 350.15 L325.35 352.8 Q325.85 351.45 327.3 350.85 L329.0 350.25 Q332.8 350.25 334.45 353.75 L334.75 354.5 Q334.8 355.9 334.1 356.9 339.6 359.6 344.6 362.4 L345.25 361.75 345.75 361.55 347.0 361.35 347.0 361.25 Q350.2 361.65 350.7 364.75 L350.75 365.5 350.6 365.9 Q360.0 371.65 367.25 377.8 L367.25 377.75 367.75 377.55 369.0 377.35 369.0 377.25 Q373.4 379.75 372.65 382.75 L375.15 385.3 Q378.9 386.95 378.65 389.35 385.15 397.5 388.2 406.2 392.4 408.85 391.15 415.55 390.85 417.3 390.8 419.05 L390.85 420.1 Q395.95 428.6 389.45 433.3 L387.7 438.9 Q387.35 441.0 385.65 443.5 L381.9 449.95 M222.05 450.0 L55.95 450.0 55.75 449.95 47.8 447.55 Q10.05 435.25 10.05 417.85 10.05 410.25 17.25 403.65 17.2 400.6 18.35 397.65 18.9 396.35 20.25 395.75 L20.8 395.55 22.0 395.35 22.0 395.25 Q25.05 395.1 26.2 397.3 L27.25 396.7 27.25 395.0 Q28.2 392.45 31.0 392.35 L31.0 392.25 32.85 393.9 40.15 390.85 Q40.25 390.15 40.5 389.5 41.25 388.05 42.8 387.55 L44.0 387.25 46.1 388.75 47.8 388.15 Q52.05 386.75 56.5 385.55 L56.5 385.5 Q57.25 384.05 58.8 383.55 L60.0 383.25 Q60.85 383.7 61.55 384.25 L67.5 382.8 Q68.25 381.15 70.15 380.1 72.7 378.7 74.25 381.25 78.7 380.4 82.55 377.25 L83.25 376.75 83.8 376.55 85.0 376.35 85.0 376.25 Q89.45 375.5 91.75 378.65 L103.35 377.4 Q104.6 375.4 107.75 374.45 L112.0 373.25 Q116.1 373.0 118.6 376.35 L131.4 375.95 133.0 375.75 Q136.95 372.6 139.5 375.85 149.75 375.85 159.5 376.35 L159.55 376.25 160.25 375.75 160.8 375.55 162.0 375.35 162.0 375.25 Q163.8 375.45 165.05 376.65 L177.15 377.6 Q179.55 375.3 182.75 376.75 L184.2 377.55 185.65 378.55 Q195.55 379.8 204.75 381.6 L205.0 381.15 Q205.5 380.35 206.25 379.75 L206.75 379.55 208.0 379.35 208.0 379.25 Q211.95 379.05 212.7 382.75 L212.75 383.35 216.1 384.15 Q217.25 382.05 219.85 380.65 L221.0 380.25 Q226.1 381.95 224.15 386.3 L230.15 388.15 236.95 390.5 238.0 390.25 Q239.25 390.9 240.15 391.75 L247.0 394.75 Q247.7 393.9 248.8 393.55 L250.0 393.25 Q253.9 395.25 254.0 398.6 L254.75 399.05 255.8 398.55 257.0 398.25 Q260.1 400.45 260.9 403.8 L262.55 405.4 263.0 405.35 263.0 405.25 Q267.15 408.4 266.9 412.15 267.95 414.95 267.95 417.85 267.95 435.25 230.15 447.55 L222.25 449.95 222.05 450.0 M362.35 385.45 L361.75 385.65 Q361.0 385.9 360.6 386.6 L360.4 387.7 360.6 392.2 Q362.15 394.0 363.85 392.45 L364.0 392.1 Q365.45 387.7 362.35 385.45 M9.85 332.2 L10.05 332.15 9.8 331.9 9.85 332.2 M21.25 337.1 Q21.05 337.65 21.2 338.25 22.05 342.0 21.25 345.75 25.05 347.9 25.75 343.4 26.55 338.35 23.0 336.0 L22.4 336.15 Q21.6 336.4 21.25 337.1 M112.75 331.1 Q114.6 327.6 111.45 326.0 L111.45 326.05 Q110.05 326.1 109.6 327.35 L109.4 328.4 Q108.25 330.95 108.7 333.75 109.4 334.6 110.45 334.75 112.7 334.05 112.45 331.5 L112.75 331.1 M116.2 332.1 L115.9 333.2 Q115.5 335.45 115.7 337.75 117.25 339.5 118.95 338.0 L119.1 337.65 Q121.25 333.3 117.95 331.0 L117.35 331.15 Q116.6 331.4 116.2 332.1 M93.45 391.95 L93.45 392.05 92.85 392.15 92.6 392.2 Q92.2 392.55 92.15 392.9 91.15 396.85 92.2 400.7 96.2 402.9 95.6 398.25 L95.6 397.5 Q96.25 393.65 93.45 391.95 M194.95 336.0 L194.95 336.05 Q193.55 336.1 193.05 337.35 L193.05 338.5 Q192.95 340.4 193.2 342.25 193.85 343.1 194.95 343.25 L195.6 342.8 Q198.6 338.8 194.95 336.0 M181.95 328.55 L181.3 328.65 181.05 328.75 Q180.7 329.05 180.6 329.45 179.5 333.4 180.7 337.25 183.45 339.45 183.9 336.2 L184.2 334.05 Q184.75 330.15 181.95 328.5 L181.95 328.55 M214.95 336.0 L215.4 334.5 215.6 332.55 211.45 332.45 Q211.75 334.05 211.7 335.75 213.25 337.5 214.95 336.0 M205.95 330.0 L205.95 330.05 Q204.5 330.1 204.05 331.35 L204.05 332.5 Q203.95 334.4 204.2 336.25 204.85 337.1 205.95 337.25 L206.6 336.85 Q209.55 332.8 205.95 330.0 M269.8 349.15 L269.55 349.25 Q269.15 349.55 269.05 349.95 268.25 352.25 268.65 354.75 270.4 356.6 271.5 354.6 273.55 350.95 270.4 349.0 L270.4 349.05 269.8 349.15 M359.0 418.85 L358.9 419.95 Q358.4 422.55 358.6 425.2 359.3 426.1 360.35 426.2 L361.6 425.4 362.65 423.85 Q364.05 419.6 360.85 417.45 L360.85 417.5 Q359.45 417.55 359.0 418.85 M370.35 397.45 L369.75 397.65 Q369.0 397.85 368.6 398.6 L368.4 399.7 368.6 402.7 Q370.15 404.5 371.85 402.95 L372.0 402.6 Q373.3 399.0 370.35 397.45 M60.5 419.45 L60.45 419.55 59.85 419.65 59.6 419.7 59.05 420.4 Q58.55 421.45 58.5 422.6 58.15 422.95 57.95 423.4 57.4 424.25 57.75 425.2 59.45 427.05 61.05 425.25 64.15 421.75 60.5 419.45 M154.45 408.95 L154.45 409.05 Q153.05 409.05 152.55 410.35 L152.55 411.45 152.7 421.2 Q153.35 422.1 154.45 422.2 156.05 422.0 156.15 420.45 156.3 418.0 156.7 415.65 157.35 411.15 154.45 408.95 M145.95 405.95 L145.95 406.05 Q144.55 406.05 144.1 407.35 L144.1 408.5 Q144.8 412.55 144.2 416.7 144.9 417.6 145.95 417.7 147.65 417.35 148.05 415.6 L148.8 411.55 Q149.35 407.15 145.95 405.95 M188.75 399.35 L188.75 399.25 186.5 397.7 Q186.2 396.8 186.3 395.95 L185.05 397.35 185.05 397.7 185.05 398.1 184.35 398.85 Q182.95 400.35 183.2 402.2 186.2 404.1 188.45 400.45 L188.75 399.35 M205.7 431.6 L205.4 432.7 Q205.15 434.95 205.2 437.2 207.05 439.15 208.35 436.85 210.7 432.8 207.45 430.45 L206.8 430.6 Q206.05 430.85 205.7 431.6 M203.0 409.35 L204.9 405.95 Q206.65 401.95 203.45 399.95 L203.45 400.05 Q202.05 400.05 201.55 401.35 L201.5 402.1 Q201.15 404.35 200.45 406.6 L199.9 407.4 Q199.35 408.3 199.7 409.2 200.1 409.6 200.6 409.85 202.05 410.65 203.0 409.35 M224.4 411.45 L224.4 411.55 223.8 411.65 223.55 411.7 223.05 412.4 Q222.0 415.5 222.15 418.7 224.2 420.75 225.4 418.35 227.65 413.9 224.4 411.45" fill="#eba9a9" fill-rule="evenodd" stroke="none"/>
    <path d="M330.6 450.0 L222.05 450.0 222.25 449.95 230.15 447.55 Q267.95 435.25 267.95 417.85 267.95 414.95 266.9 412.15 267.15 408.4 263.0 405.25 L263.0 405.35 262.55 405.4 260.9 403.8 Q260.1 400.45 257.0 398.25 L255.8 398.55 254.75 399.05 254.0 398.6 Q253.9 395.25 250.0 393.25 L248.8 393.55 Q247.7 393.9 247.0 394.75 L240.15 391.75 Q239.25 390.9 238.0 390.25 L236.95 390.5 230.15 388.15 224.15 386.3 Q226.1 381.95 221.0 380.25 L219.85 380.65 Q217.25 382.05 216.1 384.15 L212.75 383.35 212.7 382.75 Q211.95 379.05 208.0 379.25 L208.0 379.35 206.75 379.55 206.25 379.75 Q205.5 380.35 205.0 381.15 L204.75 381.6 Q195.55 379.8 185.65 378.55 L184.2 377.55 182.75 376.75 Q179.55 375.3 177.15 377.6 L165.05 376.65 Q163.8 375.45 162.0 375.25 L162.0 375.35 160.8 375.55 160.25 375.75 159.55 376.25 159.5 376.35 Q149.75 375.85 139.5 375.85 136.95 372.6 133.0 375.75 L131.4 375.95 118.6 376.35 Q116.1 373.0 112.0 373.25 L107.75 374.45 Q104.6 375.4 103.35 377.4 L91.75 378.65 Q89.45 375.5 85.0 376.25 L85.0 376.35 83.8 376.55 83.25 376.75 82.55 377.25 Q78.7 380.4 74.25 381.25 72.7 378.7 70.15 380.1 68.25 381.15 67.5 382.8 L61.55 384.25 Q60.85 383.7 60.0 383.25 L58.8 383.55 Q57.25 384.05 56.5 385.5 L56.5 385.55 Q52.05 386.75 47.8 388.15 L46.1 388.75 44.0 387.25 42.8 387.55 Q41.25 388.05 40.5 389.5 40.25 390.15 40.15 390.85 L32.85 393.9 31.0 392.25 31.0 392.35 Q28.2 392.45 27.25 395.0 L27.25 396.7 26.2 397.3 Q25.05 395.1 22.0 395.25 L22.0 395.35 20.8 395.55 20.25 395.75 Q18.9 396.35 18.35 397.65 17.2 400.6 17.25 403.65 10.05 410.25 10.05 417.85 10.05 435.25 47.8 447.55 L55.75 449.95 55.95 450.0 1.0 450.0 1.0 364.2 3.6 363.4 4.25 362.75 4.8 362.55 6.0 362.35 6.0 362.25 6.85 362.45 8.15 362.05 Q8.2 361.25 8.5 360.5 9.25 359.05 10.8 358.55 L12.0 358.25 Q14.05 358.9 15.05 360.15 L24.4 357.85 24.5 357.5 Q26.55 354.55 30.0 354.35 L30.0 354.25 Q32.1 354.5 33.05 355.9 L45.85 353.45 46.0 353.15 47.25 351.75 47.8 351.55 49.0 351.35 49.0 351.25 Q50.7 351.45 51.7 352.5 L58.4 351.45 Q58.55 350.75 59.0 350.15 L60.25 348.75 60.8 348.55 62.0 348.35 62.0 348.25 Q64.5 348.55 65.35 350.5 L72.6 349.6 72.8 349.55 74.0 349.35 74.0 349.25 74.65 349.4 78.3 349.0 Q78.4 348.0 79.0 347.15 79.5 346.35 80.25 345.75 L80.8 345.55 82.0 345.35 82.0 345.25 Q84.95 345.6 85.6 348.3 L89.15 348.0 90.25 346.75 90.8 346.55 92.0 346.35 92.0 346.25 Q93.8 346.45 94.75 347.55 L95.25 347.5 95.3 346.5 Q95.55 344.6 97.25 343.75 L97.8 343.55 99.0 343.35 99.0 343.25 Q103.65 342.55 104.7 346.75 L104.75 346.9 127.9 346.05 128.25 345.75 128.8 345.55 130.0 345.35 130.0 345.25 Q131.25 345.4 132.15 346.0 L134.15 346.0 135.25 344.75 135.8 344.55 137.0 344.35 137.0 344.25 Q139.1 344.5 140.05 345.95 L152.3 346.05 Q152.35 345.05 153.0 344.15 L154.25 342.75 154.8 342.55 156.0 342.35 156.0 342.25 Q157.2 342.4 158.05 342.95 L158.25 342.75 158.8 342.55 160.0 342.35 160.0 342.25 Q163.2 342.65 163.7 345.75 L163.75 346.35 170.7 346.65 171.0 346.15 172.25 344.75 172.8 344.55 174.0 344.35 174.0 344.25 Q176.8 344.6 177.55 347.0 L192.85 348.1 193.25 347.75 193.75 347.55 195.0 347.35 195.0 347.25 195.8 347.4 196.0 347.35 196.0 347.25 Q201.75 345.55 206.05 348.55 L207.0 348.35 207.0 348.25 Q209.85 348.1 211.05 350.0 L213.45 350.3 Q213.6 349.7 214.0 349.15 L215.25 347.75 215.75 347.55 217.0 347.35 217.0 347.25 Q220.2 347.65 220.7 350.75 L220.75 351.3 224.2 351.8 224.25 351.75 224.75 351.55 226.0 351.35 226.0 351.25 Q227.75 351.45 228.7 352.55 L243.75 355.25 Q245.4 354.6 247.75 354.4 L249.0 354.25 Q253.55 353.55 254.65 357.6 L258.5 358.55 259.25 357.75 259.75 357.55 261.0 357.35 261.0 357.25 Q263.8 357.6 264.55 360.05 L275.0 363.0 275.25 362.75 275.75 362.55 277.0 362.35 277.0 362.25 Q279.55 362.55 280.4 364.65 L288.45 367.3 293.25 369.0 Q294.35 368.45 296.0 368.25 299.95 368.05 300.7 371.75 L300.75 371.9 307.35 374.7 307.75 374.55 309.0 374.35 309.0 374.25 Q313.2 374.8 314.9 378.3 L317.4 379.6 318.25 378.75 318.75 378.55 320.0 378.35 320.0 378.25 Q323.2 378.65 323.7 381.75 L323.75 382.5 323.5 383.05 327.55 385.65 327.75 385.55 329.0 385.35 329.0 385.25 Q333.45 384.75 335.45 388.75 L335.75 389.5 Q335.8 390.6 335.25 391.45 L336.0 391.25 Q342.35 393.2 345.3 399.85 L346.0 400.75 346.1 401.05 Q347.7 402.1 347.75 404.5 L347.75 405.25 347.9 405.55 349.0 405.35 349.0 405.25 Q352.15 405.65 352.7 408.75 L352.75 409.5 Q351.85 411.45 350.7 412.2 L350.5 412.75 350.0 414.25 349.65 414.4 349.95 417.85 Q350.5 418.6 350.7 419.75 L350.75 420.5 349.8 422.15 Q348.1 437.2 330.7 449.95 L330.6 450.0 M29.35 367.75 Q29.1 366.2 27.5 366.0 L26.95 366.2 Q23.45 369.25 24.75 374.25 26.3 376.0 28.0 374.5 L28.15 373.35 Q27.9 370.45 29.35 368.1 L29.35 367.75 M33.5 371.0 L33.5 371.05 Q32.1 371.1 31.6 372.35 L31.5 373.45 Q30.7 376.8 30.75 380.25 31.4 381.1 32.5 381.2 34.1 381.0 34.5 379.5 L35.2 377.35 Q36.75 373.1 33.5 371.0 M120.6 355.35 L120.55 356.5 Q120.45 360.7 121.2 364.75 121.9 365.6 122.95 365.75 125.4 364.9 124.85 362.1 124.6 361.0 124.75 359.9 125.3 355.8 122.45 354.0 L122.45 354.05 Q121.05 354.1 120.6 355.35 M126.95 358.0 L126.35 358.15 Q125.6 358.4 125.2 359.1 L125.15 359.85 125.2 360.6 125.45 360.95 126.1 361.75 126.25 362.9 Q126.65 364.5 126.7 366.25 128.25 368.0 129.95 366.5 L130.05 366.1 Q131.65 360.25 126.95 358.0 M226.9 362.5 L226.3 362.65 Q225.55 362.9 225.15 363.6 L224.95 364.75 225.15 370.75 Q226.75 372.5 228.4 371.0 L229.15 368.4 Q229.75 364.3 226.9 362.5 M311.4 393.95 L311.4 394.05 310.75 394.15 310.5 394.2 310.0 394.95 Q309.3 396.55 310.15 398.2 L310.55 398.55 311.65 398.7 Q315.95 396.55 311.4 393.95 M298.9 387.45 L298.3 387.65 Q297.5 387.9 297.15 388.6 L296.95 389.7 297.65 397.2 Q299.2 399.0 300.9 397.45 301.5 395.45 301.45 393.35 301.4 389.4 298.9 387.45 M289.5 381.85 L289.5 382.95 Q289.3 386.45 288.65 389.7 L289.6 390.35 Q291.0 391.15 291.85 389.85 292.9 388.25 293.3 386.35 294.25 382.3 291.4 380.5 L291.4 380.55 Q290.0 380.6 289.5 381.85 M302.5 422.85 Q302.45 423.4 302.65 423.95 303.1 425.0 303.15 426.2 L303.55 426.5 304.9 427.2 305.6 426.8 Q308.45 423.4 304.4 421.45 L304.4 421.5 Q303.0 421.55 302.5 422.85 M291.9 411.95 L291.9 412.05 Q290.5 412.05 290.0 413.35 L289.85 414.4 Q288.35 418.5 288.15 422.7 288.85 423.6 289.9 423.7 292.5 422.7 292.25 419.7 L293.25 418.25 Q295.1 414.05 291.9 411.95" fill="#ebdaa9" fill-rule="evenodd" stroke="none"/>
    <path d="M33.5 371.0 Q36.75 373.1 35.2 377.35 L34.5 379.5 Q34.1 381.0 32.5 381.2 31.4 381.1 30.75 380.25 30.7 376.8 31.5 373.45 L31.6 372.35 Q32.1 371.1 33.5 371.05 L33.5 371.0 M29.35 367.75 L29.35 368.1 Q27.9 370.45 28.15 373.35 L28.0 374.5 Q26.3 376.0 24.75 374.25 23.45 369.25 26.95 366.2 L27.5 366.0 Q29.1 366.2 29.35 367.75 M120.6 355.35 Q121.05 354.1 122.45 354.05 L122.45 354.0 Q125.3 355.8 124.75 359.9 124.6 361.0 124.85 362.1 125.4 364.9 122.95 365.75 121.9 365.6 121.2 364.75 120.45 360.7 120.55 356.5 L120.6 355.35 M126.95 358.0 Q131.65 360.25 130.05 366.1 L129.95 366.5 Q128.25 368.0 126.7 366.25 126.65 364.5 126.25 362.9 L126.1 361.75 125.45 360.95 125.2 360.6 125.15 359.85 125.2 359.1 Q125.6 358.4 126.35 358.15 L126.95 358.0 M226.9 362.5 Q229.75 364.3 229.15 368.4 L228.4 371.0 Q226.75 372.5 225.15 370.75 L224.95 364.75 225.15 363.6 Q225.55 362.9 226.3 362.65 L226.9 362.5 M289.5 381.85 Q290.0 380.6 291.4 380.55 L291.4 380.5 Q294.25 382.3 293.3 386.35 292.9 388.25 291.85 389.85 291.0 391.15 289.6 390.35 L288.65 389.7 Q289.3 386.45 289.5 382.95 L289.5 381.85 M298.9 387.45 Q301.4 389.4 301.45 393.35 301.5 395.45 300.9 397.45 299.2 399.0 297.65 397.2 L296.95 389.7 297.15 388.6 Q297.5 387.9 298.3 387.65 L298.9 387.45 M311.4 393.95 Q315.95 396.55 311.65 398.7 L310.55 398.55 310.15 398.2 Q309.3 396.55 310.0 394.95 L310.5 394.2 310.75 394.15 311.4 394.05 311.4 393.95 M291.9 411.95 Q295.1 414.05 293.25 418.25 L292.25 419.7 Q292.5 422.7 289.9 423.7 288.85 423.6 288.15 422.7 288.35 418.5 289.85 414.4 L290.0 413.35 Q290.5 412.05 291.9 412.05 L291.9 411.95 M302.5 422.85 Q303.0 421.55 304.4 421.5 L304.4 421.45 Q308.45 423.4 305.6 426.8 L304.9 427.2 303.55 426.5 303.15 426.2 Q303.1 425.0 302.65 423.95 302.45 423.4 302.5 422.85" fill="#e4ce8f" fill-rule="evenodd" stroke="none"/>
    <path d="M362.35 385.45 Q365.45 387.7 364.0 392.1 L363.85 392.45 Q362.15 394.0 360.6 392.2 L360.4 387.7 360.6 386.6 Q361.0 385.9 361.75 385.65 L362.35 385.45 M21.25 337.1 Q21.6 336.4 22.4 336.15 L23.0 336.0 Q26.55 338.35 25.75 343.4 25.05 347.9 21.25 345.75 22.05 342.0 21.2 338.25 21.05 337.65 21.25 337.1 M116.2 332.1 Q116.6 331.4 117.35 331.15 L117.95 331.0 Q121.25 333.3 119.1 337.65 L118.95 338.0 Q117.25 339.5 115.7 337.75 115.5 335.45 115.9 333.2 L116.2 332.1 M112.75 331.1 L112.45 331.5 Q112.7 334.05 110.45 334.75 109.4 334.6 108.7 333.75 108.25 330.95 109.4 328.4 L109.6 327.35 Q110.05 326.1 111.45 326.05 L111.45 326.0 Q114.6 327.6 112.75 331.1 M93.45 391.95 Q96.25 393.65 95.6 397.5 L95.6 398.25 Q96.2 402.9 92.2 400.7 91.15 396.85 92.15 392.9 92.2 392.55 92.6 392.2 L92.85 392.15 93.45 392.05 93.45 391.95 M205.95 330.0 Q209.55 332.8 206.6 336.85 L205.95 337.25 Q204.85 337.1 204.2 336.25 203.95 334.4 204.05 332.5 L204.05 331.35 Q204.5 330.1 205.95 330.05 L205.95 330.0 M214.95 336.0 Q213.25 337.5 211.7 335.75 211.75 334.05 211.45 332.45 L215.6 332.55 215.4 334.5 214.95 336.0 M181.95 328.55 L181.95 328.5 Q184.75 330.15 184.2 334.05 L183.9 336.2 Q183.45 339.45 180.7 337.25 179.5 333.4 180.6 329.45 180.7 329.05 181.05 328.75 L181.3 328.65 181.95 328.55 M194.95 336.0 Q198.6 338.8 195.6 342.8 L194.95 343.25 Q193.85 343.1 193.2 342.25 192.95 340.4 193.05 338.5 L193.05 337.35 Q193.55 336.1 194.95 336.05 L194.95 336.0 M269.8 349.15 L270.4 349.05 270.4 349.0 Q273.55 350.95 271.5 354.6 270.4 356.6 268.65 354.75 268.25 352.25 269.05 349.95 269.15 349.55 269.55 349.25 L269.8 349.15 M224.4 411.45 Q227.65 413.9 225.4 418.35 224.2 420.75 222.15 418.7 222.0 415.5 223.05 412.4 L223.55 411.7 223.8 411.65 224.4 411.55 224.4 411.45 M203.0 409.35 Q202.05 410.65 200.6 409.85 200.1 409.6 199.7 409.2 199.35 408.3 199.9 407.4 L200.45 406.6 Q201.15 404.35 201.5 402.1 L201.55 401.35 Q202.05 400.05 203.45 400.05 L203.45 399.95 Q206.65 401.95 204.9 405.95 L203.0 409.35 M205.7 431.6 Q206.05 430.85 206.8 430.6 L207.45 430.45 Q210.7 432.8 208.35 436.85 207.05 439.15 205.2 437.2 205.15 434.95 205.4 432.7 L205.7 431.6 M188.75 399.35 L188.45 400.45 Q186.2 404.1 183.2 402.2 182.95 400.35 184.35 398.85 L185.05 398.1 185.05 397.7 185.05 397.35 186.3 395.95 Q186.2 396.8 186.5 397.7 L188.75 399.25 188.75 399.35 M145.95 405.95 Q149.35 407.15 148.8 411.55 L148.05 415.6 Q147.65 417.35 145.95 417.7 144.9 417.6 144.2 416.7 144.8 412.55 144.1 408.5 L144.1 407.35 Q144.55 406.05 145.95 406.05 L145.95 405.95 M154.45 408.95 Q157.35 411.15 156.7 415.65 156.3 418.0 156.15 420.45 156.05 422.0 154.45 422.2 153.35 422.1 152.7 421.2 L152.55 411.45 152.55 410.35 Q153.05 409.05 154.45 409.05 L154.45 408.95 M60.5 419.45 Q64.15 421.75 61.05 425.25 59.45 427.05 57.75 425.2 57.4 424.25 57.95 423.4 58.15 422.95 58.5 422.6 58.55 421.45 59.05 420.4 L59.6 419.7 59.85 419.65 60.45 419.55 60.5 419.45 M370.35 397.45 Q373.3 399.0 372.0 402.6 L371.85 402.95 Q370.15 404.5 368.6 402.7 L368.4 399.7 368.6 398.6 Q369.0 397.85 369.75 397.65 L370.35 397.45 M359.0 418.85 Q359.45 417.55 360.85 417.5 L360.85 417.45 Q364.05 419.6 362.65 423.85 L361.6 425.4 360.35 426.2 Q359.3 426.1 358.6 425.2 358.4 422.55 358.9 419.95 L359.0 418.85" fill="#e79898" fill-rule="evenodd" stroke="none"/>
  </g>
</svg>
