<?xml version="1.0" encoding="UTF-8" standalone="no"?>
<svg xmlns:xlink="http://www.w3.org/1999/xlink" height="140.45px" width="101.65px" xmlns="http://www.w3.org/2000/svg">
  <g transform="matrix(1.0, 0.0, 0.0, 1.0, 50.85, 70.2)">
    <path d="M-25.4 12.65 Q-28.05 11.05 -30.15 9.0 -40.25 -0.65 -42.45 -12.15 -44.7 -23.7 -33.5 -36.6 -29.15 -41.7 -23.75 -44.45 -28.9 -47.0 -30.35 -53.85 -32.6 -64.4 -24.1 -67.5 -15.3 -70.65 -10.6 -63.35 -5.15 -54.85 -10.6 -47.75 L-4.75 -47.5 Q12.8 -45.55 23.5 -36.55 L25.2 -35.05 25.45 -35.75 Q28.95 -44.8 38.8 -43.8 49.15 -42.7 49.05 -32.05 48.95 -25.0 41.3 -23.2 35.95 -21.95 32.8 -24.5 34.85 -19.85 35.35 -14.45 36.45 -1.35 28.5 8.45 22.65 15.7 10.05 17.7 L10.55 20.45 Q11.55 30.5 16.4 36.7 19.2 40.35 19.9 43.7 21.9 53.75 13.5 50.25 7.85 47.95 5.6 42.15 L5.1 40.6 5.05 40.55 4.45 37.9 4.35 37.35 3.7 37.45 2.3 39.55 2.7 39.95 3.1 40.6 3.2 40.75 3.35 41.0 3.35 41.05 4.1 42.8 4.1 42.9 Q5.45 47.6 2.25 54.25 -1.55 62.1 -7.85 67.35 -10.25 69.35 -13.15 67.8 -18.2 65.05 -17.8 62.1 L-17.3 63.4 Q-16.05 65.25 -14.25 66.6 -10.8 69.15 -7.9 66.7 -7.3 66.15 -7.65 65.5 -10.1 61.15 -15.3 59.45 L-16.6 59.95 -17.0 60.25 Q-15.75 58.4 -12.55 56.5 -10.3 55.15 -8.35 53.4 L-8.2 53.25 -7.0 52.1 Q-4.5 49.4 -2.55 45.95 -5.55 48.15 -9.7 49.55 L-11.3 50.0 Q-21.55 52.85 -26.85 45.15 L-27.15 44.7 -27.3 44.45 -27.45 44.9 Q-28.2 46.55 -29.2 47.55 -34.15 52.7 -41.25 56.6 -44.65 58.45 -46.65 55.65 -52.7 47.3 -43.85 43.3 L-37.85 40.45 -38.85 38.4 Q-39.7 31.4 -34.95 26.35 -29.8 20.85 -25.8 13.45 L-25.4 12.65 Q-22.85 14.25 -19.75 15.4 -11.5 18.55 0.25 18.45 L4.7 18.3 10.05 17.7 4.7 18.3 0.25 18.45 Q-11.5 18.55 -19.75 15.4 -22.85 14.25 -25.4 12.65 M-10.6 -47.75 L-10.8 -47.75 -15.2 -47.3 Q-22.75 -51.85 -21.3 -59.55 -22.75 -51.85 -15.2 -47.3 L-10.8 -47.75 -10.6 -47.75 M-26.5 -12.6 L-27.35 -13.95 Q-28.35 -15.05 -29.8 -15.05 L-30.55 -14.95 Q-31.55 -14.75 -32.3 -13.95 -33.3 -12.85 -33.3 -11.3 -33.3 -9.75 -32.3 -8.65 -31.25 -7.55 -29.8 -7.55 -28.35 -7.55 -27.35 -8.65 -26.3 -9.75 -26.3 -11.3 L-26.5 -12.6 M-6.0 -7.8 L-7.5 -6.65 -10.85 -4.45 Q-13.35 -3.0 -15.9 -1.95 -13.35 -3.0 -10.85 -4.45 L-12.25 -8.35 -10.85 -4.45 -7.5 -6.65 -6.0 -7.8 M32.8 -24.5 L32.5 -25.15 30.4 -28.9 Q28.25 -32.2 25.2 -35.05 28.25 -32.2 30.4 -28.9 L32.5 -25.15 32.8 -24.5 M-15.2 -47.3 Q-19.75 -46.5 -23.75 -44.45 -19.75 -46.5 -15.2 -47.3 M13.35 -0.7 Q12.35 -1.8 10.9 -1.8 9.45 -1.8 8.4 -0.7 7.4 0.4 7.4 1.95 7.4 3.5 8.4 4.6 9.45 5.7 10.9 5.7 12.35 5.7 13.35 4.6 14.4 3.5 14.4 1.95 14.4 0.4 13.35 -0.7 M1.65 40.4 L2.25 39.6 2.3 39.55 2.25 39.6 1.65 40.4 M31.7 -29.8 Q38.2 -29.5 40.7 -33.55 38.2 -29.5 31.7 -29.8 M12.7 41.95 L11.95 42.1 11.55 42.2 Q9.8 43.3 10.35 45.4 10.7 46.8 11.65 47.9 13.9 50.55 16.9 50.4 18.25 50.3 18.25 48.95 18.15 43.9 12.7 41.95 M-37.85 40.45 L-37.8 40.4 Q-33.1 38.0 -29.3 35.5 -28.95 32.75 -27.45 29.85 L-19.75 15.4 -27.45 29.85 Q-28.95 32.75 -29.3 35.5 -29.95 40.2 -27.3 44.45 -29.95 40.2 -29.3 35.5 -33.1 38.0 -37.8 40.4 L-37.85 40.45 M4.35 37.35 Q2.85 27.65 4.7 19.45 2.85 27.65 4.35 37.35 M-13.5 36.85 L-13.55 36.95 -14.3 36.7 -15.8 36.2 -14.55 36.05 -13.95 36.45 -13.5 36.85 M-25.75 38.9 Q-27.3 44.35 -22.6 47.15 -15.95 51.15 -10.4 46.85 -6.35 43.7 -7.2 38.75 -8.6 30.35 -17.3 30.95 -23.9 32.45 -25.75 38.9 M1.7 41.45 Q0.2 43.8 -2.15 45.65 L-2.55 45.95 -2.15 45.65 Q0.2 43.8 1.7 41.45 M-45.3 44.95 L-46.05 45.1 -46.45 45.2 Q-47.3 45.7 -47.45 46.6 -48.05 51.1 -45.85 55.3 -45.35 56.2 -44.35 56.35 -39.2 57.25 -41.05 52.35 L-41.8 49.6 Q-42.4 46.2 -45.3 44.95 M-8.95 0.45 L-10.85 -4.45 -8.95 0.45" fill="#e1ac8c" fill-rule="evenodd" stroke="none"/>
    <path d="M-26.5 -12.6 L-26.3 -11.3 Q-26.3 -9.75 -27.35 -8.65 -28.35 -7.55 -29.8 -7.55 -31.25 -7.55 -32.3 -8.65 -33.3 -9.75 -33.3 -11.3 -33.3 -12.85 -32.3 -13.95 -31.55 -14.75 -30.55 -14.95 L-29.8 -15.05 Q-28.35 -15.05 -27.35 -13.95 L-26.5 -12.6 M13.35 -0.7 Q14.4 0.4 14.4 1.95 14.4 3.5 13.35 4.6 12.35 5.7 10.9 5.7 9.45 5.7 8.4 4.6 7.4 3.5 7.4 1.95 7.4 0.4 8.4 -0.7 9.45 -1.8 10.9 -1.8 12.35 -1.8 13.35 -0.7" fill="#512314" fill-rule="evenodd" stroke="none"/>
    <path d="M-17.8 62.1 Q-17.65 61.15 -17.0 60.25 L-16.6 59.95 -15.3 59.45 Q-10.1 61.15 -7.65 65.5 -7.3 66.15 -7.9 66.7 -10.8 69.15 -14.25 66.6 -16.05 65.25 -17.3 63.4 L-17.8 62.1 M12.7 41.95 Q18.15 43.9 18.25 48.95 18.25 50.3 16.9 50.4 13.9 50.55 11.65 47.9 10.7 46.8 10.35 45.4 9.8 43.3 11.55 42.2 L11.95 42.1 12.7 41.95 M-25.75 38.9 Q-23.9 32.45 -17.3 30.95 -8.6 30.35 -7.2 38.75 -6.35 43.7 -10.4 46.85 -15.95 51.15 -22.6 47.15 -27.3 44.35 -25.75 38.9 M-13.5 36.85 L-13.95 36.45 -14.55 36.05 -15.8 36.2 -14.3 36.7 -13.55 36.95 -13.5 36.85 M-45.3 44.95 Q-42.4 46.2 -41.8 49.6 L-41.05 52.35 Q-39.2 57.25 -44.35 56.35 -45.35 56.2 -45.85 55.3 -48.05 51.1 -47.45 46.6 -47.3 45.7 -46.45 45.2 L-46.05 45.1 -45.3 44.95" fill="#ffffff" fill-rule="evenodd" stroke="none"/>
    <path d="M-25.4 12.65 Q-28.05 11.05 -30.15 9.0 -40.25 -0.65 -42.45 -12.15 -44.7 -23.7 -33.5 -36.6 -29.15 -41.7 -23.75 -44.45 -28.9 -47.0 -30.35 -53.85 -32.6 -64.4 -24.1 -67.5 -15.3 -70.65 -10.6 -63.35 -5.15 -54.85 -10.6 -47.75 L-4.75 -47.5 Q12.8 -45.55 23.5 -36.55 L25.2 -35.05 25.45 -35.75 Q28.95 -44.8 38.8 -43.8 49.15 -42.7 49.05 -32.05 48.95 -25.0 41.3 -23.2 35.95 -21.95 32.8 -24.5 34.85 -19.85 35.35 -14.45 36.45 -1.35 28.5 8.45 22.65 15.7 10.05 17.7 M10.55 20.45 Q11.55 30.5 16.4 36.7 19.2 40.35 19.9 43.7 21.9 53.75 13.5 50.25 7.85 47.95 5.6 42.15 L5.1 40.6 5.05 40.55 4.45 37.9 4.35 37.35 M3.7 37.45 L2.3 39.55 2.25 39.6 1.65 40.4 M2.7 39.95 L3.1 40.6 3.2 40.75 3.35 41.0 3.35 41.05 4.1 42.8 4.1 42.9 Q5.45 47.6 2.25 54.25 -1.55 62.1 -7.85 67.35 -10.25 69.35 -13.15 67.8 -18.2 65.05 -17.8 62.1 -17.65 61.15 -17.0 60.25 -15.75 58.4 -12.55 56.5 -10.3 55.15 -8.35 53.4 L-8.2 53.25 -7.0 52.1 Q-4.5 49.4 -2.55 45.95 -5.55 48.15 -9.7 49.55 L-11.3 50.0 Q-21.55 52.85 -26.85 45.15 L-27.15 44.7 -27.3 44.45 -27.45 44.9 Q-28.2 46.55 -29.2 47.55 -34.15 52.7 -41.25 56.6 -44.65 58.45 -46.65 55.65 -52.7 47.3 -43.85 43.3 L-37.85 40.45 M-38.85 38.4 Q-39.7 31.4 -34.95 26.35 -29.8 20.85 -25.8 13.45 M-25.4 12.65 Q-22.85 14.25 -19.75 15.4 -11.5 18.55 0.25 18.45 L4.7 18.3 10.05 17.7 M-21.3 -59.55 Q-22.75 -51.85 -15.2 -47.3 L-10.8 -47.75 -10.6 -47.75 M-23.75 -44.45 Q-19.75 -46.5 -15.2 -47.3 M25.2 -35.05 Q28.25 -32.2 30.4 -28.9 L32.5 -25.15 32.8 -24.5 M40.7 -33.55 Q38.2 -29.5 31.7 -29.8 M4.7 19.45 Q2.85 27.65 4.35 37.35 M-19.75 15.4 L-27.45 29.85 Q-28.95 32.75 -29.3 35.5 -29.95 40.2 -27.3 44.45 M-29.3 35.5 Q-33.1 38.0 -37.8 40.4 L-37.85 40.45 M-2.55 45.95 L-2.15 45.65 Q0.2 43.8 1.7 41.45" fill="none" stroke="#512314" stroke-linecap="round" stroke-linejoin="round" stroke-width="3.5"/>
    <path d="M-26.5 -12.6 L-26.3 -11.3 Q-26.3 -9.75 -27.35 -8.65 -28.35 -7.55 -29.8 -7.55 -31.25 -7.55 -32.3 -8.65 -33.3 -9.75 -33.3 -11.3 -33.3 -12.85 -32.3 -13.95 -31.55 -14.75 -30.55 -14.95 L-29.8 -15.05 Q-28.35 -15.05 -27.35 -13.95 L-26.5 -12.6 M-15.9 -1.95 Q-13.35 -3.0 -10.85 -4.45 L-12.25 -8.35 M-10.85 -4.45 L-7.5 -6.65 -6.0 -7.8 M13.35 -0.7 Q14.4 0.4 14.4 1.95 14.4 3.5 13.35 4.6 12.35 5.7 10.9 5.7 9.45 5.7 8.4 4.6 7.4 3.5 7.4 1.95 7.4 0.4 8.4 -0.7 9.45 -1.8 10.9 -1.8 12.35 -1.8 13.35 -0.7 M-10.85 -4.45 L-8.95 0.45" fill="none" stroke="#512314" stroke-linecap="round" stroke-linejoin="round" stroke-width="3.5"/>
  </g>
</svg>
