<?xml version="1.0" encoding="UTF-8" standalone="no"?>
<svg xmlns:xlink="http://www.w3.org/1999/xlink" height="133.45px" width="187.6px" xmlns="http://www.w3.org/2000/svg">
  <g transform="matrix(1.0, 0.0, 0.0, 1.0, 93.8, 66.7)">
    <path d="M92.3 64.3 L91.75 64.35 72.8 65.1 Q63.1 64.8 53.3 64.85 L33.8 64.9 14.3 64.9 -5.2 64.75 Q-15.15 64.65 -24.7 65.0 -34.45 65.4 -44.2 65.1 L-63.7 64.6 -80.2 64.0 Q-86.9 63.6 -88.7 59.5 -90.5 55.35 -90.5 45.05 -90.5 34.7 -91.15 25.65 -91.8 16.55 -91.8 7.55 L-91.85 -14.4 Q-91.85 -27.4 -92.2 -38.5 -92.55 -49.65 -91.7 -53.25 -90.85 -56.85 -88.85 -60.15 -86.9 -63.45 -78.15 -62.8 -69.4 -62.15 -59.3 -62.35 L-39.65 -63.0 -17.6 -63.75 1.8 -64.3 18.2 -64.55 36.8 -64.6 Q46.3 -64.6 55.8 -65.05 65.4 -65.45 75.3 -64.8 83.85 -64.25 92.3 -64.95 L92.3 64.3 M56.55 -14.6 L52.05 -14.4 Q45.9 -14.35 47.3 -9.6 46.6 -8.5 48.0 -7.5 51.35 -5.2 55.8 -6.6 53.0 -4.25 50.45 -1.7 L48.05 1.05 Q46.1 3.55 44.6 6.65 41.85 12.2 48.8 12.45 L57.55 12.95 65.1 13.45 Q70.0 13.85 69.95 9.15 69.95 7.3 69.05 6.0 67.0 3.0 61.55 3.35 L52.05 4.4 58.7 0.35 Q62.25 -1.75 64.95 -6.0 67.5 -10.1 64.85 -12.35 61.7 -14.95 56.55 -14.6 M-55.95 -12.2 Q-48.9 -12.1 -44.15 -13.1 L-44.4 -8.4 Q-44.95 -1.45 -46.2 5.2 -48.35 16.8 -41.2 19.0 -36.55 20.5 -35.8 16.75 -33.9 7.65 -35.3 -1.55 -35.85 -5.15 -35.4 -7.75 -34.95 -10.65 -33.3 -12.25 -18.75 -12.7 -23.2 -23.7 -24.15 -26.15 -28.65 -25.65 L-47.65 -24.65 -58.15 -24.1 Q-58.9 -17.85 -55.95 -12.2 M-21.65 -0.7 L-22.05 2.6 Q-22.5 10.8 -15.45 13.35 -5.25 17.0 -0.75 9.7 4.5 1.2 0.2 -6.5 -3.6 -13.25 -10.65 -11.1 -19.9 -9.8 -21.65 -0.7 M-8.05 2.0 Q-7.35 5.65 -10.45 5.2 -15.0 4.5 -15.2 2.95 -15.35 1.35 -11.15 -1.1 -8.75 -1.55 -8.05 2.0 M19.7 1.3 Q21.15 -14.1 10.35 -9.1 7.5 0.35 11.4 8.15 15.4 16.2 23.45 9.9 22.6 17.55 17.0 23.05 10.2 29.7 15.7 35.05 25.9 31.45 30.0 23.5 33.85 16.05 36.2 2.7 38.55 -10.65 33.6 -11.9 28.65 -13.2 27.4 -3.45 26.6 2.65 23.8 3.0 22.1 3.2 19.7 1.3" fill="#f8f0a0" fill-rule="evenodd" stroke="none"/>
    <path d="M56.55 -14.6 Q61.7 -14.95 64.85 -12.35 67.5 -10.1 64.95 -6.0 62.25 -1.75 58.7 0.35 L52.05 4.4 61.55 3.35 Q67.0 3.0 69.05 6.0 69.95 7.3 69.95 9.15 70.0 13.85 65.1 13.45 L57.55 12.95 48.8 12.45 Q41.85 12.2 44.6 6.65 46.1 3.55 48.05 1.05 L50.45 -1.7 Q53.0 -4.25 55.8 -6.6 51.35 -5.2 48.0 -7.5 46.6 -8.5 47.3 -9.6 45.9 -14.35 52.05 -14.4 L56.55 -14.6 M-21.65 -0.7 Q-19.9 -9.8 -10.65 -11.1 -3.6 -13.25 0.2 -6.5 4.5 1.2 -0.75 9.7 -5.25 17.0 -15.45 13.35 -22.5 10.8 -22.05 2.6 L-21.65 -0.7 M-55.95 -12.2 Q-58.9 -17.85 -58.15 -24.1 L-47.65 -24.65 -28.65 -25.65 Q-24.15 -26.15 -23.2 -23.7 -18.75 -12.7 -33.3 -12.25 -34.95 -10.65 -35.4 -7.75 -35.85 -5.15 -35.3 -1.55 -33.9 7.65 -35.8 16.75 -36.55 20.5 -41.2 19.0 -48.35 16.8 -46.2 5.2 -44.95 -1.45 -44.4 -8.4 L-44.15 -13.1 Q-48.9 -12.1 -55.95 -12.2 M-8.05 2.0 Q-8.75 -1.55 -11.15 -1.1 -15.35 1.35 -15.2 2.95 -15.0 4.5 -10.45 5.2 -7.35 5.65 -8.05 2.0 M19.7 1.3 Q22.1 3.2 23.8 3.0 26.6 2.65 27.4 -3.45 28.65 -13.2 33.6 -11.9 38.55 -10.65 36.2 2.7 33.85 16.05 30.0 23.5 25.9 31.45 15.7 35.05 10.2 29.7 17.0 23.05 22.6 17.55 23.45 9.9 15.4 16.2 11.4 8.15 7.5 0.35 10.35 -9.1 21.15 -14.1 19.7 1.3" fill="#fe8f8f" fill-rule="evenodd" stroke="none"/>
    <path d="M92.3 64.3 L91.75 64.35 72.8 65.1 Q63.1 64.8 53.3 64.85 L33.8 64.9 14.3 64.9 -5.2 64.75 Q-15.15 64.65 -24.7 65.0 -34.45 65.4 -44.2 65.1 L-63.7 64.6 -80.2 64.0 Q-86.9 63.6 -88.7 59.5 -90.5 55.35 -90.5 45.05 -90.5 34.7 -91.15 25.65 -91.8 16.55 -91.8 7.55 L-91.85 -14.4 Q-91.85 -27.4 -92.2 -38.5 -92.55 -49.65 -91.7 -53.25 -90.85 -56.85 -88.85 -60.15 -86.9 -63.45 -78.15 -62.8 -69.4 -62.15 -59.3 -62.35 L-39.65 -63.0 -17.6 -63.75 1.8 -64.3 18.2 -64.55 36.8 -64.6 Q46.3 -64.6 55.8 -65.05 65.4 -65.45 75.3 -64.8 83.85 -64.25 92.3 -64.95 M56.55 -14.6 Q61.7 -14.95 64.85 -12.35 67.5 -10.1 64.95 -6.0 62.25 -1.75 58.7 0.35 L52.05 4.4 61.55 3.35 Q67.0 3.0 69.05 6.0 69.95 7.3 69.95 9.15 70.0 13.85 65.1 13.45 L57.55 12.95 48.8 12.45 Q41.85 12.2 44.6 6.65 46.1 3.55 48.05 1.05 L50.45 -1.7 Q53.0 -4.25 55.8 -6.6 51.35 -5.2 48.0 -7.5 46.6 -8.5 47.3 -9.6 45.9 -14.35 52.05 -14.4 L56.55 -14.6 M-55.95 -12.2 Q-48.9 -12.1 -44.15 -13.1 L-44.4 -8.4 Q-44.95 -1.45 -46.2 5.2 -48.35 16.8 -41.2 19.0 -36.55 20.5 -35.8 16.75 -33.9 7.65 -35.3 -1.55 -35.85 -5.15 -35.4 -7.75 -34.95 -10.65 -33.3 -12.25 -18.75 -12.7 -23.2 -23.7 -24.15 -26.15 -28.65 -25.65 L-47.65 -24.65 -58.15 -24.1 Q-58.9 -17.85 -55.95 -12.2 M-21.65 -0.7 L-22.05 2.6 Q-22.5 10.8 -15.45 13.35 -5.25 17.0 -0.75 9.7 4.5 1.2 0.2 -6.5 -3.6 -13.25 -10.65 -11.1 -19.9 -9.8 -21.65 -0.7 M-8.05 2.0 Q-8.75 -1.55 -11.15 -1.1 -15.35 1.35 -15.2 2.95 -15.0 4.5 -10.45 5.2 -7.35 5.65 -8.05 2.0 M19.7 1.3 Q21.15 -14.1 10.35 -9.1 7.5 0.35 11.4 8.15 15.4 16.2 23.45 9.9 22.6 17.55 17.0 23.05 10.2 29.7 15.7 35.05 25.9 31.45 30.0 23.5 33.85 16.05 36.2 2.7 38.55 -10.65 33.6 -11.9 28.65 -13.2 27.4 -3.45 26.6 2.65 23.8 3.0 22.1 3.2 19.7 1.3" fill="none" stroke="#996633" stroke-linecap="round" stroke-linejoin="round" stroke-width="3.0"/>
  </g>
</svg>
