<?xml version="1.0" encoding="UTF-8" standalone="no"?>
<svg xmlns:xlink="http://www.w3.org/1999/xlink" height="72.85px" width="91.3px" xmlns="http://www.w3.org/2000/svg">
  <g transform="matrix(1.0, 0.0, 0.0, 1.0, 45.65, 21.45)">
    <path d="M-30.0 9.95 Q-28.95 14.45 -26.95 18.5 -24.95 22.6 -22.0 26.2 L-18.75 29.7 Q-12.4 35.75 -4.4 37.15 L0.45 37.55 7.35 36.7 Q16.15 34.45 22.85 26.2 29.8 17.75 31.55 6.7 32.15 2.95 32.15 -1.1 32.15 -5.25 31.55 -9.1 L30.6 -13.45 Q29.65 -16.85 28.25 -19.95 L40.6 -19.95 Q43.1 -13.45 43.85 -6.15 L44.15 0.0 43.85 6.15 Q42.2 22.85 31.2 35.25 20.95 46.85 7.35 49.3 L0.0 49.9 Q-18.3 49.9 -31.25 35.25 -44.15 20.65 -44.15 0.0 -44.15 -10.8 -40.6 -19.95 L-27.3 -19.95 Q-31.25 -11.5 -31.25 -1.1 -31.25 4.35 -30.15 9.3 L-30.0 9.95" fill="#fad589" fill-rule="evenodd" stroke="none"/>
    <path d="M7.2 -19.95 L-30.0 9.95 -30.15 9.3 Q-31.25 4.35 -31.25 -1.1 -31.25 -11.5 -27.3 -19.95 L7.2 -19.95 M-26.95 18.5 L21.65 -19.95 28.25 -19.95 Q29.65 -16.85 30.6 -13.45 L-18.75 29.7 -22.0 26.2 Q-24.95 22.6 -26.95 18.5 M31.55 6.7 Q29.8 17.75 22.85 26.2 16.15 34.45 7.35 36.7 L0.45 37.55 -4.4 37.15 31.55 6.7" fill="#d6f4fe" fill-rule="evenodd" stroke="none"/>
    <path d="M7.2 -19.95 L21.65 -19.95 -26.95 18.5 Q-28.95 14.45 -30.0 9.95 L7.2 -19.95 M30.6 -13.45 L31.55 -9.1 Q32.15 -5.25 32.15 -1.1 32.15 2.95 31.55 6.7 L-4.4 37.15 Q-12.4 35.75 -18.75 29.7 L30.6 -13.45" fill="#eefbff" fill-rule="evenodd" stroke="none"/>
    <path d="M-30.0 9.95 Q-28.95 14.45 -26.95 18.5 M30.6 -13.45 L31.55 -9.1 Q32.15 -5.25 32.15 -1.1 32.15 2.95 31.55 6.7 29.8 17.75 22.85 26.2 16.15 34.45 7.35 36.7 L0.45 37.55 -4.4 37.15 Q-12.4 35.75 -18.75 29.7 L-22.0 26.2 Q-24.95 22.6 -26.95 18.5 M30.6 -13.45 Q29.65 -16.85 28.25 -19.95 M-30.0 9.95 L-30.15 9.3 Q-31.25 4.35 -31.25 -1.1 -31.25 -11.5 -27.3 -19.95" fill="none" stroke="#ca8735" stroke-linecap="round" stroke-linejoin="round" stroke-width="3.0"/>
    <path d="M40.6 -19.95 Q43.1 -13.45 43.85 -6.15 L44.15 0.0 43.85 6.15 Q42.2 22.85 31.2 35.25 20.95 46.85 7.35 49.3 L0.0 49.9 Q-18.3 49.9 -31.25 35.25 -44.15 20.65 -44.15 0.0 -44.15 -10.8 -40.6 -19.95" fill="none" stroke="#ca8735" stroke-linecap="round" stroke-linejoin="round" stroke-width="3.0"/>
  </g>
</svg>
