<?xml version="1.0" encoding="UTF-8" standalone="no"?>
<svg xmlns:xlink="http://www.w3.org/1999/xlink" height="92.9px" width="85.45px" xmlns="http://www.w3.org/2000/svg">
  <g transform="matrix(1.0, 0.0, 0.0, 1.0, 42.75, 46.45)">
    <path d="M-15.8 -39.55 L-14.25 -37.5 -12.5 -34.9 -7.8 -35.55 1.1 -36.05 8.7 -35.7 11.3 -39.1 13.0 -40.95 16.55 -39.95 Q21.35 -38.6 25.8 -36.65 L26.45 -36.35 Q26.45 -32.1 25.95 -27.4 L25.75 -25.45 Q28.15 -22.55 29.55 -19.0 30.7 -16.15 31.15 -12.85 L31.2 -12.35 Q31.65 -8.3 30.8 -4.75 29.5 0.35 25.4 4.3 21.85 7.65 15.7 9.4 L15.05 9.45 14.95 9.5 14.55 9.7 13.55 9.95 13.6 10.3 13.55 10.35 Q15.4 10.65 18.1 12.4 17.5 12.65 17.2 13.15 18.35 13.55 19.2 14.25 20.5 14.75 21.0 15.8 L20.2 13.85 20.35 14.05 Q22.55 17.35 22.1 18.9 21.15 21.75 18.5 20.9 15.8 20.05 15.15 19.6 L15.45 21.15 15.6 21.75 15.95 21.8 16.1 21.85 16.15 22.05 17.05 26.45 17.05 26.5 17.1 26.65 Q20.45 23.5 25.3 25.15 29.2 26.45 32.3 29.05 L34.05 30.55 Q32.65 31.2 34.1 34.5 29.2 34.5 33.05 37.0 30.05 38.65 33.05 40.15 L28.85 40.8 24.35 40.8 Q20.65 40.65 17.7 39.7 L17.95 38.65 16.35 38.35 Q11.65 35.4 10.15 40.5 L9.9 40.6 Q9.05 38.75 8.95 36.55 L8.95 35.65 9.5 34.75 9.65 34.5 9.95 33.95 Q10.55 32.45 10.55 29.55 L10.35 27.75 Q9.75 25.2 7.45 23.5 L6.3 22.8 Q1.95 20.35 -2.15 22.6 -5.85 24.6 -6.35 28.85 -6.75 32.15 -5.35 34.35 L-4.05 35.85 -3.85 36.35 -3.8 36.35 -3.35 37.1 -4.5 42.35 Q-4.9 44.4 -7.0 45.05 L-6.3 44.3 Q-4.85 41.55 -8.0 40.65 L-9.05 40.85 -9.25 40.25 -9.45 40.4 Q-10.55 41.0 -11.65 42.75 L-12.75 40.0 Q-13.2 38.55 -13.25 35.8 L-13.25 33.45 -12.9 28.15 -12.4 24.4 -11.55 20.85 -10.6 20.5 -9.55 18.7 -9.9 18.4 Q-12.05 20.65 -15.05 21.6 L-17.05 21.4 Q-21.1 19.1 -17.4 15.25 -15.45 13.15 -13.25 11.6 L-11.5 10.4 Q-20.9 8.65 -26.3 3.5 -28.7 1.15 -30.1 -1.55 -32.0 -5.25 -31.95 -9.6 -31.95 -13.0 -30.7 -16.8 L-30.5 -17.45 Q-29.55 -20.15 -28.3 -22.45 L-28.95 -25.6 Q-29.7 -29.25 -29.6 -33.2 -26.55 -34.8 -23.7 -36.55 -21.55 -37.85 -19.1 -38.5 -17.4 -38.95 -15.8 -39.55 M-28.7 -15.55 L-30.5 -17.45 -28.7 -15.55 M-17.4 -4.35 Q-18.0 -5.0 -18.9 -5.0 -19.8 -5.1 -20.45 -4.5 -21.1 -3.9 -21.15 -3.0 -21.2 -2.1 -20.65 -1.45 -20.05 -0.8 -19.15 -0.75 -18.25 -0.7 -17.6 -1.3 -16.9 -1.85 -16.85 -2.75 -16.8 -3.65 -17.4 -4.35 M-10.05 -1.15 L-10.35 0.95 Q-10.4 3.55 -8.55 4.85 -7.1 5.9 -4.3 6.05 1.85 6.4 6.45 5.25 11.05 4.15 11.4 -0.5 L11.2 -2.5 Q10.25 -5.05 6.0 -4.8 6.15 -5.55 5.25 -8.15 3.65 -12.55 -1.0 -11.6 -5.45 -10.7 -5.75 -5.7 L-5.85 -3.45 Q-9.2 -3.75 -10.05 -1.15 M-31.95 -9.6 L-28.8 -9.3 -31.95 -9.6 M-26.75 -1.65 L-30.1 -1.55 -26.75 -1.65 M-7.65 15.25 L-9.15 17.6 -9.9 18.4 -9.15 17.6 -7.65 15.25 M-5.05 40.95 Q-6.8 39.85 -8.15 40.0 L-9.25 40.25 -8.15 40.0 Q-6.8 39.85 -5.05 40.95 M-5.9 34.65 Q-10.0 32.1 -12.25 35.7 -10.0 32.1 -5.9 34.65 M16.55 31.7 Q12.1 30.7 9.95 33.95 12.1 30.7 16.55 31.7 M29.55 -19.0 Q27.75 -18.0 26.7 -16.85 27.75 -18.0 29.55 -19.0 M18.25 -3.0 Q18.85 -2.3 19.75 -2.25 20.65 -2.2 21.3 -2.8 21.95 -3.4 22.0 -4.25 22.05 -5.2 21.45 -5.85 20.9 -6.5 20.0 -6.55 19.1 -6.6 18.4 -6.05 17.75 -5.45 17.75 -4.5 L17.85 -3.7 18.25 -3.0 M27.6 -10.3 Q29.1 -11.65 31.2 -12.35 29.1 -11.65 27.6 -10.3 M30.8 -4.75 L27.25 -4.3 30.8 -4.75 M-10.25 10.65 L-4.6 11.25 -4.5 11.25 -4.4 11.25 0.2 11.35 Q7.45 11.25 12.95 10.1 L13.55 9.95 12.95 10.1 Q7.45 11.25 0.2 11.35 L-4.4 11.25 -4.5 11.25 -4.6 11.25 -10.25 10.65 M11.45 15.7 Q12.95 17.95 15.15 19.6 12.95 17.95 11.45 15.7 M17.1 26.65 L17.1 26.75 17.15 27.1 17.65 31.6 18.0 35.95 17.95 38.65 18.0 35.95 17.65 31.6 17.15 27.1 17.1 26.75 17.1 26.65" fill="#e3981c" fill-rule="evenodd" stroke="none"/>
    <path d="M13.0 -40.95 Q14.9 -42.9 16.75 -43.8 19.35 -45.2 21.5 -45.2 23.6 -45.2 25.0 -43.3 26.35 -41.45 26.45 -36.95 L26.45 -36.35 25.8 -36.65 Q21.35 -38.6 16.55 -39.95 L13.0 -40.95 M-29.6 -33.2 L-29.5 -35.7 Q-29.15 -41.05 -27.65 -42.75 -26.2 -44.45 -24.35 -44.6 -22.55 -44.8 -19.55 -42.85 -17.55 -41.55 -15.8 -39.55 -17.4 -38.95 -19.1 -38.5 -21.55 -37.85 -23.7 -36.55 -26.55 -34.8 -29.6 -33.2 M-17.4 -4.35 Q-16.8 -3.65 -16.85 -2.75 -16.9 -1.85 -17.6 -1.3 -18.25 -0.7 -19.15 -0.75 -20.05 -0.8 -20.65 -1.45 -21.2 -2.1 -21.15 -3.0 -21.1 -3.9 -20.45 -4.5 -19.8 -5.1 -18.9 -5.0 -18.0 -5.0 -17.4 -4.35 M18.25 -3.0 L17.85 -3.7 17.75 -4.5 Q17.75 -5.45 18.4 -6.05 19.1 -6.6 20.0 -6.55 20.9 -6.5 21.45 -5.85 22.05 -5.2 22.0 -4.25 21.95 -3.4 21.3 -2.8 20.65 -2.2 19.75 -2.25 18.85 -2.3 18.25 -3.0" fill="#512314" fill-rule="evenodd" stroke="none"/>
    <path d="M-10.05 -1.15 Q-9.2 -3.75 -5.85 -3.45 L-5.75 -5.7 Q-5.45 -10.7 -1.0 -11.6 3.65 -12.55 5.25 -8.15 6.15 -5.55 6.0 -4.8 10.25 -5.05 11.2 -2.5 L11.4 -0.5 Q11.05 4.15 6.45 5.25 1.85 6.4 -4.3 6.05 -7.1 5.9 -8.55 4.85 -10.4 3.55 -10.35 0.95 L-10.05 -1.15 M-8.85 44.85 Q-10.65 44.7 -10.4 42.55 -10.25 41.25 -9.05 40.85 L-8.0 40.65 Q-4.85 41.55 -6.3 44.3 L-7.0 45.05 -7.7 45.2 -7.9 45.2 Q-8.45 45.2 -8.85 44.85 M-3.8 36.35 L-3.85 36.35 -4.05 35.85 -5.35 34.35 Q-6.75 32.15 -6.35 28.85 -5.85 24.6 -2.15 22.6 1.95 20.35 6.3 22.8 L7.45 23.5 Q9.75 25.2 10.35 27.75 L10.55 29.55 Q10.55 32.45 9.95 33.95 L9.65 34.5 9.5 34.75 8.95 35.65 8.95 36.55 8.15 36.55 6.7 36.45 5.0 36.6 Q1.1 37.4 -3.25 36.5 L-3.8 36.35 M34.05 30.55 L38.0 34.05 Q41.1 36.95 37.2 38.75 35.4 39.6 33.35 40.1 L33.05 40.15 Q30.05 38.65 33.05 37.0 29.2 34.5 34.1 34.5 32.65 31.2 34.05 30.55 M17.7 39.7 Q17.0 42.05 14.85 42.4 L11.65 42.3 Q10.55 41.85 9.9 40.6 L10.15 40.5 Q11.65 35.4 16.35 38.35 L17.95 38.65 17.7 39.7 M0.7 -4.1 L0.95 -4.4 Q2.4 -6.2 -0.9 -5.3 L-0.9 -5.15 Q-1.05 -4.2 -0.75 -3.85 L-0.9 -3.8 -0.9 -3.65 Q-1.1 -2.2 -0.3 -2.15 L-0.35 -2.1 -0.05 -2.05 0.3 -2.2 0.9 -2.85 0.95 -2.9 Q1.95 -4.15 0.7 -4.1 1.95 -4.15 0.95 -2.9 L0.9 -2.85 0.3 -2.2 -0.05 -2.05 -0.35 -2.1 -0.3 -2.15 Q-1.1 -2.2 -0.9 -3.65 L-0.9 -3.8 -0.75 -3.85 -0.3 -3.65 -0.35 -3.6 -0.05 -3.55 0.1 -2.65 0.7 -2.8 0.9 -2.85 0.9 -2.9 0.3 -3.7 0.7 -4.1 M0.95 -2.9 L0.9 -2.9 0.95 -2.9 M-0.3 -2.15 L0.7 -2.8 -0.3 -2.15 M0.1 -1.15 Q-1.25 3.25 -3.9 1.65 -1.25 3.25 0.1 -1.15 M0.9 -1.35 Q2.7 2.95 5.2 0.7 2.7 2.95 0.9 -1.35" fill="#ffffff" fill-rule="evenodd" stroke="none"/>
    <path d="M-11.65 42.75 Q-10.55 41.0 -9.45 40.4 L-9.25 40.25 -9.05 40.85 Q-10.25 41.25 -10.4 42.55 -10.65 44.7 -8.85 44.85 -10.65 44.8 -11.3 43.55 L-11.65 42.8 -11.65 42.75" fill="#ffcc66" fill-rule="evenodd" stroke="none"/>
    <path d="M-15.8 -39.55 L-14.25 -37.5 -12.5 -34.9 -7.8 -35.55 1.1 -36.05 8.7 -35.7 11.3 -39.1 13.0 -40.95 Q14.9 -42.9 16.75 -43.8 19.35 -45.2 21.5 -45.2 23.6 -45.2 25.0 -43.3 26.35 -41.45 26.45 -36.95 L26.45 -36.35 Q26.45 -32.1 25.95 -27.4 L25.75 -25.45 Q28.15 -22.55 29.55 -19.0 31.0 -19.9 33.0 -20.6 36.4 -22.0 40.75 -21.3 M13.0 -40.95 L16.55 -39.95 Q21.35 -38.6 25.8 -36.65 L26.45 -36.35 M-29.6 -33.2 Q-29.7 -29.25 -28.95 -25.6 L-28.3 -22.45 Q-29.55 -20.15 -30.5 -17.45 L-28.7 -15.55 M-15.8 -39.55 Q-17.55 -41.55 -19.55 -42.85 -22.55 -44.8 -24.35 -44.6 -26.2 -44.45 -27.65 -42.75 -29.15 -41.05 -29.5 -35.7 L-29.6 -33.2 Q-26.55 -34.8 -23.7 -36.55 -21.55 -37.85 -19.1 -38.5 -17.4 -38.95 -15.8 -39.55 M-17.4 -4.35 Q-16.8 -3.65 -16.85 -2.75 -16.9 -1.85 -17.6 -1.3 -18.25 -0.7 -19.15 -0.75 -20.05 -0.8 -20.65 -1.45 -21.2 -2.1 -21.15 -3.0 -21.1 -3.9 -20.45 -4.5 -19.8 -5.1 -18.9 -5.0 -18.0 -5.0 -17.4 -4.35 M-10.05 -1.15 L-10.35 0.95 Q-10.4 3.55 -8.55 4.85 -7.1 5.9 -4.3 6.05 1.85 6.4 6.45 5.25 11.05 4.15 11.4 -0.5 L11.2 -2.5 Q10.25 -5.05 6.0 -4.8 6.15 -5.55 5.25 -8.15 3.65 -12.55 -1.0 -11.6 -5.45 -10.7 -5.75 -5.7 L-5.85 -3.45 Q-9.2 -3.75 -10.05 -1.15 M-31.95 -9.6 Q-31.95 -13.0 -30.7 -16.8 L-30.5 -17.45 Q-32.6 -19.1 -35.7 -19.65 L-41.5 -19.3 M-31.95 -9.6 Q-35.0 -9.65 -37.6 -8.8 -39.45 -8.2 -40.95 -7.25 M-28.8 -9.3 L-31.95 -9.6 Q-32.0 -5.25 -30.1 -1.55 L-26.75 -1.65 M-30.1 -1.55 Q-32.65 -1.1 -34.7 0.5 -36.85 2.05 -37.55 3.7 M-30.1 -1.55 Q-28.7 1.15 -26.3 3.5 -20.9 8.65 -11.5 10.4 L-13.25 11.6 Q-15.45 13.15 -17.4 15.25 -21.1 19.1 -17.05 21.4 L-15.05 21.6 Q-12.05 20.65 -9.9 18.4 L-9.15 17.6 -7.65 15.25 M-11.55 20.85 L-12.4 24.4 -12.9 28.15 -13.25 33.45 -13.25 35.8 Q-13.2 38.55 -12.75 40.0 L-11.65 42.75 Q-10.55 41.0 -9.45 40.4 L-9.25 40.25 -8.15 40.0 Q-6.8 39.85 -5.05 40.95 M-7.0 45.05 Q-4.9 44.4 -4.5 42.35 L-3.35 37.1 M-3.8 36.35 L-3.85 36.35 M-4.05 35.85 L-5.35 34.35 Q-6.75 32.15 -6.35 28.85 -5.85 24.6 -2.15 22.6 1.95 20.35 6.3 22.8 L7.45 23.5 Q9.75 25.2 10.35 27.75 L10.55 29.55 Q10.55 32.45 9.95 33.95 M-11.65 42.75 L-11.65 42.8 -11.3 43.55 Q-10.65 44.8 -8.85 44.85 -8.45 45.2 -7.9 45.2 L-7.7 45.2 -7.0 45.05 M30.8 -4.75 Q33.6 -4.75 36.35 -3.75 L39.15 -2.9 M31.2 -12.35 L35.0 -13.05 41.45 -12.5 M29.55 -19.0 Q30.7 -16.15 31.15 -12.85 L31.2 -12.35 Q31.65 -8.3 30.8 -4.75 29.5 0.35 25.4 4.3 21.85 7.65 15.7 9.4 M14.55 9.7 L13.55 9.95 12.95 10.1 Q7.45 11.25 0.2 11.35 L-4.4 11.25 -4.5 11.25 -4.6 11.25 -10.25 10.65 M13.55 10.35 Q15.4 10.65 18.1 12.4 L20.2 13.85 20.35 14.05 Q22.55 17.35 22.1 18.9 21.15 21.75 18.5 20.9 15.8 20.05 15.15 19.6 12.95 17.95 11.45 15.7 M16.1 21.85 L16.15 22.05 17.05 26.45 17.05 26.5 17.1 26.65 Q20.45 23.5 25.3 25.15 29.2 26.45 32.3 29.05 L34.05 30.55 38.0 34.05 Q41.1 36.95 37.2 38.75 35.4 39.6 33.35 40.1 M33.05 40.15 L28.85 40.8 24.35 40.8 Q20.65 40.65 17.7 39.7 17.0 42.05 14.85 42.4 L11.65 42.3 Q10.55 41.85 9.9 40.6 9.05 38.75 8.95 36.55 M8.15 36.55 L6.7 36.45 5.0 36.6 Q1.1 37.4 -3.25 36.5 L-3.8 36.35 M26.7 -16.85 Q27.75 -18.0 29.55 -19.0 M18.25 -3.0 L17.85 -3.7 17.75 -4.5 Q17.75 -5.45 18.4 -6.05 19.1 -6.6 20.0 -6.55 20.9 -6.5 21.45 -5.85 22.05 -5.2 22.0 -4.25 21.95 -3.4 21.3 -2.8 20.65 -2.2 19.75 -2.25 18.85 -2.3 18.25 -3.0 M27.25 -4.3 L30.8 -4.75 M31.2 -12.35 Q29.1 -11.65 27.6 -10.3 M0.7 -4.1 Q1.95 -4.15 0.95 -2.9 L0.9 -2.85 0.3 -2.2 -0.05 -2.05 -0.35 -2.1 -0.3 -2.15 Q-1.1 -2.2 -0.9 -3.65 L-0.9 -3.8 -0.75 -3.85 0.7 -4.1 M0.9 -2.9 L0.95 -2.9 M0.9 -2.9 L0.7 -2.8 -0.3 -2.15 M5.2 0.7 Q2.7 2.95 0.9 -1.35 M-3.9 1.65 Q-1.25 3.25 0.1 -1.15 M17.95 38.65 L18.0 35.95 17.65 31.6 17.15 27.1 17.1 26.75 17.1 26.65 M17.7 39.7 L17.95 38.65 M16.35 38.35 Q11.65 35.4 10.15 40.5 M8.95 35.65 L8.95 36.55 M9.65 34.5 L9.5 34.75" fill="none" stroke="#512314" stroke-linecap="round" stroke-linejoin="round" stroke-width="2.5"/>
    <path d="M-12.25 35.7 Q-10.0 32.1 -5.9 34.65 M9.95 33.95 Q12.1 30.7 16.55 31.7 M9.95 33.95 L9.65 34.5" fill="none" stroke="#512314" stroke-linecap="round" stroke-linejoin="round" stroke-width="2.5"/>
    <path d="M33.35 40.1 L33.05 40.15 M34.05 30.55 Q32.65 31.2 34.1 34.5 29.2 34.5 33.05 37.0 30.05 38.65 33.05 40.15" fill="none" stroke="#512314" stroke-linecap="round" stroke-linejoin="round" stroke-width="1.75"/>
  </g>
</svg>
