<?xml version="1.0" encoding="UTF-8" standalone="no"?>
<svg xmlns:xlink="http://www.w3.org/1999/xlink" height="71.3px" width="47.65px" xmlns="http://www.w3.org/2000/svg">
  <g transform="matrix(1.0, 0.0, 0.0, 1.0, 23.85, 35.6)">
    <path d="M-16.85 -15.35 Q-19.0 -21.25 -19.85 -26.2 -20.75 -31.15 -16.75 -33.5 -12.75 -35.9 -10.15 -30.75 -7.6 -25.65 -7.1 -20.4 -3.8 -21.25 -0.05 -21.25 L0.1 -21.25 Q0.55 -18.25 1.4 -15.3 2.65 -10.65 4.8 -6.65 2.65 -10.65 1.4 -15.3 0.55 -18.25 0.1 -21.25 L6.55 -20.55 Q6.8 -25.9 9.2 -30.1 11.6 -34.35 15.3 -33.6 18.95 -32.9 18.65 -27.85 18.3 -22.85 16.85 -19.8 L15.25 -16.5 15.85 -16.05 Q22.45 -10.9 22.45 -2.45 22.45 4.5 18.1 8.25 L16.05 9.65 12.3 11.45 12.25 11.45 10.0 12.25 12.25 11.45 12.55 12.2 Q14.45 13.4 18.2 14.95 21.9 16.5 20.45 18.65 18.95 20.8 15.75 19.4 12.5 17.95 12.0 17.05 L11.5 15.65 11.45 15.6 10.1 12.6 10.0 12.25 Q5.9 13.5 1.15 13.75 L-6.1 13.4 -9.7 12.7 -6.1 13.4 -7.7 17.45 -8.0 18.25 -8.15 18.7 Q-11.1 20.85 -13.2 21.45 -15.35 22.0 -16.9 20.65 -18.5 19.3 -14.5 16.85 -11.75 15.2 -9.7 12.7 -12.35 12.0 -14.9 10.9 -22.5 7.55 -22.5 -1.65 -22.55 -10.25 -16.85 -15.35 M13.75 4.75 L15.6 6.35 18.1 8.25 15.6 6.35 13.75 4.75 15.3 3.45 Q17.4 1.25 17.4 -1.85 17.4 -5.0 15.3 -7.2 13.2 -9.45 10.3 -9.4 7.35 -9.45 5.25 -7.2 L4.8 -6.65 Q3.2 -4.6 3.2 -1.85 3.2 1.25 5.25 3.45 7.35 5.65 10.3 5.7 12.2 5.65 13.75 4.75 M-8.1 25.1 L0.3 25.85 9.2 25.2 Q12.7 24.8 13.75 24.1 L14.15 24.85 Q14.15 26.95 14.8 29.5 15.45 32.0 13.45 33.3 11.35 34.6 8.45 30.0 7.85 30.75 3.8 30.85 L-3.3 30.35 Q-4.25 30.85 -4.7 32.2 -5.1 33.55 -7.15 34.25 -9.15 34.9 -9.0 30.5 -8.85 26.25 -8.2 25.5 L-8.1 25.1 M0.75 3.95 L-1.85 0.25 Q-2.6 2.75 -3.6 4.0 -2.6 2.75 -1.85 0.25 L0.75 3.95 M-12.1 1.9 L-11.5 1.5 Q-11.0 0.95 -11.0 0.15 -11.0 -0.6 -11.5 -1.15 -12.05 -1.7 -12.8 -1.65 -13.6 -1.7 -14.1 -1.15 L-14.5 -0.55 -15.1 -0.15 Q-15.65 0.4 -15.6 1.15 -15.65 1.95 -15.1 2.5 -14.6 3.0 -13.8 3.0 -13.05 3.0 -12.5 2.5 L-12.1 1.9 -12.5 2.5 Q-13.05 3.0 -13.8 3.0 -14.6 3.0 -15.1 2.5 -15.65 1.95 -15.6 1.15 -15.65 0.4 -15.1 -0.15 L-14.5 -0.55 -14.6 0.15 Q-14.65 0.95 -14.1 1.5 -13.6 2.0 -12.8 2.0 L-12.1 1.9" fill="#ed4747" fill-rule="evenodd" stroke="none"/>
    <path d="M13.75 4.75 Q12.2 5.65 10.3 5.7 7.35 5.65 5.25 3.45 3.2 1.25 3.2 -1.85 3.2 -4.6 4.8 -6.65 L5.25 -7.2 Q7.35 -9.45 10.3 -9.4 13.2 -9.45 15.3 -7.2 17.4 -5.0 17.4 -1.85 17.4 1.25 15.3 3.45 L13.75 4.75 M-14.5 -0.55 L-13.8 -0.65 Q-13.05 -0.7 -12.5 -0.15 -12.0 0.4 -12.0 1.15 L-12.1 1.9 -12.8 2.0 Q-13.6 2.0 -14.1 1.5 -14.65 0.95 -14.6 0.15 L-14.5 -0.55" fill="#512314" fill-rule="evenodd" stroke="none"/>
    <path d="M-6.1 13.4 L1.15 13.75 Q5.9 13.5 10.0 12.25 L10.1 12.6 11.45 15.6 11.5 15.65 12.0 17.05 13.25 19.95 13.25 20.0 Q14.3 22.25 14.25 23.45 L13.8 24.1 13.75 24.1 Q12.7 24.8 9.2 25.2 L0.3 25.85 -8.1 25.1 -9.4 24.85 -8.8 21.1 -8.65 20.45 -8.15 18.7 -8.0 18.25 -7.7 17.45 -0.25 17.25 7.4 16.8 Q9.5 16.5 11.45 15.6 9.5 16.5 7.4 16.8 L-0.25 17.25 -7.7 17.45 -6.1 13.4 M12.3 20.35 L6.85 21.1 -0.65 21.65 -8.15 21.2 -0.65 21.65 6.85 21.1 12.3 20.35" fill="#ffffff" fill-rule="evenodd" stroke="none"/>
    <path d="M-7.1 -20.4 Q-7.6 -25.65 -10.15 -30.75 -12.75 -35.9 -16.75 -33.5 -20.75 -31.15 -19.85 -26.2 -19.0 -21.25 -16.85 -15.35 M18.1 8.25 L15.6 6.35 13.75 4.75 Q12.2 5.65 10.3 5.7 7.35 5.65 5.25 3.45 3.2 1.25 3.2 -1.85 3.2 -4.6 4.8 -6.65 2.65 -10.65 1.4 -15.3 0.55 -18.25 0.1 -21.25 M6.55 -20.55 Q6.8 -25.9 9.2 -30.1 11.6 -34.35 15.3 -33.6 18.95 -32.9 18.65 -27.85 18.3 -22.85 16.85 -19.8 L15.25 -16.5 M4.8 -6.65 L5.25 -7.2 Q7.35 -9.45 10.3 -9.4 13.2 -9.45 15.3 -7.2 17.4 -5.0 17.4 -1.85 17.4 1.25 15.3 3.45 L13.75 4.75 M12.0 17.05 L11.5 15.65 11.45 15.6 Q9.5 16.5 7.4 16.8 L-0.25 17.25 -7.7 17.45 -8.0 18.25 -8.15 18.7 -8.65 20.45 -8.8 21.1 -9.4 24.85 -8.1 25.1 0.3 25.85 9.2 25.2 Q12.7 24.8 13.75 24.1 L13.8 24.1 14.25 23.45 Q14.3 22.25 13.25 20.0 L13.25 19.95 12.0 17.05 Q12.5 17.95 15.75 19.4 18.95 20.8 20.45 18.65 21.9 16.5 18.2 14.95 14.45 13.4 12.55 12.2 M11.45 15.6 L10.1 12.6 M-8.15 21.2 L-0.65 21.65 6.85 21.1 12.3 20.35 M-9.7 12.7 Q-11.75 15.2 -14.5 16.85 -18.5 19.3 -16.9 20.65 -15.35 22.0 -13.2 21.45 -11.1 20.85 -8.15 18.7 M-6.1 13.4 L-7.7 17.45 M-8.2 25.5 Q-8.85 26.25 -9.0 30.5 -9.15 34.9 -7.15 34.25 -5.1 33.55 -4.7 32.2 -4.25 30.85 -3.3 30.35 L3.8 30.85 Q7.85 30.75 8.45 30.0 11.35 34.6 13.45 33.3 15.45 32.0 14.8 29.5 14.15 26.95 14.15 24.85" fill="none" stroke="#512314" stroke-linecap="round" stroke-linejoin="round" stroke-width="2.75"/>
    <path d="M-16.85 -15.35 Q-22.55 -10.25 -22.5 -1.65 -22.5 7.55 -14.9 10.9 -12.35 12.0 -9.7 12.7 L-6.1 13.4 1.15 13.75 Q5.9 13.5 10.0 12.25 L12.25 11.45 12.3 11.45 16.05 9.65 18.1 8.25 M0.1 -21.25 L-0.05 -21.25 Q-3.8 -21.25 -7.1 -20.4 M15.25 -16.5 L15.85 -16.05 Q22.45 -10.9 22.45 -2.45 22.45 4.5 18.1 8.25 M-14.5 -0.55 L-13.8 -0.65 Q-13.05 -0.7 -12.5 -0.15 -12.0 0.4 -12.0 1.15 L-12.1 1.9 -12.5 2.5 Q-13.05 3.0 -13.8 3.0 -14.6 3.0 -15.1 2.5 -15.65 1.95 -15.6 1.15 -15.65 0.4 -15.1 -0.15 L-14.5 -0.55 M0.1 -21.25 L6.55 -20.55" fill="none" stroke="#512314" stroke-linecap="round" stroke-linejoin="round" stroke-width="2.75"/>
    <path d="M-3.6 4.0 Q-2.6 2.75 -1.85 0.25 L0.75 3.95" fill="none" stroke="#512314" stroke-linecap="round" stroke-linejoin="round" stroke-width="1.75"/>
  </g>
</svg>
