<?xml version="1.0" encoding="UTF-8" standalone="no"?>
<svg xmlns:xlink="http://www.w3.org/1999/xlink" height="30.15px" width="42.4px" xmlns="http://www.w3.org/2000/svg">
  <g transform="matrix(1.0, 0.0, 0.0, 1.0, 21.2, 15.05)">
    <path d="M17.35 3.25 L16.9 4.15 Q15.05 7.65 9.7 5.95 4.35 4.25 3.85 1.9 4.75 0.95 4.95 -0.8 L7.45 0.25 Q8.65 0.75 9.8 0.25 10.9 -0.25 10.6 -3.65 10.3 -7.1 4.9 -3.35 4.5 -5.45 3.15 -6.55 4.5 -5.45 4.9 -3.35 10.3 -7.1 10.6 -3.65 10.9 -0.25 9.8 0.25 8.65 0.75 7.45 0.25 L4.95 -0.8 Q4.75 0.95 3.85 1.9 4.35 4.25 9.7 5.95 15.05 7.65 16.9 4.15 L17.35 3.25 19.65 7.0 Q20.05 7.7 19.55 7.85 17.8 8.45 15.95 8.45 13.8 8.5 12.95 10.0 L11.3 12.7 Q10.5 13.9 9.55 13.45 8.55 12.95 7.7 12.05 L5.85 9.75 Q4.85 8.35 3.95 6.25 3.05 4.15 3.55 2.2 2.35 3.1 0.25 3.0 -2.5 3.2 -3.7 1.95 -4.6 1.0 -4.8 -0.75 L-4.85 -1.6 -4.7 -3.3 Q-4.35 -5.4 -3.0 -6.5 -4.35 -5.4 -4.7 -3.3 L-4.85 -1.6 -4.8 -0.75 Q-4.6 1.0 -3.7 1.95 L-3.8 2.35 -3.8 2.4 -3.9 2.6 -3.75 2.55 Q-3.1 4.45 -3.95 6.45 -4.85 8.55 -5.85 9.95 L-7.7 12.25 Q-8.55 13.15 -9.5 13.65 -10.5 14.1 -11.25 12.9 L-12.9 10.2 Q-13.8 8.7 -15.95 8.65 -17.8 8.65 -19.55 8.05 -20.05 7.9 -19.65 7.2 L-18.1 4.55 -17.15 3.4 -17.45 2.55 Q-18.55 -0.5 -18.35 -4.65 -18.15 -10.0 -15.5 -12.45 -12.85 -14.95 -8.05 -12.3 -3.25 -9.7 -3.0 -6.5 -1.9 -7.4 0.25 -7.65 2.05 -7.45 3.15 -6.55 3.4 -9.75 8.2 -12.35 13.0 -15.0 15.7 -12.5 18.3 -10.05 18.55 -4.7 18.7 0.0 17.35 3.25 M4.95 -0.8 L5.0 -1.65 4.9 -3.35 5.0 -1.65 4.95 -0.8 M3.85 1.9 L3.55 2.2 3.85 1.9 M-4.8 -0.75 L-7.3 0.3 Q-8.5 0.8 -9.6 0.3 -10.75 -0.2 -10.45 -3.6 -10.15 -7.05 -4.7 -3.3 -10.15 -7.05 -10.45 -3.6 -10.75 -0.2 -9.6 0.3 -8.5 0.8 -7.3 0.3 L-4.8 -0.75 M-17.15 3.4 L-16.2 5.05 Q-14.2 7.45 -9.55 6.0 -4.9 4.55 -3.9 2.6 -4.9 4.55 -9.55 6.0 -14.2 7.45 -16.2 5.05 L-17.15 3.4" fill="#ffcccc" fill-rule="evenodd" stroke="none"/>
    <path d="M3.15 -6.55 Q4.5 -5.45 4.9 -3.35 10.3 -7.1 10.6 -3.65 10.9 -0.25 9.8 0.25 8.65 0.75 7.45 0.25 L4.95 -0.8 Q4.75 0.95 3.85 1.9 4.35 4.25 9.7 5.95 15.05 7.65 16.9 4.15 L17.35 3.25 Q18.7 0.0 18.55 -4.7 18.3 -10.05 15.7 -12.5 13.0 -15.0 8.2 -12.35 3.4 -9.75 3.15 -6.55 2.05 -7.45 0.25 -7.65 -1.9 -7.4 -3.0 -6.5 -4.35 -5.4 -4.7 -3.3 L-4.85 -1.6 -4.8 -0.75 Q-4.6 1.0 -3.7 1.95 -2.5 3.2 0.25 3.0 2.35 3.1 3.55 2.2 L3.85 1.9 M4.9 -3.35 L5.0 -1.65 4.95 -0.8 M17.35 3.25 L19.65 7.0 Q20.05 7.7 19.55 7.85 17.8 8.45 15.95 8.45 13.8 8.5 12.95 10.0 L11.3 12.7 Q10.5 13.9 9.55 13.45 8.55 12.95 7.7 12.05 L5.85 9.75 Q4.85 8.35 3.95 6.25 3.05 4.15 3.55 2.2 M-4.7 -3.3 Q-10.15 -7.05 -10.45 -3.6 -10.75 -0.2 -9.6 0.3 -8.5 0.8 -7.3 0.3 L-4.8 -0.75 M-3.75 2.55 Q-3.1 4.45 -3.95 6.45 -4.85 8.55 -5.85 9.95 L-7.7 12.25 Q-8.55 13.15 -9.5 13.65 -10.5 14.1 -11.25 12.9 L-12.9 10.2 Q-13.8 8.7 -15.95 8.65 -17.8 8.65 -19.55 8.05 -20.05 7.9 -19.65 7.2 L-18.1 4.55 -17.15 3.4 -17.45 2.55 Q-18.55 -0.5 -18.35 -4.65 -18.15 -10.0 -15.5 -12.45 -12.85 -14.95 -8.05 -12.3 -3.25 -9.7 -3.0 -6.5 M-3.7 1.95 L-3.8 2.35 -3.8 2.4 -3.75 2.55 M-3.9 2.6 Q-4.9 4.55 -9.55 6.0 -14.2 7.45 -16.2 5.05 L-17.15 3.4 M-3.8 2.4 L-3.9 2.6" fill="none" stroke="#512314" stroke-linecap="round" stroke-linejoin="round" stroke-width="2.75"/>
  </g>
</svg>
