<?xml version="1.0" encoding="UTF-8" standalone="no"?>
<svg xmlns:xlink="http://www.w3.org/1999/xlink" height="21.35px" width="25.1px" xmlns="http://www.w3.org/2000/svg">
  <g transform="matrix(1.0, 0.0, 0.0, 1.0, 12.55, 10.7)">
    <path d="M2.95 -2.15 Q2.95 -3.2 2.0 -3.95 1.05 -4.65 -0.3 -4.65 -1.65 -4.65 -2.6 -3.95 -3.55 -3.2 -3.55 -2.15 -3.55 -1.1 -2.6 -0.4 -1.65 0.35 -0.3 0.35 1.05 0.35 2.0 -0.4 2.95 -1.1 2.95 -2.15 M1.45 -9.15 Q6.0 -8.9 9.3 -3.9 13.1 1.95 8.65 6.0 2.7 11.4 -6.45 7.6 -12.35 5.1 -10.7 -1.85 -9.05 -8.8 -0.45 -9.15 L1.45 -9.15" fill="#ffffff" fill-rule="evenodd" stroke="none"/>
    <path d="M2.95 -2.15 Q2.95 -1.1 2.0 -0.4 1.05 0.35 -0.3 0.35 -1.65 0.35 -2.6 -0.4 -3.55 -1.1 -3.55 -2.15 -3.55 -3.2 -2.6 -3.95 -1.65 -4.65 -0.3 -4.65 1.05 -4.65 2.0 -3.95 2.95 -3.2 2.95 -2.15" fill="#512314" fill-rule="evenodd" stroke="none"/>
    <path d="M2.95 -2.15 Q2.95 -1.1 2.0 -0.4 1.05 0.35 -0.3 0.35 -1.65 0.35 -2.6 -0.4 -3.55 -1.1 -3.55 -2.15 -3.55 -3.2 -2.6 -3.95 -1.65 -4.65 -0.3 -4.65 1.05 -4.65 2.0 -3.95 2.95 -3.2 2.95 -2.15 M1.45 -9.15 L-0.45 -9.15 Q-9.05 -8.8 -10.7 -1.85 -12.35 5.1 -6.45 7.6 2.7 11.4 8.65 6.0 13.1 1.95 9.3 -3.9 6.0 -8.9 1.45 -9.15" fill="none" stroke="#512314" stroke-linecap="round" stroke-linejoin="round" stroke-width="3.0"/>
  </g>
</svg>
