<?xml version="1.0" encoding="UTF-8" standalone="no"?>
<svg xmlns:xlink="http://www.w3.org/1999/xlink" height="24.65px" width="22.7px" xmlns="http://www.w3.org/2000/svg">
  <g transform="matrix(1.0, 0.0, 0.0, 1.0, 11.6, 12.9)">
    <path d="M-6.05 -6.6 Q-4.8 -8.05 -4.5 -9.75 L-4.05 -12.4 Q-3.8 -8.25 -2.4 -6.65 -1.85 -6.0 -0.8 -5.5 0.8 -4.75 3.55 -4.4 1.05 -4.5 -0.8 -3.15 L-1.85 -2.25 Q-3.5 -0.5 -3.9 2.3 -3.9 -0.7 -5.65 -2.5 -7.9 -4.9 -11.1 -5.0 L-8.55 -5.25 Q-7.3 -5.2 -6.05 -6.6 M6.0 4.55 L6.25 3.2 Q6.35 5.35 7.2 6.15 7.95 7.0 10.6 7.3 8.7 7.2 7.5 8.4 6.55 9.25 6.35 10.7 6.35 9.15 5.35 8.25 4.05 7.05 2.2 7.0 L3.65 6.85 Q4.35 6.9 5.1 6.2 5.8 5.45 6.0 4.55" fill="#ffffff" fill-rule="evenodd" stroke="none"/>
    <path d="M-6.05 -6.6 Q-7.3 -5.2 -8.55 -5.25 L-11.1 -5.0 Q-7.9 -4.9 -5.65 -2.5 -3.9 -0.7 -3.9 2.3 -3.5 -0.5 -1.85 -2.25 L-0.8 -3.15 Q1.05 -4.5 3.55 -4.4 0.8 -4.75 -0.8 -5.5 -1.85 -6.0 -2.4 -6.65 -3.8 -8.25 -4.05 -12.4 L-4.5 -9.75 Q-4.8 -8.05 -6.05 -6.6 M-4.0 3.4 L-3.9 2.3 M6.0 4.55 Q5.8 5.45 5.1 6.2 4.35 6.9 3.65 6.85 L2.2 7.0 Q4.05 7.05 5.35 8.25 6.35 9.15 6.35 10.7 6.55 9.25 7.5 8.4 8.7 7.2 10.6 7.3 7.95 7.0 7.2 6.15 6.35 5.35 6.25 3.2 L6.0 4.55 M6.3 11.25 L6.35 10.7" fill="none" stroke="#ffffff" stroke-linecap="round" stroke-linejoin="round" stroke-width="1.0"/>
  </g>
</svg>
