<?xml version="1.0" encoding="UTF-8" standalone="no"?>
<svg xmlns:xlink="http://www.w3.org/1999/xlink" height="24.55px" width="21.95px" xmlns="http://www.w3.org/2000/svg">
  <g transform="matrix(1.0, 0.0, 0.0, 1.0, 8.4, 9.4)">
    <path d="M0.7 -4.15 L0.95 -4.1 1.5 -4.0 0.95 -4.0 0.7 -4.0 0.7 -4.15 M0.75 -3.85 L0.75 -3.7 Q-0.4 -3.6 -1.3 -2.95 L-2.0 -2.35 Q-3.05 -1.25 -3.3 0.6 -3.3 -1.35 -4.45 -2.5 -5.9 -4.05 -7.9 -4.1 L-6.3 -4.3 Q-5.5 -4.25 -4.65 -5.15 -3.9 -6.1 -3.7 -7.2 L-3.4 -8.9 Q-3.25 -6.25 -2.35 -5.2 L-1.3 -4.45 0.75 -3.85 M5.8 13.65 Q5.75 10.85 4.05 9.15 1.85 6.9 -1.25 6.8 L1.2 6.6 Q2.4 6.6 3.65 5.3 4.85 3.95 5.15 2.35 L5.55 0.1 5.6 0.1 5.65 0.45 5.65 0.55 Q5.95 3.9 7.2 5.3 8.55 6.8 13.05 7.35 9.85 7.2 7.75 9.4 6.15 11.0 5.8 13.65" fill="#ffffff" fill-rule="evenodd" stroke="none"/>
    <path d="M0.7 -4.0 L0.95 -4.0 1.5 -4.0 0.95 -4.1 0.7 -4.15 M0.75 -3.7 Q-0.4 -3.6 -1.3 -2.95 L-2.0 -2.35 Q-3.05 -1.25 -3.3 0.6 L-3.35 1.3 M5.8 13.65 Q5.75 10.85 4.05 9.15 1.85 6.9 -1.25 6.8 L1.2 6.6 Q2.4 6.6 3.65 5.3 4.85 3.95 5.15 2.35 L5.55 0.1 M5.6 0.1 L5.65 0.45 5.65 0.55 Q5.95 3.9 7.2 5.3 8.55 6.8 13.05 7.35 9.85 7.2 7.75 9.4 6.15 11.0 5.8 13.65 L5.65 14.65 M0.75 -3.85 L-1.3 -4.45 -2.35 -5.2 Q-3.25 -6.25 -3.4 -8.9 L-3.7 -7.2 Q-3.9 -6.1 -4.65 -5.15 -5.5 -4.25 -6.3 -4.3 L-7.9 -4.1 Q-5.9 -4.05 -4.45 -2.5 -3.3 -1.35 -3.3 0.6" fill="none" stroke="#ffffff" stroke-linecap="round" stroke-linejoin="round" stroke-width="1.0"/>
  </g>
</svg>
