<?xml version="1.0" encoding="UTF-8" standalone="no"?>
<svg xmlns:xlink="http://www.w3.org/1999/xlink" height="38.25px" width="135.8px" xmlns="http://www.w3.org/2000/svg">
  <g transform="matrix(1.0, 0.0, 0.0, 1.0, 67.85, 19.1)">
    <path d="M63.25 -14.3 Q67.7 -13.55 67.95 -8.3 L67.65 -4.05 Q67.5 -3.45 67.0 -3.15 66.2 -2.85 65.7 -3.65 L65.35 -7.4 Q65.15 -8.8 65.3 -10.25 L64.6 -11.05 Q64.2 -11.55 63.6 -11.7 60.65 -10.0 60.7 -6.15 L60.4 -4.9 Q60.05 -4.4 59.55 -4.4 58.9 -4.45 58.6 -5.0 L57.5 -10.3 Q57.2 -11.6 57.45 -12.85 L59.15 -12.8 59.55 -11.4 62.25 -13.75 63.25 -14.3 M43.3 -13.95 Q47.15 -13.85 46.3 -9.5 46.0 -8.05 44.7 -7.55 43.05 -6.95 41.8 -6.7 42.3 -5.35 43.55 -4.9 L44.7 -4.65 Q46.2 -7.15 47.85 -5.75 L48.1 -5.15 Q46.05 -1.3 42.5 -2.6 40.75 -3.25 40.1 -5.35 38.95 -8.8 40.75 -11.7 41.5 -13.05 42.8 -13.75 L42.95 -13.8 43.3 -13.9 43.3 -13.95 M51.25 -14.6 Q54.75 -14.45 53.9 -10.2 53.5 -7.95 51.35 -7.4 L50.6 -7.2 50.75 -6.95 51.4 -6.2 51.55 -6.0 Q53.95 -6.1 56.0 -7.45 L56.6 -7.35 56.95 -6.5 Q54.25 -1.85 50.1 -4.3 49.1 -4.85 48.6 -6.0 48.1 -7.35 48.1 -8.85 L48.3 -10.85 Q49.0 -13.1 50.7 -14.35 L51.25 -14.6 M50.6 -10.2 Q51.3 -10.0 51.85 -10.85 L51.75 -11.85 51.5 -11.95 Q50.9 -11.35 50.7 -10.35 L50.6 -10.2 M42.5 -10.0 L42.35 -9.7 Q43.5 -9.35 44.35 -10.25 L44.25 -10.7 44.2 -11.0 43.65 -11.25 43.55 -11.25 42.5 -10.0 M31.6 -16.95 Q33.05 -15.65 33.1 -13.0 L33.2 -12.75 Q37.5 -14.35 38.85 -9.25 39.55 -6.4 39.0 -3.5 38.05 -2.5 37.2 -3.65 37.3 -6.45 36.7 -8.95 36.4 -9.9 35.65 -10.5 33.25 -10.25 33.85 -7.1 34.05 -5.85 33.6 -4.55 32.45 -3.45 31.5 -4.65 31.55 -8.45 30.8 -11.95 30.4 -13.95 30.5 -16.05 30.8 -16.95 31.6 -16.9 L31.6 -16.95 M27.05 -13.6 Q28.75 -14.1 29.25 -12.4 L29.3 -12.2 Q28.2 -10.7 26.45 -10.05 L26.2 -9.9 28.4 -6.95 Q28.95 -6.1 28.25 -5.25 26.4 -3.05 23.75 -4.2 20.95 -5.4 22.95 -7.45 23.1 -7.75 23.5 -7.6 23.95 -7.5 24.1 -6.95 L24.45 -6.7 25.95 -6.7 23.7 -8.5 23.5 -8.7 23.45 -8.95 23.45 -10.0 23.5 -10.5 Q24.8 -12.0 26.4 -13.3 L26.55 -13.45 26.75 -13.45 27.05 -13.55 27.05 -13.6 M19.65 -13.2 L19.65 -13.3 Q21.25 -12.0 20.95 -9.25 L20.4 -6.05 Q19.75 -4.0 17.95 -3.25 15.0 -2.2 13.0 -4.65 12.6 -8.05 13.15 -11.25 L13.15 -12.0 Q14.8 -14.05 15.6 -11.55 14.85 -9.25 15.05 -6.7 L15.05 -6.2 18.2 -6.3 Q18.85 -8.9 18.65 -11.85 L18.55 -12.3 Q18.8 -13.2 19.65 -13.2 M5.8 -14.5 Q6.3 -13.5 6.15 -11.85 5.95 -10.85 6.05 -9.7 7.85 -9.75 9.15 -11.25 L9.15 -11.55 Q9.15 -12.75 8.55 -13.75 L8.0 -14.55 7.9 -14.6 5.8 -14.5 M4.25 -17.3 L8.7 -16.9 9.25 -16.65 Q12.15 -13.95 11.05 -9.6 9.35 -7.85 7.25 -6.9 L6.2 -6.6 5.8 -2.6 Q5.65 -2.05 5.1 -2.05 4.5 -2.1 4.15 -2.6 3.9 -8.15 4.0 -13.6 3.0 -11.9 2.0 -14.1 1.6 -15.05 2.2 -15.9 3.0 -17.2 4.25 -17.3 M-9.5 -13.65 Q-6.65 -12.7 -6.4 -8.75 -6.25 -6.55 -7.95 -5.0 L-9.5 -4.1 -10.6 -4.05 -10.55 -1.5 -11.55 -0.05 -12.35 -0.05 -13.4 -10.7 -13.35 -11.55 -12.95 -12.0 -12.9 -12.05 Q-12.7 -13.6 -11.5 -13.95 L-9.5 -13.65 M-10.85 -11.35 L-11.15 -10.2 -10.8 -7.2 Q-10.45 -7.2 -10.1 -6.85 L-9.9 -6.85 -9.5 -7.05 -8.95 -7.3 -8.85 -7.55 -8.6 -8.0 -8.3 -8.6 -8.3 -8.85 -8.3 -9.05 -8.3 -9.3 -9.25 -10.45 -9.5 -10.6 -10.85 -11.35 M-19.5 -10.05 L-20.0 -9.5 Q-20.4 -8.1 -20.0 -6.7 L-19.5 -5.45 -19.4 -5.35 -18.85 -5.35 -16.9 -8.95 -16.3 -9.6 Q-14.35 -7.85 -16.3 -5.0 -17.1 -3.8 -18.2 -3.05 -19.65 -2.1 -20.7 -3.3 L-21.65 -4.3 Q-22.45 -6.6 -22.3 -9.15 L-22.25 -10.65 -21.5 -11.6 -20.85 -11.95 Q-19.55 -12.15 -19.3 -10.7 L-19.25 -10.5 -19.5 -10.05 M-29.2 -12.55 Q-30.25 -11.15 -31.85 -10.35 L-32.0 -10.25 Q-31.45 -7.35 -29.0 -5.45 -28.7 -5.2 -28.75 -4.75 -29.15 -2.0 -31.75 -1.5 L-34.55 -1.45 Q-35.95 -1.7 -35.95 -3.25 L-35.6 -3.65 -34.85 -4.2 Q-33.15 -3.85 -31.4 -4.65 -33.9 -6.65 -34.25 -10.0 L-34.15 -11.55 Q-32.9 -13.3 -31.15 -13.95 -29.6 -14.3 -29.25 -12.75 L-29.2 -12.55 M-39.7 -13.3 Q-37.85 -13.95 -37.25 -12.05 L-37.15 -11.85 Q-38.1 -10.35 -39.8 -9.9 L-40.25 -9.6 Q-40.1 -8.05 -38.9 -6.95 L-37.7 -6.0 Q-35.9 -3.2 -38.6 -1.75 L-43.0 -1.65 Q-42.8 -4.6 -39.6 -4.3 -42.05 -6.3 -42.25 -9.45 -42.4 -11.6 -40.65 -12.75 L-40.2 -13.1 -40.05 -13.15 -39.7 -13.2 -39.7 -13.3 M-47.15 -13.45 L-46.8 -13.55 -46.8 -13.6 Q-43.65 -13.2 -44.25 -9.45 -44.85 -6.3 -47.55 -6.85 -47.6 -6.15 -47.3 -5.65 L-46.55 -4.8 -46.2 -4.8 Q-44.8 -6.3 -43.9 -4.55 L-43.75 -4.1 Q-46.1 -0.2 -48.7 -4.1 -50.3 -6.55 -49.65 -9.7 -49.25 -12.15 -47.35 -13.45 L-47.15 -13.45 M-58.35 -18.15 L-58.3 -17.95 -58.3 -17.7 Q-58.65 -13.45 -58.1 -9.1 L-57.8 -3.8 Q-57.75 -0.85 -59.85 -2.3 L-59.95 -3.6 Q-63.6 -0.7 -66.85 -3.9 L-67.35 -4.75 Q-68.25 -6.95 -67.6 -9.3 L-66.55 -10.8 Q-65.5 -12.35 -63.9 -12.6 -61.85 -13.15 -60.55 -12.1 L-60.55 -17.7 -60.55 -18.45 -60.3 -19.1 -58.75 -19.1 Q-58.45 -18.8 -58.35 -18.15 M-54.0 -10.6 L-54.2 -10.3 Q-54.4 -8.3 -53.7 -6.4 -53.2 -4.95 -53.65 -3.5 -55.75 -2.5 -56.35 -5.4 -56.8 -7.5 -56.65 -9.7 -56.45 -12.55 -54.2 -13.3 -51.65 -13.5 -50.35 -11.4 L-50.3 -11.2 Q-50.55 -10.2 -51.35 -10.05 -52.5 -9.9 -53.4 -10.65 L-54.0 -10.6 M-47.1 -10.25 L-47.35 -10.0 -47.1 -9.5 -46.6 -9.5 -46.4 -9.75 -46.3 -10.0 Q-46.25 -10.3 -46.55 -10.65 L-46.7 -10.7 -47.1 -10.25 M-62.05 -9.85 Q-65.1 -10.4 -65.7 -7.15 L-65.6 -6.9 -65.1 -5.85 -64.85 -5.15 Q-62.4 -4.65 -60.35 -6.15 L-60.15 -6.2 -60.35 -8.25 Q-60.9 -8.35 -61.25 -9.15 -61.5 -9.7 -62.05 -9.85" fill="#df4f6c" fill-rule="evenodd" stroke="none"/>
    <path d="M52.55 9.45 L53.3 8.45 Q53.65 8.1 54.05 8.05 57.9 9.05 57.15 12.8 57.05 13.55 56.6 14.2 L56.2 14.55 55.65 14.3 55.45 14.15 Q55.55 12.4 55.25 10.7 55.1 9.95 54.25 9.8 53.35 11.15 53.05 12.75 L52.55 13.1 51.8 12.75 51.7 12.15 51.7 11.55 51.7 11.4 51.25 10.65 50.75 10.05 Q50.15 11.4 50.6 12.9 L50.5 13.3 Q49.7 13.85 49.0 13.15 L48.4 10.45 Q48.25 9.75 48.4 9.1 48.6 8.65 49.1 8.7 L49.5 8.75 Q51.05 7.5 52.3 9.2 L52.55 9.45 M45.5 9.0 Q48.35 9.8 47.25 12.45 46.1 15.2 43.3 13.7 L42.8 13.35 Q42.15 11.45 43.05 9.7 43.35 9.1 44.0 8.75 L44.15 8.7 44.4 8.7 44.4 8.65 Q44.95 8.55 45.4 8.9 L45.5 9.0 M45.7 10.65 L44.5 10.6 Q43.9 11.7 44.5 12.7 L44.65 12.8 Q45.95 12.35 45.95 10.95 L45.7 10.65 M42.2 13.5 Q39.75 16.2 37.5 13.5 L37.35 13.35 37.05 12.7 Q36.45 10.7 37.5 9.4 L38.8 8.25 Q41.1 8.35 40.05 10.1 39.8 10.45 39.3 10.25 L38.95 10.1 Q38.4 10.9 38.65 11.9 L38.75 12.8 38.8 12.9 39.4 13.35 39.5 13.4 41.4 12.65 Q41.85 12.65 42.05 13.05 L42.2 13.5 M19.9 5.7 L20.15 5.65 Q21.0 5.6 21.15 6.35 L21.2 6.45 21.15 7.2 21.15 9.15 22.3 9.1 22.3 9.05 Q24.45 8.7 23.9 10.3 23.65 10.85 22.95 10.85 L21.25 10.7 21.55 12.65 21.6 13.1 21.85 13.4 22.05 13.7 Q21.2 15.55 20.15 13.8 L19.95 13.3 19.65 10.6 17.6 10.5 17.3 10.35 Q17.0 9.45 18.0 9.35 L19.55 9.25 19.45 7.2 19.4 6.05 19.9 5.7 M15.85 8.25 Q17.15 9.0 16.6 10.65 L16.05 11.9 Q14.85 14.3 12.35 13.3 L11.55 12.6 Q10.55 10.35 12.0 8.7 12.15 8.45 12.45 8.5 13.2 8.55 13.25 9.3 L13.05 9.6 12.8 9.9 Q12.7 10.9 13.05 11.85 L13.25 12.15 13.95 12.15 Q15.0 10.75 15.1 9.0 L15.15 8.7 15.6 8.3 15.85 8.25 M1.85 12.25 L0.3 15.5 -0.95 17.4 -1.5 18.0 -1.9 18.4 -2.4 18.75 -3.15 18.4 -3.2 18.35 -3.2 18.05 -3.2 18.0 -3.25 17.6 -3.1 17.4 -2.8 17.15 -2.45 17.0 -0.8 13.85 -0.7 13.55 Q-3.3 13.8 -4.2 11.6 -4.6 10.55 -4.5 9.4 L-3.85 8.65 -3.65 8.55 -3.55 8.5 -3.25 8.5 -3.25 8.45 Q-2.6 8.5 -2.5 9.15 L-2.45 9.3 Q-3.65 11.0 -1.8 11.95 L-1.7 12.0 -1.3 11.95 -0.2 10.9 -0.2 10.75 -0.1 10.45 0.45 9.55 0.55 9.25 Q1.9 8.0 2.15 9.7 2.3 11.0 1.85 12.25 M4.2 10.3 Q4.95 8.65 6.85 8.25 8.95 8.45 8.05 10.05 7.85 10.45 7.35 10.2 L7.0 9.95 Q5.35 10.45 5.7 12.2 L5.75 12.8 Q6.3 13.7 7.5 13.35 8.5 12.6 9.65 12.05 10.2 12.1 10.35 12.6 L10.45 12.9 Q8.45 15.65 5.25 14.3 4.6 14.05 4.4 13.4 4.0 12.25 4.05 11.05 L4.2 10.3 M34.1 11.65 Q35.6 12.45 34.2 13.8 L33.9 13.95 Q33.45 13.85 33.15 13.55 32.75 12.15 34.1 11.7 L34.1 11.65 M25.65 9.7 L25.85 9.1 26.6 8.35 Q27.1 7.9 27.65 7.85 30.3 7.7 29.75 10.0 L29.45 10.65 Q28.55 12.05 26.75 12.05 27.85 13.65 29.7 12.55 30.95 11.8 31.25 13.1 28.45 15.9 25.45 13.15 24.95 11.85 25.35 10.5 L25.65 9.7 M27.85 9.45 L27.5 9.6 27.25 10.05 27.2 10.2 Q27.2 10.55 27.85 10.2 L28.1 9.75 28.25 9.6 Q28.05 9.45 27.9 9.45 L27.85 9.45 M-24.15 18.8 L-24.2 18.75 -24.15 18.4 -24.05 18.0 -23.9 17.4 Q-23.5 15.65 -22.7 13.95 L-22.55 13.5 Q-24.0 14.85 -25.25 12.95 -25.4 12.7 -25.7 12.55 -26.25 11.4 -26.2 10.15 L-26.5 10.4 -29.0 10.65 Q-29.45 11.6 -28.95 12.55 -28.1 14.15 -29.45 14.95 -30.75 14.45 -30.9 13.1 L-31.25 11.1 -31.3 9.9 -31.15 9.75 Q-30.7 9.35 -30.0 9.45 L-29.8 9.3 Q-29.5 9.05 -29.2 9.05 L-26.5 9.3 Q-26.3 9.35 -26.2 9.5 L-26.2 9.4 Q-26.0 8.85 -25.35 8.9 L-25.35 8.85 Q-24.25 9.55 -24.25 11.05 -24.3 11.75 -23.75 12.35 -22.6 10.35 -20.65 9.05 -19.3 9.85 -20.15 11.5 L-20.7 12.9 Q-21.4 15.2 -22.4 17.4 L-22.65 18.0 -22.85 18.4 -23.05 18.8 -24.15 18.8 M-37.65 10.75 Q-37.5 11.25 -37.75 11.7 -39.2 13.7 -41.15 15.0 L-41.55 14.9 Q-42.4 14.2 -42.7 13.1 L-43.35 10.55 -43.3 10.1 Q-43.15 9.8 -42.8 9.7 L-42.5 9.65 Q-41.3 10.0 -41.15 11.4 L-40.85 12.9 -39.15 10.8 -39.05 10.65 Q-38.25 9.1 -37.65 10.75 M-34.95 11.15 L-34.1 11.05 -33.95 10.9 -34.0 10.85 -34.4 10.85 -34.9 11.05 -34.95 11.15 M-33.5 12.5 L-35.2 13.05 Q-33.7 14.25 -32.25 12.6 L-31.8 12.25 Q-31.5 12.35 -31.3 12.55 -31.0 12.75 -31.0 13.1 -32.65 15.9 -35.7 14.55 -36.6 14.15 -36.8 13.25 -37.5 10.2 -34.6 9.25 -31.8 9.2 -32.65 11.5 -32.9 12.15 -33.5 12.5 M-8.05 8.9 L-7.75 8.85 Q-6.65 9.65 -6.55 11.35 L-6.5 11.5 -4.5 13.7 -4.4 13.9 Q-5.75 15.25 -7.1 13.4 L-7.6 12.7 Q-8.5 15.0 -10.9 14.2 L-11.3 13.9 -11.55 13.55 Q-12.05 10.6 -9.25 9.4 L-8.55 9.25 -8.05 8.9 M-9.1 10.9 Q-9.9 11.65 -9.95 12.7 L-9.95 12.85 -9.85 12.9 -9.65 12.9 -9.25 12.45 -8.8 11.25 -8.65 11.0 -9.0 10.9 -9.1 10.9 M-14.7 5.7 L-14.4 5.65 Q-13.55 6.2 -13.15 7.2 L-12.85 8.25 Q-12.45 10.7 -13.15 13.1 -13.95 15.7 -16.5 15.2 -18.55 14.85 -18.45 13.0 L-18.2 11.5 Q-16.75 9.5 -14.4 10.3 L-15.0 7.2 -15.2 6.5 -15.2 6.05 Q-15.05 5.8 -14.7 5.7 M-16.45 11.95 L-16.6 12.1 -16.75 12.7 -16.7 13.6 Q-14.65 14.05 -14.3 11.85 -14.25 11.45 -14.45 11.5 L-14.7 11.65 -15.05 11.75 -15.9 11.65 -16.45 11.95 M-44.3 6.25 Q-44.8 7.3 -46.15 7.05 L-48.85 6.85 -48.9 7.2 -49.3 9.35 Q-47.75 9.2 -46.15 9.35 L-45.8 9.1 -45.5 9.05 Q-43.85 9.95 -45.75 10.8 L-47.2 10.95 -49.45 10.8 -49.7 13.4 -49.55 13.85 -45.15 13.7 Q-45.0 13.65 -44.95 13.9 -44.6 15.4 -46.6 15.45 L-50.15 15.3 -50.5 15.1 Q-51.7 13.4 -51.25 11.25 -50.85 9.25 -50.75 7.2 L-50.7 6.85 -50.8 6.75 -50.8 6.6 Q-50.7 5.3 -49.15 5.25 -46.7 4.75 -44.6 5.8 -44.3 5.95 -44.3 6.25" fill="#e7788e" fill-rule="evenodd" stroke="none"/>
    <path d="M-23.05 18.8 L-23.45 19.15 Q-23.9 19.1 -24.15 18.8 L-23.05 18.8" fill="#ee9fb0" fill-rule="evenodd" stroke="none"/>
  </g>
</svg>
