<?xml version="1.0" encoding="UTF-8" standalone="no"?>
<svg xmlns:xlink="http://www.w3.org/1999/xlink" height="42.75px" width="135.8px" xmlns="http://www.w3.org/2000/svg">
  <g transform="matrix(1.0, 0.0, 0.0, 1.0, 67.85, 19.6)">
    <path d="M61.7 -13.3 L62.25 -13.75 63.25 -14.3 Q67.7 -13.55 67.95 -8.3 L67.65 -4.05 Q67.5 -3.45 67.0 -3.15 L66.15 -3.2 Q66.2 -5.7 65.45 -7.8 L65.6 -8.15 65.75 -8.5 65.7 -8.8 65.75 -9.5 65.5 -9.8 65.45 -10.0 Q65.2 -11.4 64.05 -11.5 L63.7 -11.65 61.7 -13.3 M-67.15 -4.4 L-67.35 -4.75 Q-68.25 -6.95 -67.6 -9.3 L-66.55 -10.8 Q-65.5 -12.35 -63.9 -12.6 L-61.75 -12.7 -63.0 -12.65 Q-65.0 -12.6 -66.15 -10.95 L-66.5 -10.3 Q-66.9 -9.2 -66.7 -8.05 L-66.75 -8.0 -67.15 -4.4 M-60.55 -12.75 L-60.55 -17.7 -60.55 -18.45 -60.3 -19.1 -58.75 -19.1 Q-58.45 -18.8 -58.35 -18.15 L-58.3 -17.95 -58.3 -17.7 -58.4 -14.4 -59.45 -13.7 -60.2 -12.75 -60.55 -12.75" fill="#df4f6c" fill-rule="evenodd" stroke="none"/>
    <path d="M66.15 -3.2 Q66.05 -0.5 65.0 2.55 63.05 8.15 59.45 10.9 L59.0 12.25 Q57.95 13.2 56.9 13.75 L56.6 14.2 56.2 14.55 55.65 14.3 55.6 14.25 Q53.3 14.95 51.05 13.8 L48.1 13.95 Q42.4 16.85 35.3 17.55 33.65 17.75 31.95 18.25 13.65 24.05 -6.3 23.0 L-26.95 21.85 -39.3 20.7 Q-44.0 20.05 -48.1 18.4 L-48.75 18.65 -49.0 18.75 -49.1 18.75 Q-53.75 19.95 -59.15 14.95 -67.8 6.95 -67.15 -4.4 L-66.75 -8.0 -66.7 -8.05 Q-66.9 -9.2 -66.5 -10.3 L-66.15 -10.95 Q-65.0 -12.6 -63.0 -12.65 L-61.75 -12.7 -60.55 -12.75 -60.2 -12.75 -59.45 -13.7 -58.4 -14.4 -57.0 -14.7 Q-29.5 -14.9 -3.0 -18.75 24.7 -21.1 51.9 -17.05 57.1 -16.3 61.0 -13.75 L61.7 -13.3 63.7 -11.65 63.85 -11.55 64.05 -11.5 Q65.2 -11.4 65.45 -10.0 L65.5 -9.8 65.75 -9.5 65.7 -8.8 65.75 -8.5 65.6 -8.15 65.45 -7.8 Q66.2 -5.7 66.15 -3.2 M-51.65 -0.85 L-51.65 -1.2 -51.9 -1.25 -51.65 -0.85 M-41.1 5.95 L-41.4 5.9 -41.4 6.0 -41.1 5.95" fill="#e7788e" fill-rule="evenodd" stroke="none"/>
  </g>
</svg>
