<?xml version="1.0" encoding="UTF-8" standalone="no"?>
<svg xmlns:xlink="http://www.w3.org/1999/xlink" height="185.65px" width="93.0px" xmlns="http://www.w3.org/2000/svg">
  <g transform="matrix(1.0, 0.0, 0.0, 1.0, 46.5, 92.8)">
    <path d="M28.0 -60.7 L27.95 -60.6 27.35 -60.5 27.1 -60.45 25.65 -59.05 25.1 -58.3 25.1 -57.55 25.15 -56.45 25.25 -56.05 Q28.35 -50.8 26.85 -44.85 25.7 -40.15 25.25 -35.45 L25.65 -35.1 Q26.3 -34.75 26.6 -34.95 33.35 -40.1 33.8 -49.2 33.95 -52.05 33.6 -54.85 32.85 -60.4 28.0 -60.7 M-15.0 -2.75 Q-24.35 -6.05 -31.85 -13.65 -45.0 -26.95 -45.0 -45.8 -45.0 -64.65 -31.85 -78.0 -18.65 -91.3 0.0 -91.3 18.65 -91.3 31.8 -78.0 45.0 -64.65 45.0 -45.8 45.0 -26.95 31.8 -13.65 26.0 -7.75 19.15 -4.45 L18.35 -6.15 Q13.3 -15.3 5.8 -6.15 3.5 -3.35 0.85 -0.95 3.5 -3.35 5.8 -6.15 13.3 -15.3 18.35 -6.15 L19.15 -4.45 Q12.85 -1.45 5.7 -0.6 L4.6 -0.5 Q16.05 5.85 9.0 7.5 L6.1 8.05 4.85 5.25 Q3.75 2.55 3.55 -0.4 L4.6 -0.5 3.55 -0.4 Q3.75 2.55 4.85 5.25 L6.1 8.05 1.9 8.45 -1.6 8.3 -4.1 7.95 Q-8.6 7.1 -4.2 3.0 L0.0 -0.3 0.1 -0.3 -4.2 3.0 0.1 -0.3 0.0 -0.3 Q-8.0 -0.3 -15.0 -2.75 -14.35 -5.2 -11.45 -6.8 -2.65 -11.75 0.85 -0.95 L0.1 -0.3 1.9 -0.3 Q1.1 3.4 -0.65 6.6 L-1.6 8.3 -0.65 6.6 Q1.1 3.4 1.9 -0.3 L0.1 -0.3 0.85 -0.95 Q-2.65 -11.75 -11.45 -6.8 -14.35 -5.2 -15.0 -2.75 M19.0 -75.7 Q17.7 -75.45 16.5 -74.4 15.95 -73.85 15.75 -73.2 14.85 -70.1 15.75 -66.95 17.5 -64.3 20.5 -64.45 25.25 -64.7 25.7 -68.7 26.45 -76.05 19.0 -75.7 M3.5 -0.8 L3.55 -0.4 1.9 -0.3 2.0 -0.8 1.9 -0.3 3.55 -0.4 3.5 -0.8 M4.5 -1.8 L5.7 -0.6 4.5 -1.8" fill="#fe8f8f" fill-rule="evenodd" stroke="none"/>
    <path d="M28.0 -60.7 Q32.85 -60.4 33.6 -54.85 33.95 -52.05 33.8 -49.2 33.35 -40.1 26.6 -34.95 26.3 -34.75 25.65 -35.1 L25.25 -35.45 Q25.7 -40.15 26.85 -44.85 28.35 -50.8 25.25 -56.05 L25.15 -56.45 25.1 -57.55 25.1 -58.3 25.65 -59.05 27.1 -60.45 27.35 -60.5 27.95 -60.6 28.0 -60.7 M19.0 -75.7 Q26.45 -76.05 25.7 -68.7 25.25 -64.7 20.5 -64.45 17.5 -64.3 15.75 -66.95 14.85 -70.1 15.75 -73.2 15.95 -73.85 16.5 -74.4 17.7 -75.45 19.0 -75.7" fill="#ffffff" fill-rule="evenodd" stroke="none"/>
    <path d="M-15.0 -2.75 Q-24.35 -6.05 -31.85 -13.65 -45.0 -26.95 -45.0 -45.8 -45.0 -64.65 -31.85 -78.0 -18.65 -91.3 0.0 -91.3 18.65 -91.3 31.8 -78.0 45.0 -64.65 45.0 -45.8 45.0 -26.95 31.8 -13.65 26.0 -7.75 19.15 -4.45 21.5 1.3 15.25 2.55 12.1 3.2 9.2 1.75 7.15 0.7 5.7 -0.6 L4.6 -0.5 Q16.05 5.85 9.0 7.5 L6.1 8.05 Q9.4 14.8 14.5 18.7 M-4.2 3.0 L0.1 -0.3 0.0 -0.3 -4.2 3.0 Q-8.6 7.1 -4.1 7.95 L-1.6 8.3 -0.65 6.6 Q1.1 3.4 1.9 -0.3 L0.1 -0.3 0.85 -0.95 Q-2.65 -11.75 -11.45 -6.8 -14.35 -5.2 -15.0 -2.75 -8.0 -0.3 0.0 -0.3 M-15.0 -2.75 Q-15.75 -0.25 -14.0 3.2 -11.75 7.6 -6.75 4.6 L-4.2 3.0 M0.85 -0.95 Q3.5 -3.35 5.8 -6.15 13.3 -15.3 18.35 -6.15 L19.15 -4.45 Q12.85 -1.45 5.7 -0.6 L4.5 -1.8 M2.0 -0.8 L1.9 -0.3 3.55 -0.4 3.5 -0.8 M4.6 -0.5 L3.55 -0.4 Q3.75 2.55 4.85 5.25 L6.1 8.05 1.9 8.45 Q-1.15 15.35 2.9 24.0 6.75 32.25 2.75 40.6 -0.85 48.15 -0.25 58.15 0.3 66.85 3.0 74.55 6.4 84.15 2.8 91.35 M-1.6 8.3 L1.9 8.45 M-9.5 19.2 Q-5.4 14.75 -1.6 8.3" fill="none" stroke="#512314" stroke-linecap="round" stroke-linejoin="round" stroke-width="3.0"/>
  </g>
</svg>
