<?xml version="1.0" encoding="UTF-8" standalone="no"?>
<svg xmlns:xlink="http://www.w3.org/1999/xlink" height="182.05px" width="93.0px" xmlns="http://www.w3.org/2000/svg">
  <g transform="matrix(1.0, 0.0, 0.0, 1.0, 46.5, 88.3)">
    <path d="M25.55 -53.65 Q25.6 -52.3 26.0 -51.15 27.5 -46.9 27.25 -42.4 L26.95 -36.2 Q26.15 -33.2 25.75 -30.15 L26.65 -29.55 27.7 -29.65 Q29.75 -31.7 30.9 -34.35 33.6 -38.9 33.9 -44.25 L34.05 -48.75 Q34.1 -55.5 27.5 -55.9 L26.9 -55.7 26.0 -55.1 25.75 -54.75 25.55 -53.65 M15.25 -68.75 Q14.95 -66.45 15.8 -64.25 17.8 -58.95 23.95 -61.15 26.6 -62.05 26.45 -64.75 26.1 -71.5 19.0 -71.4 17.5 -71.1 16.2 -69.9 L15.25 -68.75 M-15.15 1.7 Q-24.4 -1.6 -31.85 -9.15 -45.0 -22.45 -45.0 -41.3 -45.0 -60.15 -31.85 -73.5 -18.65 -86.8 0.0 -86.8 18.65 -86.8 31.8 -73.5 45.0 -60.15 45.0 -41.3 45.0 -22.45 31.8 -9.15 26.0 -3.25 19.15 0.05 L18.7 0.25 18.3 -2.05 Q17.0 -8.35 11.85 -6.45 4.7 -3.9 2.0 4.0 L3.5 4.0 2.0 4.0 Q4.7 -3.9 11.85 -6.45 17.0 -8.35 18.3 -2.05 L18.7 0.25 Q12.6 3.05 5.7 3.9 L4.6 4.0 4.25 4.05 Q7.05 4.25 9.75 5.35 L8.55 6.85 Q13.75 11.45 6.25 12.7 L2.95 13.0 2.0 13.05 -2.35 12.8 Q-6.85 11.9 -5.75 8.35 -2.2 7.5 0.6 4.2 L1.25 4.2 1.3 3.35 1.0 3.7 Q0.45 3.9 0.1 4.2 L0.0 4.2 0.1 4.2 -4.2 7.5 0.0 4.2 Q-8.0 4.2 -15.0 1.75 L-15.15 1.7 Q-14.85 -0.1 -13.95 -2.3 -12.65 -5.45 -9.9 -5.65 -0.1 -6.4 1.5 3.0 L1.3 3.35 1.5 3.0 Q-0.1 -6.4 -9.9 -5.65 -12.65 -5.45 -13.95 -2.3 -14.85 -0.1 -15.15 1.7 M3.55 4.1 L2.0 4.2 1.9 4.2 1.25 4.2 1.9 4.2 2.0 4.2 3.55 4.1 4.25 4.05 3.55 4.0 3.55 4.1 M3.5 4.0 L3.55 4.0 3.5 4.0 M7.35 5.85 L8.55 6.85 7.35 5.85 M2.0 4.2 Q3.9 8.9 6.25 12.7 3.9 8.9 2.0 4.2 M1.25 4.2 L-2.35 12.8 1.25 4.2" fill="#fe8f8f" fill-rule="evenodd" stroke="none"/>
    <path d="M15.25 -68.75 L16.2 -69.9 Q17.5 -71.1 19.0 -71.4 26.1 -71.5 26.45 -64.75 26.6 -62.05 23.95 -61.15 17.8 -58.95 15.8 -64.25 14.95 -66.45 15.25 -68.75 M25.55 -53.65 L25.75 -54.75 26.0 -55.1 26.9 -55.7 27.5 -55.9 Q34.1 -55.5 34.05 -48.75 L33.9 -44.25 Q33.6 -38.9 30.9 -34.35 29.75 -31.7 27.7 -29.65 L26.65 -29.55 25.75 -30.15 Q26.15 -33.2 26.95 -36.2 L27.25 -42.4 Q27.5 -46.9 26.0 -51.15 25.6 -52.3 25.55 -53.65" fill="#ffffff" fill-rule="evenodd" stroke="none"/>
    <path d="M-15.15 1.7 Q-24.4 -1.6 -31.85 -9.15 -45.0 -22.45 -45.0 -41.3 -45.0 -60.15 -31.85 -73.5 -18.65 -86.8 0.0 -86.8 18.65 -86.8 31.8 -73.5 45.0 -60.15 45.0 -41.3 45.0 -22.45 31.8 -9.15 26.0 -3.25 19.15 0.05 L18.7 0.25 Q12.6 3.05 5.7 3.9 L4.6 4.0 4.25 4.05 3.55 4.1 3.55 4.0 3.5 4.0 M1.25 4.2 L1.9 4.2 2.0 4.2 3.55 4.1 M1.0 3.7 Q0.45 3.9 0.1 4.2 L0.6 4.2 1.25 4.2 M0.1 4.2 L0.0 4.2 M-15.15 1.7 L-15.0 1.75 Q-8.0 4.2 0.0 4.2" fill="none" stroke="#512314" stroke-linecap="round" stroke-linejoin="round" stroke-width="3.0"/>
    <path d="M18.7 0.25 Q19.6 9.45 9.75 5.35 M8.55 6.85 Q13.75 11.45 6.25 12.7 8.4 16.15 10.9 19.1 13.1 21.7 15.5 23.5 M3.5 4.0 L2.0 4.0 Q4.7 -3.9 11.85 -6.45 17.0 -8.35 18.3 -2.05 L18.7 0.25 M4.25 4.05 Q7.05 4.25 9.75 5.35 M0.6 4.2 L1.0 3.7 M1.25 4.2 L1.3 3.35 1.0 3.7 M4.25 4.05 L3.55 4.0 M1.3 3.35 L1.5 3.0 Q-0.1 -6.4 -9.9 -5.65 -12.65 -5.45 -13.95 -2.3 -14.85 -0.1 -15.15 1.7 -16.25 8.35 -8.5 8.6 L-6.25 8.45 -6.5 9.75 M8.55 6.85 L7.35 5.85 M-2.35 12.8 L2.0 13.05 2.95 13.0 6.25 12.7 Q3.9 8.9 2.0 4.2 M2.0 13.05 L1.5 14.25 1.45 14.35 Q-1.15 20.8 -1.8 28.6 -2.6 38.6 0.65 44.85 3.85 51.1 2.9 59.7 1.95 68.25 -0.75 76.25 -3.5 84.2 -1.0 92.25 M-5.75 8.35 L-6.05 8.4 -6.25 8.45 M-5.75 8.35 Q-5.35 6.9 -4.0 5.0 M-2.35 12.8 L-5.35 18.8 Q-6.75 21.45 -8.5 22.5 M0.6 4.2 Q-2.2 7.5 -5.75 8.35 -6.85 11.9 -2.35 12.8 L1.25 4.2" fill="none" stroke="#512314" stroke-linecap="round" stroke-linejoin="round" stroke-width="3.0"/>
  </g>
</svg>
