<?xml version="1.0" encoding="UTF-8" standalone="no"?>
<svg xmlns:xlink="http://www.w3.org/1999/xlink" height="25.05px" width="24.85px" xmlns="http://www.w3.org/2000/svg">
  <g transform="matrix(1.0, 0.0, 0.0, 1.0, 12.45, 12.5)">
    <path d="M2.4 -3.4 L2.6 -4.5 Q3.05 -6.5 4.25 -7.7 5.35 -8.85 7.0 -8.85 8.6 -8.85 9.7 -7.6 10.85 -6.4 10.9 -4.7 10.85 -3.05 9.7 -1.85 8.55 -0.65 5.9 -0.15 L4.2 -0.1 4.0 -1.4 Q3.55 -2.75 2.4 -3.4 M4.15 0.3 L7.5 0.5 Q9.05 1.0 9.9 2.5 10.65 4.0 10.2 5.55 9.75 7.15 8.35 7.9 L5.35 8.1 Q3.75 7.55 2.05 5.25 1.25 4.25 1.05 3.5 L1.7 3.35 Q3.15 2.8 3.8 1.45 L4.15 0.3 M0.9 3.5 L1.05 5.05 Q1.05 7.9 0.15 9.35 -0.8 10.7 -2.4 11.0 -3.95 11.25 -5.25 10.3 -6.6 9.3 -6.85 7.65 -7.15 5.9 -6.2 4.5 -5.3 3.1 -3.5 2.3 L-2.5 1.95 -1.15 3.1 Q-0.15 3.6 0.9 3.5 M-2.6 1.8 L-3.4 2.2 Q-5.8 3.45 -7.4 3.2 -9.05 2.9 -10.05 1.55 -11.1 0.2 -10.95 -1.4 -10.75 -3.1 -9.5 -4.05 -8.2 -5.05 -6.55 -4.75 -4.95 -4.55 -3.35 -3.25 L-3.05 -3.0 Q-4.5 -4.35 -4.9 -5.65 -5.45 -7.3 -4.8 -8.85 -4.15 -10.35 -2.65 -10.8 L0.3 -10.55 Q1.75 -9.7 2.35 -8.05 2.9 -6.4 2.55 -4.35 L2.35 -3.5 2.1 -3.6 -0.7 -3.8 Q-1.85 -3.45 -2.5 -2.5 L-2.75 -2.7 -3.05 -3.0 -2.75 -2.7 -2.5 -2.5 -2.85 -1.95 Q-3.5 -0.6 -2.95 0.95 L-2.6 1.8" fill="#fee0e0" fill-rule="evenodd" stroke="none"/>
    <path d="M4.2 -0.1 L4.15 0.3 3.8 1.45 Q3.15 2.8 1.7 3.35 L1.05 3.5 0.9 3.5 Q-0.15 3.6 -1.15 3.1 L-2.5 1.95 -2.6 1.8 -2.95 0.95 Q-3.5 -0.6 -2.85 -1.95 L-2.5 -2.5 Q-1.85 -3.45 -0.7 -3.8 L2.1 -3.6 2.35 -3.5 2.4 -3.4 Q3.55 -2.75 4.0 -1.4 L4.2 -0.1" fill="#fde08c" fill-rule="evenodd" stroke="none"/>
    <path d="M2.4 -3.4 L2.6 -4.5 Q3.05 -6.5 4.25 -7.7 5.35 -8.85 7.0 -8.85 8.6 -8.85 9.7 -7.6 10.85 -6.4 10.9 -4.7 10.85 -3.05 9.7 -1.85 8.55 -0.65 5.9 -0.15 L4.2 -0.1 4.15 0.3 7.5 0.5 Q9.05 1.0 9.9 2.5 10.65 4.0 10.2 5.55 9.75 7.15 8.35 7.9 L5.35 8.1 Q3.75 7.55 2.05 5.25 1.25 4.25 1.05 3.5 L0.9 3.5 1.05 5.05 Q1.05 7.9 0.15 9.35 -0.8 10.7 -2.4 11.0 -3.95 11.25 -5.25 10.3 -6.6 9.3 -6.85 7.65 -7.15 5.9 -6.2 4.5 -5.3 3.1 -3.5 2.3 L-2.5 1.95 -2.6 1.8 -3.4 2.2 Q-5.8 3.45 -7.4 3.2 -9.05 2.9 -10.05 1.55 -11.1 0.2 -10.95 -1.4 -10.75 -3.1 -9.5 -4.05 -8.2 -5.05 -6.55 -4.75 -4.95 -4.55 -3.35 -3.25 L-3.05 -3.0 Q-4.5 -4.35 -4.9 -5.65 -5.45 -7.3 -4.8 -8.85 -4.15 -10.35 -2.65 -10.8 L0.3 -10.55 Q1.75 -9.7 2.35 -8.05 2.9 -6.4 2.55 -4.35 L2.35 -3.5 2.4 -3.4 Q3.55 -2.75 4.0 -1.4 L4.2 -0.1 M4.15 0.3 L3.8 1.45 Q3.15 2.8 1.7 3.35 L1.05 3.5 M-2.5 -2.5 Q-1.85 -3.45 -0.7 -3.8 L2.1 -3.6 2.35 -3.5 M0.9 3.5 Q-0.15 3.6 -1.15 3.1 L-2.5 1.95 M-2.5 -2.5 L-2.75 -2.7 -3.05 -3.0 M-2.6 1.8 L-2.95 0.95 Q-3.5 -0.6 -2.85 -1.95 L-2.5 -2.5" fill="none" stroke="#512314" stroke-linecap="round" stroke-linejoin="round" stroke-width="3.0"/>
  </g>
</svg>
