<?xml version="1.0" encoding="UTF-8" standalone="no"?>
<svg xmlns:xlink="http://www.w3.org/1999/xlink" height="103.95px" width="86.5px" xmlns="http://www.w3.org/2000/svg">
  <g transform="matrix(1.0, 0.0, 0.0, 1.0, 43.25, 51.95)">
    <path d="M-23.05 -46.55 L-23.55 -46.3 -23.9 -45.6 -24.55 -45.65 Q-25.1 -45.6 -25.45 -45.0 L-25.85 -44.45 Q-27.05 -43.05 -27.85 -41.35 -28.75 -39.6 -27.0 -39.05 -26.6 -37.9 -25.3 -38.05 L-25.0 -38.2 Q-24.4 -38.75 -24.4 -39.15 -23.85 -38.65 -22.65 -38.9 -21.65 -37.85 -20.25 -38.2 -19.25 -38.5 -19.1 -39.55 -19.0 -40.8 -19.05 -42.0 -19.1 -42.65 -19.4 -43.1 L-20.65 -44.95 Q-21.55 -46.4 -23.05 -46.55 M-32.3 -25.8 L-30.7 -34.55 Q-29.9 -38.35 -28.3 -41.6 L-26.95 -44.05 Q-23.75 -49.15 -20.55 -45.2 L-19.85 -44.3 Q-17.5 -40.75 -15.75 -35.3 L-13.3 -36.3 Q-11.15 -37.0 -8.55 -37.2 -8.95 -36.75 -8.95 -35.95 -9.65 -36.8 -10.9 -36.55 L-11.1 -36.5 -12.05 -35.85 -13.25 -36.1 Q-13.85 -35.95 -14.3 -35.2 L-14.8 -34.5 Q-15.65 -33.25 -15.65 -31.7 -15.7 -30.15 -14.15 -30.15 L-13.85 -30.25 -12.45 -32.25 -12.25 -32.05 Q-11.5 -31.55 -10.75 -32.05 -10.25 -31.8 -9.9 -32.25 L-9.5 -32.95 -8.55 -32.8 -8.3 -32.8 Q-7.95 -31.85 -6.9 -31.3 L-6.05 -31.25 Q-4.15 -31.75 -4.3 -33.7 -4.5 -36.05 -6.5 -36.7 L-6.9 -36.85 -7.1 -37.3 -6.2 -37.3 Q-4.9 -37.35 -4.3 -40.05 L-3.75 -42.2 -3.65 -41.6 Q-3.3 -40.55 -2.2 -41.1 -1.2 -41.65 -1.1 -42.8 L-0.6 -42.45 Q0.0 -42.35 0.35 -42.9 L2.45 -42.45 Q3.2 -41.65 4.3 -41.8 L4.45 -41.55 5.1 -40.95 Q4.95 -38.7 6.4 -37.05 7.7 -35.55 9.15 -36.75 L9.3 -37.1 9.1 -39.25 9.65 -37.1 11.3 -29.85 11.6 -28.3 12.45 -24.45 Q10.95 -23.95 9.85 -23.05 10.95 -23.95 12.45 -24.45 L14.3 -17.3 17.35 -6.15 Q18.4 -2.1 19.85 1.9 L21.0 5.05 Q22.0 7.75 23.15 10.3 L22.3 9.65 22.1 9.7 22.1 9.75 22.05 8.5 Q21.65 6.8 20.9 5.3 20.15 3.7 19.7 1.95 19.3 0.35 18.2 -0.7 L18.2 -0.8 Q18.05 -2.35 16.4 -1.95 15.2 -1.55 14.5 -0.2 12.4 3.75 13.2 8.35 13.5 10.2 14.9 11.4 16.55 12.85 17.6 11.2 L17.8 11.45 18.2 11.9 Q17.95 12.2 17.9 12.8 L17.7 12.9 Q17.25 13.15 17.35 13.65 17.7 15.8 19.0 17.55 19.6 18.45 20.55 18.55 L21.05 19.4 21.45 19.65 21.3 20.1 Q21.2 20.4 21.4 20.55 22.4 21.25 23.65 21.25 L23.7 21.85 Q24.35 23.35 25.5 22.1 L25.95 22.45 Q24.65 23.65 24.25 25.45 23.65 28.1 25.8 29.65 27.95 31.1 30.3 30.45 L31.25 30.55 30.85 30.9 Q29.8 31.95 29.8 33.75 L29.95 34.15 Q31.05 35.1 32.4 35.35 31.6 35.65 30.9 36.15 29.75 36.05 29.45 37.0 29.3 37.35 29.55 37.6 30.7 39.1 32.75 38.75 34.6 38.4 33.95 36.75 L34.1 36.65 Q34.5 35.8 34.1 35.4 L34.2 35.35 34.3 35.4 35.5 35.5 35.7 35.75 Q36.3 36.95 37.35 37.75 L37.5 38.0 Q38.35 39.3 39.35 38.3 L39.4 37.85 Q38.6 35.9 37.4 34.05 L36.6 32.55 37.5 33.9 41.75 40.3 39.65 41.05 Q31.85 43.9 26.2 45.15 20.5 46.4 14.8 48.85 9.1 51.25 3.6 50.15 L-7.65 49.35 Q-13.45 49.6 -18.95 49.35 -24.7 49.1 -30.8 47.2 -33.7 6.5 -33.4 0.5 -33.15 -5.6 -33.25 -12.4 L-33.1 -18.15 -32.55 -24.25 -32.3 -25.8 Q-30.85 -25.25 -29.9 -24.45 -30.85 -25.25 -32.3 -25.8 M-25.3 -40.05 L-25.15 -40.05 -24.9 -40.1 -24.8 -39.8 -25.3 -40.05 M-3.55 -42.8 Q-2.45 -46.0 -0.4 -48.2 2.45 -51.4 4.5 -50.05 L5.75 -48.65 5.25 -48.9 4.95 -48.85 4.8 -48.9 4.75 -48.9 Q4.1 -49.8 2.9 -50.0 L2.45 -49.9 Q1.85 -49.7 1.65 -49.1 L0.55 -48.15 -0.15 -47.05 -2.1 -44.55 -3.35 -43.05 -3.55 -42.8 M6.15 -48.05 L7.55 -44.7 6.6 -46.15 6.55 -46.6 6.1 -47.85 6.15 -48.05 M-9.4 -34.6 L-9.25 -34.65 -9.4 -34.55 -9.4 -34.6 M10.0 -28.85 L11.3 -29.85 10.0 -28.85 M24.25 12.65 L24.95 14.0 24.9 13.95 24.25 12.65 M25.95 15.9 L26.05 16.0 25.95 15.95 25.95 15.9 M26.45 16.75 L30.6 23.3 Q29.95 22.7 29.15 22.5 L29.15 22.35 Q29.25 21.25 28.25 21.1 L27.25 21.5 Q27.7 19.7 26.35 18.0 L26.35 17.9 26.3 17.65 26.45 17.2 26.45 16.75 M32.9 26.9 L34.85 29.85 34.4 29.7 34.3 29.6 33.7 29.4 Q33.7 28.35 32.85 27.55 L32.9 26.95 32.9 26.9 M20.0 11.4 L19.75 11.6 19.7 11.55 19.8 11.45 20.0 11.4 M1.8 -24.2 L1.5 -24.15 0.7 -23.7 Q0.25 -23.25 0.25 -22.5 0.25 -21.8 0.7 -21.35 1.15 -20.85 1.8 -20.85 L2.25 -20.9 2.9 -21.35 Q3.3 -21.8 3.35 -22.5 3.3 -23.25 2.9 -23.7 2.45 -24.2 1.8 -24.2 M-4.9 -22.95 Q-5.55 -23.95 -6.9 -23.85 -8.4 -23.2 -7.55 -21.4 L-6.8 -20.85 Q-5.15 -20.75 -4.8 -22.4 L-4.9 -22.95 M-7.65 -17.75 Q-8.95 -18.45 -10.35 -19.75 -10.8 -18.2 -11.95 -17.25 -10.8 -18.2 -10.35 -19.75 -8.95 -18.45 -7.65 -17.75 M-22.6 -19.15 L-22.55 -18.6 -22.45 -19.0 -22.6 -19.15 M-22.55 -21.0 L-23.3 -20.6 Q-23.75 -20.1 -23.75 -19.4 -23.75 -18.7 -23.3 -18.2 L-23.0 -17.95 -22.2 -17.75 -21.8 -17.75 -21.15 -18.2 Q-20.7 -18.7 -20.7 -19.4 -20.7 -20.1 -21.15 -20.6 -21.6 -21.1 -22.2 -21.05 L-22.55 -21.0 -22.2 -21.05 Q-21.6 -21.1 -21.15 -20.6 -20.7 -20.1 -20.7 -19.4 -20.7 -18.7 -21.15 -18.2 L-21.8 -17.75 -22.2 -17.75 -23.0 -17.95 -23.3 -18.2 Q-23.75 -18.7 -23.75 -19.4 -23.75 -20.1 -23.3 -20.6 L-22.55 -21.0 M-30.15 -17.9 L-33.1 -18.15 -30.15 -17.9 M19.05 27.05 Q17.45 27.6 17.9 29.45 18.5 31.95 20.9 31.9 22.2 31.9 22.85 30.7 23.2 30.1 22.85 29.55 21.55 27.35 19.05 27.05 M11.45 22.1 Q12.65 21.05 12.25 19.3 11.8 17.2 10.0 16.85 8.0 17.45 8.65 19.4 9.2 20.9 10.35 22.1 10.9 22.6 11.45 22.1" fill="#ffffff" fill-rule="evenodd" stroke="none"/>
    <path d="M-23.05 -46.55 Q-21.55 -46.4 -20.65 -44.95 L-19.4 -43.1 Q-19.1 -42.65 -19.05 -42.0 -19.0 -40.8 -19.1 -39.55 -19.25 -38.5 -20.25 -38.2 -21.65 -37.85 -22.65 -38.9 -23.85 -38.65 -24.4 -39.15 -24.4 -38.75 -25.0 -38.2 L-25.3 -38.05 Q-26.6 -37.9 -27.0 -39.05 -28.75 -39.6 -27.85 -41.35 -27.05 -43.05 -25.85 -44.45 L-25.45 -45.0 Q-25.1 -45.6 -24.55 -45.65 L-23.9 -45.6 -23.55 -46.3 -23.05 -46.55 M-25.3 -40.05 L-24.8 -39.8 -24.9 -40.1 -25.15 -40.05 -25.3 -40.05 M-8.3 -32.8 L-8.55 -32.8 -9.5 -32.95 -9.9 -32.25 Q-10.25 -31.8 -10.75 -32.05 -11.5 -31.55 -12.25 -32.05 L-12.45 -32.25 -13.85 -30.25 -14.15 -30.15 Q-15.7 -30.15 -15.65 -31.7 -15.65 -33.25 -14.8 -34.5 L-14.3 -35.2 Q-13.85 -35.95 -13.25 -36.1 L-12.05 -35.85 -11.1 -36.5 -10.9 -36.55 Q-9.65 -36.8 -8.95 -35.95 -8.95 -36.75 -8.55 -37.2 L-7.8 -37.65 -7.1 -37.3 -8.55 -37.2 -7.1 -37.3 -6.9 -36.85 -7.05 -36.85 -7.8 -36.5 Q-8.55 -35.55 -8.55 -34.25 -8.6 -33.45 -8.3 -32.8 M-3.75 -42.2 L-3.55 -42.8 -3.35 -43.05 -2.1 -44.55 -0.15 -47.05 0.55 -48.15 1.65 -49.1 Q1.85 -49.7 2.45 -49.9 L2.9 -50.0 Q4.1 -49.8 4.75 -48.9 4.15 -48.85 4.0 -48.25 3.85 -47.9 3.95 -47.55 3.65 -46.6 4.55 -46.05 5.2 -43.6 5.1 -41.0 L5.1 -40.95 4.45 -41.55 4.3 -41.8 Q3.2 -41.65 2.45 -42.45 L0.35 -42.9 Q0.0 -42.35 -0.6 -42.45 L-1.1 -42.8 Q-1.2 -41.65 -2.2 -41.1 -3.3 -40.55 -3.65 -41.6 L-3.75 -42.2 M5.75 -48.65 L6.15 -48.05 6.1 -47.85 Q5.7 -48.55 4.95 -48.85 L5.25 -48.9 5.75 -48.65 M7.55 -44.7 L7.8 -44.1 7.7 -44.25 7.55 -44.7 7.7 -44.25 6.75 -44.95 6.6 -46.15 7.55 -44.7 M-9.4 -34.6 L-9.4 -34.55 -9.25 -34.65 -9.4 -34.6 M18.2 11.9 L17.8 11.45 17.6 11.2 Q16.55 12.85 14.9 11.4 13.5 10.2 13.2 8.35 12.4 3.75 14.5 -0.2 15.2 -1.55 16.4 -1.95 18.05 -2.35 18.2 -0.8 L18.2 -0.7 Q19.3 0.35 19.7 1.95 20.15 3.7 20.9 5.3 21.65 6.8 22.05 8.5 L22.1 9.75 20.0 11.4 19.8 11.45 19.7 11.55 Q18.65 11.25 18.2 11.9 M30.6 23.3 L31.35 24.3 32.75 26.4 32.9 26.9 30.6 23.3 32.9 26.9 32.9 26.95 32.85 27.55 Q33.7 28.35 33.7 29.4 L33.6 29.4 Q33.45 29.4 33.25 29.55 L32.35 29.95 Q31.7 30.2 31.25 30.55 L30.3 30.45 Q27.95 31.1 25.8 29.65 23.65 28.1 24.25 25.45 24.65 23.65 25.95 22.45 L25.5 22.1 Q24.35 23.35 23.7 21.85 L23.65 21.25 Q22.4 21.25 21.4 20.55 21.2 20.4 21.3 20.1 L21.45 19.65 21.95 19.6 Q23.05 19.1 24.0 18.25 25.25 18.9 26.2 17.8 L26.3 17.65 26.35 17.9 26.35 18.0 Q27.7 19.7 27.25 21.5 L28.25 21.1 Q29.25 21.25 29.15 22.35 L29.15 22.5 Q29.95 22.7 30.6 23.3 M34.1 35.4 Q34.5 35.8 34.1 36.65 L33.95 36.75 Q34.6 38.4 32.75 38.75 30.7 39.1 29.55 37.6 29.3 37.35 29.45 37.0 29.75 36.05 30.9 36.15 31.6 35.65 32.4 35.35 L34.1 35.4 M-4.9 -22.95 L-4.8 -22.4 Q-5.15 -20.75 -6.8 -20.85 L-7.55 -21.4 Q-8.4 -23.2 -6.9 -23.85 -5.55 -23.95 -4.9 -22.95 M11.45 22.1 Q10.9 22.6 10.35 22.1 9.2 20.9 8.65 19.4 8.0 17.45 10.0 16.85 11.8 17.2 12.25 19.3 12.65 21.05 11.45 22.1" fill="#ffcc33" fill-rule="evenodd" stroke="none"/>
    <path d="M7.8 -44.1 Q8.4 -43.4 8.55 -42.35 L8.4 -41.95 9.1 -39.25 8.5 -41.55 8.3 -42.25 7.7 -44.25 8.3 -42.25 8.5 -41.55 9.1 -39.25 9.3 -37.1 9.15 -36.75 Q7.7 -35.55 6.4 -37.05 4.95 -38.7 5.1 -40.95 L5.1 -41.0 Q5.2 -43.6 4.55 -46.05 3.65 -46.6 3.95 -47.55 3.85 -47.9 4.0 -48.25 4.15 -48.85 4.75 -48.9 L4.8 -48.9 4.95 -48.85 Q5.7 -48.55 6.1 -47.85 L6.55 -46.6 6.6 -46.15 6.75 -44.95 7.7 -44.25 7.8 -44.1 M-6.9 -36.85 L-6.5 -36.7 Q-4.5 -36.05 -4.3 -33.7 -4.15 -31.75 -6.05 -31.25 L-6.9 -31.3 Q-7.95 -31.85 -8.3 -32.8 -8.6 -33.45 -8.55 -34.25 -8.55 -35.55 -7.8 -36.5 L-7.05 -36.85 -6.9 -36.85 M22.1 9.75 L22.1 9.7 22.3 9.65 23.15 10.3 Q23.85 11.0 24.15 12.2 L24.25 12.65 24.9 13.95 24.95 14.0 Q26.15 14.5 25.95 15.9 L25.55 15.2 24.95 14.0 25.55 15.2 25.95 15.9 25.95 15.95 26.05 16.0 26.45 16.75 26.45 17.2 26.3 17.65 26.2 17.8 Q25.25 18.9 24.0 18.25 23.05 19.1 21.95 19.6 L21.45 19.65 21.05 19.4 20.55 18.55 Q19.6 18.45 19.0 17.55 17.7 15.8 17.35 13.65 17.25 13.15 17.7 12.9 L17.9 12.8 Q17.95 12.2 18.2 11.9 18.65 11.25 19.7 11.55 L19.75 11.6 20.0 11.4 22.1 9.75 M34.85 29.85 Q35.9 30.35 36.35 31.75 L36.6 32.55 34.85 29.85 36.6 32.55 37.4 34.05 Q38.6 35.9 39.4 37.85 L39.35 38.3 Q38.35 39.3 37.5 38.0 L37.35 37.75 Q36.3 36.95 35.7 35.75 L35.5 35.5 34.3 35.4 34.2 35.35 34.1 35.4 32.4 35.35 Q31.05 35.1 29.95 34.15 L29.8 33.75 Q29.8 31.95 30.85 30.9 L31.25 30.55 Q31.7 30.2 32.35 29.95 L33.25 29.55 Q33.45 29.4 33.6 29.4 L33.7 29.4 34.3 29.6 34.4 29.7 34.85 29.85 M23.15 10.3 L24.25 12.65 23.15 10.3 M19.05 27.05 Q21.55 27.35 22.85 29.55 23.2 30.1 22.85 30.7 22.2 31.9 20.9 31.9 18.5 31.95 17.9 29.45 17.45 27.6 19.05 27.05" fill="#999999" fill-rule="evenodd" stroke="none"/>
    <path d="M1.8 -24.2 Q2.45 -24.2 2.9 -23.7 3.3 -23.25 3.35 -22.5 3.3 -21.8 2.9 -21.35 L2.25 -20.9 1.8 -20.85 Q1.15 -20.85 0.7 -21.35 0.25 -21.8 0.25 -22.5 0.25 -23.25 0.7 -23.7 L1.5 -24.15 1.8 -24.2 M-22.6 -19.15 L-22.45 -19.0 -22.55 -18.6 -22.6 -19.15" fill="#512314" fill-rule="evenodd" stroke="none"/>
    <path d="M-8.55 -37.2 Q-11.15 -37.0 -13.3 -36.3 L-15.75 -35.3 Q-17.5 -40.75 -19.85 -44.3 L-20.55 -45.2 Q-23.75 -49.15 -26.95 -44.05 L-28.3 -41.6 Q-29.9 -38.35 -30.7 -34.55 L-32.3 -25.8 -32.55 -24.25 -33.1 -18.15 M-7.1 -37.3 L-6.2 -37.3 Q-4.9 -37.35 -4.3 -40.05 L-3.75 -42.2 -3.55 -42.8 Q-2.45 -46.0 -0.4 -48.2 2.45 -51.4 4.5 -50.05 L5.75 -48.65 6.15 -48.05 7.55 -44.7 7.7 -44.25 8.3 -42.25 8.5 -41.55 9.1 -39.25 9.65 -37.1 11.3 -29.85 M-7.1 -37.3 L-8.55 -37.2 M12.45 -24.45 L11.6 -28.3 11.3 -29.85 M23.15 10.3 Q22.0 7.75 21.0 5.05 L19.85 1.9 Q18.4 -2.1 17.35 -6.15 L14.3 -17.3 12.45 -24.45 M24.25 12.65 L24.95 14.0 M25.95 15.9 L26.05 16.0 26.45 16.75 30.6 23.3 32.9 26.9 34.85 29.85 36.6 32.55 37.5 33.9 41.75 40.3 39.65 41.05 Q31.85 43.9 26.2 45.15 20.5 46.4 14.8 48.85 9.1 51.25 3.6 50.15 L-7.65 49.35 Q-13.45 49.6 -18.95 49.35 -24.7 49.1 -30.8 47.2 -33.7 6.5 -33.4 0.5 -33.15 -5.6 -33.25 -12.4 L-33.1 -18.15 M24.25 12.65 L23.15 10.3 M25.95 15.9 L25.55 15.2 24.95 14.0 M1.8 -24.2 Q2.45 -24.2 2.9 -23.7 3.3 -23.25 3.35 -22.5 3.3 -21.8 2.9 -21.35 L2.25 -20.9 1.8 -20.85 Q1.15 -20.85 0.7 -21.35 0.25 -21.8 0.25 -22.5 0.25 -23.25 0.7 -23.7 L1.5 -24.15 1.8 -24.2 M-22.55 -21.0 L-22.2 -21.05 Q-21.6 -21.1 -21.15 -20.6 -20.7 -20.1 -20.7 -19.4 -20.7 -18.7 -21.15 -18.2 L-21.8 -17.75 -22.2 -17.75 -23.0 -17.95 -23.3 -18.2 Q-23.75 -18.7 -23.75 -19.4 -23.75 -20.1 -23.3 -20.6 L-22.55 -21.0" fill="none" stroke="#512314" stroke-linecap="round" stroke-linejoin="round" stroke-width="3.0"/>
    <path d="M-32.3 -25.8 Q-30.85 -25.25 -29.9 -24.45 M11.3 -29.85 L14.25 -31.4 Q16.35 -32.2 18.6 -32.45 M12.45 -24.45 L14.6 -25.05 20.25 -25.7 22.3 -25.55 M9.85 -23.05 Q10.95 -23.95 12.45 -24.45 M11.3 -29.85 L10.0 -28.85 M-33.1 -18.15 L-35.65 -17.8 Q-38.35 -17.15 -40.45 -15.95 L-41.75 -14.9 M-11.95 -17.25 Q-10.8 -18.2 -10.35 -19.75 -8.95 -18.45 -7.65 -17.75 M-22.6 -19.15 L-22.55 -18.6 -22.45 -19.0 -22.6 -19.15 M-33.1 -18.15 L-30.15 -17.9 M-32.3 -25.8 L-34.35 -26.5 Q-37.2 -27.2 -39.8 -26.5 L-41.45 -26.05" fill="none" stroke="#512314" stroke-linecap="round" stroke-linejoin="round" stroke-width="3.0"/>
  </g>
</svg>
