<?xml version="1.0" encoding="UTF-8" standalone="no"?>
<svg xmlns:xlink="http://www.w3.org/1999/xlink" height="104.75px" width="75.5px" xmlns="http://www.w3.org/2000/svg">
  <g transform="matrix(1.0, 0.0, 0.0, 1.0, 38.2, 52.35)">
    <path d="M-2.2 -38.4 L0.2 -38.55 0.25 -38.55 2.65 -38.45 5.2 -37.95 Q5.7 -42.1 6.7 -45.3 L7.05 -46.35 7.1 -46.4 7.55 -47.55 7.95 -48.45 8.0 -48.6 8.8 -49.8 8.85 -49.8 8.9 -49.85 Q10.75 -51.95 13.45 -49.65 L13.0 -49.9 12.95 -49.9 12.8 -49.85 12.55 -49.85 11.5 -50.4 10.85 -50.1 Q7.55 -47.75 7.35 -43.15 5.9 -40.4 5.35 -37.3 L-3.75 -38.2 -3.65 -38.25 -2.2 -38.4 M22.95 -32.65 L23.25 -31.8 23.8 -30.35 23.9 -30.1 23.2 -30.65 22.95 -32.65 M16.65 -22.7 L17.85 -21.4 18.85 -18.35 Q20.1 -14.45 21.85 -10.9 L21.95 -9.75 22.25 -8.55 25.85 12.0 30.1 38.6 Q30.3 40.05 31.35 40.95 L32.5 41.75 Q28.55 43.55 24.6 44.5 L13.5 46.65 Q7.85 47.45 2.65 49.6 -2.6 51.7 -8.6 50.45 -14.7 49.15 -20.5 49.0 L-27.45 48.5 -26.6 47.3 Q-25.65 45.7 -25.4 43.8 L-25.3 42.55 Q-21.5 33.15 -18.5 23.5 -16.15 15.85 -14.9 8.0 L-13.4 -0.6 -10.4 -16.0 -9.05 -18.2 -7.6 -20.65 Q-1.85 -28.1 8.5 -26.9 10.2 -26.15 11.7 -25.0 10.7 -22.85 13.8 -21.45 14.9 -20.95 15.75 -21.75 L16.65 -22.7 M28.0 -12.6 L25.6 -18.5 25.55 -18.85 26.55 -19.95 26.75 -18.85 28.0 -12.6 M-13.05 -48.2 L-12.3 -47.65 Q-9.9 -45.85 -8.2 -42.95 L-7.9 -42.4 -7.65 -41.9 -6.9 -40.4 Q-6.25 -38.85 -5.5 -38.35 L-6.5 -38.4 -6.95 -38.35 -7.65 -39.35 Q-8.15 -41.85 -9.45 -43.75 -10.4 -46.1 -12.4 -47.25 L-13.05 -48.2 M-18.0 -47.85 L-18.0 -47.25 -18.45 -46.95 -18.0 -47.85 M-18.0 -47.0 L-18.05 -41.4 Q-19.7 -35.75 -19.4 -29.35 -19.15 -23.85 -19.65 -18.4 L-20.05 -16.75 Q-20.2 -15.9 -20.0 -15.25 L-20.05 -15.1 Q-20.25 -13.75 -19.95 -12.8 -20.6 -9.65 -21.4 -6.55 L-21.45 -6.2 -20.8 -14.5 Q-20.5 -18.25 -20.35 -21.9 L-20.25 -25.8 -20.25 -27.45 -20.0 -34.85 -20.0 -34.95 -20.0 -35.0 -19.9 -37.05 -19.75 -39.4 -19.7 -40.15 -19.5 -42.2 -18.7 -43.1 -18.75 -44.3 -19.4 -42.7 -18.75 -46.1 -18.7 -46.25 -18.6 -46.05 -18.0 -47.0 M-21.6 -3.85 Q-21.4 -2.3 -20.1 -1.55 L-20.35 0.05 Q-22.3 1.35 -21.25 3.85 L-23.65 13.6 -24.2 14.25 -23.75 12.2 -23.1 8.9 -23.05 8.7 -22.55 5.4 Q-21.95 1.2 -21.65 -3.0 L-21.6 -3.85 M-24.85 16.75 L-25.2 18.15 -25.25 18.2 -24.85 16.75 M-25.9 20.25 L-25.85 20.35 -25.95 20.4 -25.9 20.25 M-26.2 21.2 L-26.1 21.65 -25.9 22.05 -25.85 22.3 -25.85 22.4 -25.75 22.2 -25.5 22.35 -25.65 23.1 -26.45 25.7 -26.75 26.2 Q-29.7 30.35 -31.15 35.05 L-31.45 35.3 -31.5 35.4 -31.9 35.65 -30.55 32.35 -29.0 28.45 -26.2 21.2 M-33.15 38.65 L-33.3 39.35 -33.45 39.4 -33.15 38.65 M-36.05 45.65 L-35.7 46.4 -34.9 47.5 -36.7 47.2 -36.05 45.65 M-31.3 48.05 L-31.15 47.85 -30.9 48.1 -31.3 48.05 M-19.7 -34.9 L-19.45 -34.6 -19.7 -34.95 -19.7 -34.9" fill="#ffffff" fill-rule="evenodd" stroke="none"/>
    <path d="M-3.75 -38.2 L5.35 -37.3 Q5.9 -40.4 7.35 -43.15 7.55 -47.75 10.85 -50.1 L11.5 -50.4 12.55 -49.85 12.8 -49.85 12.95 -49.9 13.0 -49.9 13.45 -49.65 Q14.2 -49.3 14.75 -48.75 20.55 -44.6 22.15 -37.15 L22.95 -32.65 20.0 -40.05 Q18.5 -43.6 16.35 -46.5 L16.3 -46.55 16.25 -46.65 14.5 -48.65 13.65 -49.5 13.45 -49.65 13.65 -49.5 14.5 -48.65 16.25 -46.65 16.3 -46.55 16.35 -46.5 Q18.5 -43.6 20.0 -40.05 L22.95 -32.65 23.2 -30.65 23.9 -30.1 25.55 -24.45 26.55 -19.95 25.55 -24.45 23.9 -30.1 Q26.35 -28.05 26.95 -24.6 L27.1 -22.4 Q27.1 -20.95 26.55 -19.95 L25.55 -18.85 25.6 -18.5 28.0 -12.6 29.4 -6.2 Q30.8 -0.4 35.8 40.1 L32.5 41.75 35.8 40.1 Q30.8 -0.4 29.4 -6.2 L28.0 -12.6 Q30.95 -3.95 31.45 5.5 L31.65 7.35 36.6 36.15 Q36.85 37.8 36.35 39.55 35.2 43.2 32.5 41.75 L31.35 40.95 Q30.3 40.05 30.1 38.6 L25.85 12.0 22.25 -8.55 21.95 -9.75 21.85 -10.9 Q20.1 -14.45 18.85 -18.35 L17.85 -21.4 16.65 -22.7 Q18.95 -25.75 14.5 -27.4 13.55 -27.35 12.8 -26.55 12.0 -25.75 11.7 -25.0 10.2 -26.15 8.5 -26.9 -1.85 -28.1 -7.6 -20.65 L-9.05 -18.2 -10.4 -16.0 -13.4 -0.6 -14.9 8.0 Q-16.15 15.85 -18.5 23.5 -21.5 33.15 -25.3 42.55 L-25.4 43.8 Q-25.65 45.7 -26.6 47.3 L-27.45 48.5 -30.9 48.1 -27.45 48.5 Q-29.05 50.05 -30.9 48.1 L-31.15 47.85 -31.3 48.05 Q-33.1 49.65 -34.9 47.5 L-35.7 46.4 -36.05 45.65 -33.75 40.2 -33.75 40.15 -33.45 39.4 -33.75 40.15 -33.75 40.2 -36.05 45.65 -36.15 44.35 Q-35.95 40.9 -33.45 39.4 L-33.3 39.35 -33.15 38.65 -31.9 35.65 -33.15 38.65 -33.0 37.8 Q-32.9 36.35 -31.9 35.65 L-31.5 35.4 -31.45 35.3 -31.15 35.05 Q-29.7 30.35 -26.75 26.2 L-26.45 25.7 -25.65 23.1 -25.5 22.35 -25.75 22.2 -25.9 22.05 -26.1 21.65 -26.2 21.2 -25.95 20.4 -25.85 20.35 -25.9 20.25 -25.6 19.5 -25.25 18.2 -25.6 19.5 -25.9 20.25 Q-26.35 18.95 -25.25 18.2 L-25.2 18.15 -24.85 16.75 -24.2 14.25 -24.85 16.75 -24.8 16.3 Q-24.75 15.05 -24.2 14.25 L-23.65 13.6 -21.25 3.85 Q-22.3 1.35 -20.35 0.05 L-20.1 -1.55 Q-21.4 -2.3 -21.6 -3.85 L-21.45 -6.2 -21.4 -6.55 Q-20.6 -9.65 -19.95 -12.8 -20.25 -13.75 -20.05 -15.1 L-20.0 -15.25 Q-20.2 -15.9 -20.05 -16.75 L-19.65 -18.4 Q-19.15 -23.85 -19.4 -29.35 -19.7 -35.75 -18.05 -41.4 L-18.0 -47.0 -18.0 -47.25 -18.0 -47.85 -18.0 -48.0 Q-17.95 -48.95 -16.95 -49.4 L-15.5 -49.9 Q-14.0 -49.3 -13.05 -48.2 L-12.4 -47.25 Q-10.4 -46.1 -9.45 -43.75 -8.15 -41.85 -7.65 -39.35 L-6.95 -38.35 -6.5 -38.4 -5.5 -38.35 -3.75 -38.2 -4.55 -38.1 Q-5.05 -38.0 -5.5 -38.35 -5.05 -38.0 -4.55 -38.1 L-3.75 -38.2 M25.55 -24.45 L26.95 -24.6 25.55 -24.45 M-18.0 -47.85 L-17.5 -48.5 Q-15.95 -50.05 -13.05 -48.2 -15.95 -50.05 -17.5 -48.5 L-18.0 -47.85 M-31.3 48.05 L-34.5 47.55 -34.9 47.5 -34.5 47.55 -31.3 48.05 M-19.55 -42.1 L-19.5 -42.2 -19.7 -40.15 -19.75 -39.4 -19.9 -37.05 -19.75 -39.8 -20.0 -40.2 Q-20.05 -41.25 -19.55 -42.1 M-19.7 -34.9 L-19.7 -34.95 -19.45 -34.6 -19.7 -34.9 M-9.55 -23.7 L-8.7 -23.4 Q-8.2 -23.05 -8.05 -22.35 -7.9 -21.65 -8.25 -21.1 -8.6 -20.55 -9.25 -20.4 L-9.65 -20.4 -10.4 -20.7 Q-10.9 -21.05 -11.05 -21.75 -11.2 -22.45 -10.85 -23.0 L-9.85 -23.7 -9.55 -23.7 -9.85 -23.7 -10.85 -23.0 Q-11.2 -22.45 -11.05 -21.75 -10.9 -21.05 -10.4 -20.7 L-9.65 -20.4 -9.25 -20.4 Q-8.6 -20.55 -8.25 -21.1 -7.9 -21.65 -8.05 -22.35 -8.2 -23.05 -8.7 -23.4 L-9.55 -23.7" fill="#999999" fill-rule="evenodd" stroke="none"/>
    <path d="M11.7 -25.0 Q12.0 -25.75 12.8 -26.55 13.55 -27.35 14.5 -27.4 18.95 -25.75 16.65 -22.7 L15.75 -21.75 Q14.9 -20.95 13.8 -21.45 10.7 -22.85 11.7 -25.0 M13.35 -24.55 Q13.65 -25.1 14.3 -25.2 L14.35 -25.2 14.6 -25.2 15.45 -24.95 Q16.0 -24.6 16.15 -23.85 L16.15 -23.2 16.15 -23.1 15.9 -22.6 15.65 -22.3 Q15.35 -22.05 14.95 -21.95 L14.5 -21.9 13.8 -22.2 Q13.25 -22.6 13.1 -23.3 L13.1 -23.95 13.35 -24.55 13.1 -23.95 13.1 -23.3 Q13.25 -22.6 13.8 -22.2 L14.5 -21.9 14.95 -21.95 Q15.35 -22.05 15.65 -22.3 L15.9 -22.6 16.15 -23.1 16.15 -23.2 16.15 -23.85 Q16.0 -24.6 15.45 -24.95 L14.6 -25.2 14.35 -25.2 14.3 -25.2 Q13.65 -25.1 13.35 -24.55 M14.95 -23.15 L15.1 -22.85 15.1 -23.15 15.05 -23.4 14.95 -23.25 14.95 -23.15 14.95 -23.25 15.05 -23.4 15.1 -23.15 15.1 -22.85 14.95 -23.15" fill="#512314" fill-rule="evenodd" stroke="none"/>
    <path d="M-2.2 -38.4 L-3.65 -38.25 -3.05 -38.7 -2.2 -38.4 M-18.0 -47.25 L-18.0 -47.0 -18.6 -46.05 -18.7 -46.25 -18.45 -46.95 -18.0 -47.25 M-25.9 22.05 L-25.75 22.2 -25.85 22.4 -25.85 22.3 -25.9 22.05 M-30.55 32.35 L-30.5 31.9 -29.55 29.55 -29.0 28.45 -30.55 32.35 M-19.5 -42.2 L-19.4 -42.7 -19.5 -42.2 -19.55 -42.1 -19.4 -42.7 -18.75 -44.3 -18.7 -43.1 -19.5 -42.2" fill="#ffcc33" fill-rule="evenodd" stroke="none"/>
    <path d="M13.45 -49.65 Q10.75 -51.95 8.9 -49.85 L8.85 -49.8 8.8 -49.8 8.0 -48.6 7.95 -48.45 7.55 -47.55 7.1 -46.4 7.05 -46.35 6.7 -45.3 Q5.7 -42.1 5.2 -37.95 L2.65 -38.45 0.25 -38.55 0.2 -38.55 -2.2 -38.4 -3.65 -38.25 -3.75 -38.2 -4.55 -38.1 Q-5.05 -38.0 -5.5 -38.35 -6.25 -38.85 -6.9 -40.4 L-7.65 -41.9 -7.9 -42.4 -8.2 -42.95 Q-9.9 -45.85 -12.3 -47.65 L-13.05 -48.2 Q-15.95 -50.05 -17.5 -48.5 L-18.0 -47.85 -18.45 -46.95 M22.95 -32.65 L23.25 -31.8 M13.45 -49.65 L13.65 -49.5 14.5 -48.65 16.25 -46.65 16.3 -46.55 16.35 -46.5 Q18.5 -43.6 20.0 -40.05 L22.95 -32.65 M23.9 -30.1 L23.8 -30.35 23.25 -31.8 M32.5 41.75 L35.8 40.1 Q30.8 -0.4 29.4 -6.2 L28.0 -12.6 26.75 -18.85 26.55 -19.95 25.55 -24.45 23.9 -30.1 M13.35 -24.55 L13.1 -23.95 13.1 -23.3 Q13.25 -22.6 13.8 -22.2 L14.5 -21.9 14.95 -21.95 Q15.35 -22.05 15.65 -22.3 L15.9 -22.6 16.15 -23.1 16.15 -23.2 16.15 -23.85 Q16.0 -24.6 15.45 -24.95 L14.6 -25.2 14.35 -25.2 14.3 -25.2 Q13.65 -25.1 13.35 -24.55 M-27.45 48.5 L-20.5 49.0 Q-14.7 49.15 -8.6 50.45 -2.6 51.7 2.65 49.6 7.85 47.45 13.5 46.65 L24.6 44.5 Q28.55 43.55 32.5 41.75 M-21.45 -6.2 L-21.6 -3.85 -21.65 -3.0 Q-21.95 1.2 -22.55 5.4 L-23.05 8.7 -23.1 8.9 -23.75 12.2 -24.2 14.25 -24.85 16.75 -25.25 18.2 -25.6 19.5 -25.9 20.25 -25.95 20.4 -26.2 21.2 M-31.9 35.65 L-33.15 38.65 M-33.45 39.4 L-33.75 40.15 -33.75 40.2 -36.05 45.65 M-34.9 47.5 L-34.5 47.55 -31.3 48.05 M-30.9 48.1 L-27.45 48.5 M-30.9 48.1 L-31.3 48.05 M-34.9 47.5 L-36.7 47.2 -36.05 45.65 M-33.45 39.4 L-33.15 38.65 M-31.9 35.65 L-30.55 32.35 -29.0 28.45 -26.2 21.2 M-19.4 -42.7 L-18.75 -46.1 -18.7 -46.25 -18.45 -46.95 M-19.4 -42.7 L-19.5 -42.2 -19.7 -40.15 -19.75 -39.4 -19.9 -37.05 -20.0 -35.0 -20.0 -34.95 -20.0 -34.85 -20.25 -27.45 -20.25 -25.8 -20.35 -21.9 Q-20.5 -18.25 -20.8 -14.5 L-21.45 -6.2 M-9.55 -23.7 L-9.85 -23.7 -10.85 -23.0 Q-11.2 -22.45 -11.05 -21.75 -10.9 -21.05 -10.4 -20.7 L-9.65 -20.4 -9.25 -20.4 Q-8.6 -20.55 -8.25 -21.1 -7.9 -21.65 -8.05 -22.35 -8.2 -23.05 -8.7 -23.4 L-9.55 -23.7" fill="none" stroke="#512314" stroke-linecap="round" stroke-linejoin="round" stroke-width="3.0"/>
    <path d="M23.25 -31.8 L25.15 -32.85 Q27.75 -34.1 30.5 -33.9 L32.2 -33.8 M26.95 -24.6 L28.1 -24.6 Q30.85 -24.5 33.15 -23.7 34.55 -23.25 34.6 -22.95 M14.95 -23.15 L14.95 -23.25 15.05 -23.4 15.1 -23.15 15.1 -22.85 14.95 -23.15 M26.95 -24.6 L25.55 -24.45 M-20.25 -27.45 Q-21.65 -28.05 -23.45 -28.35 L-27.95 -28.55 M-20.35 -21.9 L-22.6 -22.1 -28.25 -21.6 -30.25 -21.1" fill="none" stroke="#512314" stroke-linecap="round" stroke-linejoin="round" stroke-width="3.0"/>
  </g>
</svg>
