<?xml version="1.0" encoding="UTF-8" standalone="no"?>
<svg xmlns:xlink="http://www.w3.org/1999/xlink" height="151.35px" width="233.3px" xmlns="http://www.w3.org/2000/svg">
  <g transform="matrix(1.0, 0.0, 0.0, 1.0, 116.65, 75.7)">
    <path d="M21.35 -34.5 L21.45 -34.5 22.7 -34.5 22.8 -34.5 27.8 -34.5 29.15 -34.5 31.05 -34.55 34.7 -33.25 Q37.2 -32.15 40.0 -31.55 42.25 -31.05 42.85 -28.7 44.5 -28.4 45.35 -27.0 46.05 -25.85 45.95 -24.45 48.05 -22.5 46.65 -20.1 45.1 -17.35 41.95 -19.0 40.05 -19.95 39.7 -22.1 L38.75 -23.25 Q37.9 -24.05 37.45 -25.1 L37.35 -25.45 37.1 -25.45 36.55 -24.65 35.0 -23.6 Q34.95 -22.2 34.15 -20.45 33.4 -18.75 33.45 -16.85 33.45 -15.3 32.0 -14.85 27.7 -13.55 27.2 -17.7 26.95 -19.9 27.3 -21.75 L25.35 -22.2 Q21.45 -17.5 18.1 -22.65 17.7 -23.2 17.45 -23.9 L16.85 -25.45 Q13.65 -20.6 9.9 -22.65 L9.8 -22.7 9.8 -22.5 Q10.1 -20.3 6.3 -19.6 4.9 -19.4 4.05 -20.55 3.05 -21.95 2.5 -23.4 0.9 -27.4 2.4 -32.0 3.0 -33.95 4.55 -34.65 L5.95 -34.7 7.9 -34.7 Q8.75 -34.45 9.25 -33.9 L10.0 -34.7 13.6 -34.7 14.3 -34.7 20.85 -34.55 21.1 -34.35 21.35 -34.5 M9.8 -22.5 L2.5 -23.4 9.8 -22.5 M-88.4 -54.05 Q-88.15 -55.75 -87.15 -57.4 L-86.1 -59.3 Q-85.45 -62.65 -84.15 -65.8 -83.65 -66.9 -82.55 -67.55 L-81.15 -68.1 -79.3 -68.25 Q-77.55 -67.35 -76.35 -65.55 -74.75 -63.3 -72.9 -60.25 L-71.85 -57.9 Q-71.75 -55.85 -72.65 -53.6 -72.95 -52.7 -73.95 -52.55 L-75.55 -52.45 Q-75.65 -50.75 -77.05 -49.85 -78.45 -49.0 -80.05 -49.6 -82.25 -44.9 -86.05 -48.5 L-86.55 -48.65 Q-88.0 -49.05 -88.3 -50.55 -88.7 -52.35 -88.4 -54.05 M-57.45 -50.25 L-56.15 -50.6 -55.65 -50.55 -55.3 -50.5 -55.2 -50.45 Q-53.35 -50.1 -52.8 -48.55 L-52.15 -49.55 -50.45 -50.95 -48.1 -51.25 -47.6 -51.3 Q-43.7 -50.1 -42.4 -46.2 -42.0 -45.1 -42.9 -44.35 -45.8 -41.85 -49.75 -43.65 L-50.85 -44.15 -51.4 -44.4 Q-50.25 -41.45 -54.7 -40.55 -55.45 -40.4 -56.2 -40.55 -62.4 -42.15 -59.3 -48.35 -58.65 -49.7 -57.45 -50.25 M-35.75 -63.75 L-34.95 -65.25 Q-33.15 -68.35 -30.55 -70.7 L-28.3 -72.6 -27.55 -74.0 -26.4 -74.2 Q-23.35 -74.5 -21.7 -70.95 L-21.4 -70.35 -21.3 -68.35 Q-21.35 -67.0 -20.65 -65.85 L-19.5 -63.5 -19.2 -62.5 Q-18.8 -60.8 -19.0 -59.0 -19.3 -56.3 -22.1 -56.7 -24.65 -57.1 -25.75 -59.2 L-27.35 -57.7 Q-29.25 -56.1 -30.75 -58.15 L-31.1 -58.7 -32.1 -57.45 Q-32.8 -56.65 -33.8 -57.15 -37.9 -59.3 -35.75 -63.75 M-67.3 -51.0 L-66.35 -50.65 -65.75 -50.45 -64.25 -50.15 -62.85 -49.95 -62.75 -49.95 Q-61.45 -48.3 -62.5 -45.2 L-62.55 -44.85 Q-60.1 -39.6 -66.2 -38.7 -67.9 -38.45 -68.45 -40.0 -69.65 -43.05 -69.15 -46.25 L-68.35 -49.45 Q-68.0 -50.45 -67.3 -51.0 M-56.95 -17.8 L-57.15 -19.45 -55.65 -20.85 Q-53.4 -22.45 -51.95 -20.55 -49.95 -18.0 -51.85 -16.15 L-52.95 -15.35 -53.0 -15.35 -54.1 -14.8 Q-54.65 -14.55 -55.05 -14.4 L-55.5 -14.25 -58.95 -14.55 Q-58.05 -14.55 -57.15 -15.35 L-57.05 -15.7 -57.0 -15.95 Q-56.8 -17.0 -56.95 -17.8" fill="#4e433d" fill-rule="evenodd" stroke="none"/>
    <path d="M31.05 -34.55 L29.15 -34.5 27.8 -34.5 22.8 -34.5 22.7 -34.5 21.45 -34.5 21.35 -34.5 22.0 -34.9 Q23.95 -34.45 26.1 -35.5 L31.05 -34.55 M20.85 -34.55 L14.3 -34.7 13.6 -34.7 10.0 -34.7 Q10.55 -35.25 11.35 -35.65 13.25 -36.7 15.2 -37.05 L16.6 -36.75 Q18.9 -36.0 20.85 -34.55 M7.9 -34.7 L5.95 -34.7 4.55 -34.65 Q5.1 -35.0 5.85 -35.1 L7.9 -34.7 M-79.3 -68.25 Q-76.55 -68.2 -75.65 -65.45 L-75.55 -65.1 Q-71.95 -61.85 -71.85 -57.9 L-72.9 -60.25 Q-74.75 -63.3 -76.35 -65.55 -77.55 -67.35 -79.3 -68.25 M-67.3 -51.0 Q-66.65 -51.55 -65.65 -51.6 -63.65 -51.15 -62.75 -49.95 L-62.85 -49.95 -64.25 -50.15 -65.75 -50.45 -66.35 -50.65 -67.3 -51.0 M-50.45 -50.95 Q-49.65 -51.5 -48.65 -51.6 L-47.6 -51.3 -48.1 -51.25 -50.45 -50.95 M-27.55 -74.0 Q-26.95 -74.65 -25.9 -74.9 L-25.15 -75.1 Q-22.0 -73.7 -21.4 -70.35 L-21.7 -70.95 Q-23.35 -74.5 -26.4 -74.2 L-27.55 -74.0 M-56.95 -17.8 Q-57.35 -19.85 -59.65 -20.85 L-60.3 -20.65 Q-61.05 -20.45 -61.4 -19.7 L-61.45 -18.6 -60.9 -15.7 -62.1 -16.75 Q-63.45 -18.0 -62.5 -19.4 -59.65 -23.6 -57.15 -19.45 L-56.95 -17.8" fill="#333333" fill-rule="evenodd" stroke="none"/>
    <path d="M21.35 -34.5 L21.1 -34.35 20.85 -34.55 21.35 -34.5 M10.0 -34.7 L9.25 -33.9 Q8.75 -34.45 7.9 -34.7 L9.1 -34.7 10.0 -34.7 M9.8 -22.5 L9.8 -22.7 9.9 -22.65 9.8 -22.5 M4.1 61.55 L-0.9 61.8 -8.55 62.2 -16.05 62.4 -23.9 62.2 -31.15 61.8 Q-32.0 63.85 -32.2 65.5 -32.8 69.0 -34.25 71.4 -34.5 68.0 -39.65 67.4 L-40.4 67.55 Q-41.55 67.8 -41.9 68.9 L-42.2 70.3 -42.05 68.95 Q-41.25 65.45 -41.25 61.4 L-42.55 61.35 Q-41.3 60.1 -40.8 57.65 -40.5 56.1 -39.3 55.15 L-36.35 54.25 Q-32.95 55.1 -29.55 54.25 L-26.8 55.9 Q-21.8 59.45 -15.65 59.9 -13.45 61.0 -10.95 61.3 -8.8 61.55 -6.7 61.3 -5.6 61.15 -4.9 60.7 L-4.4 60.75 4.1 61.55 M-48.9 60.85 L-51.0 60.65 -51.0 60.5 Q-50.3 60.4 -49.55 59.9 L-48.9 60.85 M-56.5 69.05 L-57.3 70.3 -57.15 69.0 -56.5 69.05 M-64.4 69.35 Q-64.75 68.35 -64.45 66.9 L-64.0 66.4 -64.2 67.0 Q-64.6 68.35 -64.4 69.35 M-89.15 -54.25 L-87.75 -59.0 -85.4 -65.45 Q-84.65 -67.25 -82.95 -68.25 L-81.15 -69.0 -79.3 -68.25 -81.15 -68.1 -82.55 -67.55 Q-83.65 -66.9 -84.15 -65.8 -85.45 -62.65 -86.1 -59.3 L-87.15 -57.4 Q-88.15 -55.75 -88.4 -54.05 L-89.15 -54.25 M-53.35 -50.65 L-51.7 -50.85 -50.45 -50.95 -52.15 -49.55 -52.8 -48.55 Q-53.35 -50.1 -55.2 -50.45 L-53.35 -50.65 M-35.85 -63.8 L-35.1 -65.35 Q-33.6 -68.4 -31.55 -71.05 L-31.25 -71.45 Q-29.7 -73.45 -27.55 -74.0 L-28.3 -72.6 -30.55 -70.7 Q-33.15 -68.35 -34.95 -65.25 L-35.75 -63.75 -35.85 -63.8 M-21.4 -70.35 L-20.65 -68.6 -18.95 -63.8 -18.6 -62.7 -19.2 -62.5 -19.5 -63.5 -20.65 -65.85 Q-21.35 -67.0 -21.3 -68.35 L-21.4 -70.35 M-64.65 -15.6 Q-67.3 -15.25 -68.75 -13.7 -69.65 -12.8 -70.05 -11.55 L-70.5 -9.55 Q-70.8 -6.15 -68.9 -3.55 L-69.1 -3.35 -70.05 -2.2 -70.35 -1.85 -70.65 -2.65 Q-72.7 -7.45 -70.45 -11.6 -69.75 -12.9 -68.85 -13.8 -67.15 -15.6 -64.7 -15.9 L-64.65 -15.6 M-56.8 -13.3 L-57.5 -12.8 Q-58.55 -13.85 -60.05 -14.5 L-59.9 -14.85 -58.95 -14.55 -55.5 -14.25 -55.05 -14.4 Q-54.65 -14.55 -54.1 -14.8 L-53.0 -15.35 -52.95 -15.35 -51.85 -16.15 -51.4 -15.5 Q-47.3 -14.95 -45.05 -11.2 L-44.85 -10.85 Q-43.05 -7.7 -43.5 -3.6 L-44.4 -7.5 Q-44.85 -9.35 -45.65 -10.75 -47.95 -14.65 -52.95 -14.6 L-53.65 -14.6 -55.0 -14.35 -56.4 -13.65 -56.7 -13.4 -56.8 -13.3 M-52.95 -15.35 L-51.4 -15.5 -52.95 -15.35 M-11.9 -43.5 L-11.8 -43.3 -11.95 -43.45 -11.9 -43.5 M-72.95 15.4 L-72.9 16.1 -73.05 16.55 -73.05 16.15 -72.95 15.4 M-50.6 15.25 L-50.55 15.3 -50.65 15.3 -50.6 15.25 M-44.2 50.2 L-44.4 50.4 -44.6 49.9 -44.2 50.2 M-9.9 51.1 L-9.65 51.45 -10.15 51.35 -10.2 51.35 -9.9 51.1" fill="#64584e" fill-rule="evenodd" stroke="none"/>
    <path d="M4.55 -34.65 Q3.0 -33.95 2.4 -32.0 0.9 -27.4 2.5 -23.4 3.05 -21.95 4.05 -20.55 4.9 -19.4 6.3 -19.6 10.1 -20.3 9.8 -22.5 L9.9 -22.65 Q13.65 -20.6 16.85 -25.45 L17.45 -23.9 Q17.7 -23.2 18.1 -22.65 21.45 -17.5 25.35 -22.2 L27.3 -21.75 Q26.95 -19.9 27.2 -17.7 27.7 -13.55 32.0 -14.85 33.45 -15.3 33.45 -16.85 33.4 -18.75 34.15 -20.45 34.95 -22.2 35.0 -23.6 L36.55 -24.65 37.1 -25.45 37.35 -25.45 37.45 -25.1 Q37.9 -24.05 38.75 -23.25 L39.7 -22.1 Q40.05 -19.95 41.95 -19.0 45.1 -17.35 46.65 -20.1 48.05 -22.5 45.95 -24.45 46.05 -25.85 45.35 -27.0 44.5 -28.4 42.85 -28.7 42.25 -31.05 40.0 -31.55 37.2 -32.15 34.7 -33.25 L31.05 -34.55 36.8 -34.1 44.25 -32.8 Q47.8 -32.1 51.2 -30.3 54.6 -28.6 56.85 -26.95 L61.6 -23.25 66.05 -18.8 Q68.05 -16.35 69.85 -13.5 L73.3 -7.95 Q75.1 -5.15 75.9 -1.85 L77.55 5.1 78.15 9.35 Q77.75 10.1 79.8 10.15 L80.15 10.15 84.5 9.65 85.0 9.55 Q87.35 9.15 89.15 8.25 L90.85 7.1 94.55 3.95 94.9 4.25 94.7 3.9 94.65 3.85 95.7 2.85 98.0 0.2 99.3 -2.05 100.95 -5.65 101.7 -8.6 102.05 -10.05 102.95 -15.35 Q103.2 -17.1 103.8 -18.55 L104.15 -18.4 Q104.25 -19.95 105.05 -20.8 L105.65 -21.3 105.55 -21.45 Q108.15 -23.9 111.6 -22.45 114.4 -21.25 114.85 -17.15 115.45 -13.5 114.85 -9.6 114.25 -6.15 113.15 -3.0 L113.1 -2.9 113.0 -2.65 112.85 -2.15 111.5 1.3 110.6 3.45 Q109.4 6.1 107.6 8.75 L105.95 10.8 104.95 11.8 103.35 13.05 102.95 13.25 102.25 13.75 97.7 16.9 Q95.05 18.55 91.85 19.55 L91.65 19.2 90.35 19.6 90.45 19.95 85.0 21.2 79.8 21.6 78.55 21.6 77.3 28.15 Q76.7 32.0 75.7 35.7 74.9 38.75 72.9 41.8 L69.25 47.1 Q67.65 49.75 64.8 52.25 62.0 54.45 59.0 56.1 L57.55 56.7 Q56.6 59.75 56.05 63.65 55.45 67.5 52.7 69.15 49.95 70.8 47.25 67.3 47.25 62.8 48.1 59.45 L45.3 59.95 37.8 60.6 36.0 60.6 Q35.55 64.9 34.7 68.75 33.8 72.6 30.05 72.4 26.25 72.2 26.7 68.35 L27.5 61.2 22.25 61.4 14.6 61.2 Q11.25 61.2 7.95 61.35 9.9 60.85 11.45 59.5 12.6 58.5 12.0 57.2 11.05 55.15 9.1 54.5 L8.55 53.85 Q6.3 52.75 3.85 52.45 0.9 49.3 -3.55 48.8 L-3.8 48.5 Q-5.95 43.65 -9.95 40.85 L-10.5 39.6 Q-12.85 34.75 -17.85 34.35 L-18.8 33.2 -18.9 32.8 Q-20.4 27.0 -25.15 23.8 -24.65 19.0 -25.8 14.45 -27.9 6.25 -35.9 5.3 L-35.95 4.95 Q-37.85 -0.85 -43.25 -2.5 L-43.5 -3.6 Q-43.05 -7.7 -44.85 -10.85 L-45.05 -11.2 Q-47.3 -14.95 -51.4 -15.5 L-51.85 -16.15 Q-49.95 -18.0 -51.95 -20.55 -53.4 -22.45 -55.65 -20.85 L-57.15 -19.45 Q-59.65 -23.6 -62.5 -19.4 -63.45 -18.0 -62.1 -16.75 L-60.9 -15.7 -60.9 -15.6 Q-60.4 -15.1 -59.9 -14.85 L-60.05 -14.5 Q-61.95 -15.35 -64.65 -15.6 L-64.7 -15.9 Q-67.15 -15.6 -68.85 -13.8 -69.75 -12.9 -70.45 -11.6 -72.7 -7.45 -70.65 -2.65 L-70.35 -1.85 Q-74.55 3.25 -77.65 9.1 -82.05 17.35 -76.15 24.3 -76.1 26.65 -76.85 28.75 -78.25 32.4 -77.15 36.2 -74.85 44.1 -67.1 42.7 L-66.95 43.0 -67.4 44.9 Q-67.65 50.05 -62.6 51.5 L-61.4 51.85 Q-60.25 54.65 -56.15 55.4 L-55.45 56.2 -54.8 56.9 -54.65 57.6 Q-53.1 60.8 -51.0 60.5 L-51.0 60.65 -53.75 60.35 -54.35 62.2 Q-54.95 65.9 -56.5 69.05 L-57.15 69.0 Q-57.2 65.8 -61.65 64.9 L-62.4 65.05 Q-63.6 65.3 -64.0 66.4 L-64.45 66.9 Q-63.65 63.25 -63.45 58.65 L-68.7 57.3 Q-71.95 56.7 -74.75 55.5 -78.0 54.05 -80.8 52.4 L-86.6 48.55 -91.45 43.85 Q-93.5 41.2 -94.9 38.15 L-97.7 32.4 Q-99.35 29.35 -100.15 25.9 -101.15 22.8 -101.75 18.95 L-102.35 11.6 -102.55 3.65 -101.95 -3.5 -101.15 -10.6 -99.95 -16.9 -99.75 -17.8 -99.65 -18.0 -99.75 -18.0 Q-99.1 -21.35 -97.9 -24.5 L-97.0 -27.3 -96.6 -27.2 Q-94.2 -26.55 -93.65 -24.95 -94.2 -26.55 -96.6 -27.2 L-97.0 -27.3 -96.6 -28.5 -95.7 -31.45 -94.7 -34.75 -93.65 -38.2 -91.65 -44.95 -89.85 -51.65 -89.15 -54.25 -88.4 -54.05 Q-88.7 -52.35 -88.3 -50.55 -88.0 -49.05 -86.55 -48.65 L-86.05 -48.5 Q-82.25 -44.9 -80.05 -49.6 -78.45 -49.0 -77.05 -49.85 -75.65 -50.75 -75.55 -52.45 L-73.95 -52.55 Q-72.95 -52.7 -72.65 -53.6 -71.75 -55.85 -71.85 -57.9 L-70.5 -54.5 Q-69.6 -52.05 -67.3 -51.0 -68.0 -50.45 -68.35 -49.45 L-69.15 -46.25 Q-69.65 -43.05 -68.45 -40.0 -67.9 -38.45 -66.2 -38.7 -60.1 -39.6 -62.55 -44.85 L-62.5 -45.2 Q-61.45 -48.3 -62.75 -49.95 -60.8 -49.8 -58.9 -50.0 L-57.6 -50.25 -57.45 -50.25 Q-58.65 -49.7 -59.3 -48.35 -62.4 -42.15 -56.2 -40.55 -55.45 -40.4 -54.7 -40.55 -50.25 -41.45 -51.4 -44.4 L-50.85 -44.15 -49.75 -43.65 Q-45.8 -41.85 -42.9 -44.35 -42.0 -45.1 -42.4 -46.2 -43.7 -50.1 -47.6 -51.3 L-45.2 -51.65 Q-43.95 -51.85 -42.95 -52.45 -41.85 -53.25 -41.05 -54.6 L-38.1 -59.75 -35.85 -63.8 -35.75 -63.75 Q-37.9 -59.3 -33.8 -57.15 -32.8 -56.65 -32.1 -57.45 L-31.1 -58.7 -30.75 -58.15 Q-29.25 -56.1 -27.35 -57.7 L-25.75 -59.2 Q-24.65 -57.1 -22.1 -56.7 -19.3 -56.3 -19.0 -59.0 -18.8 -60.8 -19.2 -62.5 L-18.6 -62.7 -16.65 -56.55 -14.25 -49.8 -11.9 -43.5 -11.95 -43.45 -11.8 -43.3 -11.2 -42.3 Q-9.75 -39.7 -7.55 -38.0 L-5.6 -36.7 -5.15 -36.45 Q-3.6 -35.8 -1.75 -35.35 L4.55 -34.65 M-17.15 -27.95 Q-13.5 -32.0 -5.6 -36.7 -13.5 -32.0 -17.15 -27.95 M-17.65 -21.95 Q-8.7 -24.35 1.3 -23.5 L2.5 -23.4 1.3 -23.5 Q-8.7 -24.35 -17.65 -21.95 M-93.15 -33.45 L-94.7 -34.75 -93.15 -33.45 M-85.2 -16.15 Q-85.2 -14.95 -84.4 -14.1 -83.6 -13.3 -82.4 -13.3 -81.2 -13.3 -80.35 -14.1 -79.55 -14.95 -79.55 -16.15 -79.55 -17.4 -80.35 -18.2 -81.2 -19.0 -82.4 -19.0 -83.35 -19.05 -84.1 -18.5 L-84.4 -18.2 Q-85.2 -17.4 -85.2 -16.15 M-95.65 -16.95 L-99.95 -16.9 -95.65 -16.95 M-64.7 -15.9 L-63.15 -15.95 -64.7 -15.9 M-20.65 -34.95 Q-17.6 -39.6 -11.95 -43.45 -17.6 -39.6 -20.65 -34.95 M-33.15 -19.0 L-32.4 -19.1 Q-31.7 -19.3 -31.15 -19.8 -30.35 -20.65 -30.35 -21.85 -30.35 -23.1 -31.15 -23.9 -31.95 -24.7 -33.15 -24.7 L-33.75 -24.6 Q-34.6 -24.5 -35.2 -23.9 -36.0 -23.1 -36.0 -21.85 -36.0 -20.65 -35.2 -19.8 -34.4 -19.0 -33.15 -19.0" fill="#74655a" fill-rule="evenodd" stroke="none"/>
    <path d="M94.55 3.95 L94.65 3.85 94.7 3.9 94.9 4.25 94.55 3.95 M103.8 -18.55 L105.05 -20.8 105.55 -21.45 105.65 -21.3 105.05 -20.8 Q104.25 -19.95 104.15 -18.4 L103.8 -18.55 M91.85 19.55 L90.45 19.95 90.35 19.6 91.65 19.2 91.85 19.55 M-55.3 -50.5 L-53.35 -50.65 -55.2 -50.45 -55.3 -50.5 M-85.2 -16.15 Q-85.2 -17.4 -84.4 -18.2 L-84.1 -18.5 Q-83.35 -19.05 -82.4 -19.0 -81.2 -19.0 -80.35 -18.2 -79.55 -17.4 -79.55 -16.15 -79.55 -14.95 -80.35 -14.1 -81.2 -13.3 -82.4 -13.3 -83.6 -13.3 -84.4 -14.1 -85.2 -14.95 -85.2 -16.15 M-82.2 -16.35 Q-82.8 -17.4 -84.1 -18.5 -82.8 -17.4 -82.2 -16.35" fill="#b5a89f" fill-rule="evenodd" stroke="none"/>
    <path d="M7.95 61.35 L4.3 61.55 4.1 61.55 6.95 61.4 7.95 61.35 6.95 61.4 4.1 61.55 -4.4 60.75 -4.9 60.7 Q-5.6 61.15 -6.7 61.3 -8.8 61.55 -10.95 61.3 -13.45 61.0 -15.65 59.9 -21.8 59.45 -26.8 55.9 L-29.55 54.25 Q-32.95 55.1 -36.35 54.25 L-39.3 55.15 Q-40.5 56.1 -40.8 57.65 -41.3 60.1 -42.55 61.35 -43.85 62.55 -45.9 62.6 -47.4 62.65 -48.35 61.55 L-48.9 60.85 -46.4 61.1 -42.55 61.35 -46.4 61.1 -48.9 60.85 -49.55 59.9 Q-50.3 60.4 -51.0 60.5 -53.1 60.8 -54.65 57.6 L-54.8 56.9 -55.45 56.2 -56.15 55.4 Q-60.25 54.65 -61.4 51.85 L-62.6 51.5 Q-67.65 50.05 -67.4 44.9 L-66.95 43.0 -67.1 42.7 Q-74.85 44.1 -77.15 36.2 -78.25 32.4 -76.85 28.75 -76.1 26.65 -76.15 24.3 -82.05 17.35 -77.65 9.1 -74.55 3.25 -70.35 -1.85 L-70.05 -2.2 -69.1 -3.35 -68.9 -3.55 Q-70.8 -6.15 -70.5 -9.55 L-70.05 -11.55 Q-69.65 -12.8 -68.75 -13.7 -67.3 -15.25 -64.65 -15.6 -61.95 -15.35 -60.05 -14.5 -58.55 -13.85 -57.5 -12.8 L-56.8 -13.3 -56.65 -11.75 -56.65 -10.3 -56.7 -9.4 Q-56.85 -7.35 -57.15 -5.4 -57.5 -3.2 -58.1 -1.15 L-58.35 -0.35 Q-59.4 3.05 -63.5 7.15 L-64.85 8.4 -65.85 9.3 -66.3 9.7 -67.15 10.4 Q-71.65 13.8 -70.4 8.8 L-70.3 8.4 -70.1 7.65 -69.75 5.9 Q-69.3 3.1 -69.7 0.65 -69.9 -0.7 -70.35 -1.85 -69.9 -0.7 -69.7 0.65 -69.3 3.1 -69.75 5.9 L-70.1 7.65 -70.3 8.4 -70.4 8.8 Q-71.65 13.8 -67.15 10.4 L-66.3 9.7 -65.85 9.3 -64.85 8.4 -63.5 7.15 Q-59.4 3.05 -58.35 -0.35 L-58.1 -1.15 Q-57.5 -3.2 -57.15 -5.4 -56.85 -7.35 -56.7 -9.4 L-56.65 -10.3 -56.65 -11.75 -56.8 -13.3 -56.7 -13.4 -56.4 -13.65 -55.0 -14.35 -53.65 -14.6 -52.95 -14.6 Q-47.95 -14.65 -45.65 -10.75 -44.85 -9.35 -44.4 -7.5 L-43.5 -3.6 -43.6 -2.6 -43.75 -1.95 Q-44.65 2.25 -43.85 8.35 L-43.8 8.85 -44.85 8.65 -45.15 8.6 -46.9 8.1 -48.3 7.6 Q-50.45 6.65 -51.7 5.25 L-52.4 4.3 -52.9 3.45 Q-54.75 0.25 -55.65 -3.9 L-55.7 -4.1 Q-56.3 -6.95 -56.2 -9.95 L-56.15 -10.8 -55.9 -13.2 -56.15 -10.8 -56.2 -9.95 Q-56.3 -6.95 -55.7 -4.1 L-55.65 -3.9 Q-54.75 0.25 -52.9 3.45 L-52.4 4.3 -51.7 5.25 Q-50.45 6.65 -48.3 7.6 L-46.9 8.1 -45.15 8.6 -44.85 8.65 -43.8 8.85 -43.85 8.35 Q-44.65 2.25 -43.75 -1.95 L-43.6 -2.6 -43.5 -3.6 -43.25 -2.5 Q-37.85 -0.85 -35.95 4.95 L-35.9 5.3 Q-27.9 6.25 -25.8 14.45 -24.65 19.0 -25.15 23.8 -20.4 27.0 -18.9 32.8 L-18.8 33.2 -17.85 34.35 Q-12.85 34.75 -10.5 39.6 L-9.95 40.85 Q-5.95 43.65 -3.8 48.5 L-3.55 48.8 Q0.9 49.3 3.85 52.45 6.3 52.75 8.55 53.85 L9.1 54.5 Q11.05 55.15 12.0 57.2 12.6 58.5 11.45 59.5 9.9 60.85 7.95 61.35 M-34.25 71.4 Q-34.2 72.4 -34.6 73.65 -35.05 75.1 -36.65 75.1 -42.95 74.95 -42.2 70.3 L-41.9 68.9 Q-41.55 67.8 -40.4 67.55 L-39.65 67.4 Q-34.5 68.0 -34.25 71.4 L-34.4 71.6 Q-36.45 74.65 -39.45 74.05 -42.3 73.35 -42.2 70.3 -42.3 73.35 -39.45 74.05 -36.45 74.65 -34.4 71.6 L-34.25 71.4 M-57.3 70.3 L-57.55 71.15 Q-58.05 72.6 -59.65 72.45 -63.95 72.0 -64.4 69.35 -63.85 70.9 -61.65 71.4 -58.85 72.0 -57.3 70.3 -58.85 72.0 -61.65 71.4 -63.85 70.9 -64.4 69.35 -64.6 68.35 -64.2 67.0 L-64.0 66.4 Q-63.6 65.3 -62.4 65.05 L-61.65 64.9 Q-57.2 65.8 -57.15 69.0 L-57.3 70.3 M-50.6 15.25 L-50.65 15.3 -50.55 15.3 -50.6 15.25 M-72.95 15.4 L-73.05 16.15 -73.05 16.55 -72.9 16.1 -72.95 15.4 M-44.2 50.2 L-44.6 49.9 -44.4 50.4 -44.2 50.2 M-9.9 51.1 L-10.2 51.35 -10.15 51.35 -9.65 51.45 -9.9 51.1" fill="#cccccc" fill-rule="evenodd" stroke="none"/>
    <path d="M-60.9 -15.7 L-61.45 -18.6 -61.4 -19.7 Q-61.05 -20.45 -60.3 -20.65 L-59.65 -20.85 Q-57.35 -19.85 -56.95 -17.8 -56.8 -17.0 -57.0 -15.95 L-57.05 -15.7 -57.15 -15.35 Q-58.05 -14.55 -58.95 -14.55 L-60.9 -15.7 -58.95 -14.55 -59.9 -14.85 Q-60.4 -15.1 -60.9 -15.6 L-60.9 -15.7" fill="#f8f0a0" fill-rule="evenodd" stroke="none"/>
    <path d="M31.05 -34.55 L29.15 -34.5 27.8 -34.5 22.8 -34.5 22.7 -34.5 21.45 -34.5 21.35 -34.5 20.85 -34.55 14.3 -34.7 13.6 -34.7 10.0 -34.7 9.1 -34.7 7.9 -34.7 5.95 -34.7 4.55 -34.65 -1.75 -35.35 Q-3.6 -35.8 -5.15 -36.45 L-5.6 -36.7 M31.05 -34.55 L36.8 -34.1 44.25 -32.8 Q47.8 -32.1 51.2 -30.3 54.6 -28.6 56.85 -26.95 L61.6 -23.25 66.05 -18.8 Q68.05 -16.35 69.85 -13.5 L73.3 -7.95 Q75.1 -5.15 75.9 -1.85 L77.55 5.1 78.15 9.35 Q77.75 10.1 79.8 10.15 L80.15 10.15 84.5 9.65 85.0 9.55 Q87.35 9.15 89.15 8.25 L90.85 7.1 94.55 3.95 94.65 3.85 95.7 2.85 98.0 0.2 99.3 -2.05 100.95 -5.65 101.7 -8.6 102.05 -10.05 102.95 -15.35 Q103.2 -17.1 103.8 -18.55 L105.05 -20.8 105.55 -21.45 Q108.15 -23.9 111.6 -22.45 114.4 -21.25 114.85 -17.15 115.45 -13.5 114.85 -9.6 114.25 -6.15 113.15 -3.0 L113.1 -2.9 113.0 -2.65 112.85 -2.15 111.5 1.3 110.6 3.45 Q109.4 6.1 107.6 8.75 L105.95 10.8 104.95 11.8 103.35 13.05 102.95 13.25 102.25 13.75 97.7 16.9 Q95.05 18.55 91.85 19.55 L90.45 19.95 85.0 21.2 79.8 21.6 78.55 21.6 77.3 28.15 Q76.7 32.0 75.7 35.7 74.9 38.75 72.9 41.8 L69.25 47.1 Q67.65 49.75 64.8 52.25 62.0 54.45 59.0 56.1 L57.55 56.7 Q56.6 59.75 56.05 63.65 55.45 67.5 52.7 69.15 49.95 70.8 47.25 67.3 47.25 62.8 48.1 59.45 L45.3 59.95 37.8 60.6 36.0 60.6 Q35.55 64.9 34.7 68.75 33.8 72.6 30.05 72.4 26.25 72.2 26.7 68.35 L27.5 61.2 22.25 61.4 14.6 61.2 Q11.25 61.2 7.95 61.35 L6.95 61.4 4.1 61.55 -0.9 61.8 -8.55 62.2 -16.05 62.4 -23.9 62.2 -31.15 61.8 Q-32.0 63.85 -32.2 65.5 -32.8 69.0 -34.25 71.4 L-34.4 71.6 Q-36.45 74.65 -39.45 74.05 -42.3 73.35 -42.2 70.3 L-42.05 68.95 Q-41.25 65.45 -41.25 61.4 L-42.55 61.35 -46.4 61.1 -48.9 60.85 -51.0 60.65 -53.75 60.35 -54.35 62.2 Q-54.95 65.9 -56.5 69.05 L-57.3 70.3 Q-58.85 72.0 -61.65 71.4 -63.85 70.9 -64.4 69.35 -64.75 68.35 -64.45 66.9 -63.65 63.25 -63.45 58.65 L-68.7 57.3 Q-71.95 56.7 -74.75 55.5 -78.0 54.05 -80.8 52.4 L-86.6 48.55 -91.45 43.85 Q-93.5 41.2 -94.9 38.15 L-97.7 32.4 Q-99.35 29.35 -100.15 25.9 -101.15 22.8 -101.75 18.95 L-102.35 11.6 -102.55 3.65 -101.95 -3.5 -101.15 -10.6 -99.95 -16.9 M-79.3 -68.25 L-81.15 -69.0 -82.95 -68.25 Q-84.65 -67.25 -85.4 -65.45 L-87.75 -59.0 -89.15 -54.25 M-71.85 -57.9 L-70.5 -54.5 Q-69.6 -52.05 -67.3 -51.0 L-66.35 -50.65 -65.75 -50.45 -64.25 -50.15 -62.85 -49.95 -62.75 -49.95 Q-60.8 -49.8 -58.9 -50.0 L-57.6 -50.25 M-55.65 -50.55 L-55.3 -50.5 -53.35 -50.65 -51.7 -50.85 -50.45 -50.95 -48.1 -51.25 -47.6 -51.3 -45.2 -51.65 Q-43.95 -51.85 -42.95 -52.45 -41.85 -53.25 -41.05 -54.6 L-38.1 -59.75 -35.85 -63.8 -35.1 -65.35 Q-33.6 -68.4 -31.55 -71.05 L-31.25 -71.45 Q-29.7 -73.45 -27.55 -74.0 L-26.4 -74.2 Q-23.35 -74.5 -21.7 -70.95 L-21.4 -70.35 -20.65 -68.6 -18.95 -63.8 -18.6 -62.7 -16.65 -56.55 -14.25 -49.8 -11.9 -43.5 -11.8 -43.3 -11.2 -42.3 Q-9.75 -39.7 -7.55 -38.0 L-5.6 -36.7 M-94.7 -34.75 L-93.65 -38.2 -91.65 -44.95 -89.85 -51.65 -89.15 -54.25 M-94.7 -34.75 L-95.7 -31.45 -96.6 -28.5 -97.0 -27.3 M-85.2 -16.15 Q-85.2 -17.4 -84.4 -18.2 L-84.1 -18.5 Q-83.35 -19.05 -82.4 -19.0 -81.2 -19.0 -80.35 -18.2 -79.55 -17.4 -79.55 -16.15 -79.55 -14.95 -80.35 -14.1 -81.2 -13.3 -82.4 -13.3 -83.6 -13.3 -84.4 -14.1 -85.2 -14.95 -85.2 -16.15 M-99.75 -17.8 L-99.75 -18.0 Q-99.1 -21.35 -97.9 -24.5 L-97.0 -27.3 M-99.75 -18.0 L-99.65 -18.0 M-99.75 -17.8 L-99.95 -16.9 M-79.3 -68.25 Q-77.55 -67.35 -76.35 -65.55 -74.75 -63.3 -72.9 -60.25 L-71.85 -57.9 M-33.15 -19.0 Q-34.4 -19.0 -35.2 -19.8 -36.0 -20.65 -36.0 -21.85 -36.0 -23.1 -35.2 -23.9 -34.6 -24.5 -33.75 -24.6 L-33.15 -24.7 Q-31.95 -24.7 -31.15 -23.9 -30.35 -23.1 -30.35 -21.85 -30.35 -20.65 -31.15 -19.8 -31.7 -19.3 -32.4 -19.1 L-33.15 -19.0" fill="none" stroke="#512314" stroke-linecap="round" stroke-linejoin="round" stroke-width="3.0"/>
    <path d="M2.5 -23.4 L9.8 -22.5 M-5.6 -36.7 Q-13.5 -32.0 -17.15 -27.95 M-99.95 -16.9 Q-107.7 -16.65 -113.15 -15.45 M2.5 -23.4 L1.3 -23.5 Q-8.7 -24.35 -17.65 -21.95 M-11.9 -43.5 L-8.1 -45.85 Q-4.75 -47.7 -1.65 -48.45 M-94.7 -34.75 L-93.15 -33.45 M-97.0 -27.3 L-96.6 -27.2 Q-94.2 -26.55 -93.65 -24.95 M-97.0 -27.3 Q-105.2 -29.45 -115.15 -27.95 M-112.65 -41.45 L-106.65 -39.95 Q-99.5 -38.35 -94.7 -34.75 M-84.1 -18.5 Q-82.8 -17.4 -82.2 -16.35 M-99.95 -16.9 L-95.65 -16.95 M-56.95 -17.8 L-57.15 -19.45 Q-59.65 -23.6 -62.5 -19.4 -63.45 -18.0 -62.1 -16.75 L-60.9 -15.7 -58.95 -14.55 -55.5 -14.25 -55.05 -14.4 Q-54.65 -14.55 -54.1 -14.8 L-53.0 -15.35 -52.95 -15.35 -51.85 -16.15 Q-49.95 -18.0 -51.95 -20.55 -53.4 -22.45 -55.65 -20.85 L-57.15 -19.45 M-57.0 -15.95 Q-56.8 -17.0 -56.95 -17.8 M-64.7 -15.9 Q-67.15 -15.6 -68.85 -13.8 -69.75 -12.9 -70.45 -11.6 -72.7 -7.45 -70.65 -2.65 L-70.35 -1.85 Q-69.9 -0.7 -69.7 0.65 -69.3 3.1 -69.75 5.9 L-70.1 7.65 -70.3 8.4 -70.4 8.8 Q-71.65 13.8 -67.15 10.4 L-66.3 9.7 -65.85 9.3 -64.85 8.4 -63.5 7.15 Q-59.4 3.05 -58.35 -0.35 L-58.1 -1.15 Q-57.5 -3.2 -57.15 -5.4 -56.85 -7.35 -56.7 -9.4 L-56.65 -10.3 -56.65 -11.75 -56.8 -13.3 M-63.15 -15.95 L-64.7 -15.9 M-51.4 -15.5 Q-47.3 -14.95 -45.05 -11.2 L-44.85 -10.85 Q-43.05 -7.7 -43.5 -3.6 M-56.7 -13.4 L-56.8 -13.3 M-51.4 -15.5 L-52.95 -15.35 M-55.9 -13.2 L-56.15 -10.8 -56.2 -9.95 Q-56.3 -6.95 -55.7 -4.1 L-55.65 -3.9 Q-54.75 0.25 -52.9 3.45 L-52.4 4.3 -51.7 5.25 Q-50.45 6.65 -48.3 7.6 L-46.9 8.1 -45.15 8.6 -44.85 8.65 -43.8 8.85 -43.85 8.35 Q-44.65 2.25 -43.75 -1.95 L-43.6 -2.6 -43.5 -3.6 M-5.6 -36.7 L-3.8 -37.75 Q0.15 -40.0 4.85 -40.95 M-11.95 -43.45 Q-17.6 -39.6 -20.65 -34.95 M-11.95 -43.45 L-11.9 -43.5 M-33.75 -24.6 Q-33.0 -22.25 -32.4 -19.1" fill="none" stroke="#512314" stroke-linecap="round" stroke-linejoin="round" stroke-width="3.0"/>
  </g>
</svg>
