<?xml version="1.0" encoding="UTF-8" standalone="no"?>
<svg xmlns:xlink="http://www.w3.org/1999/xlink" height="141.05px" width="222.3px" xmlns="http://www.w3.org/2000/svg">
  <g transform="matrix(1.0, 0.0, 0.0, 1.0, 108.0, 70.25)">
    <path d="M23.9 -31.35 L23.8 -31.7 23.7 -32.0 23.0 -32.85 21.3 -32.85 Q20.45 -32.25 20.4 -30.8 L19.65 -18.25 Q19.6 -17.2 20.6 -16.8 23.9 -15.4 25.15 -18.75 27.2 -24.45 27.25 -30.5 27.25 -31.85 26.45 -32.7 L24.8 -32.8 24.3 -32.25 24.05 -31.75 23.9 -31.35 M-2.0 -32.9 L3.5 -32.5 13.45 -32.85 23.45 -32.85 32.75 -32.05 41.6 -30.1 Q46.05 -28.85 49.2 -27.1 52.25 -25.35 55.7 -23.0 59.1 -20.65 61.8 -17.2 64.5 -13.75 66.9 -9.7 69.25 -5.7 70.5 -1.5 71.85 2.9 72.45 7.55 L72.5 9.45 73.5 9.55 73.5 9.65 75.15 9.7 74.5 9.7 Q74.4 14.55 76.35 19.4 L76.65 20.0 77.55 20.05 73.5 19.5 73.5 20.2 72.5 20.2 Q72.35 23.75 71.45 28.3 70.5 32.85 67.95 37.1 L63.1 44.45 Q60.8 47.5 57.5 49.5 L52.5 52.2 Q51.75 56.6 51.55 60.45 51.3 64.25 47.55 64.85 43.75 65.45 43.6 62.65 L43.4 55.45 43.4 55.25 42.2 55.45 33.35 56.75 33.2 56.75 Q32.8 58.45 32.55 63.2 32.3 67.9 28.65 67.6 25.0 67.3 24.65 65.1 24.3 62.9 24.75 57.7 L24.75 57.5 23.35 57.55 Q17.75 57.7 12.75 57.45 7.9 57.15 3.0 57.25 L-6.75 57.75 -16.5 58.1 -26.25 57.8 -28.45 57.75 Q-28.45 63.95 -29.85 66.25 -31.3 68.55 -34.15 69.2 -37.0 69.85 -37.85 66.45 -38.7 63.05 -37.9 57.65 L-45.3 57.25 -49.1 56.75 -50.9 63.6 Q-51.65 66.3 -54.7 66.45 -57.75 66.55 -58.0 62.9 -58.25 59.2 -57.7 54.95 L-63.25 53.4 Q-67.5 52.2 -71.1 50.45 -74.55 48.8 -77.7 45.95 L-83.0 40.75 Q-85.5 37.95 -87.45 34.35 -89.5 30.6 -90.85 26.8 -92.2 23.05 -92.85 18.5 -93.5 14.05 -93.4 9.0 -93.3 4.0 -92.65 -0.75 L-91.45 -9.7 -90.4 -16.3 -90.0 -18.3 -88.0 -26.75 -87.95 -26.85 -86.25 -26.05 Q-84.45 -25.1 -84.0 -24.5 -84.45 -25.1 -86.25 -26.05 L-87.95 -26.85 -85.8 -35.25 -83.6 -43.8 -81.15 -52.4 -78.2 -60.35 Q-76.7 -64.0 -73.0 -64.5 -70.75 -63.85 -68.25 -60.2 -65.75 -56.55 -63.8 -52.4 -62.25 -49.15 -59.7 -48.0 L-59.75 -48.0 -60.3 -47.85 Q-62.75 -46.0 -63.4 -42.7 -63.9 -40.25 -62.2 -38.6 -61.7 -38.15 -61.1 -38.4 -59.0 -39.25 -58.05 -41.6 L-56.75 -44.65 Q-56.0 -46.25 -56.6 -47.25 L-52.4 -47.1 -53.25 -47.05 Q-55.15 -43.75 -55.3 -39.65 L-55.5 -37.4 Q-55.9 -34.9 -53.7 -34.35 -52.6 -34.05 -52.05 -35.05 -50.15 -38.45 -49.65 -42.45 L-49.2 -44.05 Q-48.3 -46.1 -49.35 -47.25 L-49.55 -47.25 -44.9 -47.9 Q-46.2 -44.55 -46.7 -41.0 -47.0 -39.05 -45.35 -38.4 -44.2 -37.95 -43.55 -38.8 -41.35 -41.65 -40.95 -45.25 L-40.8 -45.7 Q-39.6 -47.75 -40.75 -48.9 L-40.8 -48.9 Q-36.75 -50.05 -35.4 -53.0 L-32.85 -58.3 -29.75 -64.45 Q-27.9 -68.25 -23.95 -68.7 -20.45 -69.05 -18.8 -65.85 -17.2 -62.65 -16.3 -58.2 -15.35 -53.8 -13.75 -48.85 -12.2 -43.9 -10.65 -41.8 L-8.65 -38.85 -8.55 -38.7 Q-7.25 -36.05 -4.95 -34.3 -4.05 -33.6 -2.85 -33.2 L-2.1 -32.95 -2.05 -32.9 -2.15 -32.85 -2.5 -32.65 -2.9 -32.4 -3.3 -32.15 -9.25 -28.5 -3.3 -32.15 -2.9 -32.4 -2.5 -32.65 -2.15 -32.85 -2.05 -32.9 -2.0 -32.9 M79.5 9.3 Q82.25 8.75 84.6 7.55 84.35 8.65 84.8 9.7 L87.25 14.9 Q88.05 16.55 89.2 17.3 L82.6 19.4 82.45 19.45 Q82.9 18.3 82.65 16.35 82.05 11.9 79.5 9.3 M88.15 5.25 Q91.5 2.6 94.3 -0.75 L93.5 0.25 93.9 0.95 98.5 6.65 Q100.3 9.05 102.25 8.9 99.75 11.4 97.25 13.1 L94.0 15.05 Q93.55 8.7 88.15 5.25 M96.8 -4.0 L97.25 -4.65 Q100.15 -9.0 102.9 -11.45 L102.7 -11.05 Q100.4 -5.35 106.15 -2.5 111.05 -0.1 111.8 -5.7 112.85 -13.1 105.5 -13.15 L105.0 -13.05 104.95 -13.05 105.6 -13.45 Q109.55 -15.7 112.05 -11.55 114.55 -7.45 108.8 0.9 L105.15 5.75 Q102.95 -0.85 96.8 -4.0 M12.0 -32.55 Q10.0 -32.15 10.0 -30.0 10.1 -25.1 9.65 -20.25 9.45 -17.95 11.55 -17.05 L12.25 -16.8 Q13.8 -16.5 14.35 -18.3 15.9 -23.55 15.95 -29.15 16.0 -32.4 13.0 -32.2 L12.65 -32.35 12.0 -32.55 M-86.0 -15.75 L-88.5 -16.1 -90.4 -16.3 -88.5 -16.1 -86.0 -15.75 M-72.1 -15.0 Q-72.1 -16.15 -72.85 -16.9 -73.6 -17.7 -74.7 -17.7 -75.6 -17.7 -76.25 -17.2 L-76.5 -16.9 Q-77.25 -16.15 -77.25 -15.0 -77.25 -13.9 -76.5 -13.1 -75.8 -12.35 -74.7 -12.35 -73.6 -12.35 -72.85 -13.1 -72.1 -13.9 -72.1 -15.0 M-49.05 -10.3 Q-51.55 -11.75 -52.5 -14.5 -53.5 -17.25 -54.35 -14.35 -55.25 -11.5 -57.1 -10.0 -55.25 -11.5 -54.35 -14.35 -53.5 -17.25 -52.5 -14.5 -51.55 -11.75 -49.05 -10.3 M-67.3 -21.4 Q-71.4 -23.1 -74.25 -24.75 -71.4 -23.1 -67.3 -21.4 M-13.5 -34.0 L-8.55 -38.7 -13.5 -34.0 M-30.25 -30.5 Q-31.1 -30.4 -32.0 -29.55 -34.75 -26.95 -38.25 -24.75 -34.75 -26.95 -32.0 -29.55 -31.1 -30.4 -30.25 -30.5 M-29.0 -17.75 L-27.9 -18.45 Q-27.15 -19.2 -27.15 -20.35 -27.15 -21.5 -27.9 -22.25 -28.65 -23.0 -29.7 -23.0 L-30.25 -22.9 Q-31.05 -22.8 -31.55 -22.25 -32.3 -21.5 -32.3 -20.35 -32.3 -19.2 -31.55 -18.45 -30.85 -17.7 -29.7 -17.7 L-29.0 -17.75" fill="#b5a89f" fill-rule="evenodd" stroke="none"/>
    <path d="M23.9 -31.35 L24.05 -31.75 24.3 -32.25 24.8 -32.8 26.45 -32.7 Q27.25 -31.85 27.25 -30.5 27.2 -24.45 25.15 -18.75 23.9 -15.4 20.6 -16.8 19.6 -17.2 19.65 -18.25 L20.4 -30.8 Q20.45 -32.25 21.3 -32.85 L23.0 -32.85 23.7 -32.0 23.8 -31.7 23.9 -31.35 M75.15 9.7 L79.5 9.3 Q82.05 11.9 82.65 16.35 82.9 18.3 82.45 19.45 L82.35 19.5 77.55 20.05 76.65 20.0 76.35 19.4 Q74.4 14.55 74.5 9.7 L75.15 9.7 M84.6 7.55 L86.95 6.1 87.55 5.7 88.15 5.25 Q93.55 8.7 94.0 15.05 L94.0 15.1 92.85 15.65 89.2 17.3 Q88.05 16.55 87.25 14.9 L84.8 9.7 Q84.35 8.65 84.6 7.55 M94.3 -0.75 L96.65 -3.8 96.8 -4.0 Q102.95 -0.85 105.15 5.75 L102.25 8.9 Q100.3 9.05 98.5 6.65 L93.9 0.95 93.5 0.25 94.3 -0.75 M102.9 -11.45 L104.95 -13.05 105.0 -13.05 105.5 -13.15 Q112.85 -13.1 111.8 -5.7 111.05 -0.1 106.15 -2.5 100.4 -5.35 102.7 -11.05 L102.9 -11.45 M12.0 -32.55 L12.65 -32.35 13.0 -32.2 Q16.0 -32.4 15.95 -29.15 15.9 -23.55 14.35 -18.3 13.8 -16.5 12.25 -16.8 L11.55 -17.05 Q9.45 -17.95 9.65 -20.25 10.1 -25.1 10.0 -30.0 10.0 -32.15 12.0 -32.55 M92.85 15.65 L94.0 15.05 92.85 15.65 M-59.7 -48.0 L-58.3 -47.55 -56.6 -47.25 Q-56.0 -46.25 -56.75 -44.65 L-58.05 -41.6 Q-59.0 -39.25 -61.1 -38.4 -61.7 -38.15 -62.2 -38.6 -63.9 -40.25 -63.4 -42.7 -62.75 -46.0 -60.3 -47.85 L-59.75 -48.0 -59.7 -48.0 M-52.4 -47.1 L-49.75 -47.25 -49.7 -47.25 -49.55 -47.25 -49.35 -47.25 Q-48.3 -46.1 -49.2 -44.05 L-49.65 -42.45 Q-50.15 -38.45 -52.05 -35.05 -52.6 -34.05 -53.7 -34.35 -55.9 -34.9 -55.5 -37.4 L-55.3 -39.65 Q-55.15 -43.75 -53.25 -47.05 L-52.4 -47.1 M-44.9 -47.9 L-40.8 -48.9 -40.75 -48.9 Q-39.6 -47.75 -40.8 -45.7 L-40.95 -45.25 Q-41.35 -41.65 -43.55 -38.8 -44.2 -37.95 -45.35 -38.4 -47.0 -39.05 -46.7 -41.0 -46.2 -44.55 -44.9 -47.9" fill="#64584e" fill-rule="evenodd" stroke="none"/>
    <path d="M-2.0 -32.9 L3.5 -32.5 13.45 -32.85 23.45 -32.85 32.75 -32.05 41.6 -30.1 Q46.05 -28.85 49.2 -27.1 52.25 -25.35 55.7 -23.0 59.1 -20.65 61.8 -17.2 64.5 -13.75 66.9 -9.7 69.25 -5.7 70.5 -1.5 71.85 2.9 72.45 7.55 M73.5 9.65 L75.15 9.7 79.5 9.3 Q82.25 8.75 84.6 7.55 L86.95 6.1 87.55 5.7 M88.15 5.25 Q91.5 2.6 94.3 -0.75 L96.65 -3.8 96.8 -4.0 97.25 -4.65 Q100.15 -9.0 102.9 -11.45 L104.95 -13.05 105.6 -13.45 Q109.55 -15.7 112.05 -11.55 114.55 -7.45 108.8 0.9 L105.15 5.75 102.25 8.9 Q99.75 11.4 97.25 13.1 L94.0 15.05 92.85 15.65 89.2 17.3 82.6 19.4 82.45 19.45 82.35 19.5 77.55 20.05 73.5 19.5 M72.5 20.2 Q72.35 23.75 71.45 28.3 70.5 32.85 67.95 37.1 L63.1 44.45 Q60.8 47.5 57.5 49.5 L52.5 52.2 Q51.75 56.6 51.55 60.45 51.3 64.25 47.55 64.85 43.75 65.45 43.6 62.65 L43.4 55.45 43.4 55.25 42.2 55.45 33.35 56.75 33.2 56.75 Q32.8 58.45 32.55 63.2 32.3 67.9 28.65 67.6 25.0 67.3 24.65 65.1 24.3 62.9 24.75 57.7 L24.75 57.5 23.35 57.55 Q17.75 57.7 12.75 57.45 7.9 57.15 3.0 57.25 L-6.75 57.75 -16.5 58.1 -26.25 57.8 -28.45 57.75 Q-28.45 63.95 -29.85 66.25 -31.3 68.55 -34.15 69.2 -37.0 69.85 -37.85 66.45 -38.7 63.05 -37.9 57.65 L-45.3 57.25 -49.1 56.75 -50.9 63.6 Q-51.65 66.3 -54.7 66.45 -57.75 66.55 -58.0 62.9 -58.25 59.2 -57.7 54.95 L-63.25 53.4 Q-67.5 52.2 -71.1 50.45 -74.55 48.8 -77.7 45.95 L-83.0 40.75 Q-85.5 37.95 -87.45 34.35 -89.5 30.6 -90.85 26.8 -92.2 23.05 -92.85 18.5 -93.5 14.05 -93.4 9.0 -93.3 4.0 -92.65 -0.75 L-91.45 -9.7 -90.4 -16.3 Q-93.95 -16.6 -97.75 -16.45 L-106.5 -16.25 M-2.0 -32.9 Q1.0 -34.7 4.1 -36.0 L11.0 -38.5 M-87.95 -26.85 L-88.0 -26.75 -90.0 -18.3 -90.4 -16.3 -88.5 -16.1 -86.0 -15.75 M-87.95 -26.85 L-86.25 -26.05 Q-84.45 -25.1 -84.0 -24.5 M-102.75 -30.25 Q-97.55 -30.3 -93.95 -29.15 L-87.95 -26.85 -85.8 -35.25 -83.6 -43.8 -81.15 -52.4 -78.2 -60.35 Q-76.7 -64.0 -73.0 -64.5 -70.75 -63.85 -68.25 -60.2 -65.75 -56.55 -63.8 -52.4 -62.25 -49.15 -59.7 -48.0 L-58.3 -47.55 -56.6 -47.25 -52.4 -47.1 -49.75 -47.25 -49.7 -47.25 M-49.55 -47.25 L-44.9 -47.9 -40.8 -48.9 Q-36.75 -50.05 -35.4 -53.0 L-32.85 -58.3 -29.75 -64.45 Q-27.9 -68.25 -23.95 -68.7 -20.45 -69.05 -18.8 -65.85 -17.2 -62.65 -16.3 -58.2 -15.35 -53.8 -13.75 -48.85 -12.2 -43.9 -10.65 -41.8 L-8.65 -38.85 -8.55 -38.7 -7.55 -39.55 Q-4.35 -42.1 -0.3 -43.65 L5.0 -45.25 M-76.25 -17.2 Q-75.05 -16.2 -74.5 -15.2 M-9.25 -28.5 L-3.3 -32.15 -2.9 -32.4 -2.5 -32.65 -2.15 -32.85 -2.05 -32.9 -2.1 -32.95 -2.85 -33.2 Q-4.05 -33.6 -4.95 -34.3 -7.25 -36.05 -8.55 -38.7 L-13.5 -34.0 M-2.0 -32.9 L-2.05 -32.9 M-30.25 -22.9 Q-29.55 -20.75 -29.0 -17.75" fill="none" stroke="#512314" stroke-linecap="round" stroke-linejoin="round" stroke-width="3.0"/>
    <path d="M72.5 9.45 L73.5 9.55 M73.5 20.2 L72.5 20.2 M-72.1 -15.0 Q-72.1 -13.9 -72.85 -13.1 -73.6 -12.35 -74.7 -12.35 -75.8 -12.35 -76.5 -13.1 -77.25 -13.9 -77.25 -15.0 -77.25 -16.15 -76.5 -16.9 L-76.25 -17.2 Q-75.6 -17.7 -74.7 -17.7 -73.6 -17.7 -72.85 -16.9 -72.1 -16.15 -72.1 -15.0 M-74.25 -24.75 Q-71.4 -23.1 -67.3 -21.4 M-57.1 -10.0 Q-55.25 -11.5 -54.35 -14.35 -53.5 -17.25 -52.5 -14.5 -51.55 -11.75 -49.05 -10.3 M-38.25 -24.75 Q-34.75 -26.95 -32.0 -29.55 -31.1 -30.4 -30.25 -30.5 M-29.0 -17.75 L-27.9 -18.45 Q-27.15 -19.2 -27.15 -20.35 -27.15 -21.5 -27.9 -22.25 -28.65 -23.0 -29.7 -23.0 L-30.25 -22.9 Q-31.05 -22.8 -31.55 -22.25 -32.3 -21.5 -32.3 -20.35 -32.3 -19.2 -31.55 -18.45 -30.85 -17.7 -29.7 -17.7 L-29.0 -17.75" fill="none" stroke="#512314" stroke-linecap="round" stroke-linejoin="round" stroke-width="3.0"/>
  </g>
</svg>
