<?xml version="1.0" encoding="UTF-8" standalone="no"?>
<svg xmlns:xlink="http://www.w3.org/1999/xlink" height="141.35px" width="214.55px" xmlns="http://www.w3.org/2000/svg">
  <g transform="matrix(1.0, 0.0, 0.0, 1.0, 107.3, 70.65)">
    <path d="M21.4 -32.15 L21.3 -31.75 20.75 -21.85 Q20.55 -18.45 22.4 -15.95 23.35 -14.85 24.65 -15.4 27.75 -17.1 27.2 -21.3 27.0 -23.8 27.4 -26.05 27.9 -29.95 26.0 -32.15 L27.2 -32.15 34.2 -31.75 41.05 -30.55 Q44.3 -29.9 47.4 -28.25 L52.55 -25.1 56.9 -21.65 60.95 -17.5 64.45 -12.55 67.55 -7.4 Q69.2 -4.75 69.95 -1.7 L71.45 4.8 72.0 8.8 Q71.65 9.45 73.5 9.55 L73.85 9.55 77.8 9.05 Q77.25 13.15 79.15 16.95 79.7 17.9 80.85 18.1 86.35 19.45 84.9 13.75 L84.5 12.2 Q83.85 9.35 82.05 7.75 L83.6 6.7 87.1 3.65 87.3 4.0 Q88.95 7.65 91.35 10.9 92.55 12.65 94.0 12.85 L89.85 15.8 Q87.45 17.3 84.5 18.3 L78.25 19.8 73.5 20.2 72.35 20.2 71.25 26.3 69.75 33.35 Q69.0 36.2 67.2 39.05 65.7 41.1 63.9 44.0 62.4 46.45 59.8 48.75 57.25 50.85 54.5 52.35 L53.2 52.95 Q52.3 55.8 51.8 59.4 51.3 63.0 48.75 64.55 46.25 66.1 43.8 62.85 43.8 58.65 44.55 55.5 L41.95 56.0 35.15 56.55 33.5 56.55 Q33.1 60.6 32.3 64.15 31.45 67.75 28.05 67.6 24.55 67.4 25.0 63.8 L25.75 57.15 20.95 57.3 13.95 57.15 Q10.45 57.1 6.95 57.3 L-0.25 57.7 -7.25 58.1 -14.05 58.25 -21.25 58.1 -27.9 57.7 Q-28.65 59.6 -28.8 61.15 -29.4 64.55 -30.85 66.85 -32.7 69.7 -35.45 69.1 -38.6 68.35 -37.85 64.35 -37.1 61.1 -37.1 57.3 L-41.8 57.05 -48.5 56.35 -49.05 58.1 Q-49.65 61.5 -51.0 64.45 -52.4 67.4 -55.7 66.65 -59.05 65.85 -58.3 62.45 -57.55 59.05 -57.35 54.75 -59.6 54.05 -62.15 53.5 -65.1 52.95 -67.7 51.8 L-73.2 48.95 Q-76.15 47.2 -78.55 45.35 L-82.95 40.95 Q-84.85 38.45 -86.1 35.6 L-88.7 30.3 Q-90.15 27.4 -90.9 24.2 -91.8 21.35 -92.35 17.75 L-92.9 10.9 -93.1 3.45 -92.55 -3.2 -91.8 -9.85 -90.55 -16.55 -90.45 -16.75 -90.55 -16.75 Q-89.95 -19.85 -88.85 -22.8 L-87.65 -26.55 -86.85 -29.3 -85.0 -35.55 -83.15 -41.85 -81.5 -48.15 -79.55 -55.0 -77.45 -61.0 Q-76.4 -63.5 -73.55 -64.3 -70.8 -63.55 -69.15 -61.1 L-66.0 -56.15 Q-64.75 -53.45 -63.8 -50.8 -62.8 -48.05 -60.05 -47.2 -62.05 -44.15 -62.7 -40.35 -62.9 -38.65 -61.6 -37.85 -59.05 -36.15 -57.9 -39.2 L-57.0 -41.45 Q-55.45 -44.65 -56.8 -46.5 L-58.1 -46.7 Q-55.65 -46.3 -53.2 -46.6 L-52.0 -46.8 Q-53.2 -45.3 -52.95 -42.8 -53.3 -42.45 -53.3 -41.65 L-53.85 -39.55 -54.15 -39.2 -54.4 -38.25 Q-54.6 -37.05 -54.25 -36.15 -53.9 -35.2 -52.95 -34.6 -52.2 -34.25 -51.65 -34.6 L-51.3 -34.9 -50.1 -36.25 -49.05 -37.95 -49.05 -38.05 -48.35 -40.15 -47.8 -41.85 Q-46.4 -45.3 -48.15 -47.2 L-50.25 -47.0 -46.65 -47.35 -43.35 -47.75 -44.65 -41.45 Q-45.2 -40.9 -45.4 -40.15 -45.95 -36.55 -42.8 -35.75 L-42.05 -35.95 Q-39.3 -40.35 -38.95 -45.65 L-38.55 -46.05 Q-37.85 -47.95 -38.65 -48.9 -37.65 -49.6 -36.9 -50.9 L-34.25 -55.65 -31.45 -60.9 Q-30.1 -63.75 -28.25 -66.2 -26.4 -68.9 -23.55 -69.15 -20.7 -69.45 -19.2 -66.1 -17.75 -62.8 -16.75 -59.45 L-14.6 -52.7 -12.4 -46.4 Q-11.5 -43.4 -10.2 -40.35 L-9.65 -39.4 -9.8 -39.2 Q-12.05 -36.9 -13.3 -34.6 -12.05 -36.9 -9.8 -39.2 L-9.65 -39.4 Q-8.35 -37.0 -6.3 -35.4 L-4.1 -33.95 -1.0 -32.9 6.0 -32.35 8.9 -32.35 Q7.7 -30.95 8.05 -28.35 8.6 -24.9 8.05 -21.65 7.3 -17.1 11.2 -16.15 L12.1 -16.35 Q15.4 -19.95 14.5 -25.5 14.1 -26.85 14.5 -27.95 15.05 -30.85 13.65 -32.35 L20.2 -32.15 21.4 -32.15 M-9.1 -28.9 Q-7.45 -31.0 -4.85 -33.3 L-4.1 -33.95 -4.85 -33.3 Q-7.45 -31.0 -9.1 -28.9 M90.15 0.2 L91.35 -1.9 92.8 -5.2 Q95.1 -0.05 100.9 1.55 L102.4 1.35 102.5 1.25 101.65 3.25 Q100.55 5.75 98.9 8.2 L97.4 10.1 Q95.45 3.8 90.15 0.2 M93.8 -9.3 L94.65 -14.25 Q95.2 -17.9 97.05 -19.95 99.4 -22.25 102.55 -20.9 105.15 -19.8 105.5 -15.95 106.05 -12.55 105.5 -8.9 105.0 -5.65 103.95 -2.75 103.45 -3.65 102.0 -4.55 101.65 -4.75 101.3 -5.1 98.5 -8.15 95.0 -9.5 L93.8 -9.3 M95.75 -17.1 Q95.4 -11.8 100.9 -11.0 104.05 -10.45 104.8 -13.7 106.05 -20.95 98.7 -20.35 95.95 -19.95 95.75 -17.1 M-87.0 -15.6 L-90.45 -16.75 -87.0 -15.6 M-84.8 -24.7 L-87.65 -26.55 -84.8 -24.7 M-74.5 -15.2 Q-75.05 -16.2 -76.25 -17.2 -75.05 -16.2 -74.5 -15.2 M-77.25 -15.0 Q-77.25 -13.9 -76.5 -13.1 -75.8 -12.35 -74.7 -12.35 -73.6 -12.35 -72.85 -13.1 -72.1 -13.9 -72.1 -15.0 -72.1 -16.15 -72.85 -16.9 -73.6 -17.7 -74.7 -17.7 -75.6 -17.7 -76.25 -17.2 L-76.5 -16.9 Q-77.25 -16.15 -77.25 -15.0 -77.25 -16.15 -76.5 -16.9 L-76.25 -17.2 Q-75.6 -17.7 -74.7 -17.7 -73.6 -17.7 -72.85 -16.9 -72.1 -16.15 -72.1 -15.0 -72.1 -13.9 -72.85 -13.1 -73.6 -12.35 -74.7 -12.35 -75.8 -12.35 -76.5 -13.1 -77.25 -13.9 -77.25 -15.0 M-77.5 -8.95 L-79.85 -8.55 Q-81.2 -8.35 -81.55 -7.05 -82.1 -4.8 -79.85 -4.25 L-75.15 -4.15 Q-74.2 -4.3 -73.5 -4.8 -71.45 -6.3 -73.3 -8.05 -75.0 -9.6 -77.5 -8.95 M-29.0 -17.75 L-27.9 -18.45 Q-27.15 -19.2 -27.15 -20.35 -27.15 -21.5 -27.9 -22.25 -28.65 -23.0 -29.7 -23.0 L-30.25 -22.9 Q-31.05 -22.8 -31.55 -22.25 -32.3 -21.5 -32.3 -20.35 -32.3 -19.2 -31.55 -18.45 -30.85 -17.7 -29.7 -17.7 L-29.0 -17.75 M-20.6 -14.1 Q-21.8 -16.5 -24.75 -15.7 L-26.5 -15.5 Q-29.35 -15.4 -30.45 -13.0 -30.9 -12.1 -30.3 -11.3 -29.0 -9.7 -26.8 -9.4 -22.7 -8.9 -20.75 -12.0 -20.1 -13.0 -20.6 -14.1" fill="#b5a89f" fill-rule="evenodd" stroke="none"/>
    <path d="M26.0 -32.15 Q27.9 -29.95 27.4 -26.05 27.0 -23.8 27.2 -21.3 27.75 -17.1 24.65 -15.4 23.35 -14.85 22.4 -15.95 20.55 -18.45 20.75 -21.85 L21.3 -31.75 21.4 -32.15 26.0 -32.15 M13.65 -32.35 Q15.05 -30.85 14.5 -27.95 14.1 -26.85 14.5 -25.5 15.4 -19.95 12.1 -16.35 L11.2 -16.15 Q7.3 -17.1 8.05 -21.65 8.6 -24.9 8.05 -28.35 7.7 -30.95 8.9 -32.35 L13.0 -32.35 13.65 -32.35 M77.8 9.05 L78.25 8.95 Q80.4 8.6 82.05 7.75 83.85 9.35 84.5 12.2 L84.9 13.75 Q86.35 19.45 80.85 18.1 79.7 17.9 79.15 16.95 77.25 13.15 77.8 9.05 M87.1 3.65 L88.0 2.7 90.15 0.2 Q95.45 3.8 97.4 10.1 L96.5 11.05 95.0 12.2 Q94.8 12.25 94.65 12.4 94.3 12.6 94.0 12.85 92.55 12.65 91.35 10.9 88.95 7.65 87.3 4.0 L87.1 3.65 M92.8 -5.2 L93.55 -7.95 93.8 -9.3 95.0 -9.5 Q98.5 -8.15 101.3 -5.1 101.65 -4.75 102.0 -4.55 103.45 -3.65 103.95 -2.75 L103.85 -2.45 103.7 -1.95 102.5 1.25 102.4 1.35 100.9 1.55 Q95.1 -0.05 92.8 -5.2 M95.75 -17.1 Q95.95 -19.95 98.7 -20.35 106.05 -20.95 104.8 -13.7 104.05 -10.45 100.9 -11.0 95.4 -11.8 95.75 -17.1 M-60.05 -47.2 L-59.5 -47.0 -58.1 -46.7 -56.8 -46.5 Q-55.45 -44.65 -57.0 -41.45 L-57.9 -39.2 Q-59.05 -36.15 -61.6 -37.85 -62.9 -38.65 -62.7 -40.35 -62.05 -44.15 -60.05 -47.2 M-52.0 -46.8 L-51.85 -46.8 -50.9 -46.9 -50.35 -47.0 -50.25 -47.0 -48.15 -47.2 Q-46.4 -45.3 -47.8 -41.85 L-48.35 -40.15 -49.05 -38.05 -49.05 -37.95 -50.1 -36.25 -51.3 -34.9 -51.65 -34.6 Q-52.2 -34.25 -52.95 -34.6 -53.9 -35.2 -54.25 -36.15 -54.6 -37.05 -54.4 -38.25 L-54.15 -39.2 -53.85 -39.55 -53.3 -41.65 Q-53.3 -42.45 -52.95 -42.8 -53.2 -45.3 -52.0 -46.8 M-43.35 -47.75 L-40.7 -48.15 Q-39.55 -48.3 -38.65 -48.9 -37.85 -47.95 -38.55 -46.05 L-38.95 -45.65 Q-39.3 -40.35 -42.05 -35.95 L-42.8 -35.75 Q-45.95 -36.55 -45.4 -40.15 -45.2 -40.9 -44.65 -41.45 L-43.35 -47.75" fill="#64584e" fill-rule="evenodd" stroke="none"/>
    <path d="M-77.5 -8.95 Q-75.0 -9.6 -73.3 -8.05 -71.45 -6.3 -73.5 -4.8 -74.2 -4.3 -75.15 -4.15 L-79.85 -4.25 Q-82.1 -4.8 -81.55 -7.05 -81.2 -8.35 -79.85 -8.55 L-77.5 -8.95 M-20.6 -14.1 Q-20.1 -13.0 -20.75 -12.0 -22.7 -8.9 -26.8 -9.4 -29.0 -9.7 -30.3 -11.3 -30.9 -12.1 -30.45 -13.0 -29.35 -15.4 -26.5 -15.5 L-24.75 -15.7 Q-21.8 -16.5 -20.6 -14.1" fill="#ff9999" fill-rule="evenodd" stroke="none"/>
    <path d="M21.4 -32.15 L20.2 -32.15 13.65 -32.35 M8.9 -32.35 L6.0 -32.35 -1.0 -32.9 -4.1 -33.95 -4.85 -33.3 Q-7.45 -31.0 -9.1 -28.9 M26.0 -32.15 L27.2 -32.15 34.2 -31.75 41.05 -30.55 Q44.3 -29.9 47.4 -28.25 L52.55 -25.1 56.9 -21.65 60.95 -17.5 64.45 -12.55 67.55 -7.4 Q69.2 -4.75 69.95 -1.7 L71.45 4.8 72.0 8.8 Q71.65 9.45 73.5 9.55 L73.85 9.55 77.8 9.05 78.25 8.95 Q80.4 8.6 82.05 7.75 L83.6 6.7 87.1 3.65 88.0 2.7 90.15 0.2 91.35 -1.9 92.8 -5.2 93.55 -7.95 93.8 -9.3 94.65 -14.25 Q95.2 -17.9 97.05 -19.95 99.4 -22.25 102.55 -20.9 105.15 -19.8 105.5 -15.95 106.05 -12.55 105.5 -8.9 105.0 -5.65 103.95 -2.75 L103.85 -2.45 103.7 -1.95 102.5 1.25 101.65 3.25 Q100.55 5.75 98.9 8.2 L97.4 10.1 96.5 11.05 95.0 12.2 Q94.8 12.25 94.65 12.4 94.3 12.6 94.0 12.85 L89.85 15.8 Q87.45 17.3 84.5 18.3 L78.25 19.8 73.5 20.2 72.35 20.2 71.25 26.3 69.75 33.35 Q69.0 36.2 67.2 39.05 65.7 41.1 63.9 44.0 62.4 46.45 59.8 48.75 57.25 50.85 54.5 52.35 L53.2 52.95 Q52.3 55.8 51.8 59.4 51.3 63.0 48.75 64.55 46.25 66.1 43.8 62.85 43.8 58.65 44.55 55.5 L41.95 56.0 35.15 56.55 33.5 56.55 Q33.1 60.6 32.3 64.15 31.45 67.75 28.05 67.6 24.55 67.4 25.0 63.8 L25.75 57.15 20.95 57.3 13.95 57.15 Q10.45 57.1 6.95 57.3 L-0.25 57.7 -7.25 58.1 -14.05 58.25 -21.25 58.1 -27.9 57.7 Q-28.65 59.6 -28.8 61.15 -29.4 64.55 -30.85 66.85 -32.7 69.7 -35.45 69.1 -38.6 68.35 -37.85 64.35 -37.1 61.1 -37.1 57.3 L-41.8 57.05 -48.5 56.35 -49.05 58.1 Q-49.65 61.5 -51.0 64.45 -52.4 67.4 -55.7 66.65 -59.05 65.85 -58.3 62.45 -57.55 59.05 -57.35 54.75 -59.6 54.05 -62.15 53.5 -65.1 52.95 -67.7 51.8 L-73.2 48.95 Q-76.15 47.2 -78.55 45.35 L-82.95 40.95 Q-84.85 38.45 -86.1 35.6 L-88.7 30.3 Q-90.15 27.4 -90.9 24.2 -91.8 21.35 -92.35 17.75 L-92.9 10.9 -93.1 3.45 -92.55 -3.2 -91.8 -9.85 -90.55 -16.55 -90.55 -16.75 -92.35 -17.1 -99.35 -17.7 -105.8 -17.5 M21.4 -32.15 L26.0 -32.15 M-4.1 -33.95 L-0.25 -37.1 Q2.15 -39.0 5.1 -40.35 6.55 -40.75 7.85 -41.3 M8.9 -32.35 L13.0 -32.35 13.65 -32.35 M-101.75 -32.15 Q-99.2 -32.1 -95.8 -31.0 -92.4 -29.95 -90.6 -28.6 L-87.65 -26.55 -86.85 -29.3 -85.0 -35.55 -83.15 -41.85 -81.5 -48.15 -79.55 -55.0 -77.45 -61.0 Q-76.4 -63.5 -73.55 -64.3 -70.8 -63.55 -69.15 -61.1 L-66.0 -56.15 Q-64.75 -53.45 -63.8 -50.8 -62.8 -48.05 -60.05 -47.2 L-59.5 -47.0 -58.1 -46.7 Q-55.65 -46.3 -53.2 -46.6 L-52.0 -46.8 M-50.25 -47.0 L-46.65 -47.35 -43.35 -47.75 -40.7 -48.15 Q-39.55 -48.3 -38.65 -48.9 -37.65 -49.6 -36.9 -50.9 L-34.25 -55.65 -31.45 -60.9 Q-30.1 -63.75 -28.25 -66.2 -26.4 -68.9 -23.55 -69.15 -20.7 -69.45 -19.2 -66.1 -17.75 -62.8 -16.75 -59.45 L-14.6 -52.7 -12.4 -46.4 Q-11.5 -43.4 -10.2 -40.35 L-9.65 -39.4 -5.4 -43.2 Q-2.85 -45.3 -0.25 -46.6 1.2 -47.6 2.9 -48.15 M-87.65 -26.55 L-88.85 -22.8 Q-89.95 -19.85 -90.55 -16.75 L-90.45 -16.75 -87.0 -15.6 M-87.65 -26.55 L-84.8 -24.7 M-77.25 -15.0 Q-77.25 -16.15 -76.5 -16.9 L-76.25 -17.2 Q-75.6 -17.7 -74.7 -17.7 -73.6 -17.7 -72.85 -16.9 -72.1 -16.15 -72.1 -15.0 -72.1 -13.9 -72.85 -13.1 -73.6 -12.35 -74.7 -12.35 -75.8 -12.35 -76.5 -13.1 -77.25 -13.9 -77.25 -15.0 M-13.3 -34.6 Q-12.05 -36.9 -9.8 -39.2 L-9.65 -39.4 Q-8.35 -37.0 -6.3 -35.4 L-4.1 -33.95 M-29.0 -17.75 L-27.9 -18.45 Q-27.15 -19.2 -27.15 -20.35 -27.15 -21.5 -27.9 -22.25 -28.65 -23.0 -29.7 -23.0 L-30.25 -22.9 M-29.0 -17.75 L-29.7 -17.7 Q-30.85 -17.7 -31.55 -18.45 -32.3 -19.2 -32.3 -20.35 -32.3 -21.5 -31.55 -22.25 -31.05 -22.8 -30.25 -22.9" fill="none" stroke="#512314" stroke-linecap="round" stroke-linejoin="round" stroke-width="3.0"/>
    <path d="M-76.25 -17.2 Q-75.05 -16.2 -74.5 -15.2 M-30.25 -22.9 Q-29.55 -20.75 -29.0 -17.75" fill="none" stroke="#512314" stroke-linecap="round" stroke-linejoin="round" stroke-width="3.0"/>
    <path d="M-58.25 -14.75 Q-56.15 -12.05 -52.55 -15.55 -49.6 -12.65 -46.0 -15.35" fill="none" stroke="#512314" stroke-linecap="round" stroke-linejoin="round" stroke-width="3.0"/>
  </g>
</svg>
