<?xml version="1.0" encoding="UTF-8" standalone="no"?>
<svg xmlns:xlink="http://www.w3.org/1999/xlink" height="14.05px" width="13.1px" xmlns="http://www.w3.org/2000/svg">
  <g transform="matrix(1.0, 0.0, 0.0, 1.0, -70.55, -36.05)">
    <path d="M82.3 43.7 L82.3 46.8 81.25 47.7 Q79.7 48.75 77.45 48.75 75.2 48.75 73.6 47.7 72.05 46.7 72.05 45.25 72.05 43.8 73.6 42.75 74.8 42.0 76.45 41.8 L77.45 41.75 77.5 41.75 79.1 41.9 79.25 41.95 80.15 42.2 81.25 42.75 82.3 43.7 M76.25 47.65 Q76.6 45.2 76.45 41.8 76.6 45.2 76.25 47.65 M79.25 47.5 Q79.35 44.8 79.0 42.5 79.35 44.8 79.25 47.5" fill="#ffff66" fill-rule="evenodd" stroke="none"/>
    <path d="M82.3 38.05 L82.3 41.55 80.35 41.55 79.0 40.25 79.1 39.8 79.0 40.25 77.5 41.0 Q71.75 40.5 71.55 38.7 71.3 36.85 74.75 37.05 78.15 37.25 78.95 39.95 79.15 39.5 79.1 39.8 80.5 38.35 82.3 38.05" fill="#ffffff" fill-rule="evenodd" stroke="none"/>
    <path d="M82.3 46.8 L81.25 47.7 Q79.7 48.75 77.45 48.75 75.2 48.75 73.6 47.7 72.05 46.7 72.05 45.25 72.05 43.8 73.6 42.75 74.8 42.0 76.45 41.8 L77.45 41.75 77.5 41.75 79.1 41.9 79.25 41.95 80.15 42.2 81.25 42.75 82.3 43.7" fill="none" stroke="#512314" stroke-linecap="round" stroke-linejoin="round" stroke-width="2.75"/>
    <path d="M82.3 38.05 Q80.5 38.35 79.1 39.8 L79.0 40.25 M80.35 41.55 L82.3 41.55 M77.5 41.0 Q71.75 40.5 71.55 38.7 71.3 36.85 74.75 37.05 78.15 37.25 78.95 39.95 79.15 39.5 79.1 39.8 M79.0 42.5 Q79.35 44.8 79.25 47.5 M76.45 41.8 Q76.6 45.2 76.25 47.65" fill="none" stroke="#512314" stroke-linecap="round" stroke-linejoin="round" stroke-width="2.0"/>
  </g>
</svg>
