<?xml version="1.0" encoding="UTF-8" standalone="no"?>
<svg xmlns:xlink="http://www.w3.org/1999/xlink" height="15.0px" width="117.45px" xmlns="http://www.w3.org/2000/svg">
  <g transform="matrix(1.0, 0.0, 0.0, 1.0, 58.75, 7.5)">
    <path d="M46.05 -3.5 L46.0 -3.05 45.95 -2.75 Q45.7 -0.75 46.9 0.0 48.1 0.7 52.25 -3.05 56.35 -6.85 56.9 -4.85 58.1 -0.35 56.7 3.25 L56.35 3.15 53.85 -0.5 Q53.75 2.55 49.1 3.35 44.9 4.1 44.6 1.2 44.3 -1.25 44.9 -3.15 L45.05 -3.55 46.05 -3.5 M-24.65 5.9 Q-25.9 4.15 -25.9 2.25 -27.25 5.3 -31.9 6.1 -36.1 6.85 -36.4 3.95 -36.9 -0.2 -34.85 -2.75 L-34.75 -0.5 Q-34.8 1.2 -32.6 2.3 -30.45 3.35 -27.55 -0.35 -24.65 -4.1 -24.1 -2.1 -22.9 2.4 -24.3 6.0 L-24.65 5.9 M-45.05 4.0 L-45.4 3.9 Q-46.65 2.15 -46.15 0.25 -48.5 3.55 -52.9 4.35 -57.35 5.1 -57.5 1.45 -57.55 -0.5 -57.0 -2.15 L-56.05 -1.8 Q-56.6 0.6 -54.1 1.3 -51.65 1.95 -48.5 -2.05 -45.4 -6.1 -44.85 -4.1 -43.65 0.4 -45.05 4.0 M27.4 -3.75 L27.15 -1.35 Q26.8 0.45 28.4 1.3 29.95 2.1 33.8 -1.5 37.6 -5.1 38.15 -3.1 39.35 1.4 37.95 5.0 L37.6 4.9 Q36.35 3.15 36.35 0.75 35.0 4.3 30.35 5.1 26.15 5.85 25.85 2.95 25.55 0.3 26.25 -1.65 26.65 -2.8 27.4 -3.75" fill="#fe8f8f" fill-rule="evenodd" stroke="none"/>
    <path d="M46.85 -6.25 L46.15 -5.5 M53.85 -0.5 Q53.75 2.55 49.1 3.35 44.9 4.1 44.6 1.2 44.3 -1.25 44.9 -3.15 L45.05 -3.55 46.15 -5.5 M-34.85 -2.75 Q-36.9 -0.2 -36.4 3.95 -36.1 6.85 -31.9 6.1 -27.25 5.3 -25.9 2.25 -25.9 4.15 -24.65 5.9 M27.4 -3.75 Q26.65 -2.8 26.25 -1.65 25.55 0.3 25.85 2.95 26.15 5.85 30.35 5.1 35.0 4.3 36.35 0.75" fill="none" stroke="#512314" stroke-linecap="round" stroke-linejoin="round" stroke-width="2.5"/>
    <path d="M46.15 -5.5 L46.05 -3.5 46.0 -3.05 45.95 -2.75 Q45.7 -0.75 46.9 0.0 48.1 0.7 52.25 -3.05 56.35 -6.85 56.9 -4.85 58.1 -0.35 56.7 3.25 M56.35 3.15 L53.85 -0.5 M-57.0 -2.15 Q-56.55 -3.55 -55.6 -4.75 -55.7 -5.45 -55.4 -5.75 M-24.3 6.0 Q-22.9 2.4 -24.1 -2.1 -24.65 -4.1 -27.55 -0.35 -30.45 3.35 -32.6 2.3 -34.8 1.2 -34.75 -0.5 L-34.85 -2.75 Q-34.95 -3.45 -34.65 -3.75 M-45.05 4.0 Q-43.65 0.4 -44.85 -4.1 -45.4 -6.1 -48.5 -2.05 -51.65 1.95 -54.1 1.3 -56.6 0.6 -56.05 -1.8 -55.5 -4.2 -55.6 -4.75 M-57.0 -2.15 Q-57.55 -0.5 -57.5 1.45 -57.35 5.1 -52.9 4.35 -48.5 3.55 -46.15 0.25 -46.65 2.15 -45.4 3.9 M37.95 5.0 Q39.35 1.4 38.15 -3.1 37.6 -5.1 33.8 -1.5 29.95 2.1 28.4 1.3 26.8 0.45 27.15 -1.35 L27.4 -3.75 M36.35 0.75 Q36.35 3.15 37.6 4.9" fill="none" stroke="#512314" stroke-linecap="round" stroke-linejoin="round" stroke-width="2.5"/>
  </g>
</svg>
