<?xml version="1.0" encoding="UTF-8" standalone="no"?>
<svg xmlns:xlink="http://www.w3.org/1999/xlink" height="16.1px" width="118.9px" xmlns="http://www.w3.org/2000/svg">
  <g transform="matrix(1.0, 0.0, 0.0, 1.0, 59.45, 8.05)">
    <path d="M-57.1 -2.9 L-57.05 -2.8 Q-56.4 -1.25 -54.35 -1.4 -52.75 0.2 -51.75 2.15 -51.45 2.75 -51.4 3.45 -51.35 4.6 -50.3 4.8 L-49.35 4.6 Q-48.2 2.6 -49.4 0.35 -51.55 -3.65 -55.95 -4.45 L-55.95 -4.4 -56.25 -4.4 Q-55.8 -5.55 -55.65 -6.7 -52.9 -5.55 -47.45 -5.35 -42.05 -5.2 -44.15 -0.25 -46.25 4.65 -51.55 4.95 -56.85 5.25 -57.8 2.35 -58.75 -0.55 -57.3 -2.55 L-57.1 -2.9 M35.35 4.5 Q35.15 2.8 34.25 1.25 31.85 -3.0 27.05 -2.95 L27.05 -2.9 26.5 -2.85 26.4 -2.75 Q27.0 -3.95 27.1 -4.95 L35.85 -5.35 Q41.5 -5.6 39.0 0.6 37.9 3.35 35.35 4.5 M25.8 -1.75 L25.95 -1.15 Q26.15 -0.8 26.5 -0.8 29.8 -0.65 31.5 2.05 L32.35 4.05 Q32.55 4.8 32.9 5.2 L32.45 5.25 Q27.5 5.75 25.9 3.15 24.25 0.5 25.6 -1.45 L25.8 -1.75 M-28.1 5.9 L-28.1 4.85 Q-28.25 3.25 -28.9 1.75 -30.75 -2.35 -35.2 -2.2 L-35.55 -2.1 -36.25 -1.65 -36.4 -1.45 Q-36.55 -0.8 -36.15 -0.3 -35.2 0.9 -33.5 0.5 -31.35 2.4 -30.6 5.35 -30.45 6.0 -29.9 6.25 L-29.6 6.4 Q-33.7 7.5 -36.3 5.55 -39.35 3.3 -37.4 0.25 -35.45 -2.85 -35.65 -4.7 -31.4 -4.05 -26.7 -4.5 -23.25 -4.8 -23.45 -0.25 -23.6 4.1 -28.1 5.9 M45.35 -1.1 Q45.55 -0.55 46.25 -0.7 L50.55 -0.4 Q51.6 0.7 52.2 2.1 L53.05 3.35 Q53.2 4.15 53.75 4.45 54.75 4.1 55.6 3.35 L54.85 0.75 Q52.7 -3.7 47.8 -3.45 L47.2 -3.35 Q46.1 -3.25 45.65 -2.75 L46.1 -5.95 54.9 -6.75 Q59.4 -7.45 57.8 -0.85 56.15 5.7 50.4 4.5 44.6 3.3 45.25 -0.45 L45.35 -1.1" fill="#ffffff" fill-rule="evenodd" stroke="none"/>
    <path d="M-56.25 -4.4 L-55.95 -4.4 -55.95 -4.45 Q-51.55 -3.65 -49.4 0.35 -48.2 2.6 -49.35 4.6 L-50.3 4.8 Q-51.35 4.6 -51.4 3.45 -51.45 2.75 -51.75 2.15 -52.75 0.2 -54.35 -1.4 -56.4 -1.25 -57.05 -2.8 L-57.1 -2.9 -56.25 -4.4 M26.4 -2.75 L26.5 -2.85 27.05 -2.9 27.05 -2.95 Q31.85 -3.0 34.25 1.25 35.15 2.8 35.35 4.5 L32.9 5.2 Q32.55 4.8 32.35 4.05 L31.5 2.05 Q29.8 -0.65 26.5 -0.8 26.15 -0.8 25.95 -1.15 L25.8 -1.75 25.8 -1.8 Q25.8 -2.35 26.4 -2.75 L25.8 -1.75 26.4 -2.75 M-29.6 6.4 L-29.9 6.25 Q-30.45 6.0 -30.6 5.35 -31.35 2.4 -33.5 0.5 -35.2 0.9 -36.15 -0.3 -36.55 -0.8 -36.4 -1.45 L-36.25 -1.65 -35.55 -2.1 -35.2 -2.2 Q-30.75 -2.35 -28.9 1.75 -28.25 3.25 -28.1 4.85 L-28.1 5.9 -28.45 6.05 -28.6 6.1 -29.6 6.4 M45.65 -2.75 Q46.1 -3.25 47.2 -3.35 L47.8 -3.45 Q52.7 -3.7 54.85 0.75 L55.6 3.35 Q54.75 4.1 53.75 4.45 53.2 4.15 53.05 3.35 L52.2 2.1 Q51.6 0.7 50.55 -0.4 L46.25 -0.7 Q45.55 -0.55 45.35 -1.1 L45.65 -2.75" fill="#00ccff" fill-rule="evenodd" stroke="none"/>
    <path d="M-57.1 -2.9 L-57.3 -2.55 Q-58.75 -0.55 -57.8 2.35 -56.85 5.25 -51.55 4.95 -46.25 4.65 -44.15 -0.25 -42.05 -5.2 -47.45 -5.35 -52.9 -5.55 -55.65 -6.7 -55.8 -5.55 -56.25 -4.4 L-57.1 -2.9 M35.35 4.5 Q37.9 3.35 39.0 0.6 41.5 -5.6 35.85 -5.35 L27.1 -4.95 Q27.0 -3.95 26.4 -2.75 L25.8 -1.75 25.6 -1.45 Q24.25 0.5 25.9 3.15 27.5 5.75 32.45 5.25 L32.9 5.2 35.35 4.5 M-28.1 5.9 Q-23.6 4.1 -23.45 -0.25 -23.25 -4.8 -26.7 -4.5 -31.4 -4.05 -35.65 -4.7 -35.45 -2.85 -37.4 0.25 -39.35 3.3 -36.3 5.55 -33.7 7.5 -29.6 6.4 L-28.6 6.1 -28.45 6.05 -28.1 5.9 M45.35 -1.1 L45.25 -0.45 Q44.6 3.3 50.4 4.5 56.15 5.7 57.8 -0.85 59.4 -7.45 54.9 -6.75 L46.1 -5.95 45.65 -2.75 45.35 -1.1" fill="none" stroke="#512314" stroke-linecap="round" stroke-linejoin="round" stroke-width="2.5"/>
  </g>
</svg>
