<?xml version="1.0" encoding="UTF-8" standalone="no"?>
<svg xmlns:xlink="http://www.w3.org/1999/xlink" height="21.5px" width="122.3px" xmlns="http://www.w3.org/2000/svg">
  <g transform="matrix(1.0, 0.0, 0.0, 1.0, 61.15, 10.75)">
    <path d="M32.35 -1.9 Q29.6 -5.05 34.1 -3.95 29.6 -5.05 32.35 -1.9 34.65 -1.95 34.1 -3.95 34.65 -1.95 32.35 -1.9 M31.9 0.85 Q33.7 -0.05 34.35 -2.2 33.7 -0.05 31.9 0.85 M27.65 -5.75 Q27.5 -7.75 32.3 -7.35 L41.65 -7.0 42.15 1.2 Q42.4 6.75 36.0 7.15 29.55 7.55 27.55 7.2 25.55 6.8 24.6 4.05 23.6 1.25 28.4 0.2 28.15 -0.35 28.0 -2.05 27.75 -3.8 27.65 -5.75 M49.75 -1.65 Q48.15 -7.25 52.1 -3.95 48.15 -7.25 49.75 -1.65 51.95 -2.55 52.1 -3.95 51.95 -2.55 49.75 -1.65 M52.35 -3.95 Q52.9 -2.2 54.65 -2.0 56.8 -1.7 55.95 -3.95 54.65 -7.35 52.35 -3.95 54.65 -7.35 55.95 -3.95 56.8 -1.7 54.65 -2.0 52.9 -2.2 52.35 -3.95 M50.8 1.0 Q52.25 -0.35 52.35 -2.45 52.25 -0.35 50.8 1.0 M52.9 -2.2 Q53.6 0.7 55.35 1.3 53.6 0.7 52.9 -2.2 M37.7 -1.9 Q39.2 -6.65 34.85 -3.45 34.9 -1.35 37.7 -1.9 34.9 -1.35 34.85 -3.45 39.2 -6.65 37.7 -1.9 M34.9 -1.2 Q35.4 0.7 36.6 1.8 35.4 0.7 34.9 -1.2 M47.4 -0.3 L45.9 -4.9 Q44.8 -8.0 49.25 -7.95 L58.6 -8.0 Q60.45 -0.65 59.7 2.15 58.95 4.95 56.9 5.35 L49.95 6.2 Q45.05 6.7 43.85 3.6 42.6 0.45 47.4 -0.3 M-45.9 -9.35 Q-41.85 -9.75 -41.35 -7.25 -40.85 -4.8 -40.9 -2.3 -41.0 1.25 -40.6 4.2 L-50.6 5.95 Q-55.65 6.55 -58.3 5.2 -60.95 3.85 -59.15 0.4 -57.35 -3.1 -54.35 -1.55 -55.85 -5.5 -55.1 -9.5 -50.0 -8.95 -45.9 -9.35 M-27.25 0.4 Q-26.0 1.25 -25.8 -0.05 -24.8 -6.4 -28.4 -1.95 -28.35 -0.35 -27.25 0.4 -28.35 -0.35 -28.4 -1.95 -24.8 -6.4 -25.8 -0.05 -26.0 1.25 -27.25 0.4 M-50.2 -1.95 Q-50.7 -0.25 -51.9 0.8 -50.7 -0.25 -50.2 -1.95 M-50.9 -2.65 Q-52.9 -1.85 -52.3 -4.05 -50.95 -9.05 -49.65 -4.45 -50.15 -2.95 -50.9 -2.65 -50.15 -2.95 -49.65 -4.45 -50.95 -9.05 -52.3 -4.05 -52.9 -1.85 -50.9 -2.65 M-49.15 -3.7 L-47.9 -2.65 Q-45.75 -1.3 -46.05 -3.6 -46.9 -9.55 -49.15 -3.7 -46.9 -9.55 -46.05 -3.6 -45.75 -1.3 -47.9 -2.65 L-49.15 -3.7 M-49.35 -2.7 L-47.65 1.55 -49.35 -2.7 M-26.45 -7.2 Q-20.25 -7.6 -21.0 -2.5 L-22.15 5.6 Q-22.55 8.6 -26.3 9.05 L-35.3 9.5 Q-40.6 9.4 -39.35 5.5 -38.15 1.6 -34.6 2.7 -35.2 -1.4 -35.35 -6.5 L-26.45 -7.2 M-28.65 0.55 Q-28.95 3.75 -26.9 4.55 -28.95 3.75 -28.65 0.55 M-31.6 3.6 Q-29.8 1.9 -29.15 -0.7 -29.8 1.9 -31.6 3.6 M-28.9 -2.2 Q-29.4 -0.6 -29.85 -0.25 -31.4 0.85 -31.45 -1.2 -31.6 -6.5 -28.9 -2.2 -31.6 -6.5 -31.45 -1.2 -31.4 0.85 -29.85 -0.25 -29.4 -0.6 -28.9 -2.2" fill="#fe3030" fill-rule="evenodd" stroke="none"/>
    <path d="M34.35 -2.2 Q33.7 -0.05 31.9 0.85 M34.1 -3.95 Q29.6 -5.05 32.35 -1.9 M36.6 1.8 Q35.4 0.7 34.9 -1.2 M37.7 -1.9 Q34.9 -1.35 34.85 -3.45 39.2 -6.65 37.7 -1.9 M55.35 1.3 Q53.6 0.7 52.9 -2.2 M52.35 -2.45 Q52.25 -0.35 50.8 1.0 M52.35 -3.95 Q54.65 -7.35 55.95 -3.95 56.8 -1.7 54.65 -2.0 52.9 -2.2 52.35 -3.95 M52.1 -3.95 Q48.15 -7.25 49.75 -1.65 M-47.65 1.55 L-49.35 -2.7 M-49.15 -3.7 Q-46.9 -9.55 -46.05 -3.6 -45.75 -1.3 -47.9 -2.65 L-49.15 -3.7 M-50.9 -2.65 Q-50.15 -2.95 -49.65 -4.45 -50.95 -9.05 -52.3 -4.05 -52.9 -1.85 -50.9 -2.65 M-51.9 0.8 Q-50.7 -0.25 -50.2 -1.95 M-27.25 0.4 Q-28.35 -0.35 -28.4 -1.95 -24.8 -6.4 -25.8 -0.05 -26.0 1.25 -27.25 0.4 M-28.9 -2.2 Q-31.6 -6.5 -31.45 -1.2 -31.4 0.85 -29.85 -0.25 -29.4 -0.6 -28.9 -2.2 M-29.15 -0.7 Q-29.8 1.9 -31.6 3.6 M-26.9 4.55 Q-28.95 3.75 -28.65 0.55" fill="none" stroke="#ffffff" stroke-linecap="round" stroke-linejoin="round" stroke-width="1.5"/>
    <path d="M32.35 -1.9 Q34.65 -1.95 34.1 -3.95 M49.75 -1.65 Q51.95 -2.55 52.1 -3.95" fill="none" stroke="#ffffff" stroke-linecap="round" stroke-linejoin="round" stroke-width="1.75"/>
    <path d="M27.65 -5.75 Q27.75 -3.8 28.0 -2.05 28.15 -0.35 28.4 0.2 23.6 1.25 24.6 4.05 25.55 6.8 27.55 7.2 29.55 7.55 36.0 7.15 42.4 6.75 42.15 1.2 L41.65 -7.0 32.3 -7.35 Q27.5 -7.75 27.65 -5.75 M47.4 -0.3 Q42.6 0.45 43.85 3.6 45.05 6.7 49.95 6.2 L56.9 5.35 Q58.95 4.95 59.7 2.15 60.45 -0.65 58.6 -8.0 L49.25 -7.95 Q44.8 -8.0 45.9 -4.9 L47.4 -0.3 M-45.9 -9.35 Q-41.85 -9.75 -41.35 -7.25 -40.85 -4.8 -40.9 -2.3 -41.0 1.25 -40.6 4.2 L-50.6 5.95 Q-55.65 6.55 -58.3 5.2 -60.95 3.85 -59.15 0.4 -57.35 -3.1 -54.35 -1.55 -55.85 -5.5 -55.1 -9.5 -50.0 -8.95 -45.9 -9.35 M-26.45 -7.2 Q-20.25 -7.6 -21.0 -2.5 L-22.15 5.6 Q-22.55 8.6 -26.3 9.05 L-35.3 9.5 Q-40.6 9.4 -39.35 5.5 -38.15 1.6 -34.6 2.7 -35.2 -1.4 -35.35 -6.5 L-26.45 -7.2" fill="none" stroke="#512314" stroke-linecap="round" stroke-linejoin="round" stroke-width="2.5"/>
  </g>
</svg>
