<?xml version="1.0" encoding="UTF-8" standalone="no"?>
<svg xmlns:xlink="http://www.w3.org/1999/xlink" height="61.75px" width="34.9px" xmlns="http://www.w3.org/2000/svg">
  <g transform="matrix(1.0, 0.0, 0.0, 1.0, 17.45, 30.85)">
    <path d="M-3.45 2.65 Q-7.4 7.05 -6.55 -0.3 -6.2 -3.55 -4.8 -5.4 -7.75 -2.55 -12.1 -0.7 -15.35 0.65 -13.15 -3.0 -10.5 -7.5 -6.05 -9.8 -10.25 -7.85 -14.0 -10.85 -18.85 -14.75 -11.5 -14.4 L-8.95 -13.9 Q-7.15 -13.25 -5.2 -13.1 -9.65 -15.9 -10.05 -22.4 -10.35 -26.9 -6.8 -24.55 -2.6 -21.7 -0.65 -17.5 -3.35 -24.0 2.0 -28.6 L4.3 -28.05 Q4.65 -24.2 3.9 -20.1 L3.4 -16.85 Q3.65 -18.45 4.4 -19.75 6.1 -23.0 10.5 -24.55 13.5 -25.6 12.15 -22.1 10.7 -18.3 7.75 -15.75 10.65 -17.4 15.1 -15.8 13.45 -11.0 8.6 -10.85 12.45 -9.15 14.7 -5.7 16.05 -3.65 14.05 -2.55 12.5 -1.7 10.6 -3.65 L7.3 -6.35 Q11.45 -2.8 10.55 0.75 6.6 0.8 5.1 -1.25 4.0 -3.7 3.2 -6.05 2.25 -8.75 1.6 -8.1 0.5 -3.55 -1.4 0.5 L-2.55 3.05 -3.45 2.65 M-3.7 -6.6 L-4.8 -5.4 -3.7 -6.6 M-5.45 -10.1 L-6.05 -9.8 -5.45 -10.1 M8.6 -10.85 L6.55 -11.6 Q6.8 -10.85 8.05 -10.85 L8.6 -10.85 M3.3 -16.1 L3.4 -16.85 3.3 -16.1 M6.3 -14.65 L7.75 -15.75 6.3 -14.65" fill="#ffff33" fill-rule="evenodd" stroke="none"/>
    <path d="M5.1 -1.25 L6.25 1.3 7.15 3.15 5.95 2.95 6.5 2.25 6.25 1.85 Q3.5 0.05 0.05 0.2 L0.05 0.25 Q-0.6 0.3 -1.05 0.9 L-1.4 1.3 -1.65 1.65 -1.65 2.4 -1.65 2.5 -1.9 2.9 -1.9 3.1 -1.9 3.45 -1.85 3.85 Q2.45 5.8 7.4 4.5 L7.75 4.35 9.4 7.45 5.55 7.2 -1.7 7.6 Q-2.75 7.45 -3.35 8.25 L-3.4 8.45 -3.4 8.65 -4.7 9.6 -4.85 9.75 -4.9 10.15 -4.9 10.35 -4.85 10.5 Q-4.4 11.2 -3.6 11.35 L7.05 11.75 10.4 10.9 11.2 10.55 14.75 16.95 15.1 17.6 14.35 17.0 13.95 16.5 13.8 16.0 Q13.05 15.05 11.75 15.55 L9.6 15.9 -3.45 15.9 -4.35 15.85 -4.4 15.7 Q-4.85 15.05 -5.7 15.2 L-5.7 15.25 -6.0 15.3 -6.15 15.35 -6.6 15.85 -6.6 16.75 -6.45 16.95 -6.25 17.15 -6.1 17.35 Q-7.2 17.15 -7.85 17.8 L-7.6 16.9 -4.85 8.75 -2.55 3.05 -1.4 0.5 Q0.5 -3.55 1.6 -8.1 2.25 -8.75 3.2 -6.05 4.0 -3.7 5.1 -1.25 M15.45 18.5 Q16.55 21.6 15.3 24.15 15.0 23.7 14.35 23.85 7.2 25.75 -0.25 25.3 -1.2 25.25 -1.95 24.8 -4.05 23.6 -6.45 23.7 L-6.45 23.75 -6.75 23.8 -6.9 23.85 -7.3 24.1 -7.65 24.4 Q-8.6 21.9 -8.1 18.95 L-8.1 19.1 Q-6.6 20.15 -4.8 20.55 2.0 22.1 9.05 20.65 L12.0 20.15 Q13.8 19.9 15.3 18.95 L15.45 18.5 M13.85 26.25 Q11.75 28.2 7.9 28.9 L-1.65 29.2 Q-3.75 29.0 -5.2 27.9 -2.85 29.0 0.05 28.8 6.3 28.3 12.1 26.65 L13.7 26.25 13.85 26.25" fill="#66ccff" fill-rule="evenodd" stroke="none"/>
    <path d="M7.15 3.15 L7.7 3.25 7.95 3.6 7.75 4.35 7.4 4.5 Q2.45 5.8 -1.85 3.85 L-1.9 3.45 -1.9 3.1 -1.9 2.9 -1.65 2.5 -1.65 2.4 -1.65 1.65 -1.4 1.3 -1.05 0.9 Q-0.6 0.3 0.05 0.25 L0.05 0.2 Q3.5 0.05 6.25 1.85 L6.5 2.25 5.95 2.95 7.15 3.15 7.75 4.35 7.15 3.15 M9.4 7.45 L10.2 7.5 Q10.6 7.5 10.65 7.9 L10.6 9.15 Q11.9 9.95 11.2 10.55 L10.4 10.9 7.05 11.75 -3.6 11.35 Q-4.4 11.2 -4.85 10.5 L-4.9 10.35 -4.9 10.15 -4.85 9.75 -4.7 9.6 -3.4 8.65 -3.4 8.45 -3.35 8.25 Q-2.75 7.45 -1.7 7.6 L5.55 7.2 9.4 7.45 10.5 9.35 11.2 10.55 10.5 9.35 9.4 7.45 M15.1 17.6 L15.45 18.05 15.45 18.2 15.45 18.5 15.1 17.6 15.45 18.5 15.3 18.95 Q13.8 19.9 12.0 20.15 L9.05 20.65 Q2.0 22.1 -4.8 20.55 -6.6 20.15 -8.1 19.1 L-8.1 18.95 -8.1 18.9 -8.15 18.5 -8.15 18.15 -7.85 17.8 Q-7.2 17.15 -6.1 17.35 L-6.25 17.15 -6.45 16.95 -6.6 16.75 -6.6 15.85 -6.15 15.35 -6.0 15.3 -5.7 15.25 -5.7 15.2 Q-4.85 15.05 -4.4 15.7 L-4.35 15.85 -3.45 15.9 9.6 15.9 11.75 15.55 Q13.05 15.05 13.8 16.0 L13.95 16.5 14.35 17.0 15.1 17.6 M15.3 24.15 L15.4 24.4 15.5 24.75 Q15.0 25.85 13.85 26.25 L13.7 26.25 12.1 26.65 Q6.3 28.3 0.05 28.8 -2.85 29.0 -5.2 27.9 L-7.35 26.55 Q-8.8 25.4 -7.65 24.4 L-7.3 24.1 -6.9 23.85 -6.75 23.8 -6.45 23.75 -6.45 23.7 Q-4.05 23.6 -1.95 24.8 -1.2 25.25 -0.25 25.3 7.2 25.75 14.35 23.85 15.0 23.7 15.3 24.15 L14.75 25.1 13.85 26.25 14.75 25.1 15.3 24.15 M-7.85 17.8 L-8.1 18.95 -7.85 17.8 M-5.2 27.9 Q-6.4 27.0 -7.15 25.6 L-7.65 24.4 -7.15 25.6 Q-6.4 27.0 -5.2 27.9" fill="#ff6699" fill-rule="evenodd" stroke="none"/>
    <path d="M-3.45 2.65 Q-7.4 7.05 -6.55 -0.3 -6.2 -3.55 -4.8 -5.4 -7.75 -2.55 -12.1 -0.7 -15.35 0.65 -13.15 -3.0 -10.5 -7.5 -6.05 -9.8 -10.25 -7.85 -14.0 -10.85 -18.85 -14.75 -11.5 -14.4 L-8.95 -13.9 Q-7.15 -13.25 -5.2 -13.1 -9.65 -15.9 -10.05 -22.4 -10.35 -26.9 -6.8 -24.55 -2.6 -21.7 -0.65 -17.5 -3.35 -24.0 2.0 -28.6 4.05 -30.35 4.3 -28.05 4.65 -24.2 3.9 -20.1 L3.4 -16.85 Q3.65 -18.45 4.4 -19.75 6.1 -23.0 10.5 -24.55 13.5 -25.6 12.15 -22.1 10.7 -18.3 7.75 -15.75 10.65 -17.4 15.1 -15.8 13.45 -11.0 8.6 -10.85 12.45 -9.15 14.7 -5.7 16.05 -3.65 14.05 -2.55 12.5 -1.7 10.6 -3.65 L7.3 -6.35 Q11.45 -2.8 10.55 0.75 6.6 0.8 5.1 -1.25 M-6.05 -9.8 L-5.45 -10.1 M-4.8 -5.4 L-3.7 -6.6 M8.6 -10.85 L8.05 -10.85 Q6.8 -10.85 6.55 -11.6 L8.6 -10.85 M7.75 -15.75 L6.3 -14.65 M3.4 -16.85 L3.3 -16.1" fill="none" stroke="#512314" stroke-linecap="round" stroke-linejoin="round" stroke-width="3.0"/>
    <path d="M5.1 -1.25 L6.25 1.3 7.15 3.15 7.75 4.35 9.4 7.45 10.5 9.35 11.2 10.55 14.75 16.95 15.1 17.6 15.45 18.5 Q16.55 21.6 15.3 24.15 M13.85 26.25 Q11.75 28.2 7.9 28.9 L-1.65 29.2 Q-3.75 29.0 -5.2 27.9 M-7.65 24.4 Q-8.6 21.9 -8.1 18.95 L-7.85 17.8 -7.6 16.9 -4.85 8.75 -2.55 3.05 M5.1 -1.25 Q4.0 -3.7 3.2 -6.05 2.25 -8.75 1.6 -8.1 0.5 -3.55 -1.4 0.5 L-2.55 3.05 M-7.65 24.4 L-7.15 25.6 Q-6.4 27.0 -5.2 27.9 M13.85 26.25 L14.75 25.1 15.3 24.15" fill="none" stroke="#512314" stroke-linecap="round" stroke-linejoin="round" stroke-width="3.0"/>
  </g>
</svg>
