<?xml version="1.0" encoding="UTF-8" standalone="no"?>
<svg xmlns:xlink="http://www.w3.org/1999/xlink" height="17.0px" width="15.4px" xmlns="http://www.w3.org/2000/svg">
  <g transform="matrix(1.0, 0.0, 0.0, 1.0, 30.55, 15.65)">
    <path d="M-23.75 -7.75 Q-27.9 -9.4 -26.95 -12.55 -26.0 -15.75 -24.05 -14.1 -22.1 -12.5 -22.05 -10.3 -21.25 -13.7 -17.45 -12.4 -15.15 -11.65 -16.85 -9.8 -18.5 -7.95 -20.9 -7.2 L-22.25 -8.5 -23.75 -7.75 M-22.25 -8.5 L-22.05 -10.3 -22.25 -8.5" fill="#ffffff" fill-rule="evenodd" stroke="none"/>
    <path d="M-29.2 -3.5 Q-29.2 -4.95 -27.65 -6.0 -26.45 -6.75 -24.8 -6.95 L-23.8 -7.0 -23.75 -7.0 -22.15 -6.85 -22.0 -6.8 -21.1 -6.55 -20.0 -6.0 Q-18.4 -4.95 -18.4 -3.5 -18.4 -2.05 -20.0 -1.05 -21.55 0.0 -23.8 0.0 -26.05 0.0 -27.65 -1.05 -29.2 -2.05 -29.2 -3.5 M-25.0 -1.1 Q-24.65 -3.55 -24.8 -6.95 -24.65 -3.55 -25.0 -1.1 M-22.0 -1.25 Q-21.9 -3.95 -22.25 -6.25 -21.9 -3.95 -22.0 -1.25" fill="#ffff66" fill-rule="evenodd" stroke="none"/>
    <path d="M-23.75 -7.75 Q-27.9 -9.4 -26.95 -12.55 -26.0 -15.75 -24.05 -14.1 -22.1 -12.5 -22.05 -10.3 -21.25 -13.7 -17.45 -12.4 -15.15 -11.65 -16.85 -9.8 -18.5 -7.95 -20.9 -7.2 M-22.05 -10.3 L-22.25 -8.5 M-22.25 -6.25 Q-21.9 -3.95 -22.0 -1.25 M-24.8 -6.95 Q-24.65 -3.55 -25.0 -1.1" fill="none" stroke="#512314" stroke-linecap="round" stroke-linejoin="round" stroke-width="2.0"/>
    <path d="M-29.2 -3.5 Q-29.2 -4.95 -27.65 -6.0 -26.45 -6.75 -24.8 -6.95 L-23.8 -7.0 -23.75 -7.0 -22.15 -6.85 -22.0 -6.8 -21.1 -6.55 -20.0 -6.0 Q-18.4 -4.95 -18.4 -3.5 -18.4 -2.05 -20.0 -1.05 -21.55 0.0 -23.8 0.0 -26.05 0.0 -27.65 -1.05 -29.2 -2.05 -29.2 -3.5" fill="none" stroke="#512314" stroke-linecap="round" stroke-linejoin="round" stroke-width="2.75"/>
  </g>
</svg>
