<?xml version="1.0" encoding="UTF-8" standalone="no"?>
<svg xmlns:xlink="http://www.w3.org/1999/xlink" height="22.3px" width="24.9px" xmlns="http://www.w3.org/2000/svg">
  <g transform="matrix(1.0, 0.0, 0.0, 1.0, 12.45, 11.15)">
    <path d="M-0.95 -2.25 Q7.75 -12.3 10.4 -6.55 13.05 -0.85 8.85 2.85 4.6 6.5 -2.9 10.15 L-5.25 8.25 Q-11.1 3.3 -11.45 -3.9 -11.65 -8.4 -8.0 -9.55 0.75 -12.3 -0.95 -2.25 L-1.05 -1.8 -1.25 -0.85 -1.05 -1.8 -0.95 -2.25" fill="#c1e4f2" fill-rule="evenodd" stroke="none"/>
    <path d="M-0.95 -2.25 Q0.75 -12.3 -8.0 -9.55 -11.65 -8.4 -11.45 -3.9 -11.1 3.3 -5.25 8.25 L-2.9 10.15 Q4.6 6.5 8.85 2.85 13.05 -0.85 10.4 -6.55 7.75 -12.3 -0.95 -2.25 L-1.05 -1.8 -1.25 -0.85" fill="none" stroke="#c1e4f2" stroke-linecap="round" stroke-linejoin="round" stroke-width="2.0"/>
  </g>
</svg>
