<?xml version="1.0" encoding="UTF-8" standalone="no"?>
<svg xmlns:xlink="http://www.w3.org/1999/xlink" height="31.0px" width="34.5px" xmlns="http://www.w3.org/2000/svg">
  <g transform="matrix(1.0, 0.0, 0.0, 1.0, 17.25, 15.5)">
    <path d="M-4.9 -3.7 Q-2.65 -8.25 -0.25 -14.5 2.15 -8.15 4.05 -5.2 L4.55 -4.4 2.7 -4.3 -4.9 -3.7 2.7 -4.3 4.55 -4.4 16.25 -5.0 Q12.55 -1.05 8.2 2.35 L11.15 9.05 Q13.9 16.15 6.15 9.05 2.55 5.75 0.9 6.8 L0.65 6.95 Q-4.3 11.4 -9.75 14.5 -10.3 9.5 -8.1 3.65 L-6.5 3.9 Q-10.8 2.2 -13.65 0.75 -15.35 -0.15 -16.25 -1.5 -10.8 -2.95 -4.9 -3.7 -6.5 -0.55 -6.5 3.9 -3.6 5.3 0.75 6.5 5.2 4.65 8.2 2.35 L4.55 -4.4 8.2 2.35 Q5.2 4.65 0.75 6.5 -3.6 5.3 -6.5 3.9 -6.5 -0.55 -4.9 -3.7" fill="#f8f0a0" fill-rule="evenodd" stroke="none"/>
    <path d="M4.55 -4.4 L4.05 -5.2 Q2.15 -8.15 -0.25 -14.5 -2.65 -8.25 -4.9 -3.7 L2.7 -4.3 4.55 -4.4 16.25 -5.0 Q12.55 -1.05 8.2 2.35 L11.15 9.05 Q13.9 16.15 6.15 9.05 2.55 5.75 0.9 6.8 L0.65 6.95 Q-4.3 11.4 -9.75 14.5 -10.3 9.5 -8.1 3.65 L-6.5 3.9 Q-10.8 2.2 -13.65 0.75 -15.35 -0.15 -16.25 -1.5 -10.8 -2.95 -4.9 -3.7 -6.5 -0.55 -6.5 3.9 -3.6 5.3 0.75 6.5 5.2 4.65 8.2 2.35 L4.55 -4.4 Z" fill="none" stroke="#f8f0a0" stroke-linecap="round" stroke-linejoin="round" stroke-width="2.0"/>
  </g>
</svg>
