<?xml version="1.0" encoding="UTF-8" standalone="no"?>
<svg xmlns:xlink="http://www.w3.org/1999/xlink" height="80.1px" width="60.05px" xmlns="http://www.w3.org/2000/svg">
  <g transform="matrix(1.0, 0.0, 0.0, 1.0, 30.0, 40.0)">
    <path d="M2.05 -22.0 L4.25 -23.2 Q11.05 -26.8 17.35 -38.5 22.8 -32.35 25.4 -23.5 26.45 -19.85 27.15 -15.85 21.0 -8.95 19.15 -19.25 9.25 -10.05 13.3 -22.85 9.45 -19.5 8.0 -19.45 2.5 -19.35 2.05 -22.0" fill="#ffffff" fill-rule="evenodd" stroke="none"/>
    <path d="M2.05 -22.0 Q2.5 -19.35 8.0 -19.45 9.45 -19.5 13.3 -22.85 9.25 -10.05 19.15 -19.25 21.0 -8.95 27.15 -15.85 28.15 -10.25 28.5 -4.0 29.0 6.6 26.1 14.55 23.2 22.45 19.1 27.0 15.0 31.5 7.5 35.5 0.0 39.45 -10.55 38.35 -21.15 37.2 -25.55 28.75 -29.6 21.05 -28.05 11.25 -26.55 1.95 -21.0 -5.15 -16.05 -11.4 -9.8 -15.25 L2.05 -22.0" fill="#ff9933" fill-rule="evenodd" stroke="none"/>
    <path d="M27.15 -15.85 Q26.45 -19.85 25.4 -23.5 22.8 -32.35 17.35 -38.5 11.05 -26.8 4.25 -23.2 L2.05 -22.0 M27.15 -15.85 Q28.15 -10.25 28.5 -4.0 29.0 6.6 26.1 14.55 23.2 22.45 19.1 27.0 15.0 31.5 7.5 35.5 0.0 39.45 -10.55 38.35 -21.15 37.2 -25.55 28.75 -29.6 21.05 -28.05 11.25 -26.55 1.95 -21.0 -5.15 -16.05 -11.4 -9.8 -15.25 L2.05 -22.0" fill="none" stroke="#512314" stroke-linecap="round" stroke-linejoin="round" stroke-width="3.0"/>
  </g>
</svg>
