<?xml version="1.0" encoding="UTF-8" standalone="no"?>
<svg xmlns:xlink="http://www.w3.org/1999/xlink" height="73.25px" width="73.9px" xmlns="http://www.w3.org/2000/svg">
  <g transform="matrix(1.0, 0.0, 0.0, 1.0, 36.95, 36.6)">
    <path d="M31.85 -33.05 Q36.6 -29.45 35.1 -23.9 33.55 -18.35 24.55 -16.0 15.5 -13.65 10.9 -12.2 20.55 -14.85 24.95 -6.85 28.3 -0.7 22.2 2.4 15.8 5.65 6.05 5.1 15.8 5.95 14.3 15.85 4.9 24.25 -3.25 19.2 -5.95 17.5 -7.95 16.55 -3.3 25.45 -10.6 31.45 -16.45 36.25 -26.35 34.8 -34.7 33.55 -35.45 22.05 -34.45 16.4 -31.5 8.2 -28.65 0.5 -24.15 -6.25 -19.35 -13.4 -13.75 -18.75 -8.45 -23.8 -1.45 -27.45 5.2 -30.95 16.15 -33.8 27.05 -36.7 31.85 -33.05 M10.05 -11.95 L10.6 -12.1 10.9 -12.2 10.6 -12.1 10.05 -11.95" fill="#ffffff" fill-rule="evenodd" stroke="none"/>
    <path d="M31.85 -33.05 Q36.6 -29.45 35.1 -23.9 33.55 -18.35 24.55 -16.0 15.5 -13.65 10.9 -12.2 20.55 -14.85 24.95 -6.85 28.3 -0.7 22.2 2.4 15.8 5.65 6.05 5.1 15.8 5.95 14.3 15.85 4.9 24.25 -3.25 19.2 -5.95 17.5 -7.95 16.55 -3.3 25.45 -10.6 31.45 -16.45 36.25 -26.35 34.8 -34.7 33.55 -35.45 22.05 -34.45 16.4 -31.5 8.2 -28.65 0.5 -24.15 -6.25 -19.35 -13.4 -13.75 -18.75 -8.45 -23.8 -1.45 -27.45 5.2 -30.95 16.15 -33.8 27.05 -36.7 31.85 -33.05 M10.9 -12.2 L10.6 -12.1 10.05 -11.95" fill="none" stroke="#512314" stroke-linecap="round" stroke-linejoin="round" stroke-width="3.0"/>
  </g>
</svg>
