<?xml version="1.0" encoding="UTF-8" standalone="no"?>
<svg xmlns:xlink="http://www.w3.org/1999/xlink" height="14.05px" width="17.15px" xmlns="http://www.w3.org/2000/svg">
  <g transform="matrix(1.0, 0.0, 0.0, 1.0, 39.2, 19.7)">
    <path d="M-32.25 -14.75 Q-38.0 -15.25 -38.2 -17.05 -38.45 -18.9 -35.0 -18.7 -31.6 -18.5 -30.8 -15.8 -30.6 -16.25 -30.65 -15.95 -28.45 -18.2 -25.15 -17.65 -21.9 -17.15 -23.7 -15.55 -25.5 -13.95 -29.4 -14.2 L-30.75 -15.5 -32.25 -14.75 M-30.75 -15.5 L-30.65 -15.95 -30.75 -15.5" fill="#ffffff" fill-rule="evenodd" stroke="none"/>
    <path d="M-28.5 -8.05 Q-30.05 -7.0 -32.3 -7.0 -34.55 -7.0 -36.15 -8.05 -37.7 -9.05 -37.7 -10.5 -37.7 -11.95 -36.15 -13.0 -34.95 -13.75 -33.3 -13.95 L-32.3 -14.0 -32.25 -14.0 -30.65 -13.85 -30.5 -13.8 -29.6 -13.55 -28.5 -13.0 Q-26.9 -11.95 -26.9 -10.5 -26.9 -9.05 -28.5 -8.05 M-30.5 -8.25 Q-30.4 -10.95 -30.75 -13.25 -30.4 -10.95 -30.5 -8.25 M-33.5 -8.1 Q-33.15 -10.55 -33.3 -13.95 -33.15 -10.55 -33.5 -8.1" fill="#ffff66" fill-rule="evenodd" stroke="none"/>
    <path d="M-32.25 -14.75 Q-38.0 -15.25 -38.2 -17.05 -38.45 -18.9 -35.0 -18.7 -31.6 -18.5 -30.8 -15.8 -30.6 -16.25 -30.65 -15.95 -28.45 -18.2 -25.15 -17.65 -21.9 -17.15 -23.7 -15.55 -25.5 -13.95 -29.4 -14.2 M-30.65 -15.95 L-30.75 -15.5 M-33.3 -13.95 Q-33.15 -10.55 -33.5 -8.1 M-30.75 -13.25 Q-30.4 -10.95 -30.5 -8.25" fill="none" stroke="#512314" stroke-linecap="round" stroke-linejoin="round" stroke-width="2.0"/>
    <path d="M-28.5 -8.05 Q-30.05 -7.0 -32.3 -7.0 -34.55 -7.0 -36.15 -8.05 -37.7 -9.05 -37.7 -10.5 -37.7 -11.95 -36.15 -13.0 -34.95 -13.75 -33.3 -13.95 L-32.3 -14.0 -32.25 -14.0 -30.65 -13.85 -30.5 -13.8 -29.6 -13.55 -28.5 -13.0 Q-26.9 -11.95 -26.9 -10.5 -26.9 -9.05 -28.5 -8.05" fill="none" stroke="#512314" stroke-linecap="round" stroke-linejoin="round" stroke-width="2.75"/>
  </g>
</svg>
