<?xml version="1.0" encoding="UTF-8" standalone="no"?>
<svg xmlns:xlink="http://www.w3.org/1999/xlink" height="20.2px" width="124.3px" xmlns="http://www.w3.org/2000/svg">
  <g transform="matrix(1.0, 0.0, 0.0, 1.0, 62.15, 10.1)">
    <path d="M-23.25 -0.4 Q-22.7 1.7 -23.4 4.05 -24.15 6.7 -26.0 7.55 -29.4 9.1 -30.1 7.35 L-31.0 7.6 -32.2 8.5 Q-32.95 8.8 -33.95 8.15 -35.9 6.95 -36.1 5.55 -38.6 5.6 -38.75 3.55 -39.1 -1.65 -33.0 -3.65 -28.85 -3.75 -23.3 -1.15 L-23.25 -0.4 M-34.0 1.85 Q-36.35 3.85 -36.1 5.55 -36.35 3.85 -34.0 1.85 M-43.55 -3.4 L-43.85 -2.4 Q-44.45 2.2 -47.45 5.15 -48.35 6.1 -49.95 5.45 -53.1 4.15 -53.2 2.15 L-53.75 2.1 Q-54.3 2.6 -56.4 2.7 -58.55 0.85 -57.85 -1.1 L-59.0 -1.4 Q-61.7 -1.75 -59.95 -4.85 -58.1 -8.2 -54.3 -8.4 L-53.75 -8.5 Q-49.3 -9.15 -45.85 -5.85 L-43.55 -3.4 M-53.2 2.15 Q-53.3 0.75 -52.0 -0.9 -53.3 0.75 -53.2 2.15 M-57.85 -1.1 Q-57.4 -2.35 -55.75 -3.65 -57.4 -2.35 -57.85 -1.1 M-30.0 3.85 Q-30.55 6.25 -30.1 7.35 -30.55 6.25 -30.0 3.85 M54.5 3.1 L53.1 4.2 Q52.15 5.0 50.9 4.6 48.9 3.95 48.6 2.8 46.05 4.0 45.3 1.85 43.55 -3.6 47.5 -5.9 L57.2 -6.2 Q59.35 -5.9 60.45 -4.15 L60.5 -3.2 Q61.1 0.35 59.45 1.7 56.45 4.15 55.5 2.6 L54.5 3.1 M55.0 -0.65 Q54.9 1.65 55.5 2.6 54.9 1.65 55.0 -0.65 M51.0 -1.4 Q48.15 1.15 48.6 2.8 48.15 1.15 51.0 -1.4 M39.65 -0.35 L39.55 -0.1 Q40.25 4.55 38.0 5.5 35.65 6.5 34.6 5.15 L34.0 5.35 Q33.8 6.0 31.85 6.75 29.9 7.45 28.5 6.25 L27.2 4.15 Q23.95 4.4 23.9 1.1 23.75 -3.4 29.3 -5.15 L37.75 -3.55 Q40.4 -2.85 39.65 -0.35 M27.2 4.15 Q27.4 2.4 29.5 0.6 27.4 2.4 27.2 4.15 M34.6 5.15 Q33.75 4.0 33.75 1.35 33.75 4.0 34.6 5.15" fill="#ff9900" fill-rule="evenodd" stroke="none"/>
    <path d="M-30.1 7.35 Q-29.4 9.1 -26.0 7.55 -24.15 6.7 -23.4 4.05 -22.7 1.7 -23.25 -0.4 M-33.0 -3.65 Q-39.1 -1.65 -38.75 3.55 -38.6 5.6 -36.1 5.55 -36.35 3.85 -34.0 1.85 M-43.85 -2.4 Q-44.45 2.2 -47.45 5.15 -48.35 6.1 -49.95 5.45 -53.1 4.15 -53.2 2.15 M-53.75 2.1 Q-54.3 2.6 -56.4 2.7 -58.55 0.85 -57.85 -1.1 M-59.0 -1.4 Q-61.7 -1.75 -59.95 -4.85 -58.1 -8.2 -54.3 -8.4 L-53.75 -8.5 M-36.1 5.55 Q-35.9 6.95 -33.95 8.15 -32.95 8.8 -32.2 8.5 L-31.0 7.6 M-30.1 7.35 Q-30.55 6.25 -30.0 3.85 M-55.75 -3.65 Q-57.4 -2.35 -57.85 -1.1 M-52.0 -0.9 Q-53.3 0.75 -53.2 2.15 M48.6 2.8 Q48.9 3.95 50.9 4.6 52.15 5.0 53.1 4.2 L54.5 3.1 M55.5 2.6 Q54.9 1.65 55.0 -0.65 M55.5 2.6 Q56.45 4.15 59.45 1.7 61.1 0.35 60.5 -3.2 M47.5 -5.9 Q43.55 -3.6 45.3 1.85 46.05 4.0 48.6 2.8 48.15 1.15 51.0 -1.4 M39.65 -0.35 L39.55 -0.1 Q40.25 4.55 38.0 5.5 35.65 6.5 34.6 5.15 M34.0 5.35 Q33.8 6.0 31.85 6.75 29.9 7.45 28.5 6.25 27.05 5.0 27.2 4.15 23.95 4.4 23.9 1.1 23.75 -3.4 29.3 -5.15 M33.75 1.35 Q33.75 4.0 34.6 5.15 M29.5 0.6 Q27.4 2.4 27.2 4.15" fill="none" stroke="#512314" stroke-linecap="round" stroke-linejoin="round" stroke-width="3.0"/>
    <path d="M-23.3 -1.15 Q-28.85 -3.75 -33.0 -3.65 M-53.75 -8.5 Q-49.3 -9.15 -45.85 -5.85 L-43.55 -3.4 M60.45 -4.15 Q59.35 -5.9 57.2 -6.2 L47.5 -5.9 M29.3 -5.15 L37.75 -3.55 Q40.4 -2.85 39.65 -0.35" fill="none" stroke="#512314" stroke-linecap="round" stroke-linejoin="round" stroke-width="3.0"/>
  </g>
</svg>
