<?xml version="1.0" encoding="UTF-8" standalone="no"?>
<svg xmlns:xlink="http://www.w3.org/1999/xlink" height="21.5px" width="122.3px" xmlns="http://www.w3.org/2000/svg">
  <g transform="matrix(1.0, 0.0, 0.0, 1.0, 61.15, 10.75)">
    <path d="M-59.15 0.4 Q-57.35 -3.1 -54.35 -1.55 -55.85 -5.5 -55.1 -9.5 -50.0 -8.95 -45.9 -9.35 -41.85 -9.75 -41.35 -7.25 -40.85 -4.8 -40.9 -2.3 -41.0 1.25 -40.6 4.2 L-50.6 5.95 Q-55.65 6.55 -58.3 5.2 -60.95 3.85 -59.15 0.4 M-29.15 1.4 L-31.9 1.4 -29.15 1.4 M-28.9 -2.35 L-32.65 -2.35 -28.9 -2.35 M-49.15 -1.35 L-52.65 -1.35 -49.15 -1.35 M-49.15 -5.1 L-52.4 -5.1 -49.15 -5.1 M-26.45 -7.2 Q-20.25 -7.6 -21.0 -2.5 L-22.15 5.6 Q-22.55 8.6 -26.3 9.05 L-35.3 9.5 Q-40.6 9.4 -39.35 5.5 -38.15 1.6 -34.6 2.7 -35.2 -1.4 -35.35 -6.5 L-26.45 -7.2 M24.6 4.05 Q23.6 1.25 28.4 0.2 28.15 -0.35 28.0 -2.05 27.75 -3.8 27.65 -5.75 27.5 -7.75 32.3 -7.35 L41.65 -7.0 42.15 1.2 Q42.4 6.75 36.0 7.15 29.55 7.55 27.55 7.2 25.55 6.8 24.6 4.05 M52.85 -0.6 L49.35 -0.85 52.85 -0.6 M52.35 -4.3 L48.85 -4.1 52.35 -4.3 M34.6 0.15 L30.1 -0.1 34.6 0.15 M35.6 -3.15 L30.35 -3.6 35.6 -3.15 M45.9 -4.9 Q44.8 -8.0 49.25 -7.95 L58.6 -8.0 Q60.45 -0.65 59.7 2.15 58.95 4.95 56.9 5.35 L49.95 6.2 Q45.05 6.7 43.85 3.6 42.6 0.45 47.4 -0.3 L45.9 -4.9" fill="#666666" fill-rule="evenodd" stroke="none"/>
    <path d="M-59.15 0.4 Q-57.35 -3.1 -54.35 -1.55 -55.85 -5.5 -55.1 -9.5 -50.0 -8.95 -45.9 -9.35 -41.85 -9.75 -41.35 -7.25 -40.85 -4.8 -40.9 -2.3 -41.0 1.25 -40.6 4.2 L-50.6 5.95 Q-55.65 6.55 -58.3 5.2 -60.95 3.85 -59.15 0.4 M-26.45 -7.2 Q-20.25 -7.6 -21.0 -2.5 L-22.15 5.6 Q-22.55 8.6 -26.3 9.05 L-35.3 9.5 Q-40.6 9.4 -39.35 5.5 -38.15 1.6 -34.6 2.7 -35.2 -1.4 -35.35 -6.5 L-26.45 -7.2 M24.6 4.05 Q25.55 6.8 27.55 7.2 29.55 7.55 36.0 7.15 42.4 6.75 42.15 1.2 L41.65 -7.0 32.3 -7.35 Q27.5 -7.75 27.65 -5.75 27.75 -3.8 28.0 -2.05 28.15 -0.35 28.4 0.2 23.6 1.25 24.6 4.05 M45.9 -4.9 L47.4 -0.3 Q42.6 0.45 43.85 3.6 45.05 6.7 49.95 6.2 L56.9 5.35 Q58.95 4.95 59.7 2.15 60.45 -0.65 58.6 -8.0 L49.25 -7.95 Q44.8 -8.0 45.9 -4.9" fill="none" stroke="#512314" stroke-linecap="round" stroke-linejoin="round" stroke-width="2.5"/>
    <path d="M-52.4 -5.1 L-49.15 -5.1 M-52.65 -1.35 L-49.15 -1.35 M-32.65 -2.35 L-28.9 -2.35 M-31.9 1.4 L-29.15 1.4 M30.35 -3.6 L35.6 -3.15 M30.1 -0.1 L34.6 0.15 M48.85 -4.1 L52.35 -4.3 M49.35 -0.85 L52.85 -0.6" fill="none" stroke="#ffffff" stroke-linecap="round" stroke-linejoin="round" stroke-width="2.0"/>
  </g>
</svg>
