<?xml version="1.0" encoding="UTF-8" standalone="no"?>
<svg xmlns:xlink="http://www.w3.org/1999/xlink" height="61.8px" width="143.15px" xmlns="http://www.w3.org/2000/svg">
  <g transform="matrix(1.0, 0.0, 0.0, 1.0, 71.55, 30.9)">
    <path d="M43.25 7.2 L44.35 6.75 Q52.7 3.4 58.3 -1.85 63.85 -7.15 68.55 -1.95 73.2 3.2 63.7 9.45 54.15 15.7 45.55 18.6 L28.7 23.55 13.25 27.2 Q5.9 28.85 -6.15 29.25 -18.25 29.65 -28.8 29.05 -39.35 28.45 -52.35 25.1 -65.35 21.7 -68.4 18.25 -71.5 14.75 -68.7 12.05 -65.9 9.3 -60.45 11.75 -55.05 14.2 -47.0 16.3 -41.45 17.8 -35.55 18.4 L-28.5 18.75 -9.0 18.8 Q0.8 18.7 9.65 16.65 L27.6 12.2 Q36.0 9.95 43.25 7.2 M-34.9 7.55 Q-34.3 3.45 -33.2 -0.65 -30.75 -9.95 -26.4 -21.1 -22.05 -32.3 -14.15 -23.8 -6.3 -15.3 -1.75 -15.25 2.75 -15.25 5.6 -16.25 8.4 -17.25 14.8 -25.45 21.15 -33.65 27.8 -24.8 34.4 -16.0 38.05 -8.7 L40.75 -2.25 Q36.5 -0.65 32.05 0.35 L14.45 4.25 Q5.7 6.2 -3.7 7.35 L-20.9 8.3 -34.9 7.55" fill="#e3c695" fill-rule="evenodd" stroke="none"/>
    <path d="M43.25 7.2 Q36.0 9.95 27.6 12.2 L9.65 16.65 Q0.8 18.7 -9.0 18.8 L-28.5 18.75 -35.55 18.4 Q-35.6 12.75 -34.9 7.55 L-20.9 8.3 -3.7 7.35 Q5.7 6.2 14.45 4.25 L32.05 0.35 Q36.5 -0.65 40.75 -2.25 42.2 1.9 42.85 6.2 L43.25 7.2" fill="#f8eee0" fill-rule="evenodd" stroke="none"/>
    <path d="M-35.55 18.4 Q-41.45 17.8 -47.0 16.3 -55.05 14.2 -60.45 11.75 -65.9 9.3 -68.7 12.05 -71.5 14.75 -68.4 18.25 -65.35 21.7 -52.35 25.1 -39.35 28.45 -28.8 29.05 -18.25 29.65 -6.15 29.25 5.9 28.85 13.25 27.2 L28.7 23.55 45.55 18.6 Q54.15 15.7 63.7 9.45 73.2 3.2 68.55 -1.95 63.85 -7.15 58.3 -1.85 52.7 3.4 44.35 6.75 L43.25 7.2 Q36.0 9.95 27.6 12.2 L9.65 16.65 Q0.8 18.7 -9.0 18.8 L-28.5 18.75 -35.55 18.4 Q-35.6 12.75 -34.9 7.55 -34.3 3.45 -33.2 -0.65 -30.75 -9.95 -26.4 -21.1 -22.05 -32.3 -14.15 -23.8 -6.3 -15.3 -1.75 -15.25 2.75 -15.25 5.6 -16.25 8.4 -17.25 14.8 -25.45 21.15 -33.65 27.8 -24.8 34.4 -16.0 38.05 -8.7 L40.75 -2.25 Q42.2 1.9 42.85 6.2" fill="none" stroke="#512314" stroke-linecap="round" stroke-linejoin="round" stroke-width="3.0"/>
    <path d="M-34.9 7.55 L-20.9 8.3 -3.7 7.35 Q5.7 6.2 14.45 4.25 L32.05 0.35 Q36.5 -0.65 40.75 -2.25" fill="none" stroke="#512314" stroke-linecap="round" stroke-linejoin="round" stroke-width="3.0"/>
  </g>
</svg>
