<?xml version="1.0" encoding="UTF-8" standalone="no"?>
<svg xmlns:xlink="http://www.w3.org/1999/xlink" height="109.05px" width="122.45px" xmlns="http://www.w3.org/2000/svg">
  <g transform="matrix(1.0, 0.0, 0.0, 1.0, 61.25, 54.5)">
    <path d="M19.4 -34.3 L19.1 -37.2 Q17.8 -46.65 12.75 -53.1 20.35 -53.8 23.6 -44.4 25.9 -37.75 21.65 -33.4 L19.4 -34.3 21.65 -33.4 Q27.2 -31.0 31.35 -27.2 37.1 -21.95 37.85 -12.65 52.9 -13.25 43.85 -2.15 L55.1 -4.55 Q55.8 3.25 47.85 8.85 53.65 7.65 59.85 7.35 57.05 14.45 50.05 19.2 47.4 21.0 45.7 21.2 44.9 21.3 44.65 24.3 L33.35 13.35 33.1 18.35 32.35 35.8 Q31.75 46.05 32.0 53.2 24.6 45.5 17.8 39.85 17.0 43.35 17.35 47.35 13.8 44.15 10.25 40.0 3.4 31.85 0.75 21.25 L-4.3 1.1 Q-16.4 16.25 -21.4 24.5 -27.1 15.9 -27.65 5.35 -31.8 12.7 -36.0 21.4 -41.85 33.6 -45.65 45.85 -50.65 39.45 -49.95 26.85 -49.35 15.25 -43.65 6.35 -51.2 13.7 -59.9 16.2 -53.35 11.1 -48.9 3.5 -44.15 -4.75 -40.95 -12.6 -37.65 -20.8 -32.1 -26.1 -25.25 -32.55 -18.4 -36.1 -10.5 -40.15 -0.2 -38.75 9.15 -37.45 16.85 -35.15 L19.4 -34.3 M32.3 -9.65 Q37.4 -3.3 40.8 5.85 43.5 13.05 44.65 24.3 43.5 13.05 40.8 5.85 37.4 -3.3 32.3 -9.65 M20.85 -32.65 L21.65 -33.4 20.85 -32.65" fill="#666666" fill-rule="evenodd" stroke="none"/>
    <path d="M21.65 -33.4 Q25.9 -37.75 23.6 -44.4 20.35 -53.8 12.75 -53.1 17.8 -46.65 19.1 -37.2 L19.4 -34.3 M21.65 -33.4 L20.85 -32.65 M44.65 24.3 Q43.5 13.05 40.8 5.85 37.4 -3.3 32.3 -9.65" fill="none" stroke="#512314" stroke-linecap="round" stroke-linejoin="round" stroke-width="2.75"/>
    <path d="M19.4 -34.3 L21.65 -33.4 Q27.2 -31.0 31.35 -27.2 37.1 -21.95 37.85 -12.65 52.9 -13.25 43.85 -2.15 L55.1 -4.55 Q55.8 3.25 47.85 8.85 53.65 7.65 59.85 7.35 57.05 14.45 50.05 19.2 47.4 21.0 45.7 21.2 44.9 21.3 44.65 24.3 L33.35 13.35 33.1 18.35 32.35 35.8 Q31.75 46.05 32.0 53.2 24.6 45.5 17.8 39.85 17.0 43.35 17.35 47.35 13.8 44.15 10.25 40.0 3.4 31.85 0.75 21.25 L-4.3 1.1 Q-16.4 16.25 -21.4 24.5 -27.1 15.9 -27.65 5.35 -31.8 12.7 -36.0 21.4 -41.85 33.6 -45.65 45.85 -50.65 39.45 -49.95 26.85 -49.35 15.25 -43.65 6.35 -51.2 13.7 -59.9 16.2 -53.35 11.1 -48.9 3.5 -44.15 -4.75 -40.95 -12.6 -37.65 -20.8 -32.1 -26.1 -25.25 -32.55 -18.4 -36.1 -10.5 -40.15 -0.2 -38.75 9.15 -37.45 16.85 -35.15 L19.4 -34.3" fill="none" stroke="#512314" stroke-linecap="round" stroke-linejoin="round" stroke-width="2.75"/>
  </g>
</svg>
