<?xml version="1.0" encoding="UTF-8" standalone="no"?>
<svg xmlns:xlink="http://www.w3.org/1999/xlink" height="17.05px" width="15.4px" xmlns="http://www.w3.org/2000/svg">
  <g transform="matrix(1.0, 0.0, 0.0, 1.0, 51.55, 28.7)">
    <path d="M-44.75 -20.75 Q-48.9 -22.4 -47.95 -25.55 L-47.6 -26.5 -47.1 -27.25 Q-46.35 -28.1 -45.2 -27.25 L-45.05 -27.1 -44.4 -26.5 Q-43.1 -25.1 -43.05 -23.3 -42.25 -26.7 -38.45 -25.4 -36.15 -24.65 -37.85 -22.8 -39.5 -20.95 -41.9 -20.2 L-43.25 -21.5 -44.75 -20.75 M-43.25 -21.5 L-43.05 -23.3 -43.25 -21.5" fill="#ffffff" fill-rule="evenodd" stroke="none"/>
    <path d="M-44.75 -20.0 L-43.15 -19.85 -43.0 -19.8 -42.1 -19.55 -41.0 -19.0 -40.1 -18.25 Q-39.4 -17.45 -39.4 -16.5 -39.4 -15.05 -41.0 -14.05 -42.55 -13.0 -44.8 -13.0 -47.05 -13.0 -48.65 -14.05 -50.2 -15.05 -50.2 -16.5 -50.2 -17.45 -49.5 -18.25 L-48.65 -19.0 Q-47.45 -19.75 -45.8 -19.95 L-44.8 -20.0 -44.75 -20.0 M-43.0 -14.25 Q-42.9 -16.35 -43.1 -18.25 L-43.25 -19.25 -43.1 -18.25 Q-42.9 -16.35 -43.0 -14.25 M-46.0 -14.1 Q-45.75 -15.9 -45.75 -18.25 L-45.8 -19.95 -45.75 -18.25 Q-45.75 -15.9 -46.0 -14.1" fill="#ffff66" fill-rule="evenodd" stroke="none"/>
    <path d="M-44.75 -20.75 Q-48.9 -22.4 -47.95 -25.55 L-47.6 -26.5 -47.1 -27.25 Q-46.35 -28.1 -45.2 -27.25 L-45.05 -27.1 -44.4 -26.5 Q-43.1 -25.1 -43.05 -23.3 -42.25 -26.7 -38.45 -25.4 -36.15 -24.65 -37.85 -22.8 -39.5 -20.95 -41.9 -20.2 M-43.05 -23.3 L-43.25 -21.5 M-45.8 -19.95 L-45.75 -18.25 Q-45.75 -15.9 -46.0 -14.1 M-43.25 -19.25 L-43.1 -18.25 Q-42.9 -16.35 -43.0 -14.25" fill="none" stroke="#512314" stroke-linecap="round" stroke-linejoin="round" stroke-width="2.0"/>
    <path d="M-44.75 -20.0 L-43.15 -19.85 -43.0 -19.8 -42.1 -19.55 -41.0 -19.0 -40.1 -18.25 Q-39.4 -17.45 -39.4 -16.5 -39.4 -15.05 -41.0 -14.05 -42.55 -13.0 -44.8 -13.0 -47.05 -13.0 -48.65 -14.05 -50.2 -15.05 -50.2 -16.5 -50.2 -17.45 -49.5 -18.25 L-48.65 -19.0 Q-47.45 -19.75 -45.8 -19.95 L-44.8 -20.0 -44.75 -20.0" fill="none" stroke="#512314" stroke-linecap="round" stroke-linejoin="round" stroke-width="2.75"/>
  </g>
</svg>
