<?xml version="1.0" encoding="UTF-8" standalone="no"?>
<svg xmlns:xlink="http://www.w3.org/1999/xlink" height="69.45px" width="68.3px" xmlns="http://www.w3.org/2000/svg">
  <g transform="matrix(1.0, 0.0, 0.0, 1.0, 34.15, 34.7)">
    <path d="M27.2 -26.45 L25.2 -17.7 Q23.85 -12.05 17.65 -8.35 11.45 -4.7 2.1 -4.95 -7.3 -5.25 -14.8 -7.75 -22.3 -10.25 -22.75 -18.65 -23.25 -27.05 -21.65 -32.25 -17.3 -30.45 -14.9 -26.05 -12.65 -21.85 -9.55 -20.95 -0.3 -18.25 8.2 -18.55 9.85 -19.9 15.0 -22.9 19.05 -25.35 23.85 -26.2 L27.2 -26.45" fill="#e3c695" fill-rule="evenodd" stroke="none"/>
    <path d="M27.2 -26.45 Q34.2 -26.05 32.2 -16.05 30.5 -7.75 23.7 -3.7 19.15 -0.95 13.45 0.35 5.1 2.3 -3.75 1.75 L-5.25 1.65 Q-14.7 0.9 -21.85 -2.5 -29.6 -6.15 -31.65 -13.75 -34.25 -23.5 -30.25 -30.55 -28.25 -34.15 -23.6 -32.9 L-21.65 -32.25 Q-23.25 -27.05 -22.75 -18.65 -22.3 -10.25 -14.8 -7.75 -7.3 -5.25 2.1 -4.95 11.45 -4.7 17.65 -8.35 23.85 -12.05 25.2 -17.7 L27.2 -26.45" fill="#996633" fill-rule="evenodd" stroke="none"/>
    <path d="M27.2 -26.45 L25.2 -17.7 Q23.85 -12.05 17.65 -8.35 11.45 -4.7 2.1 -4.95 -7.3 -5.25 -14.8 -7.75 -22.3 -10.25 -22.75 -18.65 -23.25 -27.05 -21.65 -32.25" fill="none" stroke="#512314" stroke-linecap="round" stroke-linejoin="round" stroke-width="3.0"/>
    <path d="M-21.65 -32.25 L-23.6 -32.9 Q-28.25 -34.15 -30.25 -30.55 -34.25 -23.5 -31.65 -13.75 -29.6 -6.15 -21.85 -2.5 -14.7 0.9 -5.25 1.65 L-3.75 1.75 Q5.1 2.3 13.45 0.35 19.15 -0.95 23.7 -3.7 30.5 -7.75 32.2 -16.05 34.2 -26.05 27.2 -26.45 M-21.65 -32.25 Q-17.3 -30.45 -14.9 -26.05 -12.65 -21.85 -9.55 -20.95 -0.3 -18.25 8.2 -18.55 9.85 -19.9 15.0 -22.9 19.05 -25.35 23.85 -26.2 L27.2 -26.45 M-3.75 1.75 Q-3.35 11.3 -3.9 19.45 -4.1 22.55 -3.85 25.25 -0.7 25.8 1.75 27.25 3.1 28.05 3.55 30.0 4.25 33.35 -3.8 33.25 -16.2 33.1 -10.3 24.95 L-3.85 25.25" fill="none" stroke="#512314" stroke-linecap="round" stroke-linejoin="round" stroke-width="3.0"/>
  </g>
</svg>
