<?xml version="1.0" encoding="UTF-8" standalone="no"?>
<svg xmlns:xlink="http://www.w3.org/1999/xlink" height="79.1px" width="119.7px" xmlns="http://www.w3.org/2000/svg">
  <g transform="matrix(1.0, 0.0, 0.0, 1.0, 59.85, 39.55)">
    <path d="M-35.5 7.6 L-35.25 7.85 Q-30.35 13.05 -23.0 16.0 -15.5 18.95 -5.15 17.95 0.2 17.45 2.3 20.05 8.25 27.4 1.8 34.25 0.95 35.65 -0.7 36.3 -8.5 39.4 -17.75 37.0 -25.6 34.95 -32.45 30.15 -38.75 25.75 -43.9 19.4 L-45.55 17.25 Q-49.05 12.25 -51.45 5.5 -53.85 -1.2 -49.9 -4.95 -46.5 -8.15 -44.55 -4.75 -40.75 1.9 -35.5 7.6 -40.75 1.9 -44.55 -4.75 -46.5 -8.15 -49.9 -4.95 -53.85 -1.2 -51.45 5.5 -49.05 12.25 -45.55 17.25 -46.9 20.0 -50.8 19.35 -55.0 18.7 -56.7 14.35 -60.0 5.85 -56.65 -2.65 -53.7 -10.05 -48.65 -17.25 -44.25 -23.55 -38.25 -28.75 -31.95 -34.2 -22.45 -31.4 -13.9 -28.9 -14.75 -18.2 -15.55 -8.2 -21.55 -2.1 -28.65 5.1 -34.7 7.25 L-35.5 7.6 M38.8 -36.75 Q42.2 -36.3 45.45 -32.9 50.3 -27.75 54.25 -20.7 58.25 -13.65 58.35 -4.25 58.5 6.1 52.9 11.35 47.05 16.85 37.8 15.7 28.05 14.5 22.4 8.65 16.5 2.55 13.05 -5.35 9.5 -13.6 12.2 -23.5 14.45 -31.6 21.95 -35.45 30.55 -39.9 38.8 -36.75 M-33.8 10.7 Q-35.65 15.75 -40.2 16.75 -35.65 15.75 -33.8 10.7 M-22.95 16.8 Q-23.8 22.0 -27.7 25.25 -23.8 22.0 -22.95 16.8 M-11.25 19.75 Q-11.9 24.15 -13.7 28.25 -11.9 24.15 -11.25 19.75 M-39.8 3.15 Q-42.85 6.9 -46.2 7.75 -42.85 6.9 -39.8 3.15" fill="#ab9c94" fill-rule="evenodd" stroke="none"/>
    <path d="M38.8 -36.75 Q30.55 -39.9 21.95 -35.45 14.45 -31.6 12.2 -23.5 9.5 -13.6 13.05 -5.35 16.5 2.55 22.4 8.65 28.05 14.5 37.8 15.7 47.05 16.85 52.9 11.35 58.5 6.1 58.35 -4.25 58.25 -13.65 54.25 -20.7 50.3 -27.75 45.45 -32.9 42.2 -36.3 38.8 -36.75 M-45.55 17.25 L-43.9 19.4 Q-38.75 25.75 -32.45 30.15 -25.6 34.95 -17.75 37.0 -8.5 39.4 -0.7 36.3 0.95 35.65 1.8 34.25 8.25 27.4 2.3 20.05 0.2 17.45 -5.15 17.95 -15.5 18.95 -23.0 16.0 -30.35 13.05 -35.25 7.85 L-35.5 7.6 Q-40.75 1.9 -44.55 -4.75 -46.5 -8.15 -49.9 -4.95 -53.85 -1.2 -51.45 5.5 -49.05 12.25 -45.55 17.25 -46.9 20.0 -50.8 19.35 -55.0 18.7 -56.7 14.35 -60.0 5.85 -56.65 -2.65 -53.7 -10.05 -48.65 -17.25 -44.25 -23.55 -38.25 -28.75 -31.95 -34.2 -22.45 -31.4 -13.9 -28.9 -14.75 -18.2 -15.55 -8.2 -21.55 -2.1 -28.65 5.1 -34.7 7.25" fill="none" stroke="#512314" stroke-linecap="round" stroke-linejoin="round" stroke-width="3.0"/>
    <path d="M-46.2 7.75 Q-42.85 6.9 -39.8 3.15 M-13.7 28.25 Q-11.9 24.15 -11.25 19.75 M-27.7 25.25 Q-23.8 22.0 -22.95 16.8 M-40.2 16.75 Q-35.65 15.75 -33.8 10.7" fill="none" stroke="#512314" stroke-linecap="round" stroke-linejoin="round" stroke-width="3.0"/>
  </g>
</svg>
