<?xml version="1.0" encoding="UTF-8" standalone="no"?>
<svg xmlns:xlink="http://www.w3.org/1999/xlink" height="109.2px" width="144.6px" xmlns="http://www.w3.org/2000/svg">
  <g transform="matrix(1.0, 0.0, 0.0, 1.0, 72.3, 54.6)">
    <path d="M-26.45 -48.85 Q-26.3 -40.95 -27.35 -32.1 -28.45 -23.25 -25.5 -15.05 -23.65 -10.0 -25.9 -6.45 -27.3 -4.3 -31.3 -4.4 -40.95 -4.55 -50.3 -4.35 -60.4 -4.1 -70.8 -8.25 -68.5 -16.8 -64.85 -23.1 -60.4 -30.8 -55.05 -36.9 -49.9 -42.8 -38.25 -49.8 -26.6 -56.8 -26.45 -48.85 M46.9 10.85 Q43.45 19.1 38.7 23.75 47.5 25.4 52.95 30.4 57.9 34.9 67.05 41.8 76.2 48.7 63.0 51.2 49.75 53.7 40.3 52.95 30.85 52.15 23.65 50.0 16.45 47.9 9.0 41.95 1.55 36.0 1.2 30.75 0.0 24.45 4.25 14.7 8.5 4.95 14.3 -2.5 20.1 -9.95 35.6 -18.85 51.1 -27.8 63.15 -26.15 75.2 -24.5 62.8 -10.95 50.35 2.6 46.9 10.85" fill="#b5a89f" fill-rule="evenodd" stroke="none"/>
    <path d="M-26.45 -48.85 Q-26.3 -40.95 -27.35 -32.1 -28.45 -23.25 -25.5 -15.05 -23.65 -10.0 -25.9 -6.45 -27.3 -4.3 -31.3 -4.4 -40.95 -4.55 -50.3 -4.35 -60.4 -4.1 -70.8 -8.25 -68.5 -16.8 -64.85 -23.1 -60.4 -30.8 -55.05 -36.9 -49.9 -42.8 -38.25 -49.8 -26.6 -56.8 -26.45 -48.85 M46.9 10.85 Q43.45 19.1 38.7 23.75 47.5 25.4 52.95 30.4 57.9 34.9 67.05 41.8 76.2 48.7 63.0 51.2 49.75 53.7 40.3 52.95 30.85 52.15 23.65 50.0 16.45 47.9 9.0 41.95 1.55 36.0 1.2 30.75 0.0 24.45 4.25 14.7 8.5 4.95 14.3 -2.5 20.1 -9.95 35.6 -18.85 51.1 -27.8 63.15 -26.15 75.2 -24.5 62.8 -10.95 50.35 2.6 46.9 10.85" fill="none" stroke="#512314" stroke-linecap="round" stroke-linejoin="round" stroke-width="3.0"/>
  </g>
</svg>
