<?xml version="1.0" encoding="UTF-8" standalone="no"?>
<svg xmlns:xlink="http://www.w3.org/1999/xlink" height="34.65px" width="27.45px" xmlns="http://www.w3.org/2000/svg">
  <g transform="matrix(1.0, 0.0, 0.0, 1.0, 13.7, 17.3)">
    <path d="M2.05 -8.9 L2.45 -9.45 2.05 -8.9 M-2.35 13.8 L-4.3 15.8 Q-7.7 16.4 -10.2 9.8 -13.75 0.6 -11.0 -8.25 -8.0 -17.9 2.1 -15.2 10.15 -13.0 11.45 -5.95 11.4 -1.05 8.3 2.4 L-2.35 13.8 8.3 2.4 Q11.4 -1.05 11.45 -5.95 L12.0 -6.0 Q13.1 1.05 9.65 7.15 5.3 14.9 -2.35 13.8 M-5.75 -8.55 L-5.55 -9.45 -5.75 -8.55" fill="#ffcc00" fill-rule="evenodd" stroke="none"/>
    <path d="M2.45 -9.45 L2.05 -8.9 M11.45 -5.95 Q10.15 -13.0 2.1 -15.2 -8.0 -17.9 -11.0 -8.25 -13.75 0.6 -10.2 9.8 -7.7 16.4 -4.3 15.8 L-2.35 13.8 8.3 2.4 Q11.4 -1.05 11.45 -5.95 M12.0 -6.0 L11.45 -8.45 M-5.55 -9.45 L-5.75 -8.55 M-2.35 13.8 Q5.3 14.9 9.65 7.15 13.1 1.05 12.0 -6.0" fill="none" stroke="#512314" stroke-linecap="round" stroke-linejoin="round" stroke-width="3.0"/>
  </g>
</svg>
