<?xml version="1.0" encoding="UTF-8" standalone="no"?>
<svg xmlns:xlink="http://www.w3.org/1999/xlink" height="22.3px" width="41.75px" xmlns="http://www.w3.org/2000/svg">
  <g transform="matrix(1.0, 0.0, 0.0, 1.0, 20.9, 11.15)">
    <path d="M-12.7 1.55 Q-12.25 -2.55 -10.85 -5.4 -9.45 -8.3 -6.3 -8.4 -3.15 -8.5 -2.35 -6.9 L-2.15 -6.0 -2.15 -3.1 Q-1.45 0.8 -4.1 6.35 -6.8 11.9 -19.4 8.15 -13.15 5.65 -12.7 1.55 M-0.85 -7.95 Q2.0 -9.65 4.95 -9.65 8.7 -9.7 10.85 -5.65 13.0 -1.6 13.6 2.5 14.2 6.6 19.35 6.9 9.2 10.3 5.2 6.6 1.15 2.85 0.0 -2.35 L-0.85 -7.95" fill="#996633" fill-rule="evenodd" stroke="none"/>
    <path d="M-12.7 1.55 Q-13.15 5.65 -19.4 8.15 -6.8 11.9 -4.1 6.35 -1.45 0.8 -2.15 -3.1 L-2.15 -6.0 -2.35 -6.9 Q-3.15 -8.5 -6.3 -8.4 -9.45 -8.3 -10.85 -5.4 -12.25 -2.55 -12.7 1.55 M-0.85 -7.95 Q2.0 -9.65 4.95 -9.65 8.7 -9.7 10.85 -5.65 13.0 -1.6 13.6 2.5 14.2 6.6 19.35 6.9 9.2 10.3 5.2 6.6 1.15 2.85 0.0 -2.35 L-0.85 -7.95 -1.95 -7.2 -2.15 -6.0 M-2.35 -6.9 L-1.95 -7.2" fill="none" stroke="#512314" stroke-linecap="round" stroke-linejoin="round" stroke-width="3.0"/>
  </g>
</svg>
