<?xml version="1.0" encoding="UTF-8" standalone="no"?>
<svg xmlns:xlink="http://www.w3.org/1999/xlink" height="120.3px" width="128.9px" xmlns="http://www.w3.org/2000/svg">
  <g transform="matrix(1.0, 0.0, 0.0, 1.0, 64.45, 60.15)">
    <path d="M-2.75 58.6 L-11.85 58.25 Q-22.0 57.1 -31.1 53.75 -40.2 50.35 -46.05 45.3 -51.9 40.2 -56.4 35.15 -60.9 30.05 -62.3 21.15 -63.7 12.15 -62.1 2.8 -60.55 -6.25 -56.8 -14.4 L-48.9 -30.4 Q-44.85 -37.9 -38.8 -44.05 -33.0 -49.9 -26.5 -54.25 -24.2 -54.7 -21.1 -56.0 -13.1 -59.35 -3.45 -58.5 5.95 -57.65 14.6 -55.15 22.7 -52.8 29.55 -48.35 L42.05 -39.35 Q48.1 -34.6 52.9 -27.55 57.25 -21.15 60.6 -13.1 64.15 -4.55 62.35 5.2 60.7 14.35 57.95 21.15 54.7 29.3 48.15 35.1 41.55 40.9 34.9 45.5 28.25 50.05 22.45 52.4 16.65 54.7 7.45 57.05 2.5 58.3 -2.75 58.6 -10.85 51.7 -1.95 48.4 -10.85 51.7 -2.75 58.6 M0.05 48.15 L0.95 48.0 Q10.25 46.5 17.95 43.15 25.15 40.05 31.8 33.5 37.6 27.8 38.45 19.2 39.5 9.2 33.9 3.85 27.35 -2.5 19.8 -5.25 16.3 -6.55 12.35 -7.25 10.9 3.05 7.1 10.1 3.3 17.15 -5.6 19.25 -14.8 21.4 -16.3 11.2 -17.6 2.3 -16.05 -6.95 -21.7 -5.15 -25.85 -2.05 -32.25 2.75 -36.15 10.4 -39.95 17.9 -39.4 27.7 -38.85 37.05 -33.0 41.3 -26.1 46.3 -18.0 47.8 L-1.95 48.4 0.05 48.15 M-0.4 4.8 Q-0.15 0.7 -4.15 -5.15 -8.15 -11.0 -10.1 -5.4 -12.05 0.2 -8.45 8.65 -0.7 8.85 -0.4 4.8 M15.0 -21.75 L19.4 -21.95 Q28.7 -22.9 24.45 -30.45 20.7 -37.15 12.2 -40.7 4.45 -43.9 8.05 -34.95 11.45 -26.5 15.0 -21.75 M-28.5 -15.75 Q-26.05 -14.05 -22.5 -16.9 -19.95 -19.0 -17.75 -23.2 -15.6 -27.45 -28.85 -32.35 -42.1 -37.25 -37.8 -29.45 -33.5 -21.65 -28.5 -15.75" fill="#33cc33" fill-rule="evenodd" stroke="none"/>
    <path d="M-28.5 -15.75 Q-33.5 -21.65 -37.8 -29.45 -42.1 -37.25 -28.85 -32.35 -15.6 -27.45 -17.75 -23.2 -19.95 -19.0 -22.5 -16.9 -26.05 -14.05 -28.5 -15.75 M15.0 -21.75 Q11.45 -26.5 8.05 -34.95 4.45 -43.9 12.2 -40.7 20.7 -37.15 24.45 -30.45 28.7 -22.9 19.4 -21.95 L15.0 -21.75 M-0.4 4.8 Q-0.7 8.85 -8.45 8.65 -12.05 0.2 -10.1 -5.4 -8.15 -11.0 -4.15 -5.15 -0.15 0.7 -0.4 4.8" fill="#ffff66" fill-rule="evenodd" stroke="none"/>
    <path d="M-2.75 58.6 Q2.5 58.3 7.45 57.05 16.65 54.7 22.45 52.4 28.25 50.05 34.9 45.5 41.55 40.9 48.15 35.1 54.7 29.3 57.95 21.15 60.7 14.35 62.35 5.2 64.15 -4.55 60.6 -13.1 57.25 -21.15 52.9 -27.55 48.1 -34.6 42.05 -39.35 L29.55 -48.35 Q22.7 -52.8 14.6 -55.15 5.95 -57.65 -3.45 -58.5 -13.1 -59.35 -21.1 -56.0 -24.2 -54.7 -26.5 -54.25 -33.0 -49.9 -38.8 -44.05 -44.85 -37.9 -48.9 -30.4 L-56.8 -14.4 Q-60.55 -6.25 -62.1 2.8 -63.7 12.15 -62.3 21.15 -60.9 30.05 -56.4 35.15 -51.9 40.2 -46.05 45.3 -40.2 50.35 -31.1 53.75 -22.0 57.1 -11.85 58.25 L-2.75 58.6 M-1.95 48.4 L-18.0 47.8 Q-26.1 46.3 -33.0 41.3 -38.85 37.05 -39.4 27.7 -39.95 17.9 -36.15 10.4 -32.25 2.75 -25.85 -2.05 -21.7 -5.15 -16.05 -6.95 -17.6 2.3 -16.3 11.2 -14.8 21.4 -5.6 19.25 3.3 17.15 7.1 10.1 10.9 3.05 12.35 -7.25 16.3 -6.55 19.8 -5.25 27.35 -2.5 33.9 3.85 39.5 9.2 38.45 19.2 37.6 27.8 31.8 33.5 25.15 40.05 17.95 43.15 10.25 46.5 0.95 48.0 L0.05 48.15" fill="none" stroke="#512314" stroke-linecap="round" stroke-linejoin="round" stroke-width="3.0"/>
    <path d="M-2.75 58.6 Q-10.85 51.7 -1.95 48.4 M0.05 48.15 L-1.95 48.4 M-28.5 -15.75 Q-33.5 -21.65 -37.8 -29.45 -42.1 -37.25 -28.85 -32.35 -15.6 -27.45 -17.75 -23.2 -19.95 -19.0 -22.5 -16.9 -26.05 -14.05 -28.5 -15.75 M15.0 -21.75 Q11.45 -26.5 8.05 -34.95 4.45 -43.9 12.2 -40.7 20.7 -37.15 24.45 -30.45 28.7 -22.9 19.4 -21.95 L15.0 -21.75 M-0.4 4.8 Q-0.7 8.85 -8.45 8.65 -12.05 0.2 -10.1 -5.4 -8.15 -11.0 -4.15 -5.15 -0.15 0.7 -0.4 4.8" fill="none" stroke="#512314" stroke-linecap="round" stroke-linejoin="round" stroke-width="3.0"/>
  </g>
</svg>
