<?xml version="1.0" encoding="UTF-8" standalone="no"?>
<svg xmlns:xlink="http://www.w3.org/1999/xlink" height="30.55px" width="33.0px" xmlns="http://www.w3.org/2000/svg">
  <g transform="matrix(1.0, 0.0, 0.0, 1.0, 16.5, 15.25)">
    <path d="M7.6 -3.5 L7.6 -3.45 6.2 -1.7 Q2.7 1.65 -4.2 1.8 -6.75 1.8 -8.55 0.8 L-10.0 -0.1 -8.55 0.8 Q-6.75 1.8 -4.2 1.8 2.7 1.65 6.2 -1.7 L7.6 -3.45 7.6 -3.5 Q12.2 -3.35 12.35 0.5 L11.9 3.15 12.05 3.15 Q15.15 3.65 15.0 7.1 14.8 12.65 7.5 13.4 1.25 14.0 -5.6 13.65 -9.6 13.45 -11.9 11.8 -17.9 7.6 -12.25 5.75 -16.5 1.8 -10.4 0.25 L-10.0 -0.1 Q-13.35 -2.8 -6.55 -4.25 -4.6 -4.7 -3.05 -5.8 2.45 -9.9 -2.8 -13.3 3.5 -14.95 6.5 -10.8 9.4 -6.75 7.6 -3.5 M12.05 3.15 Q10.85 6.8 5.65 7.75 -0.1 8.75 -6.95 8.0 -10.25 7.6 -12.2 5.8 L-12.25 5.75 -12.2 5.8 Q-10.25 7.6 -6.95 8.0 -0.1 8.75 5.65 7.75 10.85 6.8 12.05 3.15" fill="#996633" fill-rule="evenodd" stroke="none"/>
    <path d="M-10.0 -0.1 L-8.55 0.8 Q-6.75 1.8 -4.2 1.8 2.7 1.65 6.2 -1.7 L7.6 -3.45 7.6 -3.5 Q9.4 -6.75 6.5 -10.8 3.5 -14.95 -2.8 -13.3 2.45 -9.9 -3.05 -5.8 -4.6 -4.7 -6.55 -4.25 -13.35 -2.8 -10.0 -0.1 M-10.4 0.25 Q-16.5 1.8 -12.25 5.75 L-12.2 5.8 Q-10.25 7.6 -6.95 8.0 -0.1 8.75 5.65 7.75 10.85 6.8 12.05 3.15 L11.9 3.15 M12.35 0.5 Q12.2 -3.35 7.6 -3.5 M-12.25 5.75 Q-17.9 7.6 -11.9 11.8 -9.6 13.45 -5.6 13.65 1.25 14.0 7.5 13.4 14.8 12.65 15.0 7.1 15.15 3.65 12.05 3.15 12.4 1.95 12.35 0.5" fill="none" stroke="#512314" stroke-linecap="round" stroke-linejoin="round" stroke-width="3.0"/>
  </g>
</svg>
