<?xml version="1.0" encoding="UTF-8" standalone="no"?>
<svg xmlns:xlink="http://www.w3.org/1999/xlink" height="67.75px" width="119.85px" xmlns="http://www.w3.org/2000/svg">
  <g transform="matrix(1.0, 0.0, 0.0, 1.0, 59.9, 33.85)">
    <path d="M22.85 30.75 L22.75 30.7 Q19.2 29.75 16.25 27.9 15.95 25.45 16.05 21.25 16.1 16.0 16.85 10.7 17.55 5.4 18.65 0.7 19.8 -3.9 21.55 -8.35 23.35 -12.85 26.35 -16.65 29.4 -20.4 32.8 -23.4 36.45 -26.6 40.25 -28.8 44.2 -31.15 49.15 -31.6 54.65 -32.05 56.95 -27.45 58.95 -23.35 58.3 -18.4 57.7 -13.8 55.65 -9.55 L47.55 7.1 Q45.55 11.15 41.35 16.8 L30.9 30.25 Q30.1 31.05 29.4 32.4 L26.85 31.6 Q27.6 29.4 28.5 27.35 30.0 23.7 32.45 19.9 L36.85 12.7 Q39.1 8.7 40.75 4.5 42.45 0.0 43.5 -4.55 L45.5 -13.65 Q46.7 -19.1 43.25 -17.75 39.35 -16.2 36.4 -12.8 33.55 -9.55 30.9 -5.45 28.35 -1.6 26.9 2.6 25.45 6.95 24.7 11.7 23.95 16.4 23.7 21.2 L22.9 30.45 22.85 30.75 M-26.8 30.9 L-29.35 31.7 Q-30.05 30.35 -30.8 29.55 L-41.3 16.1 Q-45.5 10.45 -47.45 6.4 L-55.6 -10.25 Q-57.65 -14.5 -58.25 -19.1 -58.9 -24.05 -56.9 -28.15 -54.6 -32.75 -49.1 -32.3 -44.15 -31.85 -40.2 -29.5 -36.4 -27.3 -32.75 -24.1 -29.35 -21.1 -26.3 -17.35 -23.3 -13.55 -21.5 -9.05 -19.75 -4.6 -18.6 0.0 -17.5 4.7 -16.75 10.0 -16.05 15.3 -15.95 20.55 -15.9 24.75 -16.15 27.2 -19.15 29.05 -22.7 30.0 L-22.75 30.05 -22.8 30.05 -22.85 29.75 -23.65 20.5 Q-23.9 15.7 -24.65 11.0 -25.4 6.25 -26.85 1.9 -28.3 -2.3 -30.85 -6.15 -33.5 -10.25 -36.35 -13.5 -39.3 -16.9 -43.2 -18.45 -46.65 -19.8 -45.45 -14.35 L-43.45 -5.25 Q-42.4 -0.7 -40.7 3.8 -39.05 8.0 -36.8 12.0 L-32.4 19.2 Q-29.95 23.0 -28.45 26.65 -27.55 28.7 -26.8 30.9" fill="#ffffff" fill-rule="evenodd" stroke="none"/>
    <path d="M22.85 30.75 L22.9 30.45 23.7 21.2 Q23.95 16.4 24.7 11.7 25.45 6.95 26.9 2.6 28.35 -1.6 30.9 -5.45 33.55 -9.55 36.4 -12.8 39.35 -16.2 43.25 -17.75 46.7 -19.1 45.5 -13.65 L43.5 -4.55 Q42.45 0.0 40.75 4.5 39.1 8.7 36.85 12.7 L32.45 19.9 Q30.0 23.7 28.5 27.35 27.6 29.4 26.85 31.6 L22.85 30.75 M-26.8 30.9 Q-27.55 28.7 -28.45 26.65 -29.95 23.0 -32.4 19.2 L-36.8 12.0 Q-39.05 8.0 -40.7 3.8 -42.4 -0.7 -43.45 -5.25 L-45.45 -14.35 Q-46.65 -19.8 -43.2 -18.45 -39.3 -16.9 -36.35 -13.5 -33.5 -10.25 -30.85 -6.15 -28.3 -2.3 -26.85 1.9 -25.4 6.25 -24.65 11.0 -23.9 15.7 -23.65 20.5 L-22.85 29.75 -22.8 30.05 -26.8 30.9" fill="#fecbcb" fill-rule="evenodd" stroke="none"/>
    <path d="M26.85 31.6 L29.4 32.4 Q30.1 31.05 30.9 30.25 L41.35 16.8 Q45.55 11.15 47.55 7.1 L55.65 -9.55 Q57.7 -13.8 58.3 -18.4 58.95 -23.35 56.95 -27.45 54.65 -32.05 49.15 -31.6 44.2 -31.15 40.25 -28.8 36.45 -26.6 32.8 -23.4 29.4 -20.4 26.35 -16.65 23.35 -12.85 21.55 -8.35 19.8 -3.9 18.65 0.7 17.55 5.4 16.85 10.7 16.1 16.0 16.05 21.25 15.95 25.45 16.25 27.9 19.2 29.75 22.75 30.7 L22.85 30.75 M26.85 31.6 L22.85 30.75 M-22.8 30.05 L-22.75 30.05 -22.7 30.0 Q-19.15 29.05 -16.15 27.2 -15.9 24.75 -15.95 20.55 -16.05 15.3 -16.75 10.0 -17.5 4.7 -18.6 0.0 -19.75 -4.6 -21.5 -9.05 -23.3 -13.55 -26.3 -17.35 -29.35 -21.1 -32.75 -24.1 -36.4 -27.3 -40.2 -29.5 -44.15 -31.85 -49.1 -32.3 -54.6 -32.75 -56.9 -28.15 -58.9 -24.05 -58.25 -19.1 -57.65 -14.5 -55.6 -10.25 L-47.45 6.4 Q-45.5 10.45 -41.3 16.1 L-30.8 29.55 Q-30.05 30.35 -29.35 31.7 L-26.8 30.9 M-22.8 30.05 L-26.8 30.9" fill="none" stroke="#512314" stroke-linecap="round" stroke-linejoin="round" stroke-width="3.0"/>
    <path d="M22.9 30.45 L23.7 21.2 Q23.95 16.4 24.7 11.7 25.45 6.95 26.9 2.6 28.35 -1.6 30.9 -5.45 33.55 -9.55 36.4 -12.8 39.35 -16.2 43.25 -17.75 46.7 -19.1 45.5 -13.65 L43.5 -4.55 Q42.45 0.0 40.75 4.5 39.1 8.7 36.85 12.7 L32.45 19.9 Q30.0 23.7 28.5 27.35 27.6 29.4 26.85 31.6 M-26.8 30.9 Q-27.55 28.7 -28.45 26.65 -29.95 23.0 -32.4 19.2 L-36.8 12.0 Q-39.05 8.0 -40.7 3.8 -42.4 -0.7 -43.45 -5.25 L-45.45 -14.35 Q-46.65 -19.8 -43.2 -18.45 -39.3 -16.9 -36.35 -13.5 -33.5 -10.25 -30.85 -6.15 -28.3 -2.3 -26.85 1.9 -25.4 6.25 -24.65 11.0 -23.9 15.7 -23.65 20.5 L-22.85 29.75" fill="none" stroke="#512314" stroke-linecap="round" stroke-linejoin="round" stroke-width="3.0"/>
  </g>
</svg>
