<?xml version="1.0" encoding="UTF-8" standalone="no"?>
<svg xmlns:xlink="http://www.w3.org/1999/xlink" height="59.55px" width="129.45px" xmlns="http://www.w3.org/2000/svg">
  <g transform="matrix(1.0, 0.0, 0.0, 1.0, 64.7, 29.8)">
    <path d="M1.8 -12.75 Q2.75 -14.4 4.2 -15.6 L5.95 -17.55 6.25 -17.55 6.25 -17.6 6.5 -17.55 6.7 -17.6 7.2 -17.2 Q7.75 -16.7 7.75 -15.75 L7.85 -14.1 7.9 -10.8 8.35 -10.25 9.05 -8.6 9.65 -6.75 Q10.2 -2.8 7.0 -0.7 L6.85 -0.6 Q6.1 -0.1 5.35 -0.05 5.3 1.55 3.8 1.5 3.35 1.5 3.1 1.15 L2.65 0.4 2.55 0.4 2.1 1.2 1.45 1.75 Q-0.3 2.5 -0.65 0.55 L-0.8 0.8 Q-1.7 2.6 -3.0 1.5 -3.75 0.85 -3.5 0.0 L-4.25 -0.25 Q-5.65 -0.75 -6.75 -1.9 -7.7 -2.9 -7.95 -4.15 -8.3 -5.85 -7.7 -7.2 L-7.2 -9.05 -6.6 -10.0 -6.45 -10.45 -6.1 -10.75 -6.05 -11.55 -5.05 -15.85 -4.75 -16.4 -4.65 -16.7 -4.4 -17.1 -4.3 -17.1 -4.25 -17.25 -4.15 -17.35 -3.9 -17.05 Q-2.55 -16.4 -1.7 -14.9 L-0.35 -12.8 1.75 -12.6 1.8 -12.75 M4.15 -8.25 Q3.45 -8.15 3.15 -7.45 2.8 -6.8 3.0 -5.95 3.6 -3.75 5.75 -3.95 L6.1 -4.05 Q6.95 -4.65 7.15 -5.7 7.55 -8.25 5.2 -8.5 L4.15 -8.25 M11.05 5.8 L9.35 5.7 Q7.25 7.9 4.5 9.25 L2.7 10.2 3.8 11.0 Q4.5 11.55 5.35 11.85 7.3 12.55 8.75 14.0 L8.75 13.95 8.95 13.7 Q9.25 13.35 9.7 13.35 11.15 12.9 11.45 14.15 11.65 14.8 11.05 15.05 L10.25 15.5 9.95 15.7 Q10.6 17.35 8.8 17.3 7.95 17.25 7.75 16.4 L7.7 15.55 7.55 15.25 Q7.25 15.2 7.1 15.0 L6.85 14.8 5.5 14.1 5.4 14.0 Q2.95 13.05 0.85 11.6 L0.75 11.6 -2.7 13.9 Q-4.3 15.1 -6.1 15.9 L-6.4 16.75 Q-6.75 17.5 -7.15 17.55 L-8.05 16.9 -8.25 16.2 -8.2 16.0 Q-9.6 14.55 -8.25 13.55 L-8.05 13.5 Q-7.4 13.65 -7.0 14.3 L-6.6 14.0 -0.85 10.25 -1.9 9.6 Q-5.3 7.85 -8.4 5.55 -9.4 5.65 -10.15 5.1 -10.95 4.4 -10.2 3.7 L-9.45 3.3 -9.3 3.15 Q-9.15 1.95 -8.2 1.65 -6.95 2.2 -7.25 3.75 L-6.3 4.5 -3.65 6.4 Q-1.3 7.6 0.9 9.0 2.45 7.9 4.15 7.1 L5.35 6.55 7.6 4.7 8.2 4.1 8.15 3.95 Q7.85 2.35 9.1 1.95 10.25 2.1 10.3 3.35 L10.3 3.45 Q11.45 3.6 11.65 4.85 11.75 5.6 11.05 5.8 M-3.4 -3.15 Q-2.4 -3.15 -1.7 -3.95 -1.2 -4.5 -1.3 -5.25 -1.65 -7.6 -3.7 -8.2 -6.0 -7.9 -5.7 -5.35 -5.45 -3.15 -3.4 -3.15" fill="#ffffff" fill-rule="evenodd" stroke="none"/>
    <path d="M1.8 -12.75 L1.75 -12.6 -0.35 -12.8 -1.7 -14.9 Q-2.55 -16.4 -3.9 -17.05 L-4.15 -17.35 -4.25 -17.25 -4.3 -17.1 -4.4 -17.1 -4.65 -16.7 -4.75 -16.4 -5.05 -15.85 -6.05 -11.55 -6.1 -10.75 -6.45 -10.45 -6.6 -10.0 -7.2 -9.05 -7.7 -7.2 Q-8.3 -5.85 -7.95 -4.15 -7.7 -2.9 -6.75 -1.9 -5.65 -0.75 -4.25 -0.25 L-3.5 0.0 Q-3.75 0.85 -3.0 1.5 -1.7 2.6 -0.8 0.8 L-0.65 0.55 Q-0.3 2.5 1.45 1.75 L2.1 1.2 2.55 0.4 2.65 0.4 3.1 1.15 Q3.35 1.5 3.8 1.5 5.3 1.55 5.35 -0.05 6.1 -0.1 6.85 -0.6 L7.0 -0.7 Q10.2 -2.8 9.65 -6.75 L9.05 -8.6 8.35 -10.25 7.9 -10.8 7.85 -14.1 7.75 -15.75 Q7.75 -16.7 7.2 -17.2 L6.7 -17.6 6.5 -17.55 6.25 -17.6 6.25 -17.55 5.95 -17.55 4.2 -15.6 Q2.75 -14.4 1.8 -12.75 M4.15 -8.25 L5.2 -8.5 Q7.55 -8.25 7.15 -5.7 6.95 -4.65 6.1 -4.05 L5.75 -3.95 Q3.6 -3.75 3.0 -5.95 2.8 -6.8 3.15 -7.45 3.45 -8.15 4.15 -8.25 M27.5 -13.65 Q29.5 -11.1 30.85 -8.3 34.35 -1.1 44.65 0.5 34.35 -1.1 30.85 -8.3 29.5 -11.1 27.5 -13.65 L31.8 -11.5 Q40.1 -6.9 44.65 0.5 L51.35 0.95 Q67.3 0.85 61.85 10.6 L54.15 23.95 Q52.0 27.4 51.7 28.15 L51.65 28.25 47.85 27.35 Q28.2 23.05 8.65 22.4 0.8 22.1 -7.0 22.4 -27.15 23.1 -47.3 27.65 L-49.65 28.2 Q-53.5 21.95 -60.6 11.75 -67.75 1.55 -55.3 0.0 L-44.6 -1.75 Q-39.8 -2.7 -36.5 -3.85 -30.2 -6.1 -26.1 -13.0 L-24.4 -15.35 -26.1 -13.0 Q-30.2 -6.1 -36.5 -3.85 -39.8 -2.7 -44.6 -1.75 -40.6 -7.25 -33.75 -11.1 -29.35 -13.65 -24.4 -15.35 -19.85 -20.9 -9.45 -25.65 L-7.75 -26.4 Q3.9 -30.95 14.7 -24.55 22.8 -19.7 27.5 -13.65 M11.05 5.8 Q11.75 5.6 11.65 4.85 11.45 3.6 10.3 3.45 L10.3 3.35 Q10.25 2.1 9.1 1.95 7.85 2.35 8.15 3.95 L8.2 4.1 7.6 4.7 5.35 6.55 4.15 7.1 Q2.45 7.9 0.9 9.0 -1.3 7.6 -3.65 6.4 L-6.3 4.5 -7.25 3.75 Q-6.95 2.2 -8.2 1.65 -9.15 1.95 -9.3 3.15 L-9.45 3.3 -10.2 3.7 Q-10.95 4.4 -10.15 5.1 -9.4 5.65 -8.4 5.55 -5.3 7.85 -1.9 9.6 L-0.85 10.25 -6.6 14.0 -7.0 14.3 Q-7.4 13.65 -8.05 13.5 L-8.25 13.55 Q-9.6 14.55 -8.2 16.0 L-8.25 16.2 -8.05 16.9 -7.15 17.55 Q-6.75 17.5 -6.4 16.75 L-6.1 15.9 Q-4.3 15.1 -2.7 13.9 L0.75 11.6 0.85 11.6 Q2.95 13.05 5.4 14.0 L5.5 14.1 6.85 14.8 7.1 15.0 Q7.25 15.2 7.55 15.25 L7.7 15.55 7.75 16.4 Q7.95 17.25 8.8 17.3 10.6 17.35 9.95 15.7 L10.25 15.5 11.05 15.05 Q11.65 14.8 11.45 14.15 11.15 12.9 9.7 13.35 9.25 13.35 8.95 13.7 L8.75 13.95 8.75 14.0 Q7.3 12.55 5.35 11.85 4.5 11.55 3.8 11.0 L2.7 10.2 4.5 9.25 Q7.25 7.9 9.35 5.7 L11.05 5.8 M-3.4 -3.15 Q-5.45 -3.15 -5.7 -5.35 -6.0 -7.9 -3.7 -8.2 -1.65 -7.6 -1.3 -5.25 -1.2 -4.5 -1.7 -3.95 -2.4 -3.15 -3.4 -3.15" fill="#676767" fill-rule="evenodd" stroke="none"/>
    <path d="M44.65 0.5 Q34.35 -1.1 30.85 -8.3 29.5 -11.1 27.5 -13.65 22.8 -19.7 14.7 -24.55 3.9 -30.95 -7.75 -26.4 L-9.45 -25.65 Q-19.85 -20.9 -24.4 -15.35 L-26.1 -13.0 Q-30.2 -6.1 -36.5 -3.85 -39.8 -2.7 -44.6 -1.75 L-55.3 0.0 Q-67.75 1.55 -60.6 11.75 -53.5 21.95 -49.65 28.2 L-47.3 27.65 Q-27.15 23.1 -7.0 22.4 0.8 22.1 8.65 22.4 28.2 23.05 47.85 27.35 L51.65 28.25 51.7 28.15 Q52.0 27.4 54.15 23.95 L61.85 10.6 Q67.3 0.85 51.35 0.95 L44.65 0.5 Q40.1 -6.9 31.8 -11.5 L27.5 -13.65 M-44.6 -1.75 Q-40.6 -7.25 -33.75 -11.1 -29.35 -13.65 -24.4 -15.35" fill="none" stroke="#512314" stroke-linecap="round" stroke-linejoin="round" stroke-width="3.0"/>
  </g>
</svg>
