<?xml version="1.0" encoding="UTF-8" standalone="no"?>
<svg xmlns:xlink="http://www.w3.org/1999/xlink" height="87.6px" width="125.7px" xmlns="http://www.w3.org/2000/svg">
  <g transform="matrix(1.0, 0.0, 0.0, 1.0, 62.85, 43.8)">
    <path d="M-0.75 -38.55 L-0.65 -28.0 -12.3 -27.9 -0.65 -28.0 -0.75 -38.55 M36.95 32.25 L37.8 32.75 35.15 42.25 Q30.9 40.35 26.55 38.95 14.75 35.1 2.0 35.05 -14.3 34.9 -27.65 39.9 -30.65 40.95 -33.45 42.3 L-37.0 33.5 -36.95 33.45 -34.85 32.2 -39.7 28.95 Q-39.75 30.25 -40.75 31.2 -41.8 32.2 -43.3 32.25 -44.85 32.2 -45.9 31.25 -46.95 30.2 -46.95 28.8 -47.0 27.3 -45.95 26.3 L-44.85 25.55 -46.1 24.7 -49.45 22.05 Q-49.7 22.95 -50.4 23.7 -51.45 24.7 -52.95 24.75 -54.5 24.75 -55.55 23.75 -56.65 22.75 -56.65 21.3 -56.65 19.8 -55.6 18.8 -54.55 17.75 -53.05 17.75 L-52.85 17.75 -53.7 16.05 -54.8 13.05 -55.1 13.4 Q-56.2 14.4 -57.7 14.45 -59.2 14.4 -60.25 13.45 -61.35 12.4 -61.35 11.0 -61.35 9.5 -60.3 8.5 -59.25 7.45 -57.75 7.45 -56.45 7.4 -55.4 8.2 L-55.25 4.45 -54.9 2.4 -56.15 2.6 Q-57.7 2.55 -58.75 1.55 -59.8 0.5 -59.8 -0.9 -59.85 -2.4 -58.8 -3.4 -57.75 -4.45 -56.2 -4.4 -54.7 -4.5 -53.6 -3.45 L-53.05 -2.75 -51.3 -4.9 -49.4 -6.4 -50.2 -7.05 Q-51.3 -8.05 -51.3 -9.5 -51.3 -10.95 -50.25 -12.0 -49.25 -13.0 -47.65 -13.0 -46.15 -13.05 -45.1 -12.05 -44.05 -11.0 -44.0 -9.55 L-44.15 -8.45 -39.75 -8.85 -39.0 -9.95 Q-38.0 -11.0 -36.4 -11.0 -34.9 -11.0 -33.85 -10.0 L-33.3 -9.35 Q-32.15 -11.15 -30.25 -12.5 L-29.05 -13.25 Q-30.05 -13.45 -30.75 -14.2 -31.85 -15.2 -31.85 -16.65 -31.9 -18.1 -30.8 -19.15 -29.8 -20.15 -28.25 -20.15 -26.75 -20.2 -25.65 -19.2 -24.65 -18.2 -24.6 -16.7 -24.6 -15.5 -25.35 -14.5 L-19.3 -14.7 -18.95 -14.65 Q-20.0 -15.65 -19.95 -17.05 -20.0 -18.55 -18.95 -19.55 -18.05 -20.45 -16.75 -20.55 L-16.9 -36.75 -6.0 -31.3 -9.15 -42.15 8.7 -42.3 5.05 -31.65 16.4 -37.15 16.55 -21.05 15.9 -21.05 15.8 -21.05 Q14.3 -21.05 13.25 -20.05 12.65 -19.5 12.45 -18.8 12.65 -19.5 13.25 -20.05 14.3 -21.05 15.8 -21.05 L15.9 -21.05 16.55 -21.0 Q17.6 -20.85 18.4 -20.1 19.45 -19.05 19.5 -17.6 19.5 -16.2 18.5 -15.15 L18.85 -15.2 Q22.25 -15.65 24.9 -15.15 24.1 -16.05 24.1 -17.35 24.1 -18.8 25.15 -19.85 26.2 -20.85 27.7 -20.85 29.2 -20.9 30.3 -19.9 31.35 -18.85 31.35 -17.4 31.35 -15.95 30.35 -14.95 29.6 -14.2 28.65 -13.95 L29.8 -13.25 Q31.7 -11.95 32.9 -10.1 L33.5 -10.75 Q34.5 -11.8 36.05 -11.8 37.55 -11.85 38.6 -10.8 L39.4 -9.75 43.8 -9.4 43.65 -10.5 Q43.6 -12.0 44.7 -13.0 45.75 -14.05 47.25 -14.05 48.75 -14.05 49.85 -13.05 50.9 -12.05 50.9 -10.6 50.9 -9.15 49.9 -8.1 L49.05 -7.5 51.05 -6.0 52.8 -3.9 53.35 -4.6 Q54.4 -5.6 55.9 -5.6 57.4 -5.6 58.5 -4.6 59.55 -3.6 59.6 -2.15 59.6 -0.7 58.55 0.35 57.45 1.35 55.95 1.4 L54.75 1.2 55.15 3.3 55.35 7.05 Q56.35 6.25 57.7 6.25 59.2 6.15 60.25 7.2 61.3 8.2 61.35 9.7 61.3 11.15 60.3 12.2 59.25 13.2 57.75 13.25 56.2 13.25 55.15 12.2 L54.85 11.9 53.8 14.9 52.95 16.6 53.15 16.6 Q54.65 16.6 55.75 17.6 56.75 18.6 56.85 20.1 56.8 21.55 55.8 22.55 54.75 23.6 53.25 23.6 51.65 23.6 50.65 22.6 49.85 21.9 49.65 20.95 L45.1 24.55 46.2 25.3 Q47.3 26.3 47.3 27.75 47.3 29.2 46.25 30.25 45.2 31.25 43.7 31.3 42.15 31.3 41.1 30.3 40.1 29.35 40.05 28.05 L35.3 31.35 34.45 30.95 35.25 31.35 36.95 32.25 M29.05 28.55 L33.95 30.7 34.0 30.7 34.45 30.95 34.0 30.7 33.95 30.7 29.05 28.55 27.5 27.8 40.45 18.3 42.8 16.5 Q46.15 13.75 46.95 8.9 47.9 2.9 43.6 0.0 40.15 -2.3 35.15 -2.1 L34.9 2.3 35.85 2.2 Q37.35 2.15 38.4 3.15 39.15 3.9 39.4 4.8 L39.5 5.65 39.5 5.7 39.3 6.9 38.45 8.1 Q37.4 9.15 35.9 9.15 34.4 9.15 33.3 8.15 L33.25 8.1 30.45 13.8 30.65 13.8 Q32.15 13.75 33.25 14.75 34.3 15.75 34.35 17.25 34.3 18.7 33.3 19.7 32.25 20.75 30.75 20.75 29.2 20.75 28.15 19.75 27.5 19.15 27.25 18.4 25.1 21.0 22.6 22.95 L19.2 25.35 19.05 25.35 18.35 25.45 21.2 26.1 Q25.25 27.1 29.05 28.55 M9.5 24.2 L10.15 24.2 18.35 25.45 10.15 24.2 9.5 24.2 9.6 23.55 17.1 16.75 Q20.15 13.75 22.6 9.25 24.9 4.8 26.05 -0.05 26.4 -1.65 26.35 -2.9 26.2 -6.8 22.05 -7.25 16.3 -8.0 12.1 -5.25 L11.7 -4.95 10.3 -4.1 10.35 1.55 Q10.2 7.25 9.25 12.9 L9.0 14.45 6.75 23.2 6.6 23.7 5.25 23.9 7.9 24.05 9.5 24.2 M-6.35 24.0 L-5.0 23.95 Q-1.7 23.75 1.85 23.8 L5.25 23.9 1.85 23.8 Q-1.7 23.75 -5.0 23.95 L-6.35 24.0 -6.55 23.55 Q-10.1 12.75 -10.5 1.7 L-10.55 -3.75 -10.45 -5.0 -10.0 -11.0 -10.45 -5.0 -10.55 -3.75 -12.3 -4.8 -10.45 -5.0 -12.3 -4.8 Q-16.65 -7.55 -22.4 -6.65 -26.85 -6.05 -26.55 -1.55 L-26.25 0.65 Q-25.05 5.45 -22.65 9.85 -20.15 14.3 -16.95 17.25 L-9.9 23.45 -9.3 24.3 -6.35 24.0 M-18.9 25.9 L-18.75 25.85 -9.3 24.3 -18.75 25.85 -18.9 25.9 -22.35 23.55 Q-24.95 21.65 -27.1 19.05 -27.35 19.85 -27.95 20.45 -29.05 21.45 -30.55 21.5 -32.05 21.45 -33.1 20.5 -34.2 19.45 -34.2 18.05 -34.25 16.55 -33.15 15.55 -32.1 14.5 -30.6 14.55 L-30.35 14.5 Q-31.95 11.95 -33.25 8.85 L-33.35 8.95 Q-34.4 9.95 -35.9 10.0 -37.45 9.95 -38.5 9.0 L-38.9 8.55 Q-39.6 7.7 -39.55 6.65 L-39.55 6.55 Q-39.6 5.05 -38.55 4.05 -37.55 3.0 -35.95 3.0 L-35.3 3.05 -35.05 3.1 -35.05 2.85 Q-35.4 0.85 -35.35 -1.3 -40.45 -1.4 -43.75 0.95 -48.1 3.95 -47.0 9.9 -46.1 14.95 -42.35 17.7 L-38.75 20.3 -35.15 22.95 -35.1 22.95 -27.15 28.45 Q-24.2 27.25 -21.0 26.4 L-18.9 25.9 M39.4 -9.75 L39.7 -8.35 Q39.7 -6.95 38.65 -5.85 37.6 -4.85 36.1 -4.8 35.45 -4.85 34.55 -6.2 L35.05 -3.75 35.15 -2.1 35.05 -3.75 34.55 -6.2 Q35.45 -4.85 36.1 -4.8 37.6 -4.85 38.65 -5.85 39.7 -6.95 39.7 -8.35 L39.4 -9.75 M-0.65 -23.6 L-0.65 -28.0 11.4 -28.1 -0.65 -28.0 -0.65 -23.6 M-34.85 32.2 L-33.6 31.45 Q-31.3 30.2 -28.8 29.15 L-27.15 28.45 -28.8 29.15 Q-31.3 30.2 -33.6 31.45 L-34.85 32.2 M10.25 -11.4 Q11.85 -13.3 14.6 -14.25 13.85 -14.55 13.3 -15.1 12.2 -16.1 12.2 -17.55 12.2 -18.25 12.45 -18.8 L11.65 -18.9 6.25 -23.45 5.6 -16.95 2.45 -16.95 Q3.45 -17.95 3.45 -19.35 3.4 -20.9 2.35 -21.85 1.3 -22.9 -0.2 -22.85 -1.8 -22.85 -2.8 -21.8 -3.85 -20.8 -3.8 -19.3 -3.8 -17.9 -2.75 -16.9 L-6.3 -16.85 -2.75 -16.9 Q-3.8 -17.9 -3.8 -19.3 -3.85 -20.8 -2.8 -21.8 -1.8 -22.85 -0.2 -22.85 1.3 -22.9 2.35 -21.85 3.4 -20.9 3.45 -19.35 3.45 -17.95 2.45 -16.95 L5.6 -16.95 8.6 -17.0 10.2 -5.4 10.3 -4.1 10.3 -5.4 10.25 -11.4 M12.1 -5.25 L10.3 -5.4 12.1 -5.25 M-10.0 -11.0 L-9.05 -16.85 -6.3 -16.85 -6.3 -17.6 -6.55 -22.45 -12.4 -17.95 -12.8 -17.85 -12.7 -17.1 Q-12.75 -15.65 -13.75 -14.65 L-15.05 -13.8 Q-12.25 -12.85 -10.65 -11.05 L-10.0 -11.0 M2.45 -11.55 Q1.4 -12.6 -0.1 -12.5 L-1.55 -12.25 -2.7 -11.5 Q-3.75 -10.5 -3.7 -9.0 -3.7 -7.6 -2.65 -6.55 L-1.05 -5.65 -0.05 -5.5 1.0 -5.7 2.5 -6.6 3.25 -7.7 3.55 -9.05 Q3.5 -10.55 2.45 -11.55 3.5 -10.55 3.55 -9.05 L3.25 -7.7 2.5 -6.6 1.0 -5.7 -0.05 -5.5 -1.05 -5.65 -2.65 -6.55 Q-3.7 -7.6 -3.7 -9.0 -3.75 -10.5 -2.7 -11.5 L-1.55 -12.25 -0.1 -12.5 Q1.4 -12.6 2.45 -11.55 M3.0 9.75 Q1.9 8.75 0.4 8.75 -1.15 8.75 -2.15 9.8 -3.25 10.8 -3.2 12.3 -3.2 13.75 -2.1 14.75 -1.05 15.75 0.45 15.75 1.95 15.7 3.05 14.7 L3.8 13.55 4.05 12.2 Q4.05 10.75 3.0 9.75 4.05 10.75 4.05 12.2 L3.8 13.55 3.05 14.7 Q1.95 15.7 0.45 15.75 -1.05 15.75 -2.1 14.75 -3.2 13.75 -3.2 12.3 -3.25 10.8 -2.15 9.8 -1.15 8.75 0.4 8.75 1.9 8.75 3.0 9.75 M3.65 1.6 Q3.6 0.1 2.55 -0.9 1.5 -1.9 0.0 -1.85 -1.6 -1.85 -2.6 -0.85 -3.65 0.2 -3.65 1.65 -3.65 3.1 -2.55 4.1 -1.5 5.1 0.05 5.1 1.55 5.1 2.6 4.05 3.6 3.05 3.65 1.6 3.6 3.05 2.6 4.05 1.55 5.1 0.05 5.1 -1.5 5.1 -2.55 4.1 -3.65 3.1 -3.65 1.65 -3.65 0.2 -2.6 -0.85 -1.6 -1.85 0.0 -1.85 1.5 -1.9 2.55 -0.9 3.6 0.1 3.65 1.6 M-16.75 -20.55 L-16.35 -20.6 Q-14.85 -20.6 -13.8 -19.6 -13.0 -18.85 -12.8 -17.85 -13.0 -18.85 -13.8 -19.6 -14.85 -20.6 -16.35 -20.6 L-16.75 -20.55 M-39.75 -8.85 L-40.05 -7.45 Q-40.05 -6.05 -38.95 -5.0 -37.9 -4.0 -36.35 -3.95 -35.7 -4.05 -34.8 -5.4 L-35.3 -2.95 -35.35 -1.3 -35.3 -2.95 -34.8 -5.4 Q-35.7 -4.05 -36.35 -3.95 -37.9 -4.0 -38.95 -5.0 -40.05 -6.05 -40.05 -7.45 L-39.75 -8.85" fill="#fad589" fill-rule="evenodd" stroke="none"/>
    <path d="M29.05 28.55 Q25.25 27.1 21.2 26.1 20.25 25.55 19.2 25.35 L22.6 22.95 Q25.1 21.0 27.25 18.4 27.5 19.15 28.15 19.75 29.2 20.75 30.75 20.75 32.25 20.75 33.3 19.7 34.3 18.7 34.35 17.25 34.3 15.75 33.25 14.75 32.15 13.75 30.65 13.8 L30.45 13.8 33.25 8.1 33.3 8.15 Q34.4 9.15 35.9 9.15 37.4 9.15 38.45 8.1 L39.3 6.9 Q40.15 8.8 40.6 11.0 41.35 14.45 40.45 18.3 L27.5 27.8 29.05 28.55 M9.5 24.2 L7.9 24.05 6.6 23.7 6.75 23.2 9.0 14.45 9.25 12.9 Q10.2 7.25 10.35 1.55 L10.3 -4.1 11.7 -4.95 12.1 -5.25 Q16.95 -5.35 21.0 -4.3 L26.35 -2.9 Q26.4 -1.65 26.05 -0.05 24.9 4.8 22.6 9.25 20.15 13.75 17.1 16.75 L9.6 23.55 9.5 24.2 M-6.35 24.0 L-9.3 24.3 -9.9 23.45 -16.95 17.25 Q-20.15 14.3 -22.65 9.85 -25.05 5.45 -26.25 0.65 L-26.55 -1.55 Q-19.1 -5.4 -12.3 -4.8 L-10.55 -3.75 -10.5 1.7 Q-10.1 12.75 -6.55 23.55 L-6.35 24.0 M-18.9 25.9 L-21.0 26.4 Q-24.2 27.25 -27.15 28.45 L-35.1 22.95 -35.15 22.95 -38.75 20.3 -38.8 20.15 Q-40.45 13.3 -38.9 8.55 L-38.5 9.0 Q-37.45 9.95 -35.9 10.0 -34.4 9.95 -33.35 8.95 L-33.25 8.85 Q-31.95 11.95 -30.35 14.5 L-30.6 14.55 Q-32.1 14.5 -33.15 15.55 -34.25 16.55 -34.2 18.05 -34.2 19.45 -33.1 20.5 -32.05 21.45 -30.55 21.5 -29.05 21.45 -27.95 20.45 -27.35 19.85 -27.1 19.05 -24.95 21.65 -22.35 23.55 L-18.9 25.9" fill="#e63333" fill-rule="evenodd" stroke="none"/>
    <path d="M-12.3 -27.9 L-0.65 -28.0 -0.75 -38.55 M36.95 32.25 L37.8 32.75 35.15 42.25 Q30.9 40.35 26.55 38.95 14.75 35.1 2.0 35.05 -14.3 34.9 -27.65 39.9 -30.65 40.95 -33.45 42.3 L-37.0 33.5 -36.95 33.45 -34.85 32.2 -39.7 28.95 Q-39.75 30.25 -40.75 31.2 -41.8 32.2 -43.3 32.25 -44.85 32.2 -45.9 31.25 -46.95 30.2 -46.95 28.8 -47.0 27.3 -45.95 26.3 L-44.85 25.55 -46.1 24.7 -49.45 22.05 Q-49.7 22.95 -50.4 23.7 -51.45 24.7 -52.95 24.75 -54.5 24.75 -55.55 23.75 -56.65 22.75 -56.65 21.3 -56.65 19.8 -55.6 18.8 -54.55 17.75 -53.05 17.75 L-52.85 17.75 -53.7 16.05 -54.8 13.05 -55.1 13.4 Q-56.2 14.4 -57.7 14.45 -59.2 14.4 -60.25 13.45 -61.35 12.4 -61.35 11.0 -61.35 9.5 -60.3 8.5 -59.25 7.45 -57.75 7.45 -56.45 7.4 -55.4 8.2 L-55.25 4.45 -54.9 2.4 -56.15 2.6 Q-57.7 2.55 -58.75 1.55 -59.8 0.5 -59.8 -0.9 -59.85 -2.4 -58.8 -3.4 -57.75 -4.45 -56.2 -4.4 -54.7 -4.5 -53.6 -3.45 L-53.05 -2.75 -51.3 -4.9 -49.4 -6.4 -50.2 -7.05 Q-51.3 -8.05 -51.3 -9.5 -51.3 -10.95 -50.25 -12.0 -49.25 -13.0 -47.65 -13.0 -46.15 -13.05 -45.1 -12.05 -44.05 -11.0 -44.0 -9.55 L-44.15 -8.45 -39.75 -8.85 -39.0 -9.95 Q-38.0 -11.0 -36.4 -11.0 -34.9 -11.0 -33.85 -10.0 L-33.3 -9.35 Q-32.15 -11.15 -30.25 -12.5 L-29.05 -13.25 Q-30.05 -13.45 -30.75 -14.2 -31.85 -15.2 -31.85 -16.65 -31.9 -18.1 -30.8 -19.15 -29.8 -20.15 -28.25 -20.15 -26.75 -20.2 -25.65 -19.2 -24.65 -18.2 -24.6 -16.7 -24.6 -15.5 -25.35 -14.5 L-19.3 -14.7 -18.95 -14.65 Q-20.0 -15.65 -19.95 -17.05 -20.0 -18.55 -18.95 -19.55 -18.05 -20.45 -16.75 -20.55 L-16.9 -36.75 -6.0 -31.3 -9.15 -42.15 8.7 -42.3 5.05 -31.65 16.4 -37.15 16.55 -21.05 16.55 -21.0 Q17.6 -20.85 18.4 -20.1 19.45 -19.05 19.5 -17.6 19.5 -16.2 18.5 -15.15 L18.85 -15.2 Q22.25 -15.65 24.9 -15.15 24.1 -16.05 24.1 -17.35 24.1 -18.8 25.15 -19.85 26.2 -20.85 27.7 -20.85 29.2 -20.9 30.3 -19.9 31.35 -18.85 31.35 -17.4 31.35 -15.95 30.35 -14.95 29.6 -14.2 28.65 -13.95 L29.8 -13.25 Q31.7 -11.95 32.9 -10.1 L33.5 -10.75 Q34.5 -11.8 36.05 -11.8 37.55 -11.85 38.6 -10.8 L39.4 -9.75 43.8 -9.4 43.65 -10.5 Q43.6 -12.0 44.7 -13.0 45.75 -14.05 47.25 -14.05 48.75 -14.05 49.85 -13.05 50.9 -12.05 50.9 -10.6 50.9 -9.15 49.9 -8.1 L49.05 -7.5 51.05 -6.0 52.8 -3.9 53.35 -4.6 Q54.4 -5.6 55.9 -5.6 57.4 -5.6 58.5 -4.6 59.55 -3.6 59.6 -2.15 59.6 -0.7 58.55 0.35 57.45 1.35 55.95 1.4 L54.75 1.2 55.15 3.3 55.35 7.05 Q56.35 6.25 57.7 6.25 59.2 6.15 60.25 7.2 61.3 8.2 61.35 9.7 61.3 11.15 60.3 12.2 59.25 13.2 57.75 13.25 56.2 13.25 55.15 12.2 L54.85 11.9 53.8 14.9 52.95 16.6 53.15 16.6 Q54.65 16.6 55.75 17.6 56.75 18.6 56.85 20.1 56.8 21.55 55.8 22.55 54.75 23.6 53.25 23.6 51.65 23.6 50.65 22.6 49.85 21.9 49.65 20.95 L45.1 24.55 46.2 25.3 Q47.3 26.3 47.3 27.75 47.3 29.2 46.25 30.25 45.2 31.25 43.7 31.3 42.15 31.3 41.1 30.3 40.1 29.35 40.05 28.05 L35.3 31.35 36.95 32.25 35.25 31.35 34.45 30.95 34.0 30.7 33.95 30.7 29.05 28.55 Q25.25 27.1 21.2 26.1 L18.35 25.45 10.15 24.2 9.5 24.2 7.9 24.05 5.25 23.9 1.85 23.8 Q-1.7 23.75 -5.0 23.95 L-6.35 24.0 -9.3 24.3 -18.75 25.85 -18.9 25.9 -21.0 26.4 Q-24.2 27.25 -27.15 28.45 L-28.8 29.15 Q-31.3 30.2 -33.6 31.45 L-34.85 32.2 M11.4 -28.1 L-0.65 -28.0 -0.65 -23.6 M35.15 -2.1 L35.05 -3.75 34.55 -6.2 Q35.45 -4.85 36.1 -4.8 37.6 -4.85 38.65 -5.85 39.7 -6.95 39.7 -8.35 L39.4 -9.75 M35.15 -2.1 Q40.15 -2.3 43.6 0.0 47.9 2.9 46.95 8.9 46.15 13.75 42.8 16.5 L40.45 18.3 27.5 27.8 29.05 28.55 M39.3 6.9 L39.5 5.7 39.5 5.65 39.4 4.8 Q39.15 3.9 38.4 3.15 37.35 2.15 35.85 2.2 L34.9 2.3 35.15 -2.1 M39.3 6.9 Q40.15 8.8 40.6 11.0 41.35 14.45 40.45 18.3 M12.1 -5.25 Q16.3 -8.0 22.05 -7.25 26.2 -6.8 26.35 -2.9 26.4 -1.65 26.05 -0.05 24.9 4.8 22.6 9.25 20.15 13.75 17.1 16.75 L9.6 23.55 M26.35 -2.9 L21.0 -4.3 Q16.95 -5.35 12.1 -5.25 L11.7 -4.95 10.3 -4.1 10.35 1.55 Q10.2 7.25 9.25 12.9 L9.0 14.45 6.75 23.2 6.6 23.7 7.9 24.05 M15.9 -21.05 L16.55 -21.0 M12.45 -18.8 Q12.65 -19.5 13.25 -20.05 14.3 -21.05 15.8 -21.05 L15.9 -21.05 M12.45 -18.8 Q12.2 -18.25 12.2 -17.55 12.2 -16.1 13.3 -15.1 13.85 -14.55 14.6 -14.25 11.85 -13.3 10.25 -11.4 M10.3 -5.4 L12.1 -5.25 M5.6 -16.95 L6.25 -23.45 11.65 -18.9 M5.6 -16.95 L2.45 -16.95 Q3.45 -17.95 3.45 -19.35 3.4 -20.9 2.35 -21.85 1.3 -22.9 -0.2 -22.85 -1.8 -22.85 -2.8 -21.8 -3.85 -20.8 -3.8 -19.3 -3.8 -17.9 -2.75 -16.9 L-6.3 -16.85 -9.05 -16.85 -10.0 -11.0 -10.45 -5.0 -10.55 -3.75 -10.5 1.7 Q-10.1 12.75 -6.55 23.55 L-6.35 24.0 M10.3 -4.1 L10.2 -5.4 8.6 -17.0 5.6 -16.95 M2.45 -11.55 Q3.5 -10.55 3.55 -9.05 L3.25 -7.7 2.5 -6.6 1.0 -5.7 -0.05 -5.5 -1.05 -5.65 -2.65 -6.55 Q-3.7 -7.6 -3.7 -9.0 -3.75 -10.5 -2.7 -11.5 L-1.55 -12.25 -0.1 -12.5 Q1.4 -12.6 2.45 -11.55 M10.3 -5.4 L10.2 -5.4 M3.65 1.6 Q3.6 3.05 2.6 4.05 1.55 5.1 0.05 5.1 -1.5 5.1 -2.55 4.1 -3.65 3.1 -3.65 1.65 -3.65 0.2 -2.6 -0.85 -1.6 -1.85 0.0 -1.85 1.5 -1.9 2.55 -0.9 3.6 0.1 3.65 1.6 M3.0 9.75 Q4.05 10.75 4.05 12.2 L3.8 13.55 3.05 14.7 Q1.95 15.7 0.45 15.75 -1.05 15.75 -2.1 14.75 -3.2 13.75 -3.2 12.3 -3.25 10.8 -2.15 9.8 -1.15 8.75 0.4 8.75 1.9 8.75 3.0 9.75 M19.2 25.35 L22.6 22.95 Q25.1 21.0 27.25 18.4 27.5 19.15 28.15 19.75 29.2 20.75 30.75 20.75 32.25 20.75 33.3 19.7 34.3 18.7 34.35 17.25 34.3 15.75 33.25 14.75 32.15 13.75 30.65 13.8 L30.45 13.8 33.25 8.1 33.3 8.15 Q34.4 9.15 35.9 9.15 37.4 9.15 38.45 8.1 L39.3 6.9 M34.45 30.95 L35.3 31.35 35.25 31.35 M19.2 25.35 L19.05 25.35 18.35 25.45 M21.2 26.1 Q20.25 25.55 19.2 25.35 M5.25 23.9 L6.6 23.7 M-12.4 -17.95 L-6.55 -22.45 -6.3 -17.6 M-10.65 -11.05 Q-12.25 -12.85 -15.05 -13.8 L-13.75 -14.65 Q-12.75 -15.65 -12.7 -17.1 L-12.8 -17.85 Q-13.0 -18.85 -13.8 -19.6 -14.85 -20.6 -16.35 -20.6 L-16.75 -20.55 M-10.45 -5.0 L-12.3 -4.8 -10.55 -3.75 M-35.35 -1.3 L-35.3 -2.95 -34.8 -5.4 Q-35.7 -4.05 -36.35 -3.95 -37.9 -4.0 -38.95 -5.0 -40.05 -6.05 -40.05 -7.45 L-39.75 -8.85 M-9.3 24.3 L-9.9 23.45 -16.95 17.25 Q-20.15 14.3 -22.65 9.85 -25.05 5.45 -26.25 0.65 L-26.55 -1.55 Q-26.85 -6.05 -22.4 -6.65 -16.65 -7.55 -12.3 -4.8 -19.1 -5.4 -26.55 -1.55 M-35.05 2.85 Q-35.4 0.85 -35.35 -1.3 -40.45 -1.4 -43.75 0.95 -48.1 3.95 -47.0 9.9 -46.1 14.95 -42.35 17.7 L-38.75 20.3 -38.8 20.15 Q-40.45 13.3 -38.9 8.55 -39.6 7.7 -39.55 6.65 L-39.55 6.55 Q-39.6 5.05 -38.55 4.05 -37.55 3.0 -35.95 3.0 L-35.3 3.05 -35.05 2.85 -35.05 3.1 -35.3 3.05 M-38.9 8.55 L-38.5 9.0 Q-37.45 9.95 -35.9 10.0 -34.4 9.95 -33.35 8.95 L-33.25 8.85 Q-31.95 11.95 -30.35 14.5 L-30.6 14.55 Q-32.1 14.5 -33.15 15.55 -34.25 16.55 -34.2 18.05 -34.2 19.45 -33.1 20.5 -32.05 21.45 -30.55 21.5 -29.05 21.45 -27.95 20.45 -27.35 19.85 -27.1 19.05 -24.95 21.65 -22.35 23.55 L-18.9 25.9 M-38.75 20.3 L-35.15 22.95 -35.1 22.95 -27.15 28.45" fill="none" stroke="#512314" stroke-linecap="round" stroke-linejoin="round" stroke-width="3.0"/>
  </g>
</svg>
