<?xml version="1.0" encoding="UTF-8" standalone="no"?>
<svg xmlns:xlink="http://www.w3.org/1999/xlink" height="90.55px" width="99.65px" xmlns="http://www.w3.org/2000/svg">
  <g transform="matrix(1.0, 0.0, 0.0, 1.0, 49.8, 44.9)">
    <path d="M-22.9 -40.2 Q-25.45 -41.35 -29.0 -41.1 -31.2 -40.5 -32.9 -39.25 L-33.7 -39.9 Q-27.6 -43.2 -22.9 -40.2 M-38.6 -36.0 Q-42.75 -29.05 -40.35 -21.0 -39.8 -19.2 -38.2 -18.3 -33.95 -15.9 -31.6 -18.65 -28.6 -20.3 -31.9 -23.2 -33.65 -24.75 -34.0 -27.0 -34.7 -32.05 -32.0 -34.65 L-27.7 -34.95 -25.9 -34.7 -24.15 -33.55 Q-23.2 -32.3 -22.95 -30.7 -22.1 -26.1 -22.75 -21.35 L-22.4 -20.95 Q-20.9 -19.7 -19.55 -21.1 L-19.5 -21.2 -19.25 -21.15 -18.55 -20.85 -17.25 -21.1 -15.65 -21.7 -14.35 -22.45 -14.05 -22.7 Q-5.65 -24.3 3.9 -24.85 L6.75 -24.5 7.15 -24.35 7.15 -24.2 7.2 -23.85 8.15 -23.2 Q9.7 -22.5 11.05 -22.7 12.8 -22.1 15.0 -22.65 16.8 -23.15 16.85 -24.95 15.15 -26.75 15.1 -29.1 15.05 -31.05 15.55 -32.8 17.95 -36.55 22.85 -37.7 25.4 -36.8 26.45 -34.55 L27.6 -31.35 Q25.8 -27.65 25.95 -23.45 26.0 -22.5 26.55 -21.85 30.35 -17.45 34.05 -21.5 34.95 -17.65 37.4 -13.7 L36.6 -13.1 29.55 -5.05 28.95 -4.7 29.55 -5.05 Q34.45 -7.95 39.15 -11.05 L39.3 -10.85 43.3 -5.6 45.0 -3.4 45.05 -3.35 48.35 0.8 47.95 2.15 Q46.65 10.35 42.7 17.0 38.35 24.2 33.5 28.9 28.35 33.8 19.5 38.05 12.05 41.6 3.35 42.9 L-15.6 44.15 Q-25.9 44.15 -33.8 42.05 -42.3 39.75 -45.8 32.9 -49.7 25.35 -47.55 16.55 L-47.55 16.45 -47.4 15.85 -46.9 14.05 -43.7 1.75 -42.95 -1.05 -42.9 -1.3 Q-40.6 -9.9 -37.85 -16.6 -40.45 -18.4 -41.3 -24.15 -42.4 -31.45 -38.6 -36.0 M-37.6 -17.2 L-37.85 -16.6 -37.6 -17.2 M-17.8 -34.7 Q-16.35 -32.45 -15.45 -29.8 L-16.1 -30.75 Q-16.65 -32.5 -17.65 -34.1 L-17.7 -34.45 -17.8 -34.7 M-14.7 -27.0 L-14.35 -25.05 -14.7 -25.35 -14.7 -25.7 -14.7 -27.0 M7.3 -26.55 Q7.1 -35.6 12.2 -39.95 14.9 -42.25 18.35 -43.0 12.35 -40.8 9.7 -34.35 L9.3 -33.35 Q7.55 -29.9 9.05 -27.6 L8.95 -27.6 Q8.05 -27.55 7.5 -26.8 L7.3 -26.55 M32.1 -40.95 Q35.8 -38.75 36.55 -34.4 35.65 -37.0 33.85 -38.55 33.15 -39.95 32.1 -40.95 M35.8 -26.55 L35.35 -25.2 35.2 -25.95 35.8 -26.55 M9.4 -5.8 Q11.9 -2.7 16.5 -5.1 L17.0 -5.4 17.25 -5.55 Q24.7 -10.0 20.3 -17.45 L19.3 -18.75 18.5 -18.1 12.75 -13.85 7.9 -10.2 7.25 -10.0 7.45 -9.4 Q7.95 -8.0 9.0 -6.4 L9.15 -6.15 6.9 -9.2 Q1.9 -16.7 -8.65 -13.9 -12.4 -12.9 -14.5 -10.25 -14.7 -13.2 -19.1 -15.8 -20.6 -16.7 -22.6 -16.7 -28.4 -16.9 -29.6 -13.7 -28.4 -16.9 -22.6 -16.7 -20.6 -16.7 -19.1 -15.8 -14.7 -13.2 -14.5 -10.25 L-15.3 -9.05 -22.6 -11.1 -29.6 -13.7 Q-30.65 -11.05 -28.6 -6.1 -27.55 -3.5 -26.05 -2.35 L-26.85 -1.5 Q-31.9 0.35 -35.55 5.05 L-36.15 5.9 -36.75 6.7 Q-39.8 11.35 -39.5 16.65 L-39.3 18.45 Q-38.9 20.85 -37.85 23.4 -34.7 30.95 -26.55 33.05 -18.2 35.2 -8.6 34.1 0.85 33.05 9.95 30.95 18.55 29.0 25.65 25.25 33.6 21.05 32.35 11.8 L31.45 7.75 31.4 7.6 Q29.45 2.1 24.7 -0.3 18.0 -3.65 9.9 -3.2 L9.2 -3.35 9.4 -5.8 M44.35 -2.8 Q41.5 1.05 36.9 4.7 L36.8 4.75 35.45 5.8 36.8 4.75 36.9 4.7 Q41.5 1.05 44.35 -2.8 M7.25 -10.0 L7.25 -10.1 Q5.4 -16.35 13.4 -19.7 17.1 -21.0 19.3 -18.75 17.1 -21.0 13.4 -19.7 5.4 -16.35 7.25 -10.1 L7.25 -10.0 M42.85 -5.25 Q40.25 -0.3 36.45 4.3 40.25 -0.3 42.85 -5.25 M-36.5 4.25 Q-39.6 3.45 -40.75 1.8 -41.5 0.7 -41.5 -0.7 -41.5 0.7 -40.75 1.8 -39.6 3.45 -36.5 4.25 M-41.0 16.75 Q-44.0 16.25 -46.0 14.3 -44.0 16.25 -41.0 16.75 M-37.0 5.3 Q-40.65 5.2 -41.5 2.3 -40.65 5.2 -37.0 5.3 M-40.05 18.55 L-40.85 18.65 -41.05 18.65 -41.25 18.65 Q-44.5 18.65 -46.0 16.8 -44.5 18.65 -41.25 18.65 L-41.05 18.65 -40.85 18.65 -40.05 18.55" fill="#ff9900" fill-rule="evenodd" stroke="none"/>
    <path d="M-33.7 -39.9 L-32.9 -39.25 Q-31.2 -40.5 -29.0 -41.1 -25.45 -41.35 -22.9 -40.2 -21.55 -39.35 -20.3 -38.0 L-19.7 -37.3 -18.3 -35.45 -17.8 -34.7 -18.3 -35.45 -19.7 -37.3 -20.3 -38.0 Q-21.55 -39.35 -22.9 -40.2 -20.3 -39.05 -18.75 -36.4 L-17.8 -34.7 -17.7 -34.45 -17.65 -34.1 Q-16.65 -32.5 -16.1 -30.75 L-15.45 -29.8 -14.7 -27.0 -14.7 -25.7 -14.7 -25.35 -14.35 -25.05 -13.85 -24.2 -13.8 -24.05 -13.7 -23.8 -13.65 -23.45 -14.05 -22.7 -14.35 -22.45 -15.65 -21.7 -17.25 -21.1 -18.55 -20.85 -19.25 -21.15 -19.5 -21.2 -19.55 -21.1 Q-20.9 -19.7 -22.4 -20.95 L-22.75 -21.35 Q-22.1 -26.1 -22.95 -30.7 -23.2 -32.3 -24.15 -33.55 L-25.9 -34.7 -27.7 -34.95 -32.0 -34.65 Q-34.7 -32.05 -34.0 -27.0 -33.65 -24.75 -31.9 -23.2 -28.6 -20.3 -31.6 -18.65 -33.95 -15.9 -38.2 -18.3 -39.8 -19.2 -40.35 -21.0 -42.75 -29.05 -38.6 -36.0 L-37.35 -37.95 -36.5 -38.6 -36.3 -38.6 Q-35.7 -39.3 -34.9 -39.85 L-34.65 -39.9 -34.05 -40.0 -34.0 -40.1 -33.7 -39.9 -35.05 -39.1 -35.85 -38.55 -37.0 -37.65 -38.6 -36.0 -37.0 -37.65 -35.85 -38.55 -35.05 -39.1 -33.7 -39.9 M7.15 -24.35 L7.05 -25.35 7.2 -26.45 7.3 -26.55 7.5 -26.8 Q8.05 -27.55 8.95 -27.6 L9.05 -27.6 Q7.55 -29.9 9.3 -33.35 L9.7 -34.35 Q12.35 -40.8 18.35 -43.0 20.65 -43.9 23.45 -44.1 29.1 -43.85 32.1 -40.95 30.7 -41.8 28.95 -42.3 22.95 -44.05 18.35 -43.0 22.95 -44.05 28.95 -42.3 30.7 -41.8 32.1 -40.95 33.15 -39.95 33.85 -38.55 35.65 -37.0 36.55 -34.4 L37.1 -32.1 Q37.65 -28.65 35.8 -26.55 L36.45 -29.35 Q36.9 -32.15 36.55 -34.4 36.9 -32.15 36.45 -29.35 L35.8 -26.55 35.2 -25.95 35.35 -25.2 35.35 -24.2 Q35.35 -23.05 34.6 -22.15 L34.05 -21.5 33.9 -22.2 35.35 -25.2 33.9 -22.2 34.05 -21.5 Q30.35 -17.45 26.55 -21.85 26.0 -22.5 25.95 -23.45 25.8 -27.65 27.6 -31.35 L26.45 -34.55 Q25.4 -36.8 22.85 -37.7 17.95 -36.55 15.55 -32.8 15.05 -31.05 15.1 -29.1 15.15 -26.75 16.85 -24.95 16.8 -23.15 15.0 -22.65 12.8 -22.1 11.05 -22.7 9.7 -22.5 8.15 -23.2 L7.2 -23.85 7.15 -24.2 7.15 -24.35 7.4 -24.2 7.35 -25.15 7.4 -24.2 7.15 -24.35 M-14.35 -25.05 L-14.35 -24.95 -14.1 -22.9 -14.1 -22.7 -14.05 -22.7 -14.1 -22.7 -14.1 -22.9 -14.35 -24.95 -14.35 -25.05 M7.35 -25.2 L7.35 -25.15 7.35 -25.2 7.3 -26.55 7.35 -25.2" fill="#512314" fill-rule="evenodd" stroke="none"/>
    <path d="M19.3 -18.75 L20.3 -17.45 Q24.7 -10.0 17.25 -5.55 L17.0 -5.4 16.5 -5.1 Q11.9 -2.7 9.4 -5.8 L9.25 -6.05 9.15 -6.15 9.25 -6.05 9.4 -5.8 9.2 -3.35 Q8.7 -0.95 6.95 0.1 -2.6 5.8 -5.6 -3.2 -7.5 1.05 -11.2 1.65 -17.25 2.7 -17.05 -2.15 -17.0 -4.0 -16.6 -5.55 L-18.05 -4.2 Q-22.5 -0.45 -25.4 -1.95 L-24.6 -2.2 -25.4 -1.95 -26.05 -2.35 Q-27.55 -3.5 -28.6 -6.1 -30.65 -11.05 -29.6 -13.7 L-22.6 -11.1 -15.3 -9.05 Q-16.2 -7.55 -16.6 -5.55 -14.35 -8.0 -14.5 -10.25 -12.4 -12.9 -8.65 -13.9 1.9 -16.7 6.9 -9.2 L9.15 -6.15 9.0 -6.4 Q7.95 -8.0 7.45 -9.4 L7.25 -10.0 7.9 -10.2 12.75 -13.85 18.5 -18.1 19.3 -18.75 M13.95 -12.2 Q14.1 -9.6 14.45 -9.7 14.1 -9.6 13.95 -12.2 M-2.05 -7.95 L-6.05 -7.55 -2.05 -7.95 M-5.8 -5.25 L-5.6 -3.2 -5.6 -5.25 Q-4.1 -5.35 -1.95 -7.1 -4.1 -5.35 -5.6 -5.25 L-5.8 -5.25 -6.05 -7.55 -8.15 -7.3 -8.05 -6.7 Q-7.2 -5.25 -5.8 -5.25 M-9.05 -7.2 L-8.15 -7.3 -9.05 -7.2 M-23.05 -9.7 Q-23.6 -7.35 -23.0 -6.2 -23.6 -7.35 -23.05 -9.7" fill="#ffffff" fill-rule="evenodd" stroke="none"/>
    <path d="M-22.9 -40.2 Q-27.6 -43.2 -33.7 -39.9 M-38.6 -36.0 L-37.0 -37.65 -35.85 -38.55 -35.05 -39.1 -33.7 -39.9 M-38.6 -36.0 Q-42.4 -31.45 -41.3 -24.15 -40.45 -18.4 -37.85 -16.6 L-37.6 -17.2 M-17.8 -34.7 L-18.3 -35.45 -19.7 -37.3 -20.3 -38.0 Q-21.55 -39.35 -22.9 -40.2 M-17.8 -34.7 Q-16.35 -32.45 -15.45 -29.8 L-14.7 -27.0 -14.35 -25.05 M-14.05 -22.7 Q-5.65 -24.3 3.9 -24.85 L6.75 -24.5 7.15 -24.35 7.4 -24.2 7.35 -25.15 M7.3 -26.55 Q7.1 -35.6 12.2 -39.95 14.9 -42.25 18.35 -43.0 22.95 -44.05 28.95 -42.3 30.7 -41.8 32.1 -40.95 35.8 -38.75 36.55 -34.4 36.9 -32.15 36.45 -29.35 L35.8 -26.55 35.35 -25.2 33.9 -22.2 34.05 -21.5 Q34.95 -17.65 37.4 -13.7 38.2 -12.4 39.15 -11.05 L39.3 -10.85 43.3 -5.6 45.0 -3.4 45.05 -3.35 48.35 0.8 47.95 2.15 Q46.65 10.35 42.7 17.0 38.35 24.2 33.5 28.9 28.35 33.8 19.5 38.05 12.05 41.6 3.35 42.9 L-15.6 44.15 Q-25.9 44.15 -33.8 42.05 -42.3 39.75 -45.8 32.9 -49.7 25.35 -47.55 16.55 L-47.55 16.45 -47.4 15.85 -46.9 14.05 -43.7 1.75 -42.95 -1.05 -42.9 -1.3 Q-40.6 -9.9 -37.85 -16.6 M-14.05 -22.7 L-14.1 -22.7 -14.1 -22.9 -14.35 -24.95 -14.35 -25.05 M7.35 -25.2 L7.3 -26.55 M9.4 -5.8 Q11.9 -2.7 16.5 -5.1 L17.0 -5.4 17.25 -5.55 Q24.7 -10.0 20.3 -17.45 L19.3 -18.75 Q17.1 -21.0 13.4 -19.7 5.4 -16.35 7.25 -10.1 L7.25 -10.0 7.45 -9.4 Q7.95 -8.0 9.0 -6.4 L9.15 -6.15 9.25 -6.05 9.4 -5.8 9.2 -3.35 M18.5 -18.1 L12.75 -13.85 7.9 -10.2 M9.9 -3.2 Q18.0 -3.65 24.7 -0.3 29.45 2.1 31.4 7.6 L31.45 7.75 32.35 11.8 Q33.6 21.05 25.65 25.25 18.55 29.0 9.95 30.95 0.85 33.05 -8.6 34.1 -18.2 35.2 -26.55 33.05 -34.7 30.95 -37.85 23.4 -38.9 20.85 -39.3 18.45 L-39.5 16.65 Q-39.8 11.35 -36.75 6.7 L-36.15 5.9 -35.55 5.05 Q-31.9 0.35 -26.85 -1.5 M-26.05 -2.35 Q-27.55 -3.5 -28.6 -6.1 -30.65 -11.05 -29.6 -13.7 -28.4 -16.9 -22.6 -16.7 -20.6 -16.7 -19.1 -15.8 -14.7 -13.2 -14.5 -10.25 -12.4 -12.9 -8.65 -13.9 1.9 -16.7 6.9 -9.2 M-5.6 -3.2 Q-2.6 5.8 6.95 0.1 8.7 -0.95 9.2 -3.35 M-14.5 -10.25 L-15.3 -9.05 Q-16.2 -7.55 -16.6 -5.55 -14.35 -8.0 -14.5 -10.25 M-25.4 -1.95 Q-22.5 -0.45 -18.05 -4.2 L-16.6 -5.55 Q-17.0 -4.0 -17.05 -2.15 -17.25 2.7 -11.2 1.65 -7.5 1.05 -5.6 -3.2 M-29.6 -13.7 L-22.6 -11.1 -15.3 -9.05 M-25.4 -1.95 L-24.6 -2.2 M-26.05 -2.35 L-25.4 -1.95 -26.85 -1.5" fill="none" stroke="#512314" stroke-linecap="round" stroke-linejoin="round" stroke-width="3.0"/>
    <path d="M7.35 -25.15 L7.35 -25.2 M28.95 -4.7 L29.55 -5.05 36.6 -13.1 M35.45 5.8 L36.8 4.75 36.9 4.7 Q41.5 1.05 44.35 -2.8 M14.45 -9.7 Q14.1 -9.6 13.95 -12.2 M36.45 4.3 Q40.25 -0.3 42.85 -5.25 M29.55 -5.05 Q34.45 -7.95 39.15 -11.05 M-6.05 -7.55 L-2.05 -7.95 M-5.8 -5.25 Q-7.2 -5.25 -8.05 -6.7 M-8.15 -7.3 L-9.05 -7.2 M-5.6 -5.25 Q-4.1 -5.35 -1.95 -7.1 M-5.6 -5.25 L-5.8 -5.25 M-6.05 -7.55 L-8.15 -7.3 M-41.5 -0.7 Q-41.5 0.7 -40.75 1.8 -39.6 3.45 -36.5 4.25 M-23.0 -6.2 Q-23.6 -7.35 -23.05 -9.7 M-46.0 16.8 Q-44.5 18.65 -41.25 18.65 L-41.05 18.65 -40.85 18.65 -40.05 18.55 M-41.5 2.3 Q-40.65 5.2 -37.0 5.3 M-46.0 14.3 Q-44.0 16.25 -41.0 16.75" fill="none" stroke="#512314" stroke-linecap="round" stroke-linejoin="round" stroke-width="3.0"/>
  </g>
</svg>
