<?xml version="1.0" encoding="UTF-8" standalone="no"?>
<svg xmlns:xlink="http://www.w3.org/1999/xlink" height="60.9px" width="127.85px" xmlns="http://www.w3.org/2000/svg">
  <g transform="matrix(1.0, 0.0, 0.0, 1.0, 71.75, 34.15)">
    <path d="M0.55 -17.0 Q1.35 -15.95 3.35 -14.85 9.3 -11.8 12.6 -5.25 L14.05 -2.1 12.6 -5.25 Q9.3 -11.8 3.35 -14.85 1.35 -15.95 0.55 -17.0 -0.5 -22.3 5.4 -28.4 10.5 -33.75 19.7 -32.35 27.6 -31.2 32.65 -24.7 37.35 -18.65 39.6 -10.9 41.95 -2.95 45.35 2.95 48.1 7.6 54.6 7.85 L40.75 9.1 Q32.8 9.35 26.7 6.95 20.3 4.4 16.65 0.8 L14.05 -2.1 Q16.45 3.6 17.3 9.7 17.8 13.1 15.9 15.1 9.35 21.95 6.05 12.75 L6.1 16.75 Q6.1 23.15 -0.6 22.85 -8.7 22.5 -11.8 14.5 -11.95 17.1 -12.7 19.4 -15.1 26.0 -22.35 25.15 -31.15 24.15 -33.15 15.85 -32.9 18.1 -33.1 19.5 -34.1 25.4 -40.15 24.8 -49.0 23.95 -49.65 14.05 -49.4 20.0 -52.85 22.9 -54.85 24.55 -57.4 22.6 -62.45 18.7 -61.9 10.7 -62.5 13.75 -64.3 16.1 -69.1 22.5 -70.05 13.55 -70.95 4.95 -67.65 -2.05 -64.7 -8.55 -58.75 -13.65 -53.5 -18.25 -46.4 -20.8 -39.5 -23.35 -30.5 -23.3 -21.45 -23.25 -13.15 -21.7 -4.65 -20.0 0.25 -17.55 L0.55 -17.0 M-61.65 8.3 Q-61.7 9.55 -61.9 10.7 -61.7 9.55 -61.65 8.3 M-34.05 7.4 Q-34.85 6.2 -34.6 3.85 -33.65 -4.8 -30.5 -12.2 -33.65 -4.8 -34.6 3.85 -34.85 6.2 -34.05 7.4 M-16.25 6.5 Q-18.25 2.95 -19.25 -1.05 -21.2 -8.75 -21.55 -11.3 -21.2 -8.75 -19.25 -1.05 -18.25 2.95 -16.25 6.5" fill="#f8f0a0" fill-rule="evenodd" stroke="none"/>
    <path d="M14.05 -2.1 L12.6 -5.25 Q9.3 -11.8 3.35 -14.85 1.35 -15.95 0.55 -17.0 L0.25 -17.55 Q-4.65 -20.0 -13.15 -21.7 -21.45 -23.25 -30.5 -23.3 -39.5 -23.35 -46.4 -20.8 -53.5 -18.25 -58.75 -13.65 -64.7 -8.55 -67.65 -2.05 -70.95 4.95 -70.05 13.55 -69.1 22.5 -64.3 16.1 -62.5 13.75 -61.9 10.7 -61.7 9.55 -61.65 8.3 M0.55 -17.0 Q-0.5 -22.3 5.4 -28.4 10.5 -33.75 19.7 -32.35 27.6 -31.2 32.65 -24.7 37.35 -18.65 39.6 -10.9 41.95 -2.95 45.35 2.95 48.1 7.6 54.6 7.85 L40.75 9.1 Q32.8 9.35 26.7 6.95 20.3 4.4 16.65 0.8 L14.05 -2.1 Q16.45 3.6 17.3 9.7 17.8 13.1 15.9 15.1 9.35 21.95 6.05 12.75 L6.1 16.75 Q6.1 23.15 -0.6 22.85 -8.7 22.5 -11.8 14.5 -11.95 17.1 -12.7 19.4 -15.1 26.0 -22.35 25.15 -31.15 24.15 -33.15 15.85 -32.9 18.1 -33.1 19.5 -34.1 25.4 -40.15 24.8 -49.0 23.95 -49.65 14.05 -49.4 20.0 -52.85 22.9 -54.85 24.55 -57.4 22.6 -62.45 18.7 -61.9 10.7" fill="none" stroke="#512314" stroke-linecap="round" stroke-linejoin="round" stroke-width="3.0"/>
    <path d="M-21.55 -11.3 Q-21.2 -8.75 -19.25 -1.05 -18.25 2.95 -16.25 6.5 M-30.5 -12.2 Q-33.65 -4.8 -34.6 3.85 -34.85 6.2 -34.05 7.4" fill="none" stroke="#512314" stroke-linecap="round" stroke-linejoin="round" stroke-width="3.0"/>
  </g>
</svg>
