<?xml version="1.0" encoding="UTF-8" standalone="no"?>
<svg xmlns:xlink="http://www.w3.org/1999/xlink" height="57.05px" width="61.85px" xmlns="http://www.w3.org/2000/svg">
  <g transform="matrix(1.0, 0.0, 0.0, 1.0, 30.95, 28.5)">
    <path d="M-17.2 7.6 Q-18.1 2.9 -19.5 -1.95 -21.65 -9.55 -21.8 -15.8 -21.95 -22.1 -17.0 -24.15 -12.05 -26.2 -2.15 -26.8 L13.1 -26.2 Q18.5 -25.05 17.35 -11.35 16.65 -3.25 15.7 3.05 L13.85 3.55 Q5.6 5.65 -3.1 6.7 L-17.2 7.6 M14.5 11.6 L15.45 11.3 Q23.0 8.95 27.85 10.45 32.65 20.4 22.8 21.75 L4.1 24.25 -15.65 26.65 Q-25.6 27.75 -27.55 25.65 -29.5 23.5 -29.45 21.45 -29.25 14.9 -20.15 15.15 L-16.15 15.2 -1.7 14.55 Q6.95 13.8 14.5 11.6" fill="#525252" fill-rule="evenodd" stroke="none"/>
    <path d="M15.7 3.05 L14.3 10.85 14.5 11.6 Q6.95 13.8 -1.7 14.55 L-16.15 15.2 -16.15 14.45 Q-16.55 11.05 -17.2 7.6 L-3.1 6.7 Q5.6 5.65 13.85 3.55 L15.7 3.05" fill="#ffffff" fill-rule="evenodd" stroke="none"/>
    <path d="M-17.2 7.6 Q-18.1 2.9 -19.5 -1.95 -21.65 -9.55 -21.8 -15.8 -21.95 -22.1 -17.0 -24.15 -12.05 -26.2 -2.15 -26.8 L13.1 -26.2 Q18.5 -25.05 17.35 -11.35 16.65 -3.25 15.7 3.05 L14.3 10.85 M14.5 11.6 L15.45 11.3 Q23.0 8.95 27.85 10.45 32.65 20.4 22.8 21.75 L4.1 24.25 -15.65 26.65 Q-25.6 27.75 -27.55 25.65 -29.5 23.5 -29.45 21.45 -29.25 14.9 -20.15 15.15 L-16.15 15.2 -1.7 14.55 Q6.95 13.8 14.5 11.6 M-16.15 14.45 Q-16.55 11.05 -17.2 7.6" fill="none" stroke="#512314" stroke-linecap="round" stroke-linejoin="round" stroke-width="3.0"/>
    <path d="M-17.2 7.6 L-3.1 6.7 Q5.6 5.65 13.85 3.55 L15.7 3.05" fill="none" stroke="#512314" stroke-linecap="round" stroke-linejoin="round" stroke-width="3.0"/>
  </g>
</svg>
