<?xml version="1.0" encoding="UTF-8" standalone="no"?>
<svg xmlns:xlink="http://www.w3.org/1999/xlink" height="27.9px" width="66.55px" xmlns="http://www.w3.org/2000/svg">
  <g transform="matrix(1.0, 0.0, 0.0, 1.0, 33.3, 13.95)">
    <path d="M19.55 -13.6 L25.65 -13.3 Q29.25 -12.3 31.3 -8.8 32.25 -7.2 32.75 -5.25 33.35 -2.8 33.2 0.15 32.85 5.35 29.85 7.95 26.35 11.0 21.25 10.7 16.05 10.45 13.1 6.55 10.35 2.9 10.35 -1.85 10.3 -6.9 13.35 -9.75 16.35 -12.55 19.55 -13.6 M-12.6 -1.15 Q-11.9 1.85 -12.3 6.8 -12.7 11.7 -18.95 13.4 -25.2 15.1 -28.75 11.75 -32.3 8.4 -33.1 3.75 -33.9 -0.9 -31.6 -4.85 -29.35 -8.85 -24.2 -9.35 -18.55 -9.85 -15.7 -7.1 -13.6 -5.75 -12.8 -2.2 L-12.6 -1.15" fill="#ffffff" fill-rule="evenodd" stroke="none"/>
  </g>
</svg>
