<?xml version="1.0" encoding="UTF-8" standalone="no"?>
<svg xmlns:xlink="http://www.w3.org/1999/xlink" height="31.9px" width="84.1px" xmlns="http://www.w3.org/2000/svg">
  <g transform="matrix(1.0, 0.0, 0.0, 1.0, 34.8, 13.85)">
    <path d="M33.25 -3.15 Q36.45 -6.8 40.3 -8.25 44.15 -9.75 46.0 -7.35 L46.95 -5.45 47.8 -2.75 M-12.1 0.95 Q-9.55 0.1 -4.15 -0.9 1.25 -1.9 4.55 -0.95 7.8 -0.05 10.05 1.0" fill="none" stroke="#512314" stroke-linecap="round" stroke-linejoin="round" stroke-width="3.0"/>
    <path d="M13.85 -7.65 Q10.8 -4.8 10.85 0.25 10.85 5.0 13.6 8.65 16.55 12.55 21.75 12.8 26.85 13.1 30.35 10.05 33.35 7.45 33.7 2.25 33.85 -0.7 33.25 -3.15 32.75 -5.1 31.8 -6.7 29.75 -10.2 26.15 -11.2 L20.05 -11.5 Q16.85 -10.45 13.85 -7.65 M-12.1 0.95 Q-11.4 3.95 -11.8 8.9 -12.2 13.8 -18.45 15.5 -22.65 16.65 -25.65 15.5 -27.1 14.95 -28.25 13.85 -31.8 10.5 -32.6 5.85 -33.4 1.2 -31.1 -2.75 -28.85 -6.75 -23.7 -7.25 -18.05 -7.75 -15.2 -5.0 -13.1 -3.65 -12.3 -0.1 L-12.1 0.95" fill="none" stroke="#512314" stroke-linecap="round" stroke-linejoin="round" stroke-width="4.0"/>
  </g>
</svg>
