<?xml version="1.0" encoding="UTF-8" standalone="no"?>
<svg xmlns:xlink="http://www.w3.org/1999/xlink" height="109.15px" width="209.05px" xmlns="http://www.w3.org/2000/svg">
  <g transform="matrix(1.0, 0.0, 0.0, 1.0, 107.8, 48.35)">
    <path d="M70.45 -48.35 Q71.45 -38.5 73.65 -28.8 75.6 -20.05 75.4 -10.85 75.25 -3.9 73.9 2.65 73.65 3.95 72.65 4.9 67.2 18.35 62.4 32.3 60.1 38.95 58.3 45.75 56.55 47.25 55.05 45.5 55.45 38.35 58.0 31.5 L61.15 22.95 Q62.7 18.6 64.55 14.4 L65.15 13.6 65.4 13.25 Q68.4 5.65 70.45 -2.25 L71.05 -5.85 Q72.55 -20.8 68.65 -35.05 66.9 -41.6 66.5 -48.35 L70.45 -48.35 M91.6 -48.35 L91.35 -47.6 Q89.25 -41.65 88.1 -35.35 85.55 -20.9 82.1 -6.75 81.25 -3.35 80.75 0.25 81.85 9.2 85.5 17.55 L85.65 18.25 Q90.25 32.3 95.25 46.15 95.65 47.15 94.55 47.45 91.55 48.25 90.95 45.2 90.55 43.15 89.6 41.2 88.4 38.75 87.6 36.15 83.75 23.65 79.0 11.4 74.65 -2.65 80.05 -16.5 L80.55 -18.3 86.6 -46.7 87.0 -48.35 91.6 -48.35 M-89.0 -48.35 L-85.3 -48.35 Q-84.55 -47.05 -84.45 -45.15 -84.1 -37.85 -82.05 -30.9 -77.9 -16.8 -74.25 -2.65 -73.85 -1.05 -74.1 0.6 -75.3 8.35 -79.85 14.9 L-89.25 36.9 Q-89.5 37.45 -90.2 37.4 -91.3 37.35 -91.95 36.5 -92.05 31.3 -89.4 26.55 -88.15 24.3 -87.25 21.85 -85.75 17.95 -83.7 14.4 L-80.6 7.65 -80.45 7.25 -80.1 6.9 -79.7 6.5 Q-75.5 -3.0 -80.55 -12.45 L-82.1 -16.0 Q-86.75 -29.7 -88.85 -44.05 -89.2 -46.2 -89.0 -48.35 M-61.55 -48.35 L-57.55 -48.35 Q-60.55 -34.25 -63.95 -20.0 L-65.65 -12.7 Q-67.0 -6.4 -67.55 0.15 -68.15 7.6 -65.75 14.5 -64.55 17.9 -63.8 21.4 -62.6 27.25 -61.0 33.05 -59.8 37.35 -60.35 41.7 -60.5 42.9 -61.7 42.9 -62.8 42.85 -63.45 42.0 -66.6 28.15 -69.9 14.35 -70.8 10.55 -71.2 6.7 -72.0 -0.75 -70.65 -7.9 -68.55 -18.8 -65.8 -29.55 -64.25 -35.35 -63.0 -41.25 L-61.55 -48.35" fill="#fbe8dd" fill-rule="evenodd" stroke="none"/>
    <path d="M66.5 -48.35 Q66.9 -41.6 68.65 -35.05 72.55 -20.8 71.05 -5.85 L70.45 -2.25 Q68.4 5.65 65.4 13.25 L65.15 13.6 64.55 14.4 Q62.7 18.6 61.15 22.95 L58.0 31.5 Q55.45 38.35 55.05 45.5 56.55 47.25 58.3 45.75 60.1 38.95 62.4 32.3 67.2 18.35 72.65 4.9 73.65 3.95 73.9 2.65 75.25 -3.9 75.4 -10.85 75.6 -20.05 73.65 -28.8 71.45 -38.5 70.45 -48.35 L87.0 -48.35 86.6 -46.7 80.55 -18.3 80.05 -16.5 Q74.65 -2.65 79.0 11.4 83.75 23.65 87.6 36.15 88.4 38.75 89.6 41.2 90.55 43.15 90.95 45.2 91.55 48.25 94.55 47.45 95.65 47.15 95.25 46.15 90.25 32.3 85.65 18.25 L85.5 17.55 Q81.85 9.2 80.75 0.25 81.25 -3.35 82.1 -6.75 85.55 -20.9 88.1 -35.35 89.25 -41.65 91.35 -47.6 L91.6 -48.35 101.25 -48.35 101.25 -32.2 Q98.9 -27.05 96.1 -21.95 90.55 -12.0 88.25 -2.65 86.5 4.6 90.95 12.0 95.75 20.0 100.05 29.2 L101.25 31.8 101.25 58.4 Q98.25 57.5 93.8 54.1 93.6 57.3 91.6 58.85 84.3 64.5 79.8 53.6 80.1 55.55 79.15 56.85 78.0 58.45 76.4 59.0 69.2 61.45 66.25 54.6 66.0 58.35 62.6 58.85 53.25 60.15 52.8 51.1 52.1 56.45 46.45 55.85 36.85 54.85 42.0 42.95 L48.85 27.6 Q52.1 20.45 56.5 15.0 60.85 9.5 62.25 1.2 63.65 -7.15 55.45 -22.4 47.6 -37.0 45.6 -48.35 L66.5 -48.35 M-89.0 -48.35 Q-89.2 -46.2 -88.85 -44.05 -86.75 -29.7 -82.1 -16.0 L-80.55 -12.45 Q-75.5 -3.0 -79.7 6.5 L-80.1 6.9 -80.45 7.25 -80.6 7.65 -83.7 14.4 Q-85.75 17.95 -87.25 21.85 -88.15 24.3 -89.4 26.55 -92.05 31.3 -91.95 36.5 -91.3 37.35 -90.2 37.4 -89.5 37.45 -89.25 36.9 L-79.85 14.9 Q-75.3 8.35 -74.1 0.6 -73.85 -1.05 -74.25 -2.65 -77.9 -16.8 -82.05 -30.9 -84.1 -37.85 -84.45 -45.15 -84.55 -47.05 -85.3 -48.35 L-61.55 -48.35 -63.0 -41.25 Q-64.25 -35.35 -65.8 -29.55 -68.55 -18.8 -70.65 -7.9 -72.0 -0.75 -71.2 6.7 -70.8 10.55 -69.9 14.35 -66.6 28.15 -63.45 42.0 -62.8 42.85 -61.7 42.9 -60.5 42.9 -60.35 41.7 -59.8 37.35 -61.0 33.05 -62.6 27.25 -63.8 21.4 -64.55 17.9 -65.75 14.5 -68.15 7.6 -67.55 0.15 -67.0 -6.4 -65.65 -12.7 L-63.95 -20.0 Q-60.55 -34.25 -57.55 -48.35 L-41.35 -48.35 Q-45.3 -35.8 -51.9 -23.9 -57.45 -13.95 -59.75 -4.6 -61.5 2.65 -57.05 10.05 -52.25 18.05 -47.95 27.25 L-41.25 41.8 Q-38.55 47.75 -41.1 54.0 -43.7 60.25 -54.2 52.15 -54.4 55.35 -56.4 56.9 -63.7 62.55 -68.2 51.65 -67.9 53.6 -68.85 54.9 -70.0 56.5 -71.6 57.05 -78.8 59.5 -81.75 52.65 -82.0 56.4 -85.4 56.9 -94.75 58.2 -95.2 49.15 -95.9 54.5 -101.55 53.9 -111.15 52.9 -106.0 41.0 L-99.15 25.65 Q-95.9 18.5 -91.5 13.05 -87.15 7.55 -85.75 -0.75 -84.35 -9.1 -92.55 -24.35 -99.75 -37.7 -102.0 -48.35 L-89.0 -48.35" fill="#ffffff" fill-rule="evenodd" stroke="none"/>
  </g>
</svg>
