<?xml version="1.0" encoding="UTF-8" standalone="no"?>
<svg xmlns:xlink="http://www.w3.org/1999/xlink" height="25.45px" width="79.8px" xmlns="http://www.w3.org/2000/svg">
  <g transform="matrix(1.0, 0.0, 0.0, 1.0, 39.9, 12.75)">
    <path d="M39.75 -9.05 Q40.4 -4.75 38.6 -0.85 36.8 3.05 33.3 5.4 29.8 7.75 24.8 7.9 19.8 8.0 16.15 5.55 12.45 3.05 11.55 -0.9 10.6 -4.9 9.9 -9.4 L9.9 -9.45 Q17.8 -11.15 22.45 -11.55 L33.25 -12.65 Q39.1 -13.4 39.75 -9.05 M-38.35 -2.15 Q-37.45 -3.1 -36.1 -3.3 L-13.25 -6.75 Q-9.9 -5.95 -9.65 -2.35 -9.25 2.45 -11.95 6.55 L-13.05 8.05 Q-16.0 11.9 -20.85 12.5 -28.7 13.5 -34.9 9.15 L-36.7 7.5 Q-37.95 6.1 -38.3 4.25 -41.5 1.1 -38.35 -2.15" fill="#333333" fill-rule="evenodd" stroke="none"/>
  </g>
</svg>
