<?xml version="1.0" encoding="UTF-8" standalone="no"?>
<svg xmlns:xlink="http://www.w3.org/1999/xlink" height="30.25px" width="100.05px" xmlns="http://www.w3.org/2000/svg">
  <g transform="matrix(1.0, 0.0, 0.0, 1.0, 47.0, 33.0)">
    <path d="M35.5 -27.3 Q36.15 -23.0 34.35 -19.1 32.55 -15.2 29.05 -12.85 25.55 -10.5 20.55 -10.35 15.55 -10.25 11.9 -12.7 8.2 -15.2 7.3 -19.15 6.35 -23.15 5.65 -27.65 L5.65 -27.7 Q13.55 -29.4 18.2 -29.8 L29.0 -30.9 Q34.85 -31.65 35.5 -27.3 M36.2 -24.4 Q41.05 -24.4 46.25 -25.55 51.4 -26.7 51.0 -22.45 L50.7 -20.3 M-14.55 -25.4 L-25.65 -24.5 -36.15 -22.95 Q-42.3 -22.1 -43.65 -21.45 -45.0 -20.8 -45.0 -19.0 L-44.8 -16.35 -44.1 -14.15 Q-43.7 -12.85 -41.05 -9.85 -38.45 -6.85 -35.9 -5.75 -33.35 -4.65 -27.75 -4.75 -22.2 -4.9 -18.15 -8.1 -14.1 -11.3 -13.6 -16.15 -13.25 -19.2 -13.45 -21.9 -13.55 -23.75 -13.9 -25.4 M-13.45 -21.9 L-4.1 -23.45 Q-0.15 -23.95 4.45 -23.65" fill="none" stroke="#512314" stroke-linecap="round" stroke-linejoin="round" stroke-width="4.0"/>
  </g>
</svg>
