<?xml version="1.0" encoding="UTF-8" standalone="no"?>
<svg xmlns:xlink="http://www.w3.org/1999/xlink" height="35.15px" width="102.25px" xmlns="http://www.w3.org/2000/svg">
  <g transform="matrix(1.0, 0.0, 0.0, 1.0, 51.15, 17.55)">
    <path d="M-16.65 -1.7 Q-17.3 0.15 -18.65 2.25 L-20.5 5.0 Q-24.05 10.0 -28.25 14.6 -31.4 18.0 -37.1 13.75 -41.0 10.8 -44.4 6.85 L-44.55 6.6 -48.05 1.95 Q-51.75 -3.55 -46.9 -8.55 L-44.4 -10.65 Q-38.25 -14.7 -32.45 -7.1 -32.4 -9.05 -28.25 -11.25 -23.95 -13.5 -20.65 -11.5 -16.7 -9.1 -16.25 -5.6 -16.0 -3.8 -16.65 -1.7 -16.0 -3.8 -16.25 -5.6 L-15.6 -5.7 Q-10.45 -9.55 -2.75 -7.4 -2.35 -9.85 -0.1 -12.15 1.15 -13.45 2.4 -14.25 8.55 -18.3 14.35 -10.7 14.4 -12.65 18.55 -14.85 22.85 -17.1 26.15 -15.1 30.35 -12.5 30.6 -8.65 35.05 -12.35 40.8 -11.25 L45.1 -10.25 Q47.65 -9.6 49.25 -3.4 50.85 2.75 44.8 -0.8 42.0 -4.7 40.8 -4.95 35.5 -6.15 32.0 -4.55 L30.6 -8.65 Q30.75 -6.3 29.35 -3.4 L28.15 -1.35 26.3 1.4 26.25 1.45 Q22.75 6.4 18.55 11.0 15.4 14.4 9.7 10.15 L8.6 9.3 3.85 4.85 2.4 3.25 1.5 2.1 -1.25 -1.65 -1.9 -2.8 -2.05 -3.0 Q-3.1 -5.25 -2.75 -7.4 -3.1 -5.25 -2.05 -3.0 -9.35 -4.45 -16.65 -1.7 M-40.75 3.5 Q-37.95 7.0 -32.1 10.0 -26.7 5.6 -24.3 2.35 -20.25 -3.15 -24.45 -5.6 -27.7 -5.9 -29.6 -4.15 -31.45 -2.4 -31.95 1.4 -39.0 -7.95 -43.25 -4.1 -43.55 -0.05 -40.75 3.5 M5.4 -1.0 Q7.45 2.1 11.95 4.85 L13.3 5.65 14.7 6.4 Q20.1 2.0 22.5 -1.25 26.55 -6.75 22.35 -9.2 19.1 -9.5 17.2 -7.75 15.35 -6.0 14.85 -2.2 7.8 -11.55 3.55 -7.7 3.3 -4.15 5.4 -1.0" fill="#fe8f8f" fill-rule="evenodd" stroke="none"/>
    <path d="M-40.75 3.5 Q-43.55 -0.05 -43.25 -4.1 -39.0 -7.95 -31.95 1.4 -31.45 -2.4 -29.6 -4.15 -27.7 -5.9 -24.45 -5.6 -20.25 -3.15 -24.3 2.35 -26.7 5.6 -32.1 10.0 -37.95 7.0 -40.75 3.5 M5.4 -1.0 Q3.3 -4.15 3.55 -7.7 7.8 -11.55 14.85 -2.2 15.35 -6.0 17.2 -7.75 19.1 -9.5 22.35 -9.2 26.55 -6.75 22.5 -1.25 20.1 2.0 14.7 6.4 L13.3 5.65 11.95 4.85 Q7.45 2.1 5.4 -1.0" fill="#ffffff" fill-rule="evenodd" stroke="none"/>
    <path d="M-16.25 -5.6 Q-16.7 -9.1 -20.65 -11.5 -23.95 -13.5 -28.25 -11.25 -32.4 -9.05 -32.45 -7.1 -38.25 -14.7 -44.4 -10.65 L-46.9 -8.55 Q-51.75 -3.55 -48.05 1.95 L-44.55 6.6 -44.4 6.85 Q-41.0 10.8 -37.1 13.75 -31.4 18.0 -28.25 14.6 -24.05 10.0 -20.5 5.0 L-18.65 2.25 Q-17.3 0.15 -16.65 -1.7 -16.0 -3.8 -16.25 -5.6 M-15.6 -5.7 Q-10.45 -9.55 -2.75 -7.4 -2.35 -9.85 -0.1 -12.15 1.15 -13.45 2.4 -14.25 8.55 -18.3 14.35 -10.7 14.4 -12.65 18.55 -14.85 22.85 -17.1 26.15 -15.1 30.35 -12.5 30.6 -8.65 35.05 -12.35 40.8 -11.25 L45.1 -10.25 Q47.65 -9.6 49.25 -3.4 50.85 2.75 44.8 -0.8 42.0 -4.7 40.8 -4.95 35.5 -6.15 32.0 -4.55 L29.85 -3.2 M-40.75 3.5 Q-37.95 7.0 -32.1 10.0 -26.7 5.6 -24.3 2.35 -20.25 -3.15 -24.45 -5.6 -27.7 -5.9 -29.6 -4.15 -31.45 -2.4 -31.95 1.4 -39.0 -7.95 -43.25 -4.1 -43.55 -0.05 -40.75 3.5 M-2.05 -3.0 L-1.9 -2.8 -1.25 -1.65 1.5 2.1 2.4 3.25 3.85 4.85 8.6 9.3 9.7 10.15 Q15.4 14.4 18.55 11.0 22.75 6.4 26.25 1.45 L26.3 1.4 28.15 -1.35 29.35 -3.4 Q30.75 -6.3 30.6 -8.65 M5.4 -1.0 Q7.45 2.1 11.95 4.85 L13.3 5.65 14.7 6.4 Q20.1 2.0 22.5 -1.25 26.55 -6.75 22.35 -9.2 19.1 -9.5 17.2 -7.75 15.35 -6.0 14.85 -2.2 7.8 -11.55 3.55 -7.7 3.3 -4.15 5.4 -1.0 M-2.75 -7.4 Q-3.1 -5.25 -2.05 -3.0 -9.35 -4.45 -16.65 -1.7" fill="none" stroke="#512314" stroke-linecap="round" stroke-linejoin="round" stroke-width="3.0"/>
  </g>
</svg>
