<?xml version="1.0" encoding="UTF-8" standalone="no"?>
<svg xmlns:xlink="http://www.w3.org/1999/xlink" height="30.7px" width="47.35px" xmlns="http://www.w3.org/2000/svg">
  <g transform="matrix(1.0, 0.0, 0.0, 1.0, 35.85, 26.1)">
    <path d="M8.9 -19.85 L8.15 -19.75 Q7.3 -19.75 6.7 -20.35 6.15 -20.9 6.15 -21.75 6.15 -22.6 6.7 -23.2 L6.75 -23.2 Q7.3 -23.75 8.15 -23.75 9.0 -23.75 9.55 -23.2 10.15 -22.6 10.15 -21.75 10.15 -20.9 9.55 -20.35 L9.05 -19.95 8.9 -19.85 M8.95 -18.4 L9.8 -17.95 Q10.4 -17.35 10.4 -16.5 10.4 -15.65 9.8 -15.1 L9.3 -14.7 8.65 -14.5 8.4 -14.5 Q7.55 -14.5 6.95 -15.1 6.4 -15.65 6.4 -16.5 6.4 -17.35 6.95 -17.95 L7.0 -17.95 Q7.55 -18.5 8.4 -18.5 L8.95 -18.4 M8.35 -12.95 Q8.9 -12.85 9.3 -12.45 9.9 -11.85 9.9 -11.0 9.9 -10.15 9.3 -9.6 L8.8 -9.2 7.9 -9.0 7.5 -9.05 Q6.9 -9.15 6.45 -9.6 5.9 -10.15 5.9 -11.0 5.9 -11.85 6.45 -12.45 L6.5 -12.45 Q7.05 -13.0 7.9 -13.0 L8.35 -12.95 M7.1 -7.5 Q7.8 -7.45 8.3 -6.95 8.9 -6.35 8.9 -5.5 8.9 -4.65 8.3 -4.1 L7.8 -3.7 6.9 -3.5 6.1 -3.65 Q5.75 -3.8 5.45 -4.1 4.9 -4.65 4.9 -5.5 4.9 -6.35 5.45 -6.95 L5.5 -6.95 Q6.05 -7.5 6.9 -7.5 L7.1 -7.5 M5.25 -2.0 L5.3 -1.95 Q5.9 -1.35 5.9 -0.5 5.9 0.35 5.3 0.9 L4.8 1.3 3.9 1.5 Q3.05 1.5 2.45 0.9 L2.25 0.65 Q1.9 0.15 1.9 -0.5 1.9 -1.35 2.45 -1.95 L2.5 -1.95 Q3.05 -2.5 3.9 -2.5 4.7 -2.5 5.25 -2.0 M1.15 1.1 L1.15 1.5 Q1.15 2.35 0.55 2.9 L0.05 3.3 -0.85 3.5 Q-1.7 3.5 -2.3 2.9 -2.75 2.45 -2.8 1.85 L-2.85 1.5 Q-2.85 0.65 -2.3 0.05 L-2.25 0.05 Q-1.7 -0.5 -0.85 -0.5 0.0 -0.5 0.55 0.05 1.0 0.5 1.15 1.1 M-5.1 1.55 L-5.45 1.8 -6.35 2.0 Q-7.2 2.0 -7.8 1.4 -8.35 0.85 -8.35 0.0 -8.35 -0.85 -7.8 -1.45 L-7.75 -1.45 Q-7.2 -2.0 -6.35 -2.0 -5.5 -2.0 -4.95 -1.45 -4.35 -0.85 -4.35 0.0 -4.35 0.85 -4.95 1.4 L-5.1 1.55 M-10.2 -1.55 L-11.1 -1.35 Q-11.8 -1.35 -12.35 -1.75 L-12.55 -1.95 Q-13.1 -2.5 -13.1 -3.35 -13.1 -4.2 -12.55 -4.8 L-12.5 -4.8 -12.35 -4.95 Q-11.8 -5.35 -11.1 -5.35 -10.25 -5.35 -9.7 -4.8 -9.1 -4.2 -9.1 -3.35 -9.1 -2.5 -9.7 -1.95 L-10.2 -1.55" fill="#cccccc" fill-rule="evenodd" stroke="none"/>
    <path d="M-13.0 -5.95 L-13.9 -5.0 Q-17.4 -1.6 -22.35 -1.6 -27.3 -1.6 -30.85 -5.0 -34.35 -8.35 -34.35 -13.1 -34.35 -17.85 -30.85 -21.25 -27.3 -24.6 -22.35 -24.6 -17.4 -24.6 -13.9 -21.25 L-12.35 -19.45 Q-10.35 -16.65 -10.35 -13.1 -10.35 -9.55 -12.35 -6.75 L-13.0 -5.95" fill="none" stroke="#512314" stroke-linecap="round" stroke-linejoin="round" stroke-width="3.0"/>
    <path d="M8.9 -19.85 L8.15 -19.75 Q7.3 -19.75 6.7 -20.35 6.15 -20.9 6.15 -21.75 6.15 -22.6 6.7 -23.2 L6.75 -23.2 Q7.3 -23.75 8.15 -23.75 9.0 -23.75 9.55 -23.2 10.15 -22.6 10.15 -21.75 10.15 -20.9 9.55 -20.35 L9.05 -19.95 8.9 -19.85 8.95 -18.4 9.8 -17.95 Q10.4 -17.35 10.4 -16.5 10.4 -15.65 9.8 -15.1 L9.3 -14.7 8.65 -14.5 8.45 -13.4 8.35 -12.95 Q8.9 -12.85 9.3 -12.45 9.9 -11.85 9.9 -11.0 9.9 -10.15 9.3 -9.6 L8.8 -9.2 7.9 -9.0 7.5 -9.05 7.1 -7.5 Q7.8 -7.45 8.3 -6.95 8.9 -6.35 8.9 -5.5 8.9 -4.65 8.3 -4.1 L7.8 -3.7 6.9 -3.5 6.1 -3.65 5.25 -2.0 5.3 -1.95 Q5.9 -1.35 5.9 -0.5 5.9 0.35 5.3 0.9 L4.8 1.3 3.9 1.5 Q3.05 1.5 2.45 0.9 L2.25 0.65 1.15 1.1 1.15 1.5 Q1.15 2.35 0.55 2.9 L0.05 3.3 -0.85 3.5 Q-1.7 3.5 -2.3 2.9 -2.75 2.45 -2.8 1.85 L-5.1 1.55 -5.45 1.8 -6.35 2.0 Q-7.2 2.0 -7.8 1.4 -8.35 0.85 -8.35 0.0 L-10.2 -1.55 -11.1 -1.35 Q-11.8 -1.35 -12.35 -1.75 L-12.55 -1.95 Q-13.1 -2.5 -13.1 -3.35 -13.1 -4.2 -12.55 -4.8 L-12.5 -4.8 -13.0 -5.95 M8.65 -14.5 L8.4 -14.5 Q7.55 -14.5 6.95 -15.1 6.4 -15.65 6.4 -16.5 6.4 -17.35 6.95 -17.95 L7.0 -17.95 Q7.55 -18.5 8.4 -18.5 L8.95 -18.4 M7.5 -9.05 Q6.9 -9.15 6.45 -9.6 5.9 -10.15 5.9 -11.0 5.9 -11.85 6.45 -12.45 L6.5 -12.45 Q7.05 -13.0 7.9 -13.0 L8.35 -12.95 M6.1 -3.65 Q5.75 -3.8 5.45 -4.1 4.9 -4.65 4.9 -5.5 4.9 -6.35 5.45 -6.95 L5.5 -6.95 Q6.05 -7.5 6.9 -7.5 L7.1 -7.5 M2.25 0.65 Q1.9 0.15 1.9 -0.5 1.9 -1.35 2.45 -1.95 L2.5 -1.95 Q3.05 -2.5 3.9 -2.5 4.7 -2.5 5.25 -2.0 M-2.8 1.85 L-2.85 1.5 Q-2.85 0.65 -2.3 0.05 L-2.25 0.05 Q-1.7 -0.5 -0.85 -0.5 0.0 -0.5 0.55 0.05 1.0 0.5 1.15 1.1 M-12.5 -4.8 L-12.35 -4.95 Q-11.8 -5.35 -11.1 -5.35 -10.25 -5.35 -9.7 -4.8 -9.1 -4.2 -9.1 -3.35 -9.1 -2.5 -9.7 -1.95 L-10.2 -1.55 M-8.35 0.0 Q-8.35 -0.85 -7.8 -1.45 L-7.75 -1.45 Q-7.2 -2.0 -6.35 -2.0 -5.5 -2.0 -4.95 -1.45 -4.35 -0.85 -4.35 0.0 -4.35 0.85 -4.95 1.4 L-5.1 1.55" fill="none" stroke="#512314" stroke-linecap="round" stroke-linejoin="round" stroke-width="2.25"/>
  </g>
</svg>
