<?xml version="1.0" encoding="UTF-8" standalone="no"?>
<svg xmlns:xlink="http://www.w3.org/1999/xlink" height="9.35px" width="174.25px" xmlns="http://www.w3.org/2000/svg">
  <g transform="matrix(1.0, 0.0, 0.0, 1.0, -442.45, -43.85)">
    <path d="M594.75 46.6 L602.75 46.6 605.1 46.5 613.8 45.6 Q617.65 46.4 616.4 49.95 615.7 51.95 613.55 52.1 L603.05 53.05 595.45 52.8 593.2 52.4 Q591.8 52.1 591.15 51.4 590.25 50.6 590.4 48.95 590.55 46.55 592.9 46.2 L593.3 46.1 594.75 46.6 M465.9 44.45 Q467.25 44.5 467.8 45.75 469.25 48.9 465.85 50.2 L462.7 50.8 457.95 51.2 Q450.25 52.45 443.55 49.15 442.75 48.75 442.55 47.85 441.95 44.4 445.5 43.85 452.2 46.05 459.3 44.85 L465.9 44.45" fill="#fe8f8f" fill-rule="evenodd" stroke="none"/>
  </g>
</svg>
