<?xml version="1.0" encoding="UTF-8" standalone="no"?>
<svg xmlns:xlink="http://www.w3.org/1999/xlink" height="235.15px" width="205.6px" xmlns="http://www.w3.org/2000/svg">
  <g transform="matrix(1.0, 0.0, 0.0, 1.0, 48.0, 123.55)">
    <path d="M112.15 -91.6 Q113.9 -78.3 107.3 -68.3 110.4 -73.55 111.55 -80.55 112.5 -86.1 112.15 -91.6 M128.75 -1.35 Q128.6 -2.35 128.35 -1.95 L128.2 -1.75 128.35 -2.1 128.8 -3.05 128.75 -2.95 128.75 -1.35 M126.8 -0.85 L126.15 -0.65 124.9 -0.75 Q119.9 -2.1 116.8 -5.7 114.65 -8.2 112.65 -10.8 110.2 -17.1 110.5 -23.9 110.75 -30.65 116.4 -35.05 120.75 -38.6 126.75 -40.2 L130.05 -40.85 Q144.15 -40.15 148.7 -28.7 150.4 -24.3 148.7 -19.8 145.45 -11.3 134.7 -10.95 124.2 -10.7 121.0 -19.15 120.65 -20.05 120.6 -21.0 120.1 -28.45 128.0 -30.95 131.65 -32.15 134.6 -30.45 136.95 -29.1 137.95 -26.85 140.35 -21.25 133.75 -19.7 130.65 -18.95 130.45 -21.5 L130.55 -22.3 131.15 -22.8 Q132.3 -23.6 133.9 -23.65 L134.0 -23.8 Q134.35 -24.15 134.15 -24.65 L133.3 -26.3 132.5 -27.3 Q126.55 -28.35 125.15 -23.75 123.85 -19.6 127.4 -16.45 134.15 -13.0 141.15 -16.8 142.7 -17.65 143.5 -19.15 147.35 -26.4 141.25 -32.55 137.8 -36.05 132.45 -36.7 128.65 -37.15 125.2 -35.75 120.4 -33.8 117.6 -30.05 114.65 -26.1 114.75 -21.3 114.8 -17.8 116.05 -14.55 118.3 -8.8 124.3 -5.15 L124.75 -5.15 Q125.6 -3.7 128.1 -1.65 L128.15 -1.6 128.1 -1.6 Q127.6 -1.9 127.3 -1.05 127.6 -1.9 128.1 -1.6 L127.3 -1.05 126.8 -0.85" fill="#ecb4ac" fill-rule="evenodd" stroke="none"/>
    <path d="M-46.5 -6.8 Q-29.85 -7.3 -22.85 -7.1 L12.75 -6.15 Q29.8 -5.65 46.9 -5.85 64.0 -6.1 69.7 -4.45 75.35 -2.85 77.0 -2.6 75.1 4.75 73.55 12.2 71.55 21.85 71.35 32.1 L63.55 32.2 30.6 33.9 -1.15 35.75 -36.45 36.7 -46.5 36.8 -46.5 -6.8" fill="#f0c4bd" fill-rule="evenodd" stroke="none"/>
    <path d="M77.0 -2.6 L80.0 -13.7 Q83.95 -27.3 93.6 -38.7 95.85 -41.4 98.4 -43.7 L99.65 -44.8 Q107.7 -51.65 118.1 -54.6 L121.5 -55.4 Q129.75 -56.95 136.65 -54.2 132.9 -55.4 128.5 -55.6 L121.5 -55.4 128.5 -55.6 Q132.9 -55.4 136.65 -54.2 141.25 -52.4 145.3 -48.6 152.0 -42.25 154.75 -33.85 156.05 -29.95 156.45 -25.55 156.95 -20.1 155.6 -15.85 156.1 -18.2 156.1 -21.0 156.15 -27.85 154.75 -33.85 156.15 -27.85 156.1 -21.0 156.1 -18.2 155.6 -15.85 153.0 -8.05 143.95 -4.4 135.15 -0.85 128.75 -2.95 L128.8 -3.05 128.35 -2.1 128.2 -1.75 128.15 -1.6 128.1 -1.65 Q125.6 -3.7 124.75 -5.15 L124.3 -5.15 Q118.3 -8.8 116.05 -14.55 114.8 -17.8 114.75 -21.3 114.65 -26.1 117.6 -30.05 120.4 -33.8 125.2 -35.75 128.65 -37.15 132.45 -36.7 137.8 -36.05 141.25 -32.55 147.35 -26.4 143.5 -19.15 142.7 -17.65 141.15 -16.8 134.15 -13.0 127.4 -16.45 123.85 -19.6 125.15 -23.75 126.55 -28.35 132.5 -27.3 L133.3 -26.3 134.15 -24.65 Q134.35 -24.15 134.0 -23.8 L133.9 -23.65 Q132.3 -23.6 131.15 -22.8 L130.55 -22.3 130.45 -21.5 Q130.65 -18.95 133.75 -19.7 140.35 -21.25 137.95 -26.85 136.95 -29.1 134.6 -30.45 131.65 -32.15 128.0 -30.95 120.1 -28.45 120.6 -21.0 120.65 -20.05 121.0 -19.15 124.2 -10.7 134.7 -10.95 145.45 -11.3 148.7 -19.8 150.4 -24.3 148.7 -28.7 144.15 -40.15 130.05 -40.85 L126.75 -40.2 Q120.75 -38.6 116.4 -35.05 110.75 -30.65 110.5 -23.9 110.2 -17.1 112.65 -10.8 114.65 -8.2 116.8 -5.7 119.9 -2.1 124.9 -0.75 L126.15 -0.65 126.8 -0.85 Q125.7 1.25 125.4 4.85 L125.1 9.55 124.85 12.95 Q124.4 22.8 126.1 32.4 127.6 40.85 129.65 48.95 131.8 57.6 132.65 66.55 133.35 73.6 131.85 79.15 133.35 73.6 132.65 66.55 131.8 57.6 129.65 48.95 127.6 40.85 126.1 32.4 124.4 22.8 124.85 12.95 L125.1 9.55 Q124.5 22.25 126.75 33.2 129.45 46.65 132.75 59.9 135.25 70.1 131.85 79.15 130.65 82.35 128.7 85.45 125.2 90.95 118.65 93.8 L115.9 94.8 112.05 95.85 106.15 96.7 Q101.65 97.05 97.85 96.7 L96.7 96.55 Q86.05 95.2 81.25 87.7 76.55 80.35 74.35 71.55 76.25 73.65 77.0 77.3 78.65 85.5 84.3 90.7 89.8 95.75 98.0 96.0 L97.85 96.7 98.0 96.0 Q89.8 95.75 84.3 90.7 78.65 85.5 77.0 77.3 76.25 73.65 74.35 71.55 L73.85 69.45 73.15 65.8 73.75 65.75 Q72.15 55.3 71.45 39.75 71.25 35.85 71.35 32.1 71.55 21.85 73.55 12.2 75.1 4.75 77.0 -2.6 M128.1 -1.6 L128.15 -1.6 128.05 -1.3 128.1 -1.6 M118.65 93.8 L118.35 93.85 Q117.0 94.2 115.9 94.8 117.0 94.2 118.35 93.85 L118.65 93.8 M98.0 96.0 L98.5 96.0 98.0 96.0" fill="#f3cfcb" fill-rule="evenodd" stroke="none"/>
    <path d="M96.7 96.55 L97.85 96.7 Q101.65 97.05 106.15 96.7 L112.05 95.85 Q110.35 100.45 109.95 107.65 L109.95 108.35 109.5 108.7 107.95 109.55 105.95 110.1 Q102.85 110.6 99.9 109.25 L99.7 107.3 99.45 105.9 Q99.1 104.1 99.2 102.35 99.4 100.1 98.3 98.9 98.1 98.25 97.7 97.75 L96.6 96.85 96.7 96.55 M105.95 110.1 L105.05 110.0 Q101.55 109.55 99.7 107.3 101.55 109.55 105.05 110.0 L105.95 110.1 M109.95 107.65 L109.5 108.7 109.95 107.65 M97.85 96.7 L97.7 97.75 97.85 96.7" fill="#d9bea6" fill-rule="evenodd" stroke="none"/>
    <path d="M-46.5 -6.8 L-46.5 -105.95 -21.8 -106.8 9.8 -108.4 Q25.35 -109.15 41.35 -113.2 57.35 -117.3 74.45 -120.6 91.5 -123.9 101.2 -115.0 109.8 -107.1 112.0 -92.4 L112.15 -91.6 Q112.5 -86.1 111.55 -80.55 110.4 -73.55 107.3 -68.3 L106.1 -66.55 Q98.5 -56.5 98.4 -43.7 95.85 -41.4 93.6 -38.7 83.95 -27.3 80.0 -13.7 L77.0 -2.6 Q75.35 -2.85 69.7 -4.45 64.0 -6.1 46.9 -5.85 29.8 -5.65 12.75 -6.15 L-22.85 -7.1 Q-29.85 -7.3 -46.5 -6.8 M-46.5 36.8 L-36.45 36.7 -1.15 35.75 30.6 33.9 63.55 32.2 71.35 32.1 Q71.25 35.85 71.45 39.75 72.15 55.3 73.75 65.75 L73.15 65.8 73.85 69.45 71.55 69.5 53.3 69.8 51.35 69.85 48.65 69.95 48.6 69.95 41.6 70.15 41.05 70.2 21.75 71.25 21.45 71.3 17.2 71.6 -32.6 73.8 -45.4 74.0 -45.95 74.0 -46.5 74.0 -46.5 36.8 M51.35 69.85 L60.2 69.0 63.9 68.6 64.05 68.6 64.25 68.55 64.35 68.55 64.65 68.55 64.8 68.5 67.4 68.5 70.15 68.95 Q70.85 69.15 71.55 69.5 70.85 69.15 70.15 68.95 L67.4 68.5 64.8 68.5 64.65 68.55 64.35 68.55 64.25 68.55 64.05 68.6 63.9 68.6 60.2 69.0 51.35 69.85" fill="#eaa89f" fill-rule="evenodd" stroke="none"/>
    <path d="M-46.5 -105.95 L-32.5 -106.75 -13.55 -107.9 5.45 -109.2 24.0 -110.7 Q33.55 -111.8 41.55 -113.8 L57.7 -117.7 74.05 -121.25 Q83.85 -123.15 91.55 -120.65 98.9 -118.25 104.2 -112.7 109.15 -107.5 111.05 -99.0 111.85 -95.3 112.15 -91.6 M107.3 -68.3 L105.85 -66.1 Q101.6 -60.3 99.55 -51.6 98.45 -46.85 99.0 -45.0 M107.3 -68.3 Q110.4 -73.55 111.55 -80.55 112.5 -86.1 112.15 -91.6" fill="none" stroke="#e06d6d" stroke-linecap="round" stroke-linejoin="round" stroke-width="3.0"/>
    <path d="M121.5 -55.4 L128.5 -55.6 Q132.9 -55.4 136.65 -54.2 140.5 -53.0 143.7 -50.8 150.9 -45.9 153.45 -38.5 L154.75 -33.85 Q156.15 -27.85 156.1 -21.0 156.1 -18.2 155.6 -15.85 154.4 -10.45 150.5 -7.45 144.45 -2.75 135.1 -1.6 L128.75 -1.35 M128.15 -1.6 L128.4 -1.4 M128.15 -1.6 L128.1 -1.6 M128.05 -1.3 L128.15 -1.6 M125.1 9.55 Q125.65 3.6 127.3 -1.05 127.6 -1.9 128.1 -1.6 M99.65 -44.8 Q103.4 -49.35 110.9 -52.7 115.65 -54.8 121.5 -55.4 M51.35 69.85 L44.5 70.35 26.0 71.9 7.4 73.6 -11.6 74.55 -30.5 74.95 -46.5 75.25 M125.1 9.55 L124.85 12.95 Q124.4 22.8 126.1 32.4 127.6 40.85 129.65 48.95 131.8 57.6 132.65 66.55 133.35 73.6 131.85 79.15 131.15 81.75 130.0 84.0 126.1 91.65 118.65 93.8 M97.85 96.7 L98.0 96.0 Q89.8 95.75 84.3 90.7 78.65 85.5 77.0 77.3 76.25 73.65 74.35 71.55 73.15 70.2 71.55 69.5 70.85 69.15 70.15 68.95 L67.4 68.5 64.8 68.5 64.65 68.55 64.35 68.55 64.25 68.55 64.05 68.6 63.9 68.6 60.2 69.0 51.35 69.85 M115.9 94.8 Q117.0 94.2 118.35 93.85 L118.65 93.8 M115.9 94.8 Q110.25 97.75 110.1 106.5 L109.95 107.65 M109.5 108.7 Q108.55 110.2 105.95 110.1 M99.7 107.3 Q97.75 104.9 97.6 100.5 L97.7 97.75 97.85 96.7 M99.7 107.3 Q101.55 109.55 105.05 110.0 L105.95 110.1 M109.5 108.7 L109.95 107.65 M98.5 96.0 L98.0 96.0" fill="none" stroke="#e06d6d" stroke-linecap="round" stroke-linejoin="round" stroke-width="3.0"/>
  </g>
</svg>
